<?xml version="1.0" encoding="UTF-8" standalone="no"?>
<!DOCTYPE svg PUBLIC "-//W3C//DTD SVG 1.1//EN" "http://www.w3.org/Graphics/SVG/1.1/DTD/svg11.dtd">
<svg width="100%" height="100%" viewBox="0 0 80 80" version="1.1" xmlns="http://www.w3.org/2000/svg" xmlns:xlink="http://www.w3.org/1999/xlink" xml:space="preserve" xmlns:serif="http://www.serif.com/" style="fill-rule:evenodd;clip-rule:evenodd;stroke-linejoin:round;stroke-miterlimit:2;">
    <g transform="matrix(1,0,0,1,0,-442.558)">
        <g id="Layer-1" serif:id="Layer 1">
        </g>
        <g id="Layer-11" serif:id="Layer 1">
        </g>
        <g id="Layer-12" serif:id="Layer 1">
        </g>
        <g id="Layer-13" serif:id="Layer 1">
        </g>
        <g id="home" transform="matrix(1,0,0,1,-115,442.558)">
            <rect x="115" y="0" width="80" height="80" style="fill:none;"/>
            <clipPath id="_clip1">
                <rect x="115" y="0" width="80" height="80"/>
            </clipPath>
            <g clip-path="url(#_clip1)">
                <g transform="matrix(1,0,0,1,115,-181.217)">
                    <path d="M80,181.217L80,261.217L0,261.217L0,181.217L80,181.217ZM79,182.217C79,182.217 1,182.217 1,182.217C1,182.217 1,260.217 1,260.217C1,260.217 79,260.217 79,260.217L79,182.217Z" style="fill:rgb(108,108,108);"/>
                </g>
                <g transform="matrix(0.482384,0,0,0.737811,150.128,-312.38)">
                    <path d="M-46.576,467.741L-43.495,467.741L-43.495,476.345L-26.473,476.345L-26.473,467.741L-23.392,467.741L-23.392,487.464L-26.473,487.464L-26.473,478.005L-43.495,478.005L-43.495,487.464L-46.576,487.464L-46.576,467.741Z" style="fill:rgb(108,108,108);fill-rule:nonzero;"/>
                    <path d="M-5.58,487.791C-9.161,487.791 -12.294,486.902 -14.98,485.124C-17.929,483.196 -19.403,480.705 -19.403,477.653C-19.403,474.734 -18.021,472.269 -15.256,470.257C-12.57,468.361 -9.384,467.414 -5.698,467.414C-1.959,467.414 1.253,468.345 3.939,470.206C6.704,472.169 8.086,474.642 8.086,477.628C8.086,480.73 6.585,483.246 3.583,485.174C0.924,486.919 -2.13,487.791 -5.58,487.791ZM-5.817,485.929C-2.894,485.929 -0.406,485.149 1.648,483.59C3.728,481.996 4.768,480.009 4.768,477.628C4.768,476.47 4.518,475.397 4.018,474.407C3.518,473.418 2.767,472.521 1.767,471.716C-0.234,470.089 -2.71,469.276 -5.659,469.276C-8.581,469.276 -11.056,470.089 -13.084,471.716C-15.085,473.309 -16.085,475.296 -16.085,477.678C-16.085,480.16 -15.032,482.181 -12.926,483.741C-10.951,485.2 -8.581,485.929 -5.817,485.929Z" style="fill:rgb(108,108,108);fill-rule:nonzero;"/>
                    <path d="M11.443,487.464L11.443,467.741L15.511,467.741L27.518,484.068L39.92,467.741L43.751,467.741L43.751,487.464L40.946,487.464L40.946,470.332L28.189,487.464L26.846,487.464L14.287,470.357L14.287,487.464L11.443,487.464Z" style="fill:rgb(108,108,108);fill-rule:nonzero;"/>
                    <path d="M47.384,467.716L66.658,467.716L66.658,469.452L50.504,469.452L50.504,476.269L66.066,476.269L66.066,478.005L50.504,478.005L50.504,485.728L66.777,485.728L66.777,487.464L47.384,487.464L47.384,467.716Z" style="fill:rgb(108,108,108);fill-rule:nonzero;"/>
                </g>
            </g>
        </g>
    </g>
</svg>
