<?xml version="1.0" encoding="UTF-8" standalone="no"?>
<!DOCTYPE svg PUBLIC "-//W3C//DTD SVG 1.1//EN" "http://www.w3.org/Graphics/SVG/1.1/DTD/svg11.dtd">
<svg width="100%" height="100%" viewBox="0 0 80 80" version="1.1" xmlns="http://www.w3.org/2000/svg" xmlns:xlink="http://www.w3.org/1999/xlink" xml:space="preserve" xmlns:serif="http://www.serif.com/" style="fill-rule:evenodd;clip-rule:evenodd;stroke-linejoin:round;stroke-miterlimit:2;">
    <g transform="matrix(1,0,0,1,0,-545.152)">
        <g id="Layer-1" serif:id="Layer 1">
        </g>
        <g id="Layer-11" serif:id="Layer 1">
        </g>
        <g id="Layer-12" serif:id="Layer 1">
        </g>
        <g id="Layer-13" serif:id="Layer 1">
        </g>
        <g id="home" transform="matrix(1,0,0,1,-115,545.152)">
            <rect x="115" y="0" width="80" height="80" style="fill:none;"/>
            <g transform="matrix(1,0,0,1,115,-181.217)">
                <path d="M80,181.217L80,261.217L0,261.217L0,181.217L80,181.217ZM79,182.217C79,182.217 1,182.217 1,182.217C1,182.217 1,260.217 1,260.217C1,260.217 79,260.217 79,260.217L79,182.217Z" style="fill:rgb(108,108,108);"/>
            </g>
            <g transform="matrix(0.548679,0,0,0.839211,149.458,-360.809)">
                <path d="M-35.814,487.464L-35.814,467.741L-31.745,467.741L-19.739,484.068L-7.337,467.741L-3.506,467.741L-3.506,487.464L-6.31,487.464L-6.31,470.332L-19.067,487.464L-20.41,487.464L-32.97,470.357L-32.97,487.464L-35.814,487.464Z" style="fill:rgb(108,108,108);fill-rule:nonzero;"/>
                <path d="M11.265,467.741L14.307,467.741L25.839,487.464L22.206,487.464L18.493,480.722L6.723,480.722L2.853,487.464L-0.583,487.464L11.265,467.741ZM17.624,478.986L12.845,470.106L7.671,478.986L17.624,478.986Z" style="fill:rgb(108,108,108);fill-rule:nonzero;"/>
                <rect x="29.749" y="467.741" width="3.081" height="19.723" style="fill:rgb(108,108,108);fill-rule:nonzero;"/>
                <path d="M37.609,467.741L40.729,467.741L40.729,485.728L56.014,485.728L56.014,487.464L37.609,487.464L37.609,467.741Z" style="fill:rgb(108,108,108);fill-rule:nonzero;"/>
            </g>
        </g>
    </g>
</svg>
