<?xml version="1.0" encoding="UTF-8" standalone="no"?>
<!DOCTYPE svg PUBLIC "-//W3C//DTD SVG 1.1//EN" "http://www.w3.org/Graphics/SVG/1.1/DTD/svg11.dtd">
<svg width="100%" height="100%" viewBox="0 0 591 591" version="1.1" xmlns="http://www.w3.org/2000/svg" xmlns:xlink="http://www.w3.org/1999/xlink" xml:space="preserve" xmlns:serif="http://www.serif.com/" style="fill-rule:evenodd;clip-rule:evenodd;stroke-linejoin:round;stroke-miterlimit:2;">
    <g transform="matrix(1,0,0,1,-8865.02,-871.082)">
        <g id="Artboard1" transform="matrix(0.16835,0,0,0.119048,8865.02,871.082)">
            <rect x="0" y="0" width="3507.87" height="4960.63" style="fill:none;"/>
            <g transform="matrix(123.244,0,0,174.285,2956.7,2596.71)">
                <path d="M0,-2.207C0.017,-1.041 -0.313,0.085 -0.653,1.146C-0.986,2.186 -1.481,3.256 -2.505,3.935C-3.215,4.406 -3.564,5.239 -4.183,5.827C-4.618,6.239 -5.083,6.587 -5.584,6.892C-5.928,7.1 -6.304,7.099 -6.595,6.779C-6.878,6.468 -6.883,6.087 -6.66,5.756C-6.251,5.148 -5.937,4.442 -5.292,4.039C-4.694,3.665 -4.708,3.047 -4.585,2.493C-4.52,2.195 -4.718,1.934 -5.01,1.783C-5.439,1.561 -5.88,1.413 -6.373,1.369C-7.197,1.296 -7.967,1.079 -8.464,0.318C-8.671,0.002 -9.013,-0.178 -9.332,-0.355C-10.12,-0.793 -10.341,-1.501 -10.256,-2.317C-10.169,-3.162 -10.102,-3.995 -10.148,-4.85C-10.188,-5.581 -10.023,-6.308 -9.528,-6.926C-9.255,-7.267 -9.076,-7.683 -8.845,-8.06C-8.58,-8.491 -8.217,-8.659 -7.718,-8.465C-7.23,-8.275 -7.024,-7.957 -7.173,-7.427C-7.311,-6.935 -7.259,-6.386 -7.584,-5.949C-8.554,-4.645 -7.839,-3.492 -7.216,-2.377C-6.746,-1.535 -6.02,-1.019 -4.958,-1.094C-4.274,-1.143 -3.698,-1.379 -3.403,-1.971C-3.01,-2.758 -2.718,-3.68 -2.82,-4.506C-2.942,-5.489 -3.228,-6.538 -4.067,-7.269C-4.373,-7.535 -4.667,-7.823 -4.719,-8.263C-4.753,-8.553 -4.868,-8.869 -4.59,-9.089C-4.315,-9.307 -4,-9.196 -3.767,-9.022C-3.229,-8.62 -2.549,-8.452 -2.038,-8.069C-1.334,-7.543 -0.883,-6.736 -0.591,-5.894C-0.178,-4.704 -0.11,-3.45 0,-2.207" style="fill:rgb(71,71,71);fill-rule:nonzero;"/>
            </g>
            <g transform="matrix(123.244,0,0,174.285,588.094,1364.12)">
                <path d="M0,12.942C-0.009,12.347 -0.071,11.865 0.087,11.399C0.327,10.694 0.37,10.036 0.183,9.261C0.003,8.519 0.163,7.642 0.365,6.874C0.572,6.087 0.555,5.298 0.369,4.589C0.118,3.635 0.155,2.751 0.525,1.901C0.786,1.301 0.607,0.944 0.216,0.538C-0.467,-0.171 -0.466,-0.382 0.182,-1.093C0.682,-1.642 1.299,-2.054 1.932,-2.427C2.435,-2.724 2.883,-2.545 3.053,-1.984C3.168,-1.605 3.347,-1.22 3.271,-0.801C3.057,0.367 3.217,1.544 3.177,2.712C3.138,3.858 3.116,4.976 3.379,6.094C3.412,6.232 3.396,6.394 3.357,6.532C2.992,7.798 3.008,9.068 3.262,10.353C3.324,10.669 3.342,11.046 3.228,11.335C2.872,12.234 3.172,12.976 3.632,13.728C3.985,14.304 3.919,14.542 3.42,14.936C2.494,15.666 0.927,15.464 0.271,14.533C-0.099,14.007 0.077,13.396 0,12.942" style="fill:rgb(71,71,71);fill-rule:nonzero;"/>
            </g>
        </g>
    </g>
</svg>
