<?xml version="1.0" encoding="UTF-8" standalone="no"?>
<!DOCTYPE svg PUBLIC "-//W3C//DTD SVG 1.1//EN" "http://www.w3.org/Graphics/SVG/1.1/DTD/svg11.dtd">
<svg width="100%" height="100%" viewBox="0 0 1182 1182" version="1.1" xmlns="http://www.w3.org/2000/svg" xmlns:xlink="http://www.w3.org/1999/xlink" xml:space="preserve" xmlns:serif="http://www.serif.com/" style="fill-rule:evenodd;clip-rule:evenodd;stroke-linejoin:round;stroke-miterlimit:2;">
    <g transform="matrix(1,0,0,1,-4537.76,0)">
        <g id="Artboard1" transform="matrix(1,0,0,1,4537.76,0)">
            <rect x="0" y="0" width="1181.1" height="1181.1" style="fill:none;"/>
            <g transform="matrix(5.81236,0,0,5.81236,199.182,243.226)">
                <g transform="matrix(1,0,0,1,129.647,71.4116)">
                    <path d="M0,-23.151C0.323,-24.364 0.652,-25.343 0.836,-26.349C1.162,-28.133 0.767,-28.586 -1.029,-28.927C-3.058,-29.313 -5.071,-29.772 -7.093,-30.194C-7.714,-30.324 -8.342,-30.426 -8.962,-30.563C-11.201,-31.053 -13.438,-31.55 -15.676,-32.05C-16.453,-32.224 -17.233,-32.595 -17.999,-32.564C-20.053,-32.482 -21.935,-33.067 -23.825,-33.722C-24.728,-34.035 -25.651,-34.312 -26.587,-34.487C-27.004,-34.566 -27.607,-34.504 -27.897,-34.248C-28.936,-33.33 -28.165,-30.105 -26.81,-29.781C-25.535,-29.476 -24.238,-29.08 -23.021,-30.27C-22.417,-30.862 -21.389,-30.948 -20.618,-30.196C-19.875,-29.471 -20.274,-28.728 -20.64,-28.006C-22.198,-24.926 -22.447,-21.592 -22.537,-18.23C-22.585,-16.423 -22.886,-15.979 -24.566,-16.119C-26.385,-16.27 -28.187,-16.649 -29.987,-16.976C-30.83,-17.129 -31.653,-17.392 -32.801,-17.686C-33.396,-16.085 -33.926,-14.655 -34.577,-12.901C-30.951,-11.535 -27.681,-10.102 -24.283,-9.101C-22.332,-8.526 -20.171,-8.682 -18.11,-8.457C-15.735,-8.197 -13.325,-8.063 -11.006,-7.541C-8.374,-6.948 -5.821,-6.001 -3.245,-5.174C-2.36,-4.89 -1.658,-4.97 -1.264,-5.894C-0.512,-7.651 0.266,-9.4 0.91,-11.196C1.054,-11.595 0.784,-12.553 0.543,-12.614C-1.767,-13.197 -3.949,-15.466 -6.546,-13.213C-6.905,-12.901 -7.885,-12.881 -8.283,-13.155C-8.674,-13.424 -8.763,-14.23 -8.842,-14.818C-8.891,-15.186 -8.665,-15.586 -8.581,-15.975C-8.177,-17.841 -7.704,-19.696 -7.399,-21.579C-7.043,-23.777 -6.407,-24.321 -4.196,-23.933C-3.651,-23.838 -3.138,-23.562 -2.593,-23.466C-1.76,-23.319 -0.912,-23.257 0,-23.151M-89.136,-18.756C-88.512,-18.388 -88.134,-18.041 -87.695,-17.927C-83.606,-16.866 -79.509,-15.835 -75.406,-14.828C-75.043,-14.738 -74.551,-14.755 -74.242,-14.934C-72.922,-15.705 -72.047,-15.152 -71.132,-14.171C-70.017,-12.973 -68.602,-12.253 -66.93,-12.123C-64.312,-11.918 -61.693,-11.721 -59.078,-11.486C-58.138,-11.402 -57.416,-11.584 -56.785,-12.395C-55.139,-14.512 -55.639,-16.89 -55.875,-19.223C-55.904,-19.512 -56.539,-19.861 -56.949,-19.968C-58.026,-20.248 -59.141,-20.378 -60.227,-20.628C-61.121,-20.834 -61.434,-21.443 -60.946,-22.235C-60.157,-23.521 -59.469,-24.955 -58.393,-25.956C-57.018,-27.235 -56.394,-28.788 -55.819,-30.448C-55.611,-31.047 -55.285,-31.609 -55.115,-32.217C-54.739,-33.56 -53.815,-33.933 -52.555,-33.785C-50.653,-33.562 -48.757,-33.286 -46.851,-33.137C-46.29,-33.094 -45.523,-33.227 -45.158,-33.589C-43.648,-35.082 -44.562,-37.822 -46.588,-38.405C-50.411,-39.507 -54.357,-40.371 -57.97,-41.973C-62.964,-44.19 -68.124,-45.724 -73.359,-47.149C-75.513,-47.735 -75.817,-47.265 -76.512,-45.437C-76.71,-44.917 -76.84,-44.367 -76.959,-43.821C-77.419,-41.716 -77.179,-41.317 -75.095,-40.881C-74.082,-40.67 -73.045,-40.581 -72.027,-40.395C-71.122,-40.229 -70.227,-40.005 -69.212,-39.782C-69.377,-39.057 -69.408,-38.573 -69.595,-38.16C-71.653,-33.59 -73.72,-29.024 -75.823,-24.475C-76.418,-23.19 -77.084,-23.047 -78.556,-23.437C-80.479,-23.947 -82.427,-24.376 -84.377,-24.781C-85.273,-24.967 -86.14,-24.872 -86.617,-23.892C-87.417,-22.254 -88.223,-20.618 -89.136,-18.756M-58.984,-71.411C-59.384,-70.413 -59.749,-69.501 -60.237,-68.28C-58.878,-67.692 -57.699,-67.075 -56.451,-66.671C-55.276,-66.29 -53.868,-66.804 -52.696,-65.666C-54.253,-62.779 -55.877,-59.889 -57.376,-56.935C-58.052,-55.604 -58.585,-54.177 -58.99,-52.739C-59.5,-50.928 -60.079,-50.502 -61.912,-51.043C-64.506,-51.809 -67.072,-52.682 -69.69,-53.35C-72.154,-53.979 -72.183,-53.89 -73.459,-51.679C-73.731,-51.206 -73.955,-50.705 -74.338,-49.948C-73.279,-49.404 -72.368,-48.677 -71.348,-48.452C-65.151,-47.087 -59.354,-44.601 -53.543,-42.179C-50.243,-40.803 -46.726,-40.568 -43.324,-39.745C-42.5,-39.546 -41.685,-39.311 -40.667,-39.04C-41.277,-36.346 -41.818,-33.867 -42.408,-31.4C-42.664,-30.329 -43.497,-30.027 -44.45,-30.281C-45.367,-30.526 -46.231,-30.968 -47.127,-31.302C-47.942,-31.606 -48.76,-31.912 -49.594,-32.159C-51.301,-32.664 -52.459,-32.027 -53.39,-30.517C-54.841,-28.162 -54.908,-28.203 -55.263,-26.169C-53.315,-25.692 -51.363,-24.995 -49.358,-24.767C-44.562,-24.221 -40.046,-22.634 -35.455,-21.318C-33.161,-20.661 -30.907,-19.861 -28.609,-19.223C-27.952,-19.041 -27.203,-19.195 -26.472,-19.195C-25.039,-21.755 -24.685,-24.498 -24.435,-27.339C-25.625,-28.239 -26.976,-28.207 -28.321,-28.156C-28.878,-28.135 -29.434,-27.969 -29.986,-27.987C-31.922,-28.047 -32.487,-28.852 -32.137,-30.785C-31.839,-32.426 -31.738,-34.108 -31.371,-35.732C-30.916,-37.746 -30.276,-39.718 -29.717,-41.71C-29.378,-42.919 -28.475,-43.287 -27.34,-43.296C-26.061,-43.307 -24.781,-43.309 -23.502,-43.31C-19.935,-43.311 -19.929,-43.308 -18.827,-46.601C-18.375,-47.954 -17.959,-49.318 -17.506,-50.74C-18.063,-51.154 -18.469,-51.533 -18.939,-51.793C-20.616,-52.717 -22.284,-53.667 -24.017,-54.476C-25.008,-54.938 -26.112,-55.16 -27.174,-55.463C-29.012,-55.987 -30.841,-56.55 -32.699,-56.986C-34.553,-57.421 -36.425,-57.859 -38.313,-58.039C-40.319,-58.23 -40.577,-57.819 -41.044,-55.895C-41.532,-53.881 -42.195,-51.91 -42.771,-49.917C-42.878,-49.543 -42.93,-49.153 -43.021,-48.708C-40.851,-46.848 -38.272,-46.577 -35.227,-46.688C-35.52,-45.716 -35.561,-44.883 -35.976,-44.334C-37.266,-42.627 -37.551,-40.2 -39.985,-38.684C-40.13,-41.29 -37.95,-42.609 -37.875,-44.941C-40.229,-45.779 -42.692,-46.657 -45.245,-47.566C-45.021,-48.224 -44.907,-48.771 -44.66,-49.25C-43.328,-51.842 -42.53,-54.59 -42.349,-57.49C-42.268,-58.795 -41.383,-59.173 -40.442,-59.212C-38.539,-59.291 -36.608,-59.293 -34.723,-59.059C-32.335,-58.763 -32.284,-58.675 -31.244,-60.861C-30.626,-62.16 -30.071,-63.492 -29.409,-64.768C-29.021,-65.52 -28.557,-66.325 -27.35,-66.015C-27.135,-64.766 -27.842,-63.875 -28.289,-62.878C-28.837,-61.656 -29.305,-60.382 -29.647,-59.089C-29.896,-58.151 -29.331,-57.472 -28.371,-57.48C-25.554,-57.5 -23.426,-56.109 -21.225,-54.541C-19.567,-53.359 -17.494,-52.764 -15.617,-51.885C-14.986,-51.59 -14.388,-51.226 -13.97,-51C-14.661,-48.867 -15.326,-46.928 -15.899,-44.962C-16.02,-44.548 -15.836,-44.031 -15.739,-43.572C-15.406,-41.984 -15.745,-41.363 -17.364,-41.113C-18.461,-40.944 -19.593,-40.984 -20.709,-40.97C-21.907,-40.955 -23.11,-41.054 -24.303,-40.98C-26.045,-40.873 -27.456,-39.165 -27.073,-37.531C-26.963,-37.06 -26.287,-36.518 -25.771,-36.381C-24.08,-35.932 -22.344,-35.651 -20.625,-35.31C-18.68,-34.923 -16.738,-34.52 -14.787,-34.165C-13.69,-33.965 -12.567,-33.9 -11.475,-33.683C-9.682,-33.326 -7.915,-32.827 -6.116,-32.51C-3.214,-31.999 -0.296,-31.57 2.62,-31.139C5.067,-30.778 5.41,-30.155 4.684,-27.796C4.098,-25.891 3.691,-23.931 3.216,-21.993C2.741,-20.059 2.135,-19.78 0.357,-20.555C-0.929,-21.115 -2.264,-21.563 -3.623,-22.078C-4.771,-19.982 -4.969,-18.082 -4.8,-16.263C-1.643,-15.233 1.284,-14.278 4.542,-13.216C3.689,-11.162 2.94,-9.454 2.274,-7.713C1.936,-6.829 1.682,-5.9 1.501,-4.969C1.079,-2.805 -0.59,-1.673 -2.711,-2.29C-5.234,-3.025 -7.73,-3.852 -10.238,-4.64C-13.755,-5.745 -17.305,-6.592 -21.042,-6.457C-22.55,-6.402 -24.095,-6.489 -25.574,-6.767C-26.872,-7.011 -28.119,-7.573 -29.36,-8.065C-31.213,-8.799 -32.996,-9.74 -34.891,-10.327C-37.02,-10.986 -37.916,-11.886 -36.895,-14.705C-36.677,-15.304 -36.377,-15.872 -36.147,-16.468C-35.521,-18.101 -35.74,-18.778 -37.392,-19.109C-41.216,-19.877 -44.716,-21.776 -48.675,-22.118C-50.954,-22.316 -53.185,-23.037 -55.451,-23.444C-56.014,-23.545 -56.631,-23.342 -57.629,-23.236C-57.092,-22.609 -56.884,-22.144 -56.545,-22.01C-55.211,-21.485 -53.837,-21.056 -52.474,-20.606C-51.45,-20.269 -51.091,-19.524 -51.325,-18.547C-51.716,-16.921 -52.186,-15.313 -52.644,-13.703C-52.796,-13.167 -53.054,-12.659 -53.19,-12.12C-53.603,-10.502 -53.359,-10.059 -51.729,-9.839C-46.404,-9.121 -41.25,-7.832 -36.278,-5.739C-34.455,-4.972 -32.453,-4.622 -30.52,-4.13C-28.073,-3.506 -27.265,-2.502 -28.04,0.003C-28.578,1.737 -28.774,3.578 -29.114,5.373C-29.355,6.65 -29.79,6.925 -31.094,6.825C-33.391,6.647 -35.693,6.541 -37.993,6.401C-39.182,6.329 -39.926,6.767 -40.298,7.993C-40.828,9.736 -41.521,11.43 -42.228,13.375C-41.509,13.661 -40.953,13.878 -40.401,14.102C-39.668,14.4 -38.928,14.682 -38.207,15.009C-37.256,15.44 -37.191,16.104 -37.701,16.958C-38.396,18.123 -39.15,19.271 -39.686,20.51C-41.17,23.944 -42.4,27.454 -42.503,31.269C-42.537,32.56 -44.176,33.104 -45.757,32.503C-47.16,31.969 -48.592,31.505 -50.021,31.045C-50.788,30.799 -51.268,31.207 -51.464,31.907C-52.284,34.816 -53.075,37.733 -53.902,40.74C-51.35,42.188 -48.096,41.514 -45.748,43.73C-46.94,45.331 -48.071,46.849 -49.824,47.672C-50.383,47.933 -51.157,47.731 -51.833,47.741C-51.801,47.164 -51.885,46.55 -51.713,46.018C-51.181,44.37 -51.292,44.125 -53.039,43.827C-54.218,43.625 -55.424,43.527 -56.575,43.223C-57.342,43.019 -58.033,42.534 -58.604,42.251C-57.136,37.826 -55.761,33.768 -54.455,29.688C-54.153,28.745 -53.561,28.328 -52.693,28.445C-51.041,28.67 -49.377,28.919 -47.774,29.364C-46.659,29.673 -46.099,29.364 -45.757,28.362C-45.705,28.211 -45.656,28.057 -45.619,27.902C-44.405,22.732 -45.043,22.389 -49.496,22.14C-55.122,21.824 -60.557,20.834 -65.859,18.942C-69.308,17.712 -72.8,16.591 -76.31,15.549C-79.626,14.563 -81.46,15.968 -81.849,19.784C-79.194,20.521 -76.482,21.191 -73.696,21.251C-71.959,21.289 -70.861,22.008 -69.964,23.483C-72.295,26.167 -74.153,29.127 -75.466,32.399C-76.008,33.748 -76.962,33.979 -78.159,33.665C-79.856,33.219 -81.539,32.713 -83.208,32.17C-84.894,31.621 -85.014,31.603 -85.945,33.027C-86.855,34.418 -87.702,35.849 -88.553,37.224C-87.679,38.951 -86.128,39.206 -84.683,39.578C-83.139,39.974 -81.558,40.221 -80.015,40.62C-76.932,41.418 -73.887,42.377 -70.782,43.073C-68.698,43.539 -66.522,43.579 -64.418,43.971C-61.761,44.465 -59.123,45.081 -56.499,45.732C-55.693,45.932 -54.958,46.418 -54.189,46.772C-54.18,46.955 -54.169,47.139 -54.158,47.322C-54.664,47.567 -55.151,47.966 -55.679,48.029C-57.613,48.26 -59.476,47.917 -61.302,47.205C-62.478,46.747 -63.729,46.48 -64.952,46.15C-66.086,45.846 -67.227,45.569 -68.367,45.287C-68.827,45.174 -69.312,44.944 -69.754,45.002C-73.544,45.502 -76.951,44.099 -80.418,42.955C-81.17,42.707 -81.962,42.581 -82.732,42.389C-84.504,41.946 -86.298,41.573 -88.037,41.03C-90.004,40.416 -90.156,40.395 -91.329,42.206C-92.064,43.343 -92.744,44.515 -93.468,45.659C-93.538,45.771 -93.737,45.803 -93.877,45.871C-95.328,44.792 -95.581,44.188 -95.057,42.811C-94.243,40.672 -93.431,38.651 -91.631,36.942C-90.287,35.666 -89.806,33.481 -88.816,31.445C-90.188,31.031 -91.293,30.491 -92.438,30.39C-95.857,30.085 -99.291,29.877 -102.723,29.783C-104.731,29.727 -106.666,29.492 -108.629,29.021C-111.329,28.373 -114.105,28.034 -116.853,27.588C-118.427,27.332 -120.019,27.174 -121.585,26.881C-122.505,26.709 -123.391,26.36 -124.245,26.104C-124.062,21.892 -122.539,19.387 -119.57,18.592C-119.802,19.209 -119.948,19.699 -120.168,20.152C-120.412,20.653 -120.766,21.102 -121,21.607C-122.354,24.535 -121.819,25.316 -118.63,25.717C-114.833,26.193 -111.063,26.883 -107.277,27.456C-106.41,27.587 -105.53,27.653 -104.654,27.697C-96.749,28.093 -88.868,28.644 -81.24,31.016C-79.724,31.487 -79.138,31.261 -78.469,29.952C-77.56,28.176 -76.71,26.367 -75.914,24.538C-75.419,23.402 -75.685,22.904 -76.966,22.749C-79.344,22.464 -81.737,22.302 -84.127,22.115C-86.076,21.961 -86.24,21.909 -87.898,20.52C-87.277,19.65 -86.657,18.793 -86.049,17.926C-85.637,17.338 -85.263,16.723 -84.839,16.144C-82.77,13.316 -80.591,10.561 -78.653,7.647C-77.653,6.144 -76.501,5.733 -74.822,5.916C-72.203,6.201 -69.566,6.317 -66.94,6.545C-65.646,6.658 -64.702,6.346 -63.898,5.177C-62.926,3.762 -61.667,2.543 -60.387,1.072C-61.065,0.664 -61.421,0.308 -61.832,0.227C-64.726,-0.348 -67.634,-0.853 -70.532,-1.406C-76.008,-2.452 -81.472,-3.559 -86.956,-4.554C-89.467,-5.01 -92.01,-5.31 -94.55,-5.571C-95.204,-5.638 -96.079,-5.495 -96.55,-5.093C-98.61,-3.33 -100.582,-1.459 -102.532,0.429C-102.956,0.838 -103.161,1.475 -103.66,2.343C-102.813,2.516 -102.253,2.716 -101.689,2.73C-99.933,2.773 -98.174,2.733 -96.416,2.75C-95.617,2.758 -94.813,2.78 -94.022,2.877C-93.146,2.984 -92.144,3.12 -92.093,4.265C-92.041,5.43 -93.088,5.418 -93.886,5.786C-96.118,6.816 -98.358,7.886 -100.422,9.21C-102.698,10.672 -104.789,12.422 -106.941,14.073C-107.376,14.406 -107.911,14.79 -108.07,15.262C-108.514,16.574 -109.401,16.69 -110.536,16.471C-112.546,16.083 -114.47,15.342 -116.646,16.079C-117.432,16.346 -118.604,15.473 -119.6,15.12C-119.588,14.925 -119.577,14.73 -119.564,14.535C-119.021,14.355 -118.483,14.045 -117.932,14.021C-116.499,13.959 -115.04,13.878 -113.628,14.072C-111.795,14.324 -110.548,13.717 -109.616,12.03C-111.307,9.94 -112.975,7.883 -115.297,6.371C-117.537,4.914 -119.837,3.756 -122.463,3.191C-123.247,3.022 -123.935,2.404 -124.632,2.012C-124.227,0.596 -123.295,0.533 -122.456,0.846C-120.449,1.594 -118.381,2.294 -116.555,3.379C-114.235,4.756 -112.046,6.391 -109.955,8.105C-107.979,9.725 -106.08,10.244 -103.976,8.907C-102.484,7.959 -101.258,6.596 -99.658,5.195C-102.423,4.335 -105.206,5.337 -107.38,3.387C-105.498,0.784 -103.325,-1.389 -101.008,-3.442C-100.059,-4.283 -98.959,-5.12 -98.404,-6.203C-97.446,-8.073 -95.976,-8.07 -94.356,-7.797C-91.84,-7.373 -89.34,-6.844 -86.833,-6.364C-83.86,-5.795 -80.891,-5.208 -77.912,-4.668C-73.988,-3.957 -70.06,-3.272 -66.128,-2.599C-63.455,-2.142 -60.779,-1.699 -58.097,-1.303C-56.283,-1.035 -56.063,-0.927 -54.952,0.944C-57.426,3.56 -59.923,6.203 -62.762,9.207C-63.754,9.13 -65.254,9.038 -66.749,8.891C-68.651,8.704 -70.546,8.403 -72.452,8.281C-74.483,8.151 -76.942,10.291 -77.058,12.28C-77.082,12.689 -76.636,13.212 -76.272,13.529C-76.005,13.761 -75.522,13.806 -75.131,13.826C-71.39,14.021 -68.067,15.725 -64.584,16.81C-60.588,18.056 -56.558,18.828 -52.384,19.099C-49.606,19.28 -46.854,19.832 -44.09,20.216C-43.705,20.269 -43.318,20.31 -42.744,20.381C-42.271,19.394 -41.808,18.427 -41.197,17.152C-42.199,16.858 -42.933,16.659 -43.656,16.429C-45.438,15.863 -46.005,14.796 -45.102,13.17C-44.115,11.395 -43.57,9.523 -43.07,7.579C-42.375,4.879 -41.546,4.422 -38.767,4.493C-36.715,4.545 -34.661,4.503 -32.522,4.503C-32.076,2.547 -31.69,0.855 -31.286,-0.916C-31.986,-1.342 -32.479,-1.77 -33.05,-1.968C-37.041,-3.349 -41.048,-4.683 -45.052,-6.029C-45.43,-6.156 -45.811,-6.278 -46.197,-6.371C-50.694,-7.454 -55.185,-8.56 -59.692,-9.594C-61.436,-9.993 -63.091,-10.562 -64.974,-9.433C-66.277,-8.651 -67.992,-8.811 -69.441,-10.002C-71.205,-11.451 -73.148,-12.683 -75.162,-14.114C-76.122,-12.311 -77.629,-12.659 -79.325,-13.222C-81.053,-13.796 -82.864,-14.135 -84.655,-14.497C-91.47,-15.874 -98.031,-18.124 -104.64,-20.218C-106.918,-20.94 -109.253,-21.478 -111.546,-22.154C-113.547,-22.744 -113.54,-22.78 -114.667,-21.148C-114.847,-20.887 -114.985,-20.597 -115.202,-20.216C-114.27,-18.693 -112.806,-17.766 -111.332,-16.857C-110.585,-16.396 -109.753,-16.052 -109.069,-15.515C-108.129,-14.776 -108.054,-13.771 -109.022,-13.092C-111.345,-11.465 -112.646,-9.22 -113.818,-6.697C-114.861,-4.452 -116.522,-2.495 -117.911,-0.411C-118.063,-0.484 -118.215,-0.558 -118.368,-0.631C-117.396,-2.917 -116.509,-5.244 -115.429,-7.477C-114.325,-9.759 -113.032,-11.948 -111.691,-14.417C-112.915,-15.448 -114.172,-16.516 -115.438,-17.574C-115.989,-18.034 -116.61,-18.425 -117.103,-18.939C-117.786,-19.651 -117.95,-20.416 -117.163,-21.252C-116.291,-22.177 -115.485,-23.168 -114.692,-24.165C-113.902,-25.157 -113.058,-25.431 -111.771,-25.001C-106.933,-23.383 -102.054,-21.891 -97.193,-20.342C-96.131,-20.003 -95.095,-19.581 -94.024,-19.273C-91.504,-18.549 -90.732,-18.919 -90.067,-20.614C-89.552,-21.929 -88.885,-23.197 -88.494,-24.547C-87.97,-26.353 -87.001,-27.052 -85.165,-26.675C-83.445,-26.321 -81.727,-25.961 -79.998,-25.654C-78.259,-25.345 -77.809,-25.483 -77.062,-26.98C-75.535,-30.042 -74.035,-33.122 -72.69,-36.266C-71.798,-38.352 -72.215,-38.946 -74.454,-39.358C-75.629,-39.574 -76.828,-39.66 -78.016,-39.814C-79.915,-40.059 -80.161,-40.667 -79.32,-42.311C-78.453,-44.007 -77.515,-45.743 -77.104,-47.573C-76.729,-49.249 -75.881,-50.46 -74.854,-51.692C-74.31,-52.343 -73.72,-53.07 -73.507,-53.859C-73.153,-55.171 -72.438,-55.55 -71.222,-55.27C-68.889,-54.732 -66.558,-54.186 -64.229,-53.636C-63.53,-53.472 -62.845,-53.195 -62.141,-53.144C-61.728,-53.113 -61.092,-53.296 -60.893,-53.601C-58.756,-56.883 -56.893,-60.308 -55.814,-64.104C-55.757,-64.307 -55.885,-64.563 -55.964,-65.003C-58.11,-65.579 -60.32,-66.172 -62.515,-66.76C-62.208,-68.479 -60.411,-70.876 -58.984,-71.411" style="fill:rgb(70,70,70);fill-rule:nonzero;"/>
                </g>
                <g transform="matrix(1,0,0,1,5.9271,29.7385)">
                    <path d="M0,-19.975C-1.648,-19.559 -2.865,-18.564 -3.922,-17.376C-4.204,-17.06 -4.445,-16.433 -4.324,-16.079C-3.439,-13.501 -2.911,-10.876 -2.962,-8.143C-2.964,-8.07 -2.889,-8 -2.872,-7.923C-2.513,-6.303 -2.141,-4.684 -1.804,-3.059C-1.48,-1.498 -1.24,0.081 -0.865,1.629C-0.742,2.135 -0.422,2.758 -0.003,2.999C1.471,3.847 3.155,4.52 4.77,3.777C6.28,3.082 6.527,1.434 6.564,-0.125C6.577,-0.681 6.461,-1.24 6.46,-1.797C6.459,-2.414 6.522,-3.032 6.564,-3.778C8.928,-4.413 11.211,-4.561 13.528,-4.507C16.158,-4.446 18.803,-4.268 21.416,-4.468C23.363,-4.616 25.395,-5.006 27.165,-5.79C29.456,-6.805 30.096,-6.856 31.393,-4.788C32.171,-3.547 32.578,-3.432 33.896,-4.118C34.249,-4.301 34.572,-4.542 34.913,-4.748C36.834,-5.907 37.183,-6.9 36.25,-8.864C35.297,-10.872 34.219,-12.823 33.314,-14.852C32.409,-16.882 31.646,-18.975 30.832,-21.046C30.577,-21.697 30.361,-22.365 30.088,-23.137C27.082,-23.103 24.16,-23.204 21.226,-21.569C21.82,-20.628 22.393,-19.723 22.962,-18.815C22.083,-17.083 22.084,-17.121 20.569,-17.157C14.185,-17.309 7.798,-17.474 1.611,-15.413C1.171,-15.266 0.64,-15.393 -0.345,-15.393C1.279,-17.017 1.648,-18.386 0,-19.975M1.583,-22.418C2.371,-20.641 2.979,-19.268 3.679,-17.69C6.206,-18.095 8.682,-18.583 11.181,-18.865C13.683,-19.147 16.206,-19.223 19.047,-19.41C18.7,-21.156 18.42,-22.564 18.137,-23.992C20.667,-24.255 22.936,-24.465 25.196,-24.733C26.618,-24.902 28.024,-25.209 29.447,-25.363C31.635,-25.6 31.992,-25.237 32.446,-23.085C33.109,-19.943 34.39,-17.058 36.101,-14.325C37.78,-11.642 39.273,-8.841 40.941,-5.928C40.149,-5.35 39.507,-4.755 38.759,-4.361C36.98,-3.423 35.346,-2.354 34.015,-0.796C32.825,0.595 31.585,0.437 30.493,-1.063C30.354,-1.256 30.186,-1.459 30.134,-1.682C29.643,-3.809 28.249,-3.893 26.355,-3.745C21.433,-3.361 16.491,-3.201 11.555,-3.039C9.354,-2.968 9.257,-3.025 8.9,-0.913C8.743,0.02 8.638,1 8.751,1.928C8.904,3.19 8.34,3.879 7.326,4.401C4.952,5.622 2.394,5.625 -0.159,5.426C-0.658,5.388 -1.358,4.793 -1.532,4.3C-2.027,2.894 -2.55,1.418 -2.604,-0.048C-2.695,-2.548 -3.093,-4.917 -3.882,-7.303C-4.729,-9.862 -5.209,-12.544 -5.805,-15.183C-6.062,-16.324 -5.958,-17.52 -5.047,-18.305C-3.13,-19.958 -0.915,-21.156 1.583,-22.418" style="fill:rgb(70,70,70);fill-rule:nonzero;"/>
                </g>
            </g>
        </g>
    </g>
</svg>
