<?xml version="1.0" encoding="UTF-8" standalone="no"?>
<!DOCTYPE svg PUBLIC "-//W3C//DTD SVG 1.1//EN" "http://www.w3.org/Graphics/SVG/1.1/DTD/svg11.dtd">
<svg width="100%" height="100%" viewBox="0 0 1182 1182" version="1.1" xmlns="http://www.w3.org/2000/svg" xmlns:xlink="http://www.w3.org/1999/xlink" xml:space="preserve" xmlns:serif="http://www.serif.com/" style="fill-rule:evenodd;clip-rule:evenodd;stroke-linejoin:round;stroke-miterlimit:2;">
    <g transform="matrix(1,0,0,1,-3056.54,0)">
        <g id="Artboard1" transform="matrix(1,0,0,1,3056.54,0)">
            <rect x="0" y="0" width="1181.1" height="1181.1" style="fill:none;"/>
            <g transform="matrix(5.68504,0,0,5.68504,119.074,283.014)">
                <g transform="matrix(1,0,0,1,21.0802,50.4252)">
                    <path d="M0,48.647C0.918,47.496 2.004,47.257 3.242,47.794C5.656,48.842 8.076,49.191 10.706,48.547C11.681,48.308 12.847,48.852 13.831,49.022C14.26,51.09 14.26,51.09 13.271,52.69C14.289,52.768 15.218,52.882 16.15,52.902C18.079,52.942 19.885,53.363 21.744,53.957C24.263,54.763 26.806,54.673 29.317,53.168C31.996,51.562 33.76,49.083 36.041,47.118C37.671,45.713 39.313,44.319 41.008,42.994C42.627,41.729 43.744,40.459 42.831,38.14C42.467,37.217 42.667,35.876 43.052,34.901C43.649,33.388 43.461,32.103 42.704,30.792C41.713,29.079 40.708,27.375 39.73,25.705C40.241,24.458 41.141,24.331 42.128,24.75C43.779,25.45 45.39,26.246 47,26.993C47.648,25.051 46.908,23.761 44.841,23.536C42.059,23.232 39.313,22.994 36.621,24.2C33.128,25.766 30.481,27.901 30.385,32.112C30.375,32.5 30.339,33.019 30.098,33.248C27.691,35.526 25.559,38.283 22.03,38.864C20.661,39.09 19.568,39.69 18.747,40.619C16.414,43.256 13.651,45.343 10.754,47.292C8.573,45.83 8.542,44.668 10.411,42.51C12.384,40.232 14.853,38.72 17.554,37.519C18.791,36.969 19.903,36.304 20.598,34.788C18.28,34.387 16.192,34.309 14.081,34.802C12.995,35.056 11.894,35.352 10.79,35.398C4.734,35.652 -1.332,35.731 -7.381,36.085C-10.631,36.275 -13.856,36.892 -17.091,37.324C-17.846,37.425 -18.597,37.559 -19.58,37.713C-19.58,35.768 -19.633,34.117 -19.561,32.471C-19.513,31.363 -18.546,31.09 -17.691,30.914C-15.584,30.478 -13.475,29.965 -11.34,29.774C-6.648,29.352 -1.939,29.109 2.762,28.795C3.001,28.779 3.258,28.719 3.479,28.779C6.832,29.686 10.271,29.599 13.694,29.704C13.851,29.709 14.044,29.725 14.155,29.815C16.189,31.495 18.434,30.593 20.584,30.254C21.252,30.149 22.064,29.557 22.392,28.959C23.231,27.43 23.919,25.802 24.511,24.157C25.304,21.952 26.308,20.105 28.534,18.869C30.622,17.711 31.495,15.565 31.176,13.111C31.012,11.845 30.726,10.595 30.494,9.337C30.31,8.337 30.604,7.601 31.635,7.277C32.646,6.961 33.531,7.363 33.972,8.393C35.805,12.668 35.231,15.464 32.046,19.364C31.193,20.41 30.037,21.216 29.234,22.293C28.005,23.94 26.924,25.703 25.853,27.462C25.112,28.679 24.758,29.863 25.972,31.17C26.442,31.676 26.294,32.757 26.455,33.74C27.539,33.595 27.919,32.833 27.925,31.802C27.942,28.565 29.76,26.01 31.488,23.604C32.347,22.409 34.339,21.996 35.859,21.322C36.877,20.871 37.973,20.599 39.024,20.221C41.65,19.278 44.196,20.015 46.736,20.611C47.157,20.71 47.602,21.099 47.848,21.477C48.979,23.212 50.066,24.977 51.122,26.76C51.794,27.897 51.844,29.107 50.844,30.056C48.527,32.253 48.608,34.415 50.96,36.632C51.049,36.551 51.399,36.389 51.451,36.159C51.896,34.189 53.367,33.854 55.06,33.74C60.246,33.393 65.406,33.763 70.543,34.39C71.622,34.522 72.625,35.284 73.787,35.813C74.321,34.525 73.48,33.484 73.022,32.363C71.519,28.684 70.015,25.003 68.566,21.302C68.312,20.651 68.208,19.893 68.231,19.19C68.315,16.562 68.418,13.931 68.646,11.313C68.747,10.143 69.169,9.001 69.429,7.843C69.724,6.523 69.924,5.177 70.302,3.882C70.81,2.142 71.369,0.408 72.053,-1.269C72.713,-2.888 73.495,-4.466 74.345,-5.995C75.028,-7.225 75.894,-8.353 76.605,-9.417C78.977,-9.128 79.485,-8.013 78.655,-5.954C77.792,-3.813 76.776,-1.731 75.752,0.34C72.882,6.145 71.816,12.284 72.2,18.715C72.479,23.382 74.359,27.459 76.562,31.386C76.928,31.318 77.176,31.335 77.213,31.256C78.61,28.226 81.472,26.584 83.71,24.353C84.648,23.418 85.778,23.45 86.828,23.88C88.594,24.605 90.284,25.458 91.491,27.093C92.621,28.624 93.95,30.006 95.221,31.487C96.915,30.949 97.352,29.49 97.835,28.217C98.793,25.693 99.752,23.143 100.375,20.523C101.495,15.815 101.873,11.064 100.038,6.393C99.63,5.355 99.227,4.302 98.974,3.221C98.784,2.409 98.84,1.54 98.787,0.713C101.284,0.391 102.149,0.815 103.099,2.629C106.033,8.232 106.145,14.037 104.562,20.049C103.417,24.393 101.874,28.547 99.66,32.454C99.595,32.569 99.666,32.762 99.686,33.17C100.231,33.248 100.822,33.408 101.411,33.402C103.808,33.377 106.207,33.209 108.601,33.262C114.668,33.398 120.732,33.699 126.799,33.791C130.938,33.855 135.083,33.607 139.223,33.648C140.627,33.663 142.032,34.106 143.426,34.405C144.322,34.597 144.803,35.237 144.785,36.138C144.765,37.158 143.931,37.391 143.145,37.592C142.761,37.689 142.343,37.779 141.96,37.729C137.865,37.188 133.841,37.941 129.792,38.327C128.531,38.447 127.238,38.183 125.964,38.23C120.621,38.427 115.277,38.642 109.938,38.923C108.275,39.011 106.662,39.246 106.211,37.023C103.938,37.246 101.813,37.456 99.605,37.673C99.445,39.429 100.148,40.62 101.53,41.23C104.156,42.389 106.847,43.404 109.526,44.438C112.636,45.637 115.707,44.828 118.697,43.992C120.583,43.465 122.119,43.718 123.644,44.848C124.441,45.439 124.803,46.119 124.575,47.205C122.735,47.767 120.771,48.151 118.993,48.952C114.336,51.051 109.54,50.219 104.85,49.588C100.197,48.963 95.619,47.79 90.883,47.737C89.925,47.726 88.959,47.655 88.017,47.496C87.405,47.392 86.676,47.227 86.276,46.819C85.772,46.304 85.55,45.514 85.207,44.842C85.82,44.574 86.441,44.058 87.045,44.079C89.754,44.171 92.457,44.429 95.164,44.594C95.746,44.63 96.336,44.533 97.338,44.471C93.892,38.293 91.557,31.895 86.039,27.535C82.606,29.373 81.075,31.995 80.865,35.49C81.255,35.681 81.456,35.835 81.678,35.879C84.988,36.526 85.439,37.46 84.721,40.626C83.893,44.271 83.4,47.992 82.771,51.682C82.718,51.995 82.75,52.321 82.718,52.639C82.572,54.135 81.982,54.963 80.925,55.125C79.638,55.322 79.079,54.412 78.542,53.501C77.838,52.311 77.909,51.036 78.28,49.784C78.556,48.858 78.36,48.172 77.843,47.341C77.008,46 76.443,44.491 75.762,43.055C75.491,42.483 75.36,41.621 74.914,41.399C73.426,40.66 73.124,39.489 73.543,37.632C70.861,39.181 68.5,38.241 66.12,37.973C61.75,37.481 57.375,37.065 53.021,38.165C52.577,38.277 52.08,38.18 51.379,38.18C51.573,40.774 51.955,43.327 53.247,45.658C54.522,47.956 55.866,50.215 57.179,52.489C55.708,54.172 53.956,54.341 52.643,52.575C51.087,50.48 49.851,48.145 48.521,45.888C48.168,45.291 47.981,44.596 47.589,43.625C45.222,45.375 42.911,46.896 40.827,48.681C39.078,50.18 37.566,51.963 35.995,53.662C33.427,56.438 30.413,58.064 26.497,57.721C22.442,57.367 18.365,57.234 14.324,56.774C10.302,56.316 6.673,54.564 3.152,52.675C1.583,51.833 0.645,50.333 0,48.647" style="fill:rgb(70,70,70);fill-rule:nonzero;"/>
                </g>
                <g transform="matrix(1,0,0,1,39.6447,48.3872)">
                    <path d="M0,-40.232C-4.297,-36.857 -7.333,-32.806 -11.283,-29.286C-7.669,-26.367 -4.944,-22.859 -0.909,-20.503C-0.603,-27.149 -0.314,-33.401 0,-40.232M-30.132,-41.747C-25.508,-38.816 -21.21,-36.11 -16.936,-33.368C-16.08,-32.818 -15.425,-33.05 -14.817,-33.683C-12.023,-36.589 -9.243,-39.507 -6.406,-42.475C-8.782,-43.521 -24.495,-43.024 -30.132,-41.747M-2.567,-14.01C-2.846,-14.476 -2.956,-14.794 -3.173,-15C-6.685,-18.35 -10.192,-21.705 -13.744,-25.011C-14.885,-26.074 -15.205,-26.025 -16.542,-24.784C-20.567,-21.05 -24.573,-17.297 -28.563,-13.527C-29.041,-13.076 -29.373,-12.473 -30.099,-11.503C-20.625,-12.366 -11.723,-13.177 -2.567,-14.01M-34.354,-15.183C-33.604,-15.735 -33.06,-16.039 -32.637,-16.462C-29.833,-19.272 -27.076,-22.129 -24.258,-24.925C-23.133,-26.041 -21.83,-26.979 -20.723,-28.11C-19.602,-29.255 -19.691,-29.768 -21.024,-30.762C-25.158,-33.846 -29.354,-36.839 -33.906,-39.288C-34.346,-39.525 -34.897,-39.556 -35.784,-39.781C-34.59,-31.523 -35.573,-23.462 -34.354,-15.183M12.643,8.464C11.049,7.737 9.977,6.672 9.181,4.913C7.425,1.033 7.212,-3.125 6.413,-7.181C6.223,-8.147 5.896,-9.085 5.632,-10.036C5.471,-10.011 5.31,-9.986 5.149,-9.962C5.011,-8.952 4.942,-7.926 4.708,-6.939C4.571,-6.367 4.289,-5.723 3.864,-5.345C1.986,-3.669 0.05,-4.379 -0.465,-6.888C-0.592,-7.504 -0.624,-8.14 -0.735,-9.065C-5.572,-8.841 -10.333,-9.12 -15.114,-8.653C-20.354,-8.142 -25.623,-7.905 -30.882,-7.598C-31.749,-7.547 -32.631,-7.732 -33.504,-7.833C-34.58,-7.957 -35.456,-8.405 -36.15,-9.291C-36.512,-9.753 -37.054,-10.284 -37.58,-10.366C-38.94,-10.578 -39.192,-11.518 -39.35,-12.579C-39.42,-13.048 -39.372,-13.536 -39.377,-14.015C-39.452,-21.206 -39.533,-28.397 -39.6,-35.587C-39.631,-38.865 -39.66,-42.143 -39.635,-45.419C-39.63,-46.117 -39.525,-46.88 -39.223,-47.493C-38.631,-48.694 -37.204,-48.696 -36.733,-47.433C-36.216,-46.046 -35.275,-45.868 -34.09,-45.987C-30.917,-46.305 -27.749,-46.679 -24.574,-46.979C-22.27,-47.197 -19.959,-47.46 -17.65,-47.482C-10.618,-47.546 -3.585,-47.532 3.446,-47.472C4.536,-47.463 5.677,-47.193 6.697,-46.794C8.127,-46.234 8.321,-44.911 7.402,-43.687C6.797,-42.88 5.997,-42.027 5.851,-41.105C5.254,-37.333 3.955,-33.67 4.016,-29.796C4.084,-25.4 4.168,-21.005 4.236,-16.609C4.251,-15.601 4.484,-14.738 5.792,-14.162C6.039,-14.741 6.388,-15.252 6.472,-15.803C7.422,-22.059 10.749,-27.225 14.034,-32.411C15.975,-35.474 18.257,-38.214 21.454,-40.065C21.797,-40.264 22.092,-40.551 22.446,-40.722C23.708,-41.329 24.837,-41.084 25.406,-40.117C25.938,-39.213 25.722,-38.313 24.475,-37.529C18.699,-33.901 14.977,-28.586 12.268,-22.516C11.042,-19.768 10.183,-16.841 9.341,-13.941C8.995,-12.75 8.976,-11.404 9.081,-10.151C9.508,-5.051 10.263,-0.009 12.195,4.789C12.629,5.865 12.861,7.024 13.186,8.145C13.005,8.251 12.824,8.357 12.643,8.464" style="fill:rgb(70,70,70);fill-rule:nonzero;"/>
                </g>
                <g transform="matrix(1,0,0,1,118.725,46.7322)">
                    <path d="M0,-28.64C-2.886,-28.31 -4.876,-26.269 -4.934,-23.863C-4.952,-23.108 -4.825,-22.52 -4.096,-22.06C-2.511,-21.06 -1.358,-21.271 -0.361,-22.978C0.67,-24.742 0.341,-26.615 0,-28.64M-20.104,-30.92L-20.337,-30.987C-20.356,-31.386 -20.355,-31.786 -20.397,-32.182C-20.626,-34.357 -21.811,-35.061 -23.629,-33.831C-24.98,-32.918 -26.215,-31.707 -27.192,-30.398C-28.38,-28.807 -27.56,-27.079 -25.47,-25.688C-23.546,-24.408 -22.109,-25.36 -21.308,-26.862C-20.657,-28.081 -20.487,-29.557 -20.104,-30.92M5.086,-31.964C5.195,-29.691 5.294,-28.033 5.348,-26.372C5.418,-24.2 5.265,-22.101 4.007,-20.174C2.516,-17.891 -0.179,-17.01 -2.622,-18.304C-4.166,-19.121 -5.631,-20.093 -7.091,-21.057C-7.538,-21.352 -7.953,-21.797 -8.206,-22.268C-9.153,-24.035 -8.571,-27.979 -7.089,-29.356C-6.044,-30.327 -4.824,-31.108 -3.695,-31.992C-3.272,-32.323 -2.889,-32.703 -2.5,-33.049C-5.243,-37.08 -12.34,-38.774 -16.156,-36.441C-15.967,-34.612 -15.568,-32.799 -15.651,-31.008C-15.742,-29.042 -16.104,-27.046 -16.66,-25.155C-17.44,-22.498 -20.538,-21.017 -23.215,-21.911C-26.695,-23.075 -29.148,-25.354 -30.046,-28.995C-30.488,-30.789 -29.905,-32.467 -28.796,-33.929C-28.378,-34.479 -27.877,-34.968 -27.019,-35.927C-28.197,-35.728 -28.887,-35.72 -29.494,-35.491C-33.387,-34.026 -37.237,-32.38 -40.387,-29.626C-45.372,-25.268 -48.37,-19.776 -49.014,-13.092C-49.107,-12.119 -49.413,-11.167 -49.638,-10.124C-51.301,-10.437 -51.766,-11.331 -51.867,-12.557C-52.191,-16.515 -51.979,-20.295 -49.727,-23.842C-47.535,-27.291 -45.484,-30.843 -42.075,-33.211C-36.944,-36.773 -31.514,-39.774 -25.231,-40.832C-24.684,-40.925 -24.063,-41.107 -23.575,-40.948C-21.016,-40.108 -18.603,-40.549 -16.083,-41.288C-13.265,-42.114 -10.438,-41.712 -7.639,-40.672C-4.494,-39.504 -1.333,-38.415 1.396,-36.403C2.34,-35.706 3.327,-35.803 4.37,-35.955C8.05,-36.494 11.359,-35.179 14.416,-33.474C17.727,-31.628 18.856,-27.594 17.294,-24.096C15.305,-19.64 12.793,-15.517 9.312,-12.005C6.56,-9.229 3.749,-6.577 0.637,-4.175C-3.1,-1.289 -5.669,2.554 -6.51,7.357C-6.77,8.838 -7.134,10.303 -7.324,11.793C-7.448,12.767 -7.943,13.229 -8.831,13.349C-9.76,13.474 -10.798,13.35 -10.991,12.334C-11.322,10.587 -12.426,8.859 -11.408,6.997C-11.549,2.086 -8.166,-1.174 -5.734,-4.841C-5.078,-5.83 -3.658,-6.278 -2.731,-7.131C-0.211,-9.452 2.231,-11.857 4.708,-14.226C5.456,-14.942 6.232,-15.63 6.961,-16.365C7.397,-16.806 7.82,-17.279 8.154,-17.798C8.669,-18.599 9.029,-19.508 9.588,-20.273C11.118,-22.368 11.582,-24.789 11.773,-27.27C11.917,-29.124 11.104,-30.411 9.398,-31.008C8.162,-31.441 6.827,-31.592 5.086,-31.964" style="fill:rgb(70,70,70);fill-rule:nonzero;"/>
                </g>
                <g transform="matrix(1,0,0,1,84.4084,30.9483)">
                    <path d="M0,38.85C-1.969,38.044 -2.956,36.924 -2.988,35.143C-3.035,32.556 -3.75,30.134 -4.456,27.666C-5.486,24.069 -5.836,20.388 -5.843,16.585C-5.851,12.481 -4.661,8.778 -3.483,5.011C-3.11,3.82 -2.46,2.68 -1.754,1.641C-1.328,1.015 -0.614,0.408 0.091,0.2C0.768,0 1.761,0.105 2.305,0.501C2.658,0.758 2.55,1.791 2.465,2.453C2.41,2.882 2.046,3.284 1.784,3.673C-1.84,9.054 -3.386,14.958 -2.401,21.392C-1.957,24.294 -1.29,27.184 -0.443,29.996C0.414,32.844 0.315,35.647 0,38.85" style="fill:rgb(70,70,70);fill-rule:nonzero;"/>
                </g>
                <g transform="matrix(1,0,0,1,69.5568,76.7289)">
                    <path d="M0,-13.187C2.232,-13.777 3.196,-13.511 4.368,-11.93C4.889,-11.227 5.267,-10.396 5.869,-9.779C8.398,-7.189 7.37,-2.968 5.57,-0.246C5.017,0.59 3.808,0.387 3.539,-0.607C3.357,-1.278 3.335,-2.061 3.482,-2.741C4.046,-5.343 3.162,-7.357 1.335,-9.195C-0.316,-10.857 -0.23,-10.942 0,-13.187" style="fill:rgb(70,70,70);fill-rule:nonzero;"/>
                </g>
            </g>
        </g>
    </g>
</svg>
