<?xml version="1.0" encoding="UTF-8" standalone="no"?>
<!DOCTYPE svg PUBLIC "-//W3C//DTD SVG 1.1//EN" "http://www.w3.org/Graphics/SVG/1.1/DTD/svg11.dtd">
<svg width="100%" height="100%" viewBox="0 0 1182 1182" version="1.1" xmlns="http://www.w3.org/2000/svg" xmlns:xlink="http://www.w3.org/1999/xlink" xml:space="preserve" xmlns:serif="http://www.serif.com/" style="fill-rule:evenodd;clip-rule:evenodd;stroke-linejoin:round;stroke-miterlimit:2;">
    <g transform="matrix(1,0,0,1,-6018.99,0)">
        <g id="Artboard1" transform="matrix(1,0,0,1,6018.99,0)">
            <rect x="0" y="0" width="1181.1" height="1181.1" style="fill:none;"/>
            <g transform="matrix(4.96961,0,0,4.96961,171.148,288.53)">
                <g transform="matrix(1,0,0,1,16.1725,73.5751)">
                    <path d="M0,-6.144C-0.772,-4.244 -0.772,-4.244 1.277,-4.395C0.774,-5.083 0.387,-5.614 0,-6.144M7.578,13.65C5.583,14.108 5.46,14.482 6.733,16.207C7.884,15.622 7.895,14.713 7.578,13.65M27.787,34.665C26.363,35.164 24.887,34.495 24.445,36.273C27.007,36.583 27.007,36.583 27.787,34.665M5.13,2.162C4.806,4.415 4.068,6.207 4.671,8.672C5.241,7.953 5.752,7.603 5.781,7.218C5.896,5.66 6.594,4.006 5.13,2.162M59.84,-12.933C57.672,-15.235 56.031,-17.613 53.227,-18.837C52.004,-16.375 50.909,-14.171 49.643,-11.622C53.199,-11.923 56.416,-11.739 59.84,-12.933M19.169,31.839C20.094,31.885 20.8,32.123 21.321,31.911C23.633,30.968 25.875,31.777 28.137,32.026C29.893,32.219 30.405,32.042 31.236,30.59C32.141,29.011 33.045,27.429 33.874,25.809C34.402,24.778 34.792,23.674 35.464,22.086C34.36,22.298 33.272,22.307 33.217,22.55C32.78,24.488 31.334,24.036 30.178,23.841C28.303,23.525 26.477,22.932 24.614,22.528C23.569,22.301 22.492,22.217 21.176,22.034C20.988,25.519 19.093,28.297 19.169,31.839M3.363,47.377C3.382,45.153 1.53,44.836 0.142,44.057C-1.145,43.335 -2.457,42.659 -4.229,41.711C-2.963,40.991 -2.137,40.521 -1.303,40.047C-1.398,39.706 -1.519,39.27 -1.713,38.571C-0.879,38.347 -0.155,38.09 0.591,37.963C3.345,37.498 6.113,37.116 8.858,36.608C9.577,36.474 10.211,35.937 10.923,35.697C11.935,35.356 12.982,35.119 14.154,34.799C12.798,33.326 13.867,31.945 14.734,30.523C13.526,29.864 12.557,30.543 11.577,30.578C11.346,30.586 11.122,30.718 10.889,30.775C6.479,31.846 2.016,31.328 -2.434,31.21C-5.868,29.104 -9.394,30.609 -12.889,30.948C-13.52,31.009 -14.149,31.221 -14.773,31.201C-15.799,31.167 -16.022,30.291 -16.153,29.513C-16.282,28.746 -15.755,28.318 -15.04,28.228C-13.296,28.007 -11.549,27.678 -9.801,27.667C-3.65,27.623 2.501,27.676 8.652,27.729C10.876,27.749 13.099,27.919 15.322,27.901C15.746,27.897 16.317,27.425 16.559,27.016C17.415,25.566 17.462,24.004 16.925,22.29C14.613,21.759 12.317,21.145 9.986,20.74C8.941,20.557 7.818,20.882 6.741,20.816C5.393,20.733 4.583,19.906 4.247,18.599C4.128,18.136 3.931,17.694 3.795,17.234C3.544,16.38 3.098,15.766 2.099,15.939C1.25,16.086 0.509,17.233 0.664,18.142C0.716,18.448 0.922,18.724 1.022,19.026C1.12,19.32 1.173,19.628 1.254,19.964C0.067,21.108 -1.124,20.678 -2.258,20.063C-2.807,19.765 -3.327,19.329 -3.715,18.839C-4.593,17.735 -5.669,17.302 -7.062,17.448C-7.688,17.512 -8.348,17.451 -8.97,17.329C-11.194,16.893 -11.524,16.272 -11.914,13.993C-12.3,11.736 -13.061,9.544 -13.66,7.323C-13.76,6.952 -13.873,6.584 -13.97,6.25C-12.303,4.495 -10.076,4.848 -8.113,4.491C-6.874,1.308 -7.448,-1.935 -7.141,-5.084C-6.964,-6.893 -7.226,-8.757 -6.937,-10.54C-6.625,-12.466 -6.371,-14.303 -7.376,-16.028C-4.998,-18.021 -5.027,-18.012 -5.98,-21.153C-6.144,-21.693 -6.173,-22.676 -5.87,-22.888C-4.061,-24.152 -4.703,-25.619 -5.297,-27.134C-5.353,-27.278 -5.349,-27.444 -5.371,-27.6C-3.835,-29.241 -3.262,-29.17 -2.333,-27.273C-2.021,-26.636 -1.731,-25.944 -1.256,-25.443C1.227,-22.828 1.839,-19.673 1.829,-16.195C1.822,-14.134 1.772,-12.125 1.485,-10.069C1.007,-6.646 3.34,-4.87 7.017,-6.048C8.981,-6.679 10.919,-7.408 12.912,-7.932C15.298,-8.56 17.746,-8.954 20.126,-9.6C20.681,-9.75 21.275,-10.429 21.5,-11.002C22.248,-12.913 22.863,-14.877 23.476,-16.838C23.808,-17.903 24.063,-18.994 24.301,-20.083C24.85,-22.601 26.099,-24.656 28.196,-26.179C29.292,-26.976 30.45,-27.707 31.447,-28.615C32.555,-29.623 33.688,-30.681 34.496,-31.922C35.963,-34.177 37.209,-36.553 38.329,-39.035C39.756,-42.198 41.584,-45.265 43.733,-47.984C44.934,-49.501 47.012,-50.565 48.906,-51.249C57.37,-54.311 64.168,-52.117 69.275,-44.555C70.83,-42.253 72.655,-40.118 74.052,-37.728C75.542,-35.18 77.457,-33.157 79.853,-31.499C80.629,-30.963 81.328,-30.286 81.958,-29.579C82.213,-29.292 82.188,-28.757 82.34,-28.133C81.663,-28.184 81.183,-28.132 80.76,-28.265C76.284,-29.672 73.093,-32.507 70.829,-36.65C68.925,-40.133 66.876,-43.609 64.393,-46.686C61.668,-50.062 57.664,-50.672 53.495,-50.086C52.865,-49.998 52.264,-49.701 51.635,-49.627C48.122,-49.214 45.907,-46.942 44.229,-44.168C42.132,-40.705 40.231,-37.115 38.374,-33.514C36.761,-30.389 34.703,-27.773 31.565,-26.034C29.567,-24.926 28.138,-23.193 27.14,-21.128C25.521,-17.78 24.802,-14.226 24.568,-10.46C25.059,-10.276 25.41,-10.035 25.766,-10.029C30,-9.954 34.233,-9.889 38.468,-9.873C40.839,-9.865 42.761,-10.861 44.345,-12.627C46.245,-14.748 47.566,-17.142 48.355,-19.886C48.809,-21.466 49.575,-22.954 50.137,-24.505C50.348,-25.085 50.423,-25.727 50.48,-26.347C50.646,-28.147 50.457,-30.017 52.286,-31.27C52.804,-31.624 52.877,-32.573 53.311,-33.125C53.677,-33.592 54.228,-34.101 54.771,-34.203C56.169,-34.466 56.873,-33.407 56.412,-31.917C55.587,-29.251 54.71,-26.6 53.959,-23.913C53.381,-21.843 53.536,-21.955 55.288,-20.838C57.163,-19.645 59.262,-18.472 60.549,-16.755C63.362,-13.001 66.806,-13.023 70.571,-14.412C71.899,-14.902 72.871,-14.687 73.916,-14.044C74.244,-13.843 74.554,-13.542 74.755,-13.215C75.353,-12.242 74.957,-11.275 73.8,-11.083C70.571,-10.547 67.341,-9.959 64.087,-9.63C58.449,-9.061 52.793,-8.671 47.146,-8.204C46.748,-8.17 46.256,-8.249 45.97,-8.047C43.849,-6.541 41.564,-6.95 39.159,-7.045C34.535,-7.229 29.881,-7.076 25.263,-6.741C23.52,-6.615 21.85,-6.719 20.145,-6.734C17.809,-6.754 15.466,-5.957 13.125,-5.511C12.199,-3.481 10.062,-3.928 8.167,-3.287C10.374,-0.69 10.178,2.329 10.143,5.218C10.121,6.982 10.19,8.38 12.143,9.018C12.152,11.236 12.36,13.345 11.225,15.369C10.742,16.229 10.724,17.352 10.498,18.34C11.96,19.602 13.616,19.798 15.295,19.827C15.71,19.834 16.433,19.592 16.499,19.334C16.897,17.754 18.192,17.919 18.939,18.434C21.635,20.289 24.919,19.865 27.786,20.98C28.351,21.2 29.193,21.365 29.645,21.103C31.699,19.914 34.021,20.345 36.18,19.845C39.126,19.163 42.119,18.685 45.079,18.057C47.963,17.445 50.819,16.697 53.708,16.112C57.454,15.353 61.197,14.46 64.987,14.067C68.38,13.715 71.835,13.956 75.263,13.951C79.325,13.944 83.387,13.927 87.448,13.977C88.47,13.99 89.509,14.16 90.504,14.401C91.583,14.664 91.821,15.425 91.355,16.492C87.431,17.331 83.501,17.602 79.492,16.973C72.165,15.826 64.897,15.727 57.679,17.973C54.812,18.865 51.736,19.073 48.767,19.655C46.111,20.176 43.45,20.703 40.839,21.405C40.104,21.602 39.172,22.31 38.956,22.984C37.648,27.054 35.094,30.473 33.278,34.269C33.11,34.62 33.011,35.004 32.866,35.415C34.372,36.939 37.091,35.309 38.448,37.666C37.689,38.01 37.074,38.289 36.239,38.669C36.268,39.334 36.272,40.112 36.346,40.884C36.42,41.664 36.675,42.44 36.649,43.211C36.609,44.402 35.946,45.18 34.685,45.168C33.286,45.153 32.093,45.517 30.861,46.262C29.022,47.375 27.598,46.659 26.83,44.55C26.174,42.755 25.863,42.465 24.054,42.695C21.923,42.965 19.8,43.345 17.705,43.816C17.175,43.935 16.757,44.572 16.297,44.982C15.778,45.445 15.348,46.147 14.745,46.354C11.084,47.609 7.34,48.167 3.363,47.377" style="fill:rgb(70,70,70);fill-rule:nonzero;"/>
                </g>
                <g transform="matrix(1,0,0,1,150.384,29.7613)">
                    <path d="M0,28.787C0.277,30.559 0.283,32.119 0.792,33.49C1.524,35.46 1.527,37.405 1.259,39.391C1.078,40.731 0.796,42.07 0.414,43.366C0.218,44.026 -0.225,44.661 -0.701,45.172C-0.968,45.458 -1.603,45.669 -1.94,45.548C-2.283,45.425 -2.669,44.857 -2.681,44.474C-2.721,43.121 -2.853,41.696 -2.502,40.422C-1.791,37.839 -2.07,35.395 -2.723,32.87C-3.218,30.952 -3.334,28.937 -3.769,27C-4.222,24.981 -4.9,23.015 -5.39,21.004C-5.605,20.119 -5.601,19.181 -5.696,18.266C-3.706,18.082 -3.133,18.398 -2.457,20.125C-1.876,21.604 -1.437,23.14 -0.885,24.631C-0.73,25.048 -0.397,25.398 0.099,26.15C1.658,22.74 3.071,19.65 4.524,16.473C1.253,16.189 -1.815,16.836 -4.867,16.14C-4.681,14.623 -3.815,14.238 -2.851,14.079C-1.989,13.936 -1.095,13.863 -0.225,13.916C2.56,14.087 4.693,12.833 6.593,10.979C7.488,10.106 8.43,9.281 9.332,8.415C10.089,7.686 10.298,6.812 10.001,5.788C9.25,3.188 8.522,0.583 7.796,-2.024C7.648,-2.555 7.47,-3.093 7.436,-3.636C7.288,-6.002 6.56,-6.948 4.291,-7.38C3.606,-7.511 2.77,-7.582 2.175,-7.307C0.485,-6.526 -0.783,-7.067 -2.465,-7.7C-6.062,-9.055 -8.459,-11.854 -11.392,-13.99C-12.008,-14.439 -12.283,-15.356 -12.803,-16.2C-11.414,-16.882 -10.407,-16.769 -9.401,-16.136C-7.715,-15.076 -6.007,-14.05 -4.34,-12.962C-3.971,-12.722 -3.638,-12.327 -3.447,-11.928C-2.605,-10.165 -1.36,-9.577 0.496,-10.121C2.633,-10.746 4.76,-11.414 6.921,-11.94C7.666,-12.121 8.556,-12.095 9.28,-11.859C9.882,-11.66 10.504,-11.096 10.78,-10.529C10.895,-10.294 10.145,-9.62 9.762,-9.169C9.615,-8.995 9.394,-8.884 8.941,-8.547C9.798,-7.761 10.563,-7.006 11.385,-6.32C12.242,-5.608 13.19,-5.004 14.033,-4.276C14.924,-3.507 15.545,-2.765 14.548,-1.446C14.076,-0.821 14.276,0.369 14.3,1.3C14.329,2.398 14.729,3.504 13.803,4.481C13.587,4.709 13.537,5.302 13.67,5.616C14.324,7.155 13.51,8.38 12.99,9.718C12.038,12.166 11.273,14.688 10.305,17.131C9.474,19.228 8.047,20.942 6.495,22.576C5.686,23.427 4.755,24.418 4.506,25.491C3.952,27.884 2.821,29.237 0,28.787" style="fill:rgb(70,70,70);fill-rule:nonzero;"/>
                </g>
                <g transform="matrix(1,0,0,1,113.917,116.431)">
                    <path d="M0,-43.63C5.423,-44.297 10.584,-44.511 15.661,-43.106C16.609,-42.844 17.556,-42.228 18.264,-41.531C19.451,-40.362 20.428,-38.984 21.524,-37.721C22.659,-36.414 23.495,-34.795 25.269,-34.138C25.54,-34.037 25.843,-33.741 25.931,-33.471C26.559,-31.523 27.222,-29.577 27.672,-27.585C27.795,-27.045 27.4,-26.121 26.94,-25.771C25.945,-25.013 25.861,-24.088 25.911,-23.015C26.122,-18.467 26.348,-13.919 26.508,-9.369C26.584,-7.225 26.546,-5.075 26.52,-2.928C26.51,-2.113 26.044,-1.733 25.226,-1.473C23.563,-0.944 22.007,-0.028 20.322,0.363C18.57,0.771 16.718,0.859 14.908,0.873C13.934,0.881 13.713,-0.069 13.749,-0.919C13.787,-1.821 14.194,-2.409 15.212,-2.445C16.886,-2.506 18.581,-2.477 20.226,-2.739C22.822,-3.153 23.032,-3.408 23.009,-5.987C22.962,-11.183 22.804,-16.377 22.715,-21.572C22.687,-23.17 22.489,-24.819 22.796,-26.359C23.534,-30.055 21.947,-32.874 19.799,-35.565C19.6,-35.814 19.34,-36.021 19.173,-36.286C16.126,-41.121 11.461,-42.034 6.248,-41.658C4.975,-41.566 3.694,-41.496 2.418,-41.519C1.185,-41.54 0.365,-42.171 0,-43.63" style="fill:rgb(70,70,70);fill-rule:nonzero;"/>
                </g>
                <g transform="matrix(1,0,0,1,60.6476,106.116)">
                    <path d="M0,-5.595C8.056,-4.857 15.598,-5.173 23.118,-6.155C24.114,-6.284 24.949,-6.204 25.88,-5.815C26.875,-5.399 27.995,-5.103 29.066,-5.082C32.02,-5.028 34.979,-5.097 37.931,-5.218C39.114,-5.266 40.292,-5.546 41.461,-5.78C43.126,-6.113 44.476,-5.275 44.811,-3.643C45.108,-2.199 44.676,-1.54 43.146,-1.43C41.475,-1.31 39.793,-1.344 38.116,-1.305C37.168,-1.283 36.221,-1.418 35.832,-0.113C35.592,0.689 34.765,0.657 33.99,0.485C29.352,-0.54 24.63,-0.515 19.919,-0.526C18.414,-0.53 16.908,-0.274 15.402,-0.137C15.087,-0.109 14.713,0.048 14.468,-0.069C12.549,-0.975 10.52,-0.331 8.559,-0.551C6.196,-0.817 3.824,-1.074 1.5,-1.551C0.913,-1.672 0.298,-2.547 0.055,-3.208C-0.193,-3.884 0,-4.722 0,-5.595" style="fill:rgb(70,70,70);fill-rule:nonzero;"/>
                </g>
                <g transform="matrix(1,0,0,1,68.3917,25.2516)">
                    <path d="M0,-17.802C5.05,-20.045 9.732,-21.98 15.057,-22.311C21.784,-22.73 27.74,-20.472 33.706,-17.964C33.848,-17.904 33.95,-17.745 34.092,-17.685C37.898,-16.063 41.772,-14.584 45.497,-12.793C49.303,-10.963 52.872,-8.7 55.768,-5.532C56.515,-4.715 57.286,-3.918 58.144,-3.007C59.286,-3.573 60.334,-4.1 61.388,-4.612C64.068,-5.913 64.069,-5.91 65.442,-2.792C63.661,-1.793 61.85,-0.777 59.709,0.425C61.406,1.329 62.7,1.931 63.889,2.695C64.33,2.978 64.528,3.64 64.837,4.131C64.313,4.408 63.794,4.898 63.264,4.912C62.59,4.928 61.844,4.67 61.241,4.331C59.789,3.516 58.384,2.612 56.995,1.692C55.819,0.914 54.98,0.003 54.305,-1.413C53.417,-3.275 51.75,-4.87 50.139,-6.257C47.186,-8.8 44.038,-11.068 40.334,-12.541C36.34,-14.13 32.51,-16.129 28.535,-17.773C24.117,-19.599 19.679,-21.219 14.675,-20.774C10.988,-20.447 7.717,-19.15 4.479,-17.632C2.373,-16.646 2.085,-16.527 0,-17.802" style="fill:rgb(70,70,70);fill-rule:nonzero;"/>
                </g>
                <g transform="matrix(1,0,0,1,106.362,26.6345)">
                    <path d="M0,-1.762C0.448,-2.825 0.741,-3.52 1.15,-4.491C1.712,-4.099 2.356,-3.892 2.468,-3.524C2.785,-2.483 3.195,-1.32 3.012,-0.305C2.392,3.124 2.937,6.541 2.845,9.958C2.795,11.791 2.917,13.635 2.76,15.458C2.591,17.431 1.8,17.68 -0.176,16.517C-0.367,14.85 2.233,12.803 -0.939,11.2C-1.154,8.283 -1.417,5.111 -1.611,1.934C-1.751,-0.344 -3.319,-1.975 -4.217,-3.898C-5.213,-6.033 -7.035,-7.465 -9.191,-8.507C-12.404,-10.061 -15.49,-11.892 -18.746,-13.342C-24.018,-15.69 -29.524,-15.996 -35.146,-14.716C-36.533,-14.401 -37.961,-14.221 -39.38,-14.097C-40.677,-13.984 -42.103,-13.828 -42.02,-15.843C-45.22,-15.735 -47.891,-16.393 -50.526,-18.737C-48.481,-19.013 -46.867,-19.442 -45.268,-19.39C-43.535,-19.333 -41.807,-18.873 -40.096,-18.503C-38.929,-18.251 -37.701,-17.973 -37.565,-16.532C-37.286,-16.429 -37.125,-16.306 -36.991,-16.33C-31.404,-17.325 -25.861,-16.595 -20.334,-15.825C-19.191,-15.665 -18.076,-15.085 -17.02,-14.555C-13.748,-12.913 -10.502,-11.219 -7.263,-9.513C-4.785,-8.208 -3.177,-6.013 -1.569,-3.825C-1.119,-3.212 -0.649,-2.614 0,-1.762" style="fill:rgb(70,70,70);fill-rule:nonzero;"/>
                </g>
                <g transform="matrix(1,0,0,1,151.051,111.964)">
                    <path d="M0,-31.456C-0.201,-29.525 -0.371,-27.724 -0.587,-25.927C-0.654,-25.377 -0.945,-24.847 -0.97,-24.301C-1.222,-18.813 -1.39,-13.322 -1.694,-7.839C-1.808,-5.785 -2.183,-3.743 -2.514,-1.708C-2.598,-1.189 -2.854,-0.567 -3.243,-0.265C-3.754,0.133 -4.475,0.261 -5.106,0.505C-5.283,-0.132 -5.761,-0.869 -5.588,-1.392C-4.199,-5.606 -4.936,-9.969 -4.569,-14.249C-4.127,-19.412 -3.773,-24.583 -3.327,-29.746C-3.144,-31.864 -2.915,-31.961 0,-31.456" style="fill:rgb(70,70,70);fill-rule:nonzero;"/>
                </g>
                <g transform="matrix(1,0,0,1,154.683,115.879)">
                    <path d="M0,3.193C-1.148,5.565 -1.864,6.119 -3.598,5.335C-6.398,4.07 -9.404,3.698 -12.305,2.883C-13.115,2.656 -13.893,2.171 -14.564,1.648C-14.86,1.417 -15.052,0.727 -14.927,0.376C-14.811,0.049 -14.211,-0.29 -13.82,-0.294C-12.958,-0.305 -12.089,-0.139 -11.233,0.011C-10.32,0.172 -9.418,0.398 -8.399,0.621C-8.153,-0.277 -7.97,-0.942 -7.831,-1.449C-6.5,-2.926 1.695,-0.656 4.227,1.719C3.457,3.818 3.31,3.873 0,3.193" style="fill:rgb(70,70,70);fill-rule:nonzero;"/>
                </g>
                <g transform="matrix(1,0,0,1,118.555,42.0635)">
                    <path d="M0,27.141C-0.687,27.25 -1.301,27.442 -1.91,27.425C-3.272,27.389 -3.859,26.676 -3.812,25.28C-3.65,20.497 -4.57,16 -6.715,11.656C-8.944,7.142 -12.333,4.032 -16.784,1.923C-17.617,1.528 -18.619,1.312 -18.576,-0.301C-17.713,-0.034 -16.936,0.069 -16.305,0.428C-14.022,1.727 -11.763,3.073 -9.544,4.478C-7.393,5.839 -6.083,7.967 -4.913,10.126C-3.556,12.631 -1.746,14.947 -1.302,17.875C-1.125,19.046 -1.056,20.234 -0.888,21.406C-0.621,23.275 -0.312,25.137 0,27.141" style="fill:rgb(70,70,70);fill-rule:nonzero;"/>
                </g>
                <g transform="matrix(1,0,0,1,141.368,26.8189)">
                    <path d="M0,5.911C0.131,5.767 0.261,5.623 0.392,5.478C0.026,4.967 -0.282,4.393 -0.734,3.974C-0.908,3.813 -1.543,3.877 -1.72,4.067C-1.888,4.249 -1.87,4.913 -1.694,5.046C-1.195,5.422 -0.573,5.635 0,5.911M4.405,-0.875C3.264,-0.207 2.123,0.461 0.819,1.224C1.298,1.77 1.615,2.2 1.999,2.557C3.622,4.071 3.623,5.867 3.031,7.825C2.688,8.957 1.983,9.39 0.881,9.142C-0.943,8.731 -2.561,7.668 -4.582,7.769C-5.63,7.823 -6.193,6.537 -5.857,5.111C-5.417,3.248 -4.646,1.525 -3.219,0.137C-2.104,-0.948 -1.103,-2.152 0.11,-3.479C1.716,-3.218 3.257,-2.405 4.331,-0.792L4.405,-0.875Z" style="fill:rgb(70,70,70);fill-rule:nonzero;"/>
                </g>
                <g transform="matrix(1,0,0,1,153.355,106.098)">
                    <path d="M0,-4.463C1.142,-4.632 2.047,-4.874 2.955,-4.88C6.137,-4.9 9.322,-4.872 12.503,-4.779C13.177,-4.76 13.914,-4.512 14.494,-4.158C15.432,-3.586 15.628,-2.515 15.253,-1.626C15.047,-1.137 14.179,-0.732 13.561,-0.647C11.198,-0.322 8.812,-0.175 6.441,0.096C3.457,0.437 1.279,-0.962 0,-4.463" style="fill:rgb(70,70,70);fill-rule:nonzero;"/>
                </g>
                <g transform="matrix(1,0,0,1,161.51,112.053)">
                    <path d="M0,1.538C-0.71,2.972 -1.823,3.548 -3.313,3.146C-5.302,2.612 -7.272,1.999 -9.223,1.341C-10.128,1.035 -10.729,0.318 -10.408,-0.685C-10.141,-1.523 -9.361,-2.01 -8.508,-1.753C-5.79,-0.932 -3.103,-0.003 -0.41,0.901C-0.293,0.94 -0.238,1.158 0,1.538" style="fill:rgb(70,70,70);fill-rule:nonzero;"/>
                </g>
                <g transform="matrix(1,0,0,1,145.699,30.6938)">
                    <path d="M0,-4.667C3.016,-5.637 5.4,-4.473 6.464,-1.376C6.66,-0.808 6.569,0.161 6.198,0.536C5.842,0.895 4.839,0.97 4.314,0.734C3.172,0.222 2.134,-0.539 1.088,-1.25C-0.193,-2.119 -0.649,-3.271 0.071,-4.747C0.074,-4.75 0,-4.667 0,-4.667" style="fill:rgb(70,70,70);fill-rule:nonzero;"/>
                </g>
                <g transform="matrix(1,0,0,1,53.5436,5.881)">
                    <path d="M0,-2.529C0.609,-2.754 1.079,-3.069 1.552,-3.074C2.742,-3.088 3.95,-3.062 5.12,-2.868C7.472,-2.477 9.811,-1.994 12.14,-1.482C12.971,-1.3 13.844,-1.024 14.107,0.4C13.289,0.438 12.547,0.559 11.823,0.489C9.079,0.225 1.047,-1.794 0,-2.529" style="fill:rgb(70,70,70);fill-rule:nonzero;"/>
                </g>
                <g transform="matrix(1,0,0,1,58.4879,2.3301)">
                    <path d="M0,-2.317C1.554,-2.317 3.11,-2.364 4.659,-2.28C4.988,-2.261 5.319,-1.792 5.597,-1.483C5.937,-1.103 6.223,-0.673 6.769,0.047C4.152,0.002 1.942,-0.452 -0.067,-1.686C-0.044,-1.896 -0.022,-2.106 0,-2.317" style="fill:rgb(70,70,70);fill-rule:nonzero;"/>
                </g>
                <g transform="matrix(1,0,0,1,67.1656,3.792)">
                    <path d="M0,-0.983C1.496,-1.57 2.794,-1.206 4.366,-0.25C2.423,0.587 1.432,-1.262 0,-0.983" style="fill:rgb(70,70,70);fill-rule:nonzero;"/>
                </g>
            </g>
        </g>
    </g>
</svg>
