<?xml version="1.0" encoding="UTF-8" standalone="no"?>
<!DOCTYPE svg PUBLIC "-//W3C//DTD SVG 1.1//EN" "http://www.w3.org/Graphics/SVG/1.1/DTD/svg11.dtd">
<svg width="100%" height="100%" viewBox="0 0 1182 1182" version="1.1" xmlns="http://www.w3.org/2000/svg" xmlns:xlink="http://www.w3.org/1999/xlink" xml:space="preserve" xmlns:serif="http://www.serif.com/" style="fill-rule:evenodd;clip-rule:evenodd;stroke-linejoin:round;stroke-miterlimit:2;">
    <g transform="matrix(1,0,0,1,-7500.21,0)">
        <g id="Artboard1" transform="matrix(1,0,0,1,7500.21,0)">
            <rect x="0" y="0" width="1181.1" height="1181.1" style="fill:none;"/>
            <g transform="matrix(1.36443,0,0,1.36443,-487.446,-429.839)">
                <g transform="matrix(3.92695,0,0,3.92695,593.871,700.252)">
                    <path d="M0,40.524C0.228,40.742 0.455,40.961 0.682,41.179C0.972,40.82 1.261,40.462 1.551,40.103L0.962,39.571C0.642,39.889 0.321,40.207 0,40.524M-12.853,49.1C-13.062,49.022 -13.273,48.944 -13.483,48.866C-13.673,49.364 -13.93,49.853 -13.995,50.367C-14.009,50.474 -13.318,50.671 -12.725,50.923C-12.781,50.12 -12.816,49.609 -12.853,49.1M29.692,16.443C30.301,16.714 30.794,17.122 31.032,17.006C31.748,16.657 32.179,16.025 31.962,15.068C30.807,14.904 30.466,15.732 29.692,16.443M2.453,34.449C1.263,35.215 0.28,35.827 0.443,37.301C2.85,36.927 3.024,36.69 2.453,34.449M-5.27,44.211C-5.537,44.11 -5.803,44.01 -6.069,43.909C-7.214,44.935 -8.404,45.917 -9.462,47.026C-9.664,47.239 -9.34,47.954 -9.229,48.612C-7.729,47.572 -6.419,46.76 -5.251,45.78C-4.997,45.567 -5.251,44.75 -5.27,44.211M18.794,24.398C16.971,24.604 15.514,25.514 14.249,26.596C13.565,27.18 13.068,28.271 14.233,29.273C15.889,27.677 17.79,26.479 18.794,24.398M5.763,34.05C9.394,34.047 11.065,32.13 10.233,29.007C9.717,29.171 8.989,29.175 8.731,29.525C7.685,30.942 6.782,32.466 5.763,34.05M28.878,27.418C29.513,26.752 30.316,26.223 30.609,25.49C30.795,25.026 30.158,24.273 30.006,23.623C29.883,23.1 29.945,22.536 29.903,21.991C29.852,21.325 29.775,20.661 29.686,19.744C27.786,20.633 27.531,22.114 27.467,23.574C27.408,24.892 26.69,26.505 28.878,27.418M47.516,-1.402C47.313,-1.599 47.108,-1.795 46.905,-1.992C44.433,-0.084 41.96,1.823 39.457,3.755C39.9,4.322 40.128,4.627 40.37,4.92C41.416,6.192 42.332,6.332 43.245,5.077C44.765,2.987 46.102,0.765 47.516,-1.402M1.308,45.153C-2.032,46.99 -2.862,50.151 -1.079,54.239C2.047,51.944 2.865,48.828 1.308,45.153M34.42,12.2C35.944,13.114 35.731,14.179 35.065,15.489C34.669,16.271 34.037,17.151 34.418,18.642C36.438,15.522 38.277,12.779 40.006,9.967C40.715,8.813 40.215,7.73 39.437,6.766C37.303,7.884 37.071,8.133 34.42,12.2M-8.578,62.995C-4.488,60.618 -3.574,58.228 -4.925,54.135C-5.919,54.541 -6.885,55.074 -7.92,55.319C-9.074,55.594 -9.604,56.221 -9.465,57.324C-9.229,59.185 -8.891,61.032 -8.578,62.995M25.379,33.597C23.046,30.484 24.378,27.482 24.828,24.554C23.276,24.477 22.146,25.059 21.916,26.349C21.554,28.37 21.235,30.445 21.305,32.484C21.365,34.285 21.98,36.066 22.387,38.025C23.472,36.419 24.48,34.926 25.379,33.597M9.864,36.883C5.062,39.325 3.185,44.467 5.308,47.381C9.384,45.072 10.288,41.382 9.864,36.883M14.736,23.227C18.049,21.8 18.048,21.799 20.245,19.258C20.395,19.086 20.574,18.85 20.768,18.819C23.593,18.37 24.886,15.749 27.064,14.38C28.012,13.786 28.777,12.9 29.625,12.147C29.536,12.011 29.447,11.875 29.358,11.738C29.019,11.842 28.651,11.895 28.342,12.057C24.694,13.971 21.112,16.024 17.393,17.785C14.999,18.919 14.6,20.721 14.736,23.227M-16.289,48.12C-12.702,46.557 -12.544,46.302 -12.854,42.817C-12.883,42.501 -12.867,42.176 -12.932,41.867C-13.161,40.755 -13.417,39.649 -13.779,38.013C-15.834,39.577 -17.495,40.754 -19.034,42.074C-19.407,42.394 -19.664,43.298 -19.485,43.732C-18.799,45.4 -18.146,47.159 -16.289,48.12M9.417,48.516C9.222,48.516 9.029,48.456 8.911,48.524C6.497,49.924 3.32,53.093 4.495,56.914C4.659,57.446 4.634,58.06 4.884,58.538C5.227,59.193 5.665,60.13 6.217,60.254C6.824,60.39 7.839,59.928 8.271,59.398C9.658,57.691 10.859,55.833 11.89,54.377C10.94,52.128 10.177,50.318 9.417,48.516M-2.037,11.479C-0.629,10.966 -0.035,10.255 -0.277,8.912C-0.474,7.819 -0.877,6.652 -0.674,5.619C-0.017,2.281 -0.152,-1.219 1.344,-4.393C1.801,-5.363 2.086,-6.414 2.447,-7.42C2.048,-7.652 1.817,-7.902 1.653,-7.865C-0.489,-7.372 -2.637,-6.885 -4.743,-6.262C-5.023,-6.179 -5.307,-5.296 -5.202,-4.882C-4.952,-3.889 -4.509,-2.936 -4.077,-1.999C-2.321,1.81 -1.038,5.683 -2.137,9.96C-2.24,10.363 -2.087,10.833 -2.037,11.479M-0.582,33.542C3.593,30.602 4.462,29.32 3.664,26.799C0.844,28.673 -1.871,30.578 -4.688,32.319C-7.454,34.029 -10.426,35.42 -13.131,37.695C-10.059,38.39 -10.032,38.43 -9.924,41.239C-9.895,41.979 -9.812,42.715 -9.746,43.531C-6.755,42.592 -5.015,41.072 -5.054,37.998C-5.071,36.659 -4.82,35.303 -4.564,33.98C-4.374,32.995 -3.769,32.021 -2.715,32.086C-2.049,32.126 -1.429,32.931 -0.582,33.542M12.382,40.065C13.631,40.545 14.635,40.931 15.972,41.444C14.725,42.953 13.316,44.058 12.758,45.495C12.155,47.047 12.707,48.826 13.485,50.319C13.912,50.255 14.107,50.284 14.214,50.201C16.54,48.383 17.604,45.642 19.176,43.278C19.387,42.961 19.082,41.849 18.748,41.698C17.172,40.987 17.344,39.85 17.597,38.508C18.145,35.596 18.588,32.665 19.07,29.768C18.753,29.669 18.536,29.539 18.477,29.591C16.698,31.134 14.925,32.684 13.185,34.27C12.982,34.454 12.931,34.854 12.896,35.164C12.709,36.801 12.55,38.442 12.382,40.065M10.604,6.582C8.075,7.869 5.649,9.023 3.326,10.354C2.867,10.617 2.527,11.596 2.6,12.187C2.873,14.396 3.262,16.599 3.771,18.765C3.977,19.639 4.604,20.413 5.062,21.274C6.656,20.516 8.035,19.937 9.33,19.208C9.846,18.918 10.369,18.364 10.559,17.816C11.796,14.232 12.709,10.614 10.604,6.582M0.125,12.508C-3.443,13.522 -5.508,16.623 -5.121,20.007C-5.051,20.624 -4.817,21.417 -5.099,21.828C-5.449,22.341 -6.246,22.777 -6.867,22.799C-7.311,22.816 -7.924,22.181 -8.211,21.69C-8.998,20.346 -9.653,18.925 -10.358,17.538C-11.669,18.155 -12.691,18.59 -13.671,19.107C-15.529,20.087 -15.52,20.107 -16.868,20.004C-14.879,18.796 -13.158,17.75 -11.462,16.72C-12.33,14.522 -13.774,13.393 -15.484,13.492C-19.037,13.696 -21.407,17.607 -19.965,21.065C-19.248,20.971 -18.504,20.872 -17.697,20.766C-17.797,21.052 -17.81,21.227 -17.901,21.333C-19.605,23.298 -19.577,23.712 -17.541,25.174C-17.093,25.497 -16.573,25.72 -16.094,26C-14.417,26.978 -12.564,26.838 -10.729,26.895C-9.571,26.93 -8.272,26.723 -7.554,28.055C-7.906,29.072 -8.729,29.278 -9.647,29.293C-10.525,29.308 -11.411,29.363 -12.281,29.277C-14.639,29.044 -16.647,30.089 -18.626,31.064C-20.131,31.806 -21.145,33.218 -20.98,34.941C-20.818,36.625 -20.219,38.266 -19.735,40.237C-18.884,39.603 -18.319,39.198 -17.772,38.772C-14.958,36.582 -12.191,34.327 -9.318,32.217C-7.661,31 -5.73,30.184 -4.345,28.556C-3.797,27.912 -2.928,27.538 -2.195,27.055C-1.006,26.271 0.149,25.423 1.396,24.746C2.576,24.106 2.651,23.281 2.267,22.149C1.886,21.027 1.58,19.873 1.332,18.713C0.903,16.711 0.546,14.692 0.125,12.508M12.308,-32.588C12.308,-31.13 12.239,-30.027 12.32,-28.936C12.55,-25.836 12.791,-22.736 13.124,-19.646C13.328,-17.75 13.915,-15.878 13.97,-13.985C14.104,-9.357 14.028,-4.723 14.037,-0.091C14.039,0.819 14.037,1.729 14.037,3.032C20.295,0.144 26.157,-2.456 31.866,-5.682C28.351,-6.581 27.431,-9.667 25.808,-12.27C25.292,-11.476 25.08,-10.754 24.845,-10.04C24.599,-9.29 24.329,-8.548 23.975,-7.531C23.081,-7.679 21.845,-7.532 21.534,-7.999C20.485,-9.578 19.566,-11.313 19.012,-13.115C18.763,-13.921 19.468,-15.039 19.793,-15.998C20.123,-16.975 20.564,-17.914 20.876,-18.895C21.704,-21.503 22.106,-24.156 21.761,-26.91C21.627,-27.973 21.172,-28.694 20.247,-29.17C18.268,-30.187 16.303,-31.236 14.302,-32.211C13.839,-32.436 13.257,-32.419 12.308,-32.588M5.041,63.582C4.042,62.371 3.06,61.508 2.517,60.425C2.005,59.405 1.956,58.153 1.687,56.932C-0.569,58.305 -0.968,59.398 -0.197,61.486C0.238,62.668 0.607,63.873 1.004,65.059C-1.185,66.097 -1.444,65.902 -2.728,62.184C-4.828,64.008 -6.552,66.019 -7.598,68.53C-8.16,69.881 -7.565,70.814 -5.898,71.569C-4.935,72.006 -3.519,74.72 -3.926,75.649C-4.141,76.141 -4.737,76.662 -5.254,76.785C-6.257,77.024 -7.401,77.094 -8.112,76.106C-8.662,75.341 -9.253,74.494 -9.443,73.603C-10.17,70.184 -11.494,66.888 -11.336,63.275C-11.272,61.829 -11.812,60.356 -12.15,58.487C-13.026,59.123 -13.579,59.512 -14.12,59.918C-14.631,60.3 -15.095,60.759 -15.643,61.077C-16.409,61.521 -17.181,61.48 -17.796,60.75C-18.507,59.906 -18.003,59.251 -17.392,58.686C-15.994,57.393 -14.546,56.155 -13.155,54.855C-12.769,54.493 -12.51,53.993 -12.04,53.349C-13.703,52.791 -15.158,52.226 -16.661,51.845C-17.106,51.732 -17.742,52.04 -18.189,52.317C-21.579,54.412 -24.949,56.539 -28.312,58.676C-29.532,59.452 -30.719,59.873 -32.248,58.516C-31.615,58.028 -31.131,57.567 -30.57,57.236C-27.276,55.297 -23.953,53.406 -20.669,51.451C-20.085,51.103 -19.638,50.527 -19.088,50.021C-20.293,48.12 -21.392,46.388 -22.596,44.489C-24.134,44.909 -25.223,46.142 -26.578,46.894C-27.822,47.584 -28.842,49.05 -30.777,48.385C-30.086,46.425 -28.142,46.177 -26.823,45.2C-25.5,44.218 -24.089,43.354 -22.674,42.41C-23.048,40.731 -23.439,39.186 -23.724,37.622C-23.923,36.527 -24.166,35.383 -24.036,34.304C-23.933,33.441 -23.503,32.391 -22.857,31.865C-21.468,30.732 -20.173,29.349 -18.238,29.035C-17.897,28.979 -17.614,28.573 -17.173,28.225C-18.778,26.996 -20.258,25.737 -21.881,24.704C-22.317,24.426 -23.348,24.611 -23.833,24.961C-25.495,26.164 -27.035,27.537 -28.626,28.838C-29.082,29.211 -29.554,29.563 -30.129,30.01C-30.868,28.385 -29.812,27.671 -28.999,27.06C-27.732,26.109 -26.349,25.296 -24.952,24.54C-23.106,23.542 -22.807,23.353 -23.245,21.419C-24.021,17.989 -23.094,15.554 -20.146,13.429C-16.858,11.059 -13.627,10.693 -10.187,13.583C-8.011,15.413 -6.408,14.986 -5.4,12.375C-3.028,6.233 -4.846,0.849 -8.354,-4.237C-8.783,-4.86 -9.267,-5.445 -9.946,-6.338C-8.867,-6.839 -8.138,-7.33 -7.336,-7.523C-3.396,-8.472 0.626,-9.12 4.339,-10.865C4.618,-10.997 4.961,-11.025 5.276,-11.042C6.709,-11.123 7.145,-10.416 6.531,-9.104C5.589,-7.087 4.569,-5.097 3.783,-3.018C2.437,0.54 2.067,4.228 2.637,7.989C4.091,8.433 5.122,7.808 6.165,7.229C7.416,6.534 8.621,5.726 9.934,5.178C11.401,4.566 12.016,3.61 11.963,2.046C11.853,-1.222 11.599,-4.508 11.813,-7.76C12.01,-10.761 11.321,-13.575 10.852,-16.458C10.673,-17.554 10.77,-18.692 10.655,-19.803C10.437,-21.934 10.143,-24.058 9.906,-26.187C9.801,-27.139 9.767,-28.098 9.688,-29.053C9.553,-30.718 9.455,-32.388 9.252,-34.044C9.041,-35.764 9.835,-36.57 11.453,-35.928C13.069,-35.286 14.58,-34.372 16.128,-33.559C17.463,-32.858 18.789,-32.138 20.111,-31.412C20.949,-30.952 21.807,-30.514 22.599,-29.982C24.233,-28.884 24.833,-27.362 24.351,-25.417C23.563,-22.245 22.804,-19.066 22.037,-15.89C21.838,-15.066 21.479,-14.212 22.523,-13.367C22.796,-13.955 23.109,-14.406 23.213,-14.9C23.439,-15.98 23.991,-16.632 25.128,-16.691C26.325,-16.754 27.36,-16.502 27.872,-15.247C28.476,-13.768 29.086,-12.291 29.697,-10.814C29.879,-10.374 30.009,-9.896 30.274,-9.512C31.021,-8.428 31.864,-8.263 32.931,-9.031C33.505,-9.445 34.045,-9.954 34.467,-10.519C35.109,-11.38 35.948,-11.843 36.935,-11.577C38.167,-11.244 37.964,-10.15 37.879,-9.183C37.867,-9.055 37.999,-8.915 38.12,-8.668C39.621,-8.86 41.302,-9.791 42.912,-7.923C38.349,-5.862 33.98,-3.871 29.597,-1.914C24.865,0.198 20.123,2.288 15.376,4.364C14.468,4.761 13.982,5.385 13.957,6.372C13.953,6.532 13.929,6.692 13.938,6.851C14.131,9.789 14.339,12.726 13.113,15.532C13.073,15.625 13.235,15.805 13.44,16.228C14.767,15.643 16.155,15.131 17.448,14.439C20.318,12.904 23.179,11.345 25.961,9.66C27.175,8.925 28.115,7.746 29.311,6.971C30.424,6.25 31.658,5.578 32.934,5.271C35.904,4.553 38.002,2.727 39.487,0.249C40.099,-0.771 40.605,-1.737 41.764,-1.986C45.106,-2.706 47.419,-5.121 50.09,-6.934C51.376,-7.806 52.506,-8.905 53.741,-9.856C54.437,-10.393 55.814,-10.241 56.383,-9.61C57.028,-8.892 57.237,-8.186 56.577,-7.267C55.096,-5.2 53.725,-3.054 52.294,-0.951C49.652,2.932 47.121,6.899 44.318,10.662C41.397,14.585 39.091,18.865 36.747,23.109C33.436,29.103 29.505,34.688 25.893,40.482C23.873,43.722 21.878,46.979 19.807,50.187C16.907,54.68 13.733,58.955 10.257,63.045C7.381,66.428 5.042,70.269 2.476,73.916C2.155,74.372 1.945,74.907 1.611,75.351C1.027,76.127 0.184,76.085 -0.549,75.721C-1.29,75.353 -1.449,74.645 -1.027,73.885C0.018,72.008 1.038,70.116 2.125,68.263C3.05,66.688 4.055,65.159 5.041,63.582" style="fill:rgb(70,70,70);fill-rule:nonzero;"/>
                </g>
                <g transform="matrix(3.92695,0,0,3.92695,827.022,695.45)">
                    <path d="M0,36.949C1.074,36.135 1.596,35.422 1.69,34.38C1.762,33.589 1.853,32.773 2.112,32.031C2.55,30.784 2.17,29.937 1.226,29.087C-0.533,27.501 -2.193,25.806 -3.897,24.159C-4.486,23.59 -5.082,23.027 -5.721,22.418C-5.658,28.041 -2.9,32.366 0,36.949M2.739,21.682C0.829,25.269 0.957,25.866 3.674,26.48C4.875,23.154 6.114,19.819 7.277,16.457C7.849,14.806 8.284,13.107 8.771,11.427C9.138,10.168 9.063,9.107 7.725,8.37C6.595,7.748 6.394,6.663 6.662,5.455C6.853,4.597 7.075,3.737 7.154,2.866C7.274,1.533 7.289,0.188 6.247,-1.157C5.856,-0.306 5.503,0.321 5.272,0.99C3.45,6.273 2.167,11.693 1.137,17.182C0.794,19.01 0.631,20.665 2.739,21.682M12.611,-20.814C13.736,-20.814 15.086,-20.799 16.434,-20.825C16.74,-20.832 17.073,-20.93 17.344,-21.078C21.618,-23.411 24.723,-26.124 24.412,-31.602C24.251,-34.448 22.589,-36.249 20.73,-37.995C20.386,-38.318 19.665,-38.475 19.183,-38.38C15.606,-37.674 12.333,-36.248 9.992,-33.374C7.912,-30.82 7.857,-26.555 9.708,-23.945C10.471,-22.869 11.508,-21.988 12.611,-20.814M35.905,66.078C37.626,67.951 39.393,69.873 41.158,71.796C42.265,73.001 41.985,74.199 40.41,74.613C39.743,74.788 38.989,74.655 38.276,74.628C37.654,74.605 36.994,74.373 36.42,74.514C34.23,75.053 32.937,73.875 31.842,72.278C31.578,71.893 31.458,71.411 31.272,70.973C29.969,67.886 29.969,67.886 26.832,67.319C26.496,66.139 26.353,64.858 25.774,63.818C25.174,62.736 24.152,61.886 23.16,60.76C22.678,61.347 22.259,61.856 21.559,62.708C22.274,63.076 22.907,63.402 23.596,63.756C22.286,65.648 21.034,66.902 19.205,67.464C18.367,67.721 17.515,67.935 16.666,68.158C15.658,68.423 15.043,69.019 14.711,70.044C14.319,71.251 13.764,72.404 13.271,73.577C13.148,73.87 13.053,74.202 12.85,74.43C10.894,76.618 9.057,77.807 7.232,74.224C7.169,74.099 6.989,74.033 6.726,73.837C5.668,74.306 4.563,74.907 3.388,75.295C1.343,75.97 -0.68,76.003 -2.564,74.694C-3.618,73.962 -4.263,73.056 -4.202,71.637C-1.896,70.792 0.393,69.918 2.705,69.116C6.077,67.948 6.084,67.97 5.204,64.695C5.261,64.553 5.278,64.335 5.387,64.273C7.445,63.086 7.229,61.426 6.894,59.339C6.199,55.031 3.626,52.073 0.71,49.114C-0.676,50.157 -0.609,51.739 -1.13,53.02C-1.438,53.78 -1.655,54.461 -2.495,54.841C-4.143,55.587 -5.397,54.933 -5.494,53.138C-5.537,52.344 -5.394,51.542 -5.397,50.744C-5.405,49.162 -5.371,47.574 -5.51,46.002C-5.681,44.067 -5.105,42.342 -4.111,40.787C-3.32,39.547 -3.311,38.486 -3.977,37.22C-5.644,34.052 -7.267,30.858 -8.824,27.634C-9.228,26.8 -9.674,25.743 -9.493,24.923C-9.146,23.343 -9.814,22.298 -10.703,21.246C-11.373,20.454 -12.168,19.728 -11.596,18.384C-8.778,17.803 -6.355,20.116 -3.172,19.679C-1.829,14.64 -0.469,9.508 0.909,4.382C1.199,3.304 1.411,2.171 1.911,1.193C3.749,-2.4 4.653,-6.278 5.579,-10.155C5.653,-10.466 5.671,-10.79 5.754,-11.098C6.891,-15.34 7.316,-15.688 11.745,-16.076C11.96,-16.095 12.166,-16.218 12.645,-16.388C11.415,-18.426 10.547,-20.651 8.225,-21.526C6.898,-22.026 6.337,-22.779 6.151,-24.093C5.874,-26.06 5.103,-28.042 5.243,-29.966C5.479,-33.204 7.158,-35.916 9.946,-37.664C11.752,-38.797 13.743,-39.676 15.739,-40.441C16.734,-40.822 17.942,-40.858 19.024,-40.751C20.606,-40.595 22.165,-40.185 23.728,-39.857C25.142,-39.561 26.169,-38.812 26.768,-37.428C27.241,-36.334 27.926,-35.333 28.455,-34.26C30.245,-30.633 29.625,-26.309 26.876,-23.35C25.641,-22.021 24.34,-20.752 22.952,-19.336C24.02,-18.142 25.631,-17.82 26.873,-16.949C28.043,-16.129 30.199,-16.255 30.052,-13.659C27.67,-13.573 25.406,-13.272 23.557,-15.412C22.635,-16.479 21.462,-17.37 20.276,-18.147C19.794,-18.463 18.975,-18.265 18.018,-18.317C18.392,-17.418 18.624,-16.859 18.885,-16.23C18.318,-15.492 17.744,-14.744 17.176,-14.004C17.48,-13.157 17.76,-12.38 18.105,-11.417C16.83,-11.418 16.43,-12.191 15.84,-12.798C15.479,-13.168 14.563,-13.528 14.255,-13.332C12.013,-11.904 9.271,-10.825 9.142,-7.543C9.09,-6.208 9.037,-4.843 9.248,-3.534C9.538,-1.731 10.254,0.011 10.463,1.818C10.68,3.696 10.511,5.619 10.511,7.361C11.49,7.968 12.314,8.479 12.916,8.852C11.123,14.494 9.19,19.738 7.83,25.127C6.725,29.506 5.083,33.794 4.901,38.397C4.877,39.013 4.33,39.62 3.989,40.211C3.762,40.604 3.472,40.961 3.13,41.448C4.44,42.183 6.553,41.946 6.291,44.1C6.126,45.464 6.27,47.032 4.57,47.826C4.643,47.972 4.715,48.119 4.787,48.266C5.229,48.273 5.709,48.396 6.109,48.268C8.172,47.609 8.66,48.114 8.909,50.265C9.273,53.406 10.003,56.503 10.497,59.631C10.72,61.043 10.77,62.483 10.865,63.913C10.988,65.734 11.313,65.999 13.036,65.653C13.975,65.464 14.928,65.342 15.859,65.124C17.818,64.668 18.292,63.408 17.964,61.447C17.601,59.274 17.604,57.015 17.679,54.802C17.72,53.571 19.108,52.853 20.585,52.897C21.831,52.934 22.187,53.727 22.351,54.762C22.498,55.692 22.678,56.617 22.854,57.606C23.405,57.652 23.806,57.766 24.175,57.703C25.847,57.415 26.822,58.184 27.619,59.595C28.197,60.618 29.099,61.458 29.853,62.384C30.629,63.337 31.683,63.192 32.726,63.132C34.798,63.014 36.87,62.853 38.945,62.82C40.716,62.792 41.58,63.345 41.553,64.266C41.527,65.132 40.471,65.947 39.025,66.061C37.926,66.148 36.813,66.078 35.905,66.078" style="fill:rgb(70,70,70);fill-rule:nonzero;"/>
                </g>
                <g transform="matrix(3.92695,0,0,3.92695,965.961,858.19)">
                    <path d="M0,-35.401C-1.506,-31.612 -1.491,-29.781 -0.358,-23.798C0.296,-26.547 0.969,-29.231 1.565,-31.931C1.872,-33.319 1.102,-34.294 0,-35.401M-0.167,-20.078C-0.589,-18.046 -1.007,-16.126 -1.37,-14.196C-1.438,-13.834 -1.426,-13.321 -1.219,-13.065C0.637,-10.76 3.498,-9.352 5.409,-12.933C4.895,-13.958 3.999,-14.973 4.801,-16.373C4.953,-16.639 4.405,-17.58 3.96,-17.862C2.66,-18.687 1.249,-19.335 -0.167,-20.078M-2.007,-9.234C-1.804,-6.592 -3.197,-4.252 -1.709,-2.007C1.551,-2.258 1.836,-1.969 1.701,1.199C1.646,2.474 1.583,3.755 1.642,5.028C1.747,7.33 3.426,9.124 6.035,9.71C5.99,9.13 5.93,8.598 5.911,8.065C5.805,5.124 5.595,2.182 5.648,-0.756C5.687,-2.821 6.616,-4.596 8.33,-5.877C8.839,-6.257 9.448,-6.585 9.786,-7.088C10.09,-7.539 10.347,-8.338 10.141,-8.73C9.917,-9.155 9.099,-9.554 8.606,-9.485C7.865,-9.382 7.116,-8.953 6.488,-8.5C4.974,-7.409 3.418,-7.374 1.738,-8.005C0.634,-8.421 -0.505,-8.746 -2.007,-9.234M-1.226,-51.337C1.163,-51.355 1.757,-50.678 1.397,-48.673C1.089,-46.951 0.94,-45.199 0.766,-43.455C0.46,-40.394 1.638,-37.799 3.608,-35.608C5.028,-34.029 5.547,-32.316 5.118,-30.325C4.75,-28.619 4.295,-26.92 3.724,-25.271C2.851,-22.754 3.276,-21.66 5.763,-20.608C7.228,-19.987 8.628,-19.394 9.401,-17.757C9.773,-16.969 10.733,-16.401 11.522,-15.879C14.234,-14.087 14.251,-14.111 12.283,-11.537C12.782,-10.814 13.328,-10.053 13.843,-9.271C15.144,-7.295 14.961,-6.227 12.939,-4.96C11.56,-4.095 10.343,-3.183 9.68,-1.606C8.604,0.953 8.905,3.576 9.327,6.149C9.633,8.013 10.424,9.794 10.916,11.634C11.096,12.302 11.099,13.036 11.071,13.736C11.034,14.666 10.756,15.494 9.624,15.609C8.592,15.713 7.456,15.954 6.849,14.804C5.974,13.146 4.378,12.37 2.937,11.405C0.726,9.925 -1.969,5.238 -2.22,2.605C-2.314,1.614 -2.678,0.622 -3.064,-0.308C-3.706,-1.85 -4.538,-3.314 -5.143,-4.868C-5.417,-5.575 -5.493,-6.44 -5.392,-7.196C-5.19,-8.695 -4.729,-10.158 -4.517,-11.655C-4.354,-12.806 -4.404,-13.987 -4.37,-15.156C-4.351,-15.86 -4.506,-16.609 -4.316,-17.262C-3.558,-19.874 -3.342,-22.35 -3.764,-25.181C-4.475,-29.949 -4.481,-34.88 -2.71,-39.576C-2.461,-40.236 -2.338,-40.962 -2.272,-41.669C-1.993,-44.681 -1.764,-47.699 -1.497,-50.714C-1.479,-50.932 -1.314,-51.139 -1.226,-51.337" style="fill:rgb(70,70,70);fill-rule:nonzero;"/>
                </g>
                <g transform="matrix(3.92695,0,0,3.92695,1057.06,637.816)">
                    <path d="M0,2.913C1.492,1.153 1.492,1.153 -0.232,0.484C-0.146,1.382 -0.073,2.147 0,2.913M-2.215,30.698C-3.86,30.333 -4.146,29.489 -4.142,28.443C-4.119,24.531 -4.116,20.619 -4.062,16.707C-4.053,15.998 -3.976,15.228 -3.688,14.596C-2.773,12.582 -3.123,10.565 -3.328,8.485C-3.633,5.399 -4.067,2.251 -3.766,-0.803C-3.219,-6.346 -5.735,-10.44 -9.048,-14.391C-10.205,-15.771 -11.038,-17.428 -11.958,-18.995C-12.168,-19.352 -12.122,-19.86 -12.2,-20.337C-10.817,-20.932 -10.305,-19.961 -9.809,-19.227C-7.675,-16.076 -5.603,-12.883 -3.487,-9.719C-3.379,-9.557 -3.079,-9.522 -2.717,-9.36C-1.846,-11.066 -1.619,-12.749 -2.087,-14.607C-2.921,-17.924 -3.379,-21.299 -3.229,-24.737C-3.18,-25.845 -3.077,-26.92 -2.221,-27.785C-0.934,-27.264 -1.019,-26.195 -0.909,-25.316C-0.396,-21.2 0.1,-17.081 0.498,-12.953C0.649,-11.386 0.522,-9.793 0.522,-7.933C1.655,-8.608 2.403,-9.396 2.757,-10.552C3.536,-13.109 4.819,-15.349 6.614,-17.358C7.365,-18.2 7.688,-19.422 8.222,-20.462C8.581,-21.165 8.86,-21.947 9.367,-22.526C10.258,-23.544 11.578,-23.295 11.999,-22.024C12.21,-21.389 12.22,-20.582 12.031,-19.939C11.35,-17.619 10.281,-15.516 8.414,-13.863C6.702,-12.348 3.98,-6.994 3.565,-4.753C3.356,-3.624 2.992,-2.524 3.053,-1.196C3.452,-1.508 3.875,-1.793 4.245,-2.136C6.454,-4.178 8.612,-6.278 10.872,-8.261C11.646,-8.941 12.682,-8.841 13.537,-8.23C14.278,-7.7 14.479,-6.412 13.835,-5.632C13.185,-4.847 12.417,-4.089 11.552,-3.565C6.497,-0.502 4.139,4.343 2.479,9.723C1.547,12.745 0.876,15.878 -0.965,18.564C-1.247,18.976 -1.275,19.634 -1.252,20.17C-1.187,21.684 -1.057,23.197 -0.908,24.706C-0.697,26.848 -1.394,28.735 -2.215,30.698" style="fill:rgb(70,70,70);fill-rule:nonzero;"/>
                </g>
                <g transform="matrix(3.92695,0,0,3.92695,511.113,596.082)">
                    <path d="M0,-25.892C1.42,-24.237 2.859,-22.559 4.244,-20.944C6.667,-20.815 5.978,-23.34 7.135,-24.301C8.324,-22.948 9.421,-21.702 10.557,-20.411C14.898,-22.379 19.064,-24.268 23.25,-26.166C23.654,-24.548 23.291,-23.651 21.965,-23.086C18.822,-21.747 15.676,-20.413 12.498,-19.161C11.478,-18.759 11.11,-18.186 11.368,-17.156C11.556,-16.408 11.733,-15.658 12.006,-14.535C13.511,-16.244 15.115,-16.178 16.908,-15.953C18.457,-15.758 20.076,-16.172 21.667,-16.219C22.312,-16.238 22.966,-15.997 23.741,-15.85C22.574,-14.669 21.638,-13.722 20.611,-12.684C19.602,-12.807 18.355,-13.136 17.133,-13.066C15.426,-12.967 13.729,-12.608 12.042,-12.285C11.279,-12.138 10.984,-11.527 11.319,-10.827C11.584,-10.274 12.036,-9.811 12.283,-9.474C13.353,-9.474 14.236,-9.661 14.988,-9.426C15.876,-9.149 16.083,-8.232 16.336,-7.335C16.529,-6.646 17.211,-6.025 17.808,-5.533C19.973,-3.744 19.993,-3.769 18.491,-1.341C15.714,-2.397 13.685,-4.44 11.689,-6.531C10.818,-7.444 10.029,-8.485 8.412,-8.669C6.881,-6.006 8.757,-2.446 6.184,0.274C6.275,-2.213 7.178,-4.471 6.122,-6.794C3.673,-6.146 2.336,-3.911 0.173,-2.787C-0.514,-3.053 -1.24,-3.334 -2.18,-3.698C-1.975,-4.233 -1.843,-4.734 -1.602,-5.174C-1.109,-6.072 -0.518,-6.916 -0.041,-7.822C0.436,-8.73 1.048,-9.597 2.133,-9.353C4.687,-8.778 6.12,-10.398 7.959,-12.064C7.387,-12.196 7.054,-12.352 6.73,-12.333C5.338,-12.249 4.188,-12.785 3.38,-13.842C2.677,-14.761 1.864,-14.839 0.849,-14.698C-1.437,-14.382 -3.727,-14.083 -6.023,-13.871C-6.927,-13.788 -8.058,-13.583 -8.383,-14.868C-8.542,-15.5 -7.237,-16.348 -6.03,-16.53C-4.546,-16.755 -3.011,-16.84 -1.597,-17.295C0.136,-17.853 0.456,-18.714 -0.134,-20.459C-0.437,-21.359 -0.958,-22.183 -1.319,-23.065C-1.864,-24.395 -1.591,-24.981 0,-25.892" style="fill:rgb(70,70,70);fill-rule:nonzero;"/>
                </g>
                <g transform="matrix(3.92695,0,0,3.92695,762.922,590.755)">
                    <path d="M0,-16.616C0.719,-16.799 1.324,-16.963 1.935,-17.105C4.066,-17.597 5.774,-16.396 5.538,-14.242C5.372,-12.725 4.693,-11.209 3.977,-9.831C3.623,-9.149 3.306,-8.647 3.563,-7.881C4.16,-6.102 3.6,-4.579 2.396,-3.254C1.117,-1.845 -0.131,-0.4 -1.512,0.904C-3.385,2.673 -5.66,3.211 -8.177,2.641C-10.045,2.218 -11.978,1.863 -13.366,0.411C-14.118,-0.376 -14.709,-1.341 -15.244,-2.299C-15.387,-2.555 -15.056,-3.076 -14.814,-3.927C-12.234,-0.756 -9.339,0.883 -5.354,0.018C-5.094,-2.19 -3.636,-2.993 -1.583,-3.176C-0.193,-3.3 0.737,-4.12 1.136,-5.562C0.979,-5.729 0.835,-6.019 0.682,-6.024C-0.246,-6.054 -0.937,-6.496 -1.028,-7.378C-1.115,-8.222 -0.333,-8.44 0.358,-8.758C2.279,-9.642 3.46,-12.185 3.146,-14.609C0.179,-15.067 -1.119,-12.471 -3.05,-10.889C-3.939,-12.029 -3.925,-12.958 -3.297,-13.923C-3.124,-14.189 -2.792,-14.409 -2.74,-14.689C-2.62,-15.335 -2.406,-16.099 -2.636,-16.644C-2.962,-17.415 -3.766,-17.29 -4.521,-17.063C-7.062,-16.3 -8.863,-14.785 -10.309,-12.095C-11.436,-11.854 -11.626,-12.713 -11.864,-13.469C-12.219,-14.59 -12.885,-15.31 -14.129,-15.149C-15.39,-14.987 -16.738,-14.883 -17.231,-13.362C-18.046,-10.852 -18.524,-8.391 -16.398,-6.203C-16.056,-5.85 -15.915,-5.301 -15.629,-4.741C-16.879,-4.292 -17.463,-4.825 -17.956,-5.641C-19.482,-8.168 -19.025,-10.844 -18.637,-13.541C-18.302,-15.866 -16.854,-17.021 -14.71,-17.336C-13.836,-17.465 -12.788,-17.347 -12.011,-16.959C-11.022,-16.465 -10.315,-16.422 -9.379,-17.041C-8.258,-17.782 -6.999,-18.314 -5.796,-18.93C-5.655,-19.001 -5.494,-19.032 -5.341,-19.076C-2.807,-19.827 -1.663,-19.338 0,-16.616" style="fill:rgb(70,70,70);fill-rule:nonzero;"/>
                </g>
                <g transform="matrix(3.92695,0,0,3.92695,886.513,602.397)">
                    <path d="M0,-9.726C0.749,-9.914 1.501,-10.087 2.244,-10.293C4.454,-10.903 5.908,-9.827 5.711,-7.537C5.479,-4.85 5.229,-2.167 2.773,-0.288C0.857,1.177 -0.927,1.054 -2.157,-1.02C-2.92,-2.305 -3.744,-3.619 -4.157,-5.033C-4.954,-7.756 -2.89,-10.094 0,-9.726" style="fill:rgb(70,70,70);fill-rule:nonzero;"/>
                </g>
            </g>
        </g>
    </g>
</svg>
