<?xml version="1.0" encoding="UTF-8" standalone="no"?>
<!DOCTYPE svg PUBLIC "-//W3C//DTD SVG 1.1//EN" "http://www.w3.org/Graphics/SVG/1.1/DTD/svg11.dtd">
<svg width="100%" height="100%" viewBox="0 0 1182 1182" version="1.1" xmlns="http://www.w3.org/2000/svg" xmlns:xlink="http://www.w3.org/1999/xlink" xml:space="preserve" xmlns:serif="http://www.serif.com/" style="fill-rule:evenodd;clip-rule:evenodd;stroke-linejoin:round;stroke-miterlimit:2;">
    <g transform="matrix(1,0,0,1,-8981.44,0)">
        <g id="Artboard1" transform="matrix(1,0,0,1,8981.44,0)">
            <rect x="0" y="0" width="1181.1" height="1181.1" style="fill:none;"/>
            <g transform="matrix(4.55544,0,0,4.55544,158.496,322.553)">
                <g transform="matrix(1,0,0,1,102.482,103.138)">
                    <path d="M0,-88.564C0.227,-89.051 0.476,-89.334 0.422,-89.539C0.364,-89.758 0.022,-89.904 -0.194,-90.082C-0.354,-89.862 -0.644,-89.638 -0.638,-89.422C-0.632,-89.203 -0.336,-88.992 0,-88.564M20.146,7.556C20.152,7.722 20.159,7.888 20.167,8.053C20.781,7.993 21.396,7.933 22.011,7.873C22.003,7.768 21.994,7.662 21.986,7.556L20.146,7.556ZM13.872,9.28C12.867,9.217 11.861,9.088 10.859,9.111C9.949,9.131 9.041,7.999 7.768,9.246C9.993,10.047 11.926,9.711 13.872,9.28M-7.619,-49.666C-5.602,-46.948 -4.086,-45.977 -1.947,-46.022C-1.881,-46.924 -1.436,-48.092 -2.497,-48.528C-4.045,-49.163 -5.552,-50.308 -7.619,-49.666M-10.131,-70.027C-7.76,-68.404 -5.441,-67.65 -2.242,-68.171C-3.22,-69.111 -3.831,-69.769 -4.514,-70.342C-6.625,-72.117 -7.496,-72.088 -10.131,-70.027M8.345,-93.278C7.38,-95.976 6.716,-96.324 4.729,-95.56C3.555,-95.109 2.355,-94.71 1.23,-94.158C0.531,-93.815 -0.05,-93.231 -0.684,-92.756C-0.611,-92.62 -0.538,-92.483 -0.466,-92.346C2.386,-92.648 5.237,-92.949 8.345,-93.278M1.877,-84.909C3.041,-81.608 5.855,-82.381 7.981,-82.051C8.846,-81.918 9.992,-83.171 10.896,-83.929C11.243,-84.22 11.273,-84.889 11.435,-85.345C9.729,-86.303 8.207,-87.487 6.412,-85.885C6.269,-85.757 5.943,-85.85 5.712,-85.797C4.442,-85.511 3.177,-85.211 1.877,-84.909M4.095,-67.399C5.3,-68.932 5.835,-70.555 5.937,-72.317C5.986,-73.177 6.084,-74.152 5.752,-74.892C5.069,-76.408 4.255,-77.911 3.243,-79.226C-0.087,-83.551 -4.369,-86.602 -9.49,-88.55C-11.528,-89.326 -13.565,-89.166 -15.626,-89.12C-16.02,-89.111 -16.406,-88.725 -16.771,-88.528C-16.568,-87.905 -16.416,-87.435 -16.244,-86.906C-16.655,-86.839 -16.889,-86.762 -17.118,-86.773C-17.435,-86.787 -17.755,-86.838 -18.06,-86.925C-20.463,-87.613 -20.829,-87.482 -22.189,-85.504C-22.55,-84.98 -23.097,-84.556 -23.35,-83.993C-24.099,-82.332 -25.683,-80.947 -24.728,-78.737C-23.226,-75.262 -22.91,-71.71 -24.555,-68.123C-24.771,-67.65 -24.631,-66.827 -24.351,-66.343C-22.962,-63.946 -21.602,-61.512 -19.968,-59.283C-18.951,-57.896 -17.536,-56.762 -16.166,-55.684C-15.39,-55.074 -14.253,-54.933 -13.439,-54.355C-12.018,-53.343 -10.488,-52.832 -8.771,-52.72C-6.484,-52.571 -4.146,-52.834 -1.945,-51.912C-1.785,-51.844 -1.514,-52.043 -1.327,-52.106C0.048,-55.46 0.276,-55.589 3.546,-54.749L3.546,-50.791C4.465,-50.969 5.209,-50.939 5.766,-51.249C9.212,-53.168 12.783,-52.918 16.443,-52.098C17.565,-51.847 18.753,-51.888 20.097,-51.781C20.221,-52.96 20.325,-53.814 20.398,-54.672C20.479,-55.626 20.301,-56.672 20.636,-57.522C22.1,-61.238 20.664,-64.548 19.437,-67.923C19.091,-68.877 18.644,-69.909 18.707,-70.874C18.836,-72.8 17.813,-73.929 16.354,-74.651C14.465,-75.585 12.446,-76.255 10.36,-77.087C10.36,-76.177 10.362,-75.547 10.36,-74.917C10.354,-72.361 10.306,-69.824 9.523,-67.335C9.188,-66.268 8.523,-65.664 7.611,-65.403C6.471,-65.077 5.239,-64.77 4.079,-64.861C-1.453,-65.297 -7.016,-65.693 -12.189,-67.982C-13.267,-68.458 -14.107,-68.403 -15.072,-67.724C-16.235,-66.906 -17.475,-66.167 -18.765,-65.577C-19.193,-65.382 -20.319,-65.662 -20.367,-65.886C-20.496,-66.494 -20.411,-67.333 -20.052,-67.811C-19.654,-68.34 -18.829,-68.528 -18.245,-68.943C-17.573,-69.421 -16.963,-69.985 -16.288,-70.542C-16.885,-71.263 -17.362,-71.705 -17.672,-72.243C-18.233,-73.217 -17.749,-74.059 -16.606,-73.939C-15.776,-73.853 -14.867,-73.536 -14.206,-73.039C-12.952,-72.098 -11.842,-72.353 -10.66,-73.043C-6.948,-75.211 -3.473,-74.604 -0.599,-71.426C0.292,-70.441 1.443,-69.694 2.469,-68.83C2.946,-68.427 3.407,-68.005 4.095,-67.399M-3.713,-96.418C-4.44,-95.721 -5.556,-95.314 -5.689,-93.803C-4.536,-94.569 -3.623,-95.142 -3.752,-96.462C-2.827,-96.337 -2.187,-96.604 -2.265,-97.814C-2.747,-97.349 -3.23,-96.883 -3.713,-96.418M15.873,4.999C15.636,4.978 15.394,4.914 15.162,4.942C11.681,5.367 8.375,4.409 5.038,3.679C3.948,3.441 2.854,3.211 1.75,3.064C-0.666,2.742 -2.755,1.596 -4.945,0.642C-7.652,-0.537 -10.379,-1.583 -12.603,-3.639C-13.214,-4.204 -14.133,-4.475 -14.949,-4.775C-19.469,-6.434 -24.021,-6.279 -28.613,-5.041C-31.225,-4.337 -33.814,-3.433 -36.6,-3.69C-37.622,-3.785 -38.81,-3.588 -39.052,-5.007C-39.2,-5.879 -38.071,-6.868 -36.856,-7.183C-34.949,-7.677 -33.089,-8.449 -31.154,-8.718C-26.518,-9.365 -21.885,-10.722 -17.154,-9.298C-16.926,-9.23 -16.679,-9.157 -16.448,-9.175C-13.372,-9.415 -11.11,-7.731 -8.6,-6.273C-4.565,-3.931 -0.333,-1.875 4.434,-1.243C6.39,-0.983 8.294,-0.33 10.223,0.14C10.61,0.234 10.999,0.367 11.392,0.385C15.452,0.579 19.514,0.738 23.573,0.939C24.766,0.998 25.996,0.996 27.13,1.309C28.66,1.73 28.898,3.069 27.676,4.158C26.989,4.769 26.108,5.164 25.312,5.65C24.762,5.987 24.205,6.314 23.184,6.926C25.257,7.524 26.706,7.341 28.152,7.013C29.149,6.787 30.126,6.4 31.133,6.301C35.417,5.877 39.711,5.546 43.999,5.155C45.387,5.029 46.688,5.032 47.808,6.085C48.554,6.786 49.452,6.73 50.184,6.026C50.988,5.251 51.332,4.391 50.673,3.25C49.36,0.978 47.95,-1.271 46.957,-3.684C45.269,-7.792 41.312,-9.5 38.388,-12.295C37.817,-12.84 37.103,-13.232 36.49,-13.737C35.525,-14.531 34.563,-14.88 33.211,-14.668C31.917,-14.465 30.47,-14.623 29.2,-14.996C25.247,-16.159 21.207,-17.006 17.434,-18.829C15.552,-19.737 13.259,-19.759 11.188,-20.318C7.732,-21.251 4.36,-22.634 0.852,-23.195C-3.095,-23.826 -6.546,-25.624 -10.16,-27.008C-13.561,-28.311 -16.756,-30.146 -20.047,-31.733C-20.321,-31.866 -20.643,-31.902 -21.308,-32.083C-21.038,-31.539 -20.901,-31.274 -20.773,-31.006C-20.142,-29.689 -20.298,-29.172 -21.596,-28.566C-24.607,-27.158 -27.77,-26.446 -31.108,-26.598C-31.582,-26.619 -32.057,-26.601 -32.476,-26.601C-32.593,-26.501 -32.674,-26.462 -32.711,-26.397C-34.187,-23.83 -35.046,-23.556 -37.188,-25.652C-39.898,-28.304 -42.556,-30.973 -44.028,-34.702C-45.89,-39.417 -48.272,-43.925 -50.418,-48.528C-50.721,-49.178 -50.852,-49.929 -51.243,-50.513C-51.884,-51.47 -52.657,-52.342 -53.406,-53.223C-53.86,-53.758 -54.58,-54.161 -54.818,-54.766C-55.364,-56.149 -56.468,-56.468 -57.69,-56.504C-60.566,-56.591 -63.456,-56.741 -66.321,-56.559C-69.732,-56.341 -72.394,-54.303 -74.945,-52.259C-76.419,-51.079 -77.793,-49.733 -78.641,-47.915C-78.325,-47.555 -78.117,-47.198 -77.809,-46.984C-76.694,-46.21 -76.639,-45.171 -76.961,-44.006C-77.067,-43.622 -77.091,-43.2 -77.266,-42.852C-78.578,-40.238 -78.641,-37.322 -79.233,-34.542C-79.43,-33.62 -78.967,-32.551 -78.774,-31.555C-78.559,-30.434 -77.525,-29.367 -78.769,-28.108C-75.431,-26.093 -73.372,-23.069 -71.571,-19.898C-70.082,-17.276 -68.937,-14.46 -67.558,-11.772C-66.416,-9.547 -65.556,-7.22 -63.585,-5.391C-62.366,-4.26 -61.226,-2.574 -61.618,-0.372C-58.712,-0.378 -57.073,1.648 -55.198,3.172C-54.57,3.682 -54.483,4.858 -54.062,5.957C-52.345,6.85 -50.534,6.264 -48.862,5.283C-48.374,4.997 -48.076,4.139 -47.973,3.497C-47.795,2.4 -47.94,1.25 -47.747,0.158C-47.655,-0.363 -47.172,-1.082 -46.73,-1.198C-46.272,-1.319 -45.424,-0.973 -45.147,-0.561C-44.493,0.411 -43.95,1.503 -43.599,2.62C-43.222,3.821 -43.146,5.113 -42.882,6.353C-42.632,7.524 -43.211,8.262 -44.177,8.614C-47.492,9.821 -50.843,10.858 -54.412,9.62C-59.069,8.005 -63.81,6.598 -68.367,4.741C-72.453,3.077 -75.896,0.289 -79.072,-2.766C-79.443,-3.122 -79.472,-3.835 -79.677,-4.438C-78.132,-5.026 -76.885,-4.859 -75.709,-4.308C-74.916,-3.935 -74.269,-3.929 -73.446,-4.284C-72.755,-4.583 -71.906,-4.551 -71.123,-4.598C-70.346,-4.645 -69.563,-4.608 -68.599,-4.608C-68.686,-5.311 -68.629,-5.8 -68.811,-6.176C-70.533,-9.751 -72.357,-13.278 -74.031,-16.876C-75.558,-20.158 -77.474,-23.152 -79.954,-25.786C-80.707,-26.586 -81.629,-27.28 -81.029,-28.65C-80.896,-28.956 -81.296,-29.502 -81.465,-29.932C-82.925,-33.627 -83.88,-37.364 -82.623,-41.349C-82.481,-41.799 -82.58,-42.48 -82.84,-42.875C-84.376,-45.214 -84.461,-47.004 -82.926,-49.171C-82.056,-50.401 -81.19,-51.658 -80.159,-52.748C-75.743,-57.411 -70.53,-60.233 -63.855,-59.605C-62.187,-59.448 -60.497,-59.528 -58.82,-59.443C-55.934,-59.296 -53.485,-58.525 -51.667,-55.89C-50.675,-54.452 -48.908,-53.52 -48.113,-51.808C-47.175,-49.791 -46.293,-47.749 -45.34,-45.739C-43.908,-42.722 -42.437,-39.723 -40.976,-36.72C-40.909,-36.585 -40.77,-36.485 -40.581,-36.277C-37.541,-36.416 -35.945,-38.99 -33.744,-40.428C-33.57,-42.67 -33.357,-44.796 -33.257,-46.928C-33.185,-48.441 -33.325,-49.89 -34.192,-51.289C-34.699,-52.106 -34.775,-53.276 -34.793,-54.292C-34.827,-56.221 -34.881,-58.114 -35.632,-59.941C-35.954,-60.726 -36.334,-61.736 -35.175,-62.188C-34.091,-62.609 -33.316,-62 -32.876,-61.023C-32.617,-60.449 -32.403,-59.829 -32.316,-59.209C-31.928,-56.456 -31.631,-53.689 -31.223,-50.939C-30.953,-49.126 -30.6,-47.321 -30.198,-45.531C-29.189,-41.035 -32.344,-36.244 -36.909,-35.334C-37.5,-35.216 -38.091,-34.909 -38.59,-34.559C-39.428,-33.973 -39.354,-33.203 -38.716,-32.509C-37.591,-31.284 -36.424,-30.098 -35.442,-29.071C-32.761,-29.513 -30.359,-29.958 -27.942,-30.288C-26.45,-30.492 -25.462,-30.965 -25.159,-32.67C-24.811,-34.635 -23.5,-36.093 -21.855,-37.191C-20.507,-38.091 -19.32,-37.8 -19.158,-36.292C-18.982,-34.654 -18.046,-34.193 -16.793,-33.715C-13.077,-32.298 -9.414,-30.736 -5.674,-29.388C-2.551,-28.262 0.557,-27.105 3.92,-26.701C6.034,-26.448 8.069,-25.576 10.151,-25.025C11.357,-24.706 12.586,-24.472 13.804,-24.2C13.876,-24.37 13.948,-24.539 14.021,-24.709C13.48,-25.044 12.944,-25.385 12.399,-25.713C10.027,-27.143 7.626,-28.527 5.284,-30.005C2.626,-31.682 1.429,-34.337 0.666,-37.246C0.424,-38.171 0.307,-39.151 -0.081,-40.01C-0.382,-40.676 -0.899,-41.479 -1.52,-41.729C-5.72,-43.42 -9.224,-46.101 -12.581,-49.058C-14.905,-51.105 -17.546,-52.814 -19.739,-54.982C-21.752,-56.972 -23.51,-59.272 -25.092,-61.629C-26.349,-63.502 -27.557,-65.571 -28.087,-67.725C-28.727,-70.32 -28.658,-73.096 -28.83,-75.797C-28.881,-76.586 -28.665,-77.387 -28.646,-78.185C-28.579,-80.809 -30.332,-82.599 -32.896,-82.343C-36.252,-82.008 -39.356,-83.184 -42.567,-83.723C-43.512,-83.881 -44.455,-84.161 -45.402,-84.172C-49.495,-84.223 -53.488,-85.045 -57.525,-85.536C-61.363,-86.002 -65.038,-86.904 -68.627,-88.199C-70.768,-88.972 -72.825,-90.039 -73.999,-92.314C-72.346,-93.787 -70.876,-92.916 -69.575,-92.09C-67.381,-90.699 -64.963,-89.931 -62.497,-89.339C-57.745,-88.197 -52.908,-87.525 -48.015,-87.703C-44.038,-87.848 -40.291,-86.829 -36.512,-85.88C-34.801,-84.207 -32.625,-84.472 -30.527,-84.477C-28.896,-84.48 -27.694,-83.639 -26.559,-82.447C-25.271,-83.489 -24.299,-84.626 -24.176,-86.199C-24.049,-87.825 -23.141,-88.703 -21.729,-89.08C-19.97,-89.549 -18.166,-89.855 -16.379,-90.219C-16.229,-90.25 -16.033,-90.129 -15.908,-90.187C-12.874,-91.587 -10.05,-90.003 -6.903,-89.535C-7.027,-90.03 -6.998,-90.552 -7.244,-90.795C-9.213,-92.74 -9.55,-94.621 -7.981,-96.857C-6.085,-99.562 -3.376,-101.202 -0.236,-102.141C0.822,-102.458 1.888,-102.772 2.971,-102.985C5.346,-103.452 7.565,-102.793 9.663,-101.779C11.438,-100.919 11.474,-100.532 10.391,-98.103C11.947,-96.272 13.697,-94.43 15.185,-92.397C16.467,-90.643 17.327,-88.616 16.821,-86.336C16.245,-83.74 16.395,-80.908 14.015,-78.739C15.098,-78.168 15.892,-77.827 16.602,-77.359C18.582,-76.053 20.539,-74.711 22.48,-73.348C23.385,-72.713 23.755,-71.917 22.903,-70.937C22.056,-69.963 22.185,-68.919 22.592,-67.793C22.886,-66.98 23.162,-66.11 23.181,-65.259C23.255,-61.956 24.005,-58.781 24.823,-55.611C24.982,-54.995 25.279,-54.335 25.185,-53.749C24.895,-51.933 25.795,-51.053 27.247,-50.162C31.169,-47.756 34.941,-45.109 38.837,-42.661C41.453,-41.016 44.101,-39.394 47.027,-38.323C47.361,-38.201 47.734,-38.186 48.402,-38.063C48.068,-38.522 47.973,-38.728 47.815,-38.86C45.386,-40.909 42.808,-42.804 40.553,-45.028C38.073,-47.473 35.819,-50.16 33.63,-52.873C33.095,-53.536 32.175,-54.778 33.261,-55.58C33.654,-55.872 35.094,-55.257 35.68,-54.676C36.844,-53.522 38.072,-52.45 39.052,-51.039C40.674,-48.702 42.77,-46.682 44.771,-44.631C45.165,-44.227 46.188,-43.967 46.657,-44.192C48.044,-44.855 49.203,-44.347 50.29,-43.729C52.251,-42.615 54.347,-42.022 56.508,-41.436C59.097,-40.733 61.576,-39.612 64.076,-38.604C65.333,-38.098 66.507,-37.388 67.758,-36.866C69.132,-36.293 70.33,-35.604 70.692,-34.014C70.727,-33.865 70.812,-33.69 70.929,-33.603C73.708,-31.538 72.825,-28.59 72.737,-25.876C72.693,-24.51 72.107,-24.114 70.726,-24.063C70.487,-24.054 70.225,-24.025 70.012,-24.106C67.517,-25.049 65.422,-26.604 63.687,-28.584C63.39,-28.922 63.66,-29.9 63.873,-30.512C64.274,-31.669 64.824,-32.775 65.375,-34.048C60.687,-36.223 56.4,-38.463 51.479,-39.098C52.008,-37.089 53.932,-35.747 56.387,-35.475C57.555,-35.345 58.743,-35.125 59.841,-34.722C60.814,-34.365 61.803,-33.628 61.453,-32.423C61.14,-31.346 60.131,-30.838 58.974,-30.996C57.967,-31.134 56.966,-31.353 55.982,-31.611C53.751,-32.196 51.521,-32.788 49.312,-33.45C43.244,-35.266 37.762,-38.2 32.761,-42.085C30.438,-43.889 28.052,-45.62 25.6,-47.241C24.717,-47.824 23.579,-48.102 22.518,-48.316C20.801,-48.662 18.971,-48.595 17.33,-49.135C12.038,-50.876 7.792,-49.047 4.06,-45.477C2.83,-44.3 2.185,-42.819 3.049,-40.948C3.707,-39.524 4.028,-37.937 4.422,-36.402C4.956,-34.322 5.936,-32.565 7.715,-31.293C10.308,-29.439 12.98,-27.75 15.984,-26.602C17.084,-26.181 18.13,-25.517 19.062,-24.787C20.462,-23.689 22.062,-22.92 23.437,-21.726C24.523,-20.783 26.377,-20.262 27.854,-20.328C30.59,-20.451 32.956,-19.643 35.044,-18.175C39.403,-15.111 43.657,-11.892 47.854,-8.609C49.138,-7.605 50.351,-6.364 50.628,-4.56C50.684,-4.198 50.964,-3.863 51.167,-3.533C52.001,-2.184 52.849,-0.845 53.683,0.504C54.098,1.174 54.439,1.897 54.908,2.526C56.11,4.139 56.114,5.302 54.829,6.786C54.002,7.74 53.145,8.669 52.343,9.644C51.196,11.038 49.739,11.706 47.945,11.641C46.327,11.582 44.993,11.722 43.734,13.202C42.301,14.888 39.975,14.337 38.053,13.976C34.22,13.254 30.458,13.319 26.64,14.065C24.773,14.43 22.829,14.49 20.918,14.516C18.043,14.556 15.167,14.418 12.291,14.402C8.486,14.382 4.861,13.773 1.541,11.726C0.486,11.076 -0.324,10.437 -0.141,9.144C0.04,7.871 0.981,7.499 2.148,7.087C5.297,5.974 8.389,5.394 11.758,6.024C13.062,6.269 14.536,5.594 15.933,5.338C15.913,5.225 15.894,5.112 15.873,4.999" style="fill:rgb(70,70,70);fill-rule:nonzero;"/>
                </g>
                <g transform="matrix(1,0,0,1,19.4697,39.9236)">
                    <path d="M0,-19.424C1.124,-19.424 2.117,-19.432 3.11,-19.423C5.027,-19.404 6.949,-19.282 8.86,-19.378C10.941,-19.482 12.854,-19 14.539,-17.879C18.221,-15.429 22.329,-14.652 26.597,-14.929C30.639,-15.192 34.544,-14.336 38.511,-14.009C40.128,-13.876 41.579,-13.189 42.813,-12.1C46.093,-9.207 49.385,-6.328 52.643,-3.411C53.163,-2.945 53.659,-2.365 53.93,-1.736C54.113,-1.309 54.065,-0.532 53.782,-0.229C53.514,0.058 52.777,0.052 52.294,-0.049C51.86,-0.139 51.46,-0.497 51.099,-0.8C47.64,-3.7 44.172,-6.59 40.753,-9.536C39.312,-10.778 37.715,-11.375 35.817,-11.565C32.478,-11.898 29.145,-11.972 25.793,-12.062C21.84,-12.168 17.855,-12.783 14.285,-14.828C11.586,-16.374 8.626,-16.904 5.548,-16.919C4.35,-16.924 3.143,-16.876 1.958,-17.011C0.919,-17.131 -0.122,-17.446 0,-19.424" style="fill:rgb(70,70,70);fill-rule:nonzero;"/>
                </g>
                <g transform="matrix(1,0,0,1,183.566,92.7689)">
                    <path d="M0,4.444C-0.935,3.176 -1.881,1.916 -2.8,0.638C-3.308,-0.069 -3.953,-0.795 -3.347,-1.73C-2.952,-2.339 -1.384,-2.233 -0.499,-1.554C-0.127,-1.268 0.178,-0.889 0.489,-0.532C1.946,1.146 3.435,2.799 4.827,4.53C5.36,5.193 5.734,6.011 6.055,6.809C6.354,7.555 5.594,8.718 4.625,8.983C2.335,9.607 0.049,10.315 -2.288,10.664C-3.114,10.787 -4.433,10.206 -4.903,9.52C-5.641,8.443 -4.657,7.675 -3.145,7.196C-5.428,5.793 -7.354,4.611 -9.278,3.427C-11.168,2.265 -13.107,1.175 -14.931,-0.083C-16.644,-1.265 -18.403,-2.259 -20.433,-2.795C-21.914,-3.187 -23.253,-3.855 -23.686,-5.967C-22.915,-6.046 -22.192,-6.343 -21.66,-6.14C-18.193,-4.819 -14.702,-3.688 -11.567,-1.452C-8.112,1.011 -4.15,2.766 -0.409,4.83C-0.272,4.701 -0.137,4.572 0,4.444" style="fill:rgb(70,70,70);fill-rule:nonzero;"/>
                </g>
                <g transform="matrix(1,0,0,1,30.3711,19.5313)">
                    <path d="M0,15.293C-1.621,15.607 -2.76,14.697 -3.78,13.7C-4.803,12.7 -5.929,12.33 -7.353,12.137C-9.861,11.797 -12.343,11.158 -14.786,10.469C-16.9,9.873 -18.946,9.032 -21.312,8.643C-20.983,9.077 -20.611,9.485 -20.335,9.95C-19.798,10.853 -20.142,11.505 -21.169,11.611C-22.486,11.747 -23.409,11.022 -24.366,10.25C-25.469,9.361 -26.619,8.498 -27.855,7.818C-29.916,6.688 -30.425,4.932 -29.123,2.861C-29.04,2.729 -28.966,2.59 -28.84,2.371C-29.265,1.873 -29.712,1.348 -30.371,0.575C-30.089,0.441 -29.878,0.251 -29.671,0.255C-27.371,0.298 -25.045,0.178 -22.783,0.503C-21.182,0.733 -19.748,1.042 -18.134,0.393C-16.375,-0.314 -15.27,0.175 -14.265,1.654C-17.904,4.129 -21.945,2.874 -26.065,2.818C-25.669,3.798 -25.133,4.213 -24.355,4.482C-19.784,6.064 -15.229,7.696 -10.652,9.264C-9.913,9.518 -9.1,9.606 -8.313,9.658C-5.226,9.857 -2.642,11.129 -0.422,13.226C0.194,13.809 0.687,14.411 0,15.293" style="fill:rgb(70,70,70);fill-rule:nonzero;"/>
                </g>
                <g transform="matrix(1,0,0,1,53.1016,89.4836)">
                    <path d="M0,4.369C-0.493,6.072 -0.427,7.443 0.282,8.795C0.574,9.353 0.83,9.966 0.925,10.581C1.062,11.468 1.013,12.355 -0.027,12.793C-1.012,13.207 -2.19,12.961 -2.838,12.122C-3.079,11.81 -3.354,11.446 -3.404,11.076C-3.827,7.999 -5.642,5.044 -3.955,1.774C-3.268,0.44 -4.06,-0.854 -5.061,-1.891C-6.273,-3.146 -7.493,-4.395 -8.696,-5.66C-8.97,-5.947 -9.302,-6.254 -9.405,-6.61C-9.571,-7.184 -9.828,-8.148 -9.581,-8.336C-9.109,-8.695 -8.251,-8.838 -7.662,-8.675C-7.029,-8.5 -6.436,-7.947 -5.975,-7.427C-3.872,-5.054 -1.171,-3.259 0.536,-0.488C0.994,0.257 1.984,0.698 2.772,1.213C4.438,2.301 6.147,3.323 7.807,4.421C8.33,4.768 8.977,5.191 9.163,5.721C9.402,6.402 9.429,7.303 9.167,7.958C9.019,8.33 8.024,8.685 7.562,8.547C6.447,8.211 5.37,7.665 4.372,7.049C2.983,6.191 1.915,4.812 0,4.369" style="fill:rgb(70,70,70);fill-rule:nonzero;"/>
                </g>
                <g transform="matrix(1,0,0,1,175.215,75.2926)">
                    <path d="M0,11.603C-0.007,13.365 -1.232,14.158 -2.474,13.543C-4.476,12.551 -6.268,11.314 -7.818,9.625C-9.579,7.707 -11.716,6.14 -13.552,4.284C-14.773,3.05 -15.758,1.581 -16.842,0.212C-17.398,-0.49 -17.562,-1.242 -16.887,-1.939C-16.291,-2.555 -15.156,-2.401 -14.354,-1.549C-12.882,0.013 -11.618,1.804 -9.999,3.185C-7.114,5.647 -4.646,8.634 -1.157,10.374C-0.598,10.654 -0.24,11.338 0,11.603" style="fill:rgb(70,70,70);fill-rule:nonzero;"/>
                </g>
                <g transform="matrix(1,0,0,1,27.1035,5.0151)">
                    <path d="M0,4.797C-0.5,6.303 -1.32,6.48 -2.359,6.025C-3.439,5.551 -4.469,4.954 -5.567,4.535C-8.152,3.548 -10.933,3.024 -13.215,1.33C-13.79,0.903 -14.272,0.352 -14.825,-0.168C-13.44,-1.683 -12.011,-1.179 -11.146,-0.428C-8.5,1.866 -5.154,2.379 -2.086,3.603C-1.338,3.901 -0.672,4.405 0,4.797" style="fill:rgb(70,70,70);fill-rule:nonzero;"/>
                </g>
                <g transform="matrix(1,0,0,1,5.9014,16.1626)">
                    <path d="M0,-5.601C0.739,-5.654 1.546,-5.926 2.203,-5.72C4.389,-5.035 6.523,-4.188 8.67,-3.383C11.028,-2.497 13.378,-1.589 15.931,-0.615C15.693,-0.353 15.465,0.133 15.165,0.182C14.553,0.282 13.821,0.325 13.281,0.078C9.367,-1.709 5.247,-2.863 1.129,-4.039C0.638,-4.18 0.249,-4.676 -0.187,-5.007C-0.125,-5.205 -0.062,-5.403 0,-5.601" style="fill:rgb(70,70,70);fill-rule:nonzero;"/>
                </g>
                <g transform="matrix(-0.60226,0.7983,0.7983,0.60226,111.956,42.1173)">
                    <path d="M6.461,-9.215C3.982,-7.231 2.688,-1.33 3.63,2.494C5.344,2.66 6.264,2.304 6.461,0.9C6.855,-1.917 7.019,-4.769 7.188,-7.613C7.216,-8.064 6.781,-8.542 6.461,-9.215" style="fill:rgb(70,70,70);fill-rule:nonzero;"/>
                </g>
            </g>
        </g>
    </g>
</svg>
