<?xml version="1.0" encoding="UTF-8" standalone="no"?>
<!DOCTYPE svg PUBLIC "-//W3C//DTD SVG 1.1//EN" "http://www.w3.org/Graphics/SVG/1.1/DTD/svg11.dtd">
<svg width="100%" height="100%" viewBox="0 0 1182 1182" version="1.1" xmlns="http://www.w3.org/2000/svg" xmlns:xlink="http://www.w3.org/1999/xlink" xml:space="preserve" xmlns:serif="http://www.serif.com/" style="fill-rule:evenodd;clip-rule:evenodd;stroke-linejoin:round;stroke-miterlimit:2;">
    <g transform="matrix(1,0,0,1,-10462.7,0)">
        <g id="Artboard1" transform="matrix(1,0,0,1,10462.7,0)">
            <rect x="0" y="0" width="1181.1" height="1181.1" style="fill:none;"/>
            <g transform="matrix(5.82208,0,0,5.82208,32.3975,245.157)">
                <g transform="matrix(1,0,0,1,92.3634,84.5606)">
                    <path d="M0,-47.132C0.921,-46.299 2.037,-45.598 2.711,-44.599C3.449,-43.503 3.779,-42.133 4.289,-40.883C4.319,-40.809 4.343,-40.703 4.4,-40.676C4.733,-40.516 5.191,-40.165 5.391,-40.274C5.749,-40.47 6.141,-40.93 6.174,-41.31C6.212,-41.728 5.936,-42.234 5.668,-42.61C4.234,-44.63 2.52,-46.348 0,-47.132M-41.642,25.842C-40.281,26.722 -39.123,27.526 -37.913,28.243C-36.468,29.1 -35.923,28.969 -35.071,27.462C-34.799,26.982 -34.605,26.157 -34.836,25.761C-35.281,24.999 -35.921,25.571 -36.447,25.919C-37.496,26.611 -38.475,26.703 -39.364,25.611C-39.269,24.486 -38.583,23.917 -37.748,23.37C-37.375,23.126 -37.192,22.562 -36.992,22.112C-36.96,22.041 -37.356,21.641 -37.446,21.676C-37.919,21.858 -38.462,22.036 -38.789,22.391C-39.694,23.377 -40.505,24.45 -41.642,25.842M-24.283,-20.119C-23.847,-18.863 -23.287,-17.636 -22.998,-16.348C-22.199,-12.788 -20.984,-9.242 -22.489,-5.541C-22.729,-4.948 -22.652,-4.079 -22.406,-3.463C-21.739,-1.786 -22.26,-0.397 -23.023,1.083C-25.255,5.408 -28.651,8.559 -32.705,11.116C-33.64,11.706 -34.483,12.468 -35.282,13.239C-36.189,14.115 -37,15.09 -37.995,16.177C-37.068,17.415 -36.248,18.569 -35.366,19.674C-34.22,21.109 -32.998,22.496 -32.661,24.385C-32.5,25.285 -31.874,25.587 -31.106,25.55C-27.387,25.368 -23.562,25.844 -20.133,23.777C-19.606,23.459 -18.9,23.168 -18.328,23.245C-16.301,23.517 -15.037,22.232 -13.708,21.133C-11.62,19.404 -9.577,17.618 -7.583,15.782C-6.713,14.981 -5.927,14.056 -5.257,13.08C-4.401,11.837 -3.787,10.426 -2.916,9.195C-1.441,7.111 -0.57,4.854 -0.438,2.302C-0.415,1.855 -0.218,1.418 -0.033,0.719C0.715,1.305 1.272,1.741 2.214,2.478C2.259,1.005 2.389,-0.077 2.308,-1.144C1.999,-5.243 2.155,-9.271 3.505,-13.216C4.503,-16.133 4.649,-19.162 4.315,-22.229C4.217,-23.131 3.91,-24.389 5.222,-24.596C6.336,-24.773 6.886,-23.716 7.113,-22.781C7.419,-21.524 8.006,-20.901 9.369,-20.753C10.267,-20.656 11.234,-20.189 11.951,-19.612C15.871,-16.462 20.412,-16.274 25.294,-16.563C25.513,-17.262 25.85,-17.912 25.903,-18.584C26.13,-21.451 26.341,-24.323 26.421,-27.197C26.47,-28.949 26.12,-29.067 24.396,-29.833C23.512,-30.225 22.758,-31.048 22.12,-31.82C21.057,-33.109 20.239,-34.605 19.134,-35.85C15.42,-40.033 12.011,-40.445 7.261,-37.649C5.58,-36.659 5.557,-34.894 4.683,-33.572C3.86,-32.327 1.672,-32.268 1.408,-30.189C1.117,-27.9 0.604,-25.638 0.209,-23.361C0.076,-22.591 0.004,-21.81 -0.092,-21.061C-2.202,-21.036 -2.564,-21.251 -2.654,-22.8C-2.895,-26.97 -2.11,-30.956 0.146,-34.488C1.062,-35.922 1.204,-37.253 0.909,-38.791C0.189,-42.55 -2.976,-45.708 -6.71,-46.555C-8.18,-46.888 -9.338,-46.554 -10.498,-45.68C-12.089,-44.482 -13.688,-43.268 -15.405,-42.269C-17.075,-41.297 -17.727,-41.553 -19.075,-43.203C-17.543,-46.123 -14.422,-47.307 -11.997,-49.131C-12.385,-50.66 -13.344,-51.146 -14.48,-51.401C-15.909,-51.722 -16.999,-52.214 -16.945,-54.045C-16.911,-55.223 -18.129,-55.431 -19.018,-55.676C-19.596,-55.835 -20.254,-55.705 -20.881,-55.705C-21.742,-58.381 -19.647,-60.382 -19.572,-62.968C-21.66,-63.497 -23.272,-64.692 -24.368,-66.551C-24.891,-67.438 -25.729,-67.518 -26.677,-67.366C-27.819,-67.184 -28.978,-67.1 -30.057,-66.981C-30.495,-68.308 -29.921,-68.861 -29.161,-69.218C-27.413,-70.037 -26.704,-71.195 -27.172,-73.224C-27.546,-74.843 -27.111,-75.244 -25.383,-75.021C-24.028,-74.846 -23.24,-75.508 -23.015,-76.507C-22.521,-78.694 -21.169,-79.339 -19.127,-79.703C-17.711,-79.955 -16.437,-81.005 -15.431,-81.526C-12.975,-80.819 -10.86,-80.191 -8.73,-79.616C-8.367,-79.518 -7.934,-79.611 -7.545,-79.681C-3.078,-80.485 0.937,-78.929 4.932,-77.287C5.13,-77.205 5.274,-76.961 5.411,-76.769C5.5,-76.645 5.527,-76.477 5.581,-76.329C5.21,-75.497 4.839,-74.665 4.389,-73.652C6.375,-73.189 7.393,-71.106 9.688,-71.7C10.013,-72.324 10.396,-73.062 10.816,-73.868C12.336,-72.956 13.433,-71.895 14.114,-70.386C14.436,-69.673 14.908,-69.012 15.399,-68.397C16.014,-67.626 16.447,-66.877 16.404,-65.808C16.373,-65.053 16.829,-64.29 16.912,-63.514C16.971,-62.959 16.773,-62.377 16.689,-61.807C16.187,-61.917 15.534,-61.863 15.209,-62.164C13.285,-63.949 11.436,-65.816 9.566,-67.659C9.339,-67.884 9.105,-68.115 8.939,-68.383C7.869,-70.104 6.493,-70.907 4.349,-70.464C3.414,-70.271 2.32,-70.671 1.334,-70.935C-0.668,-71.468 -2.666,-72.034 -4.626,-72.704C-5.51,-73.006 -6.299,-73.587 -7.173,-74.065C-7.065,-74.789 -6.976,-75.389 -6.86,-76.162C-8.365,-76.637 -9.798,-77.089 -11.232,-77.54C-11.916,-77.755 -12.654,-77.866 -13.275,-78.199C-14.743,-78.986 -16.048,-79.242 -17.371,-77.861C-18.35,-76.837 -19.637,-76.143 -19.667,-74.417C-19.679,-73.708 -20.182,-72.938 -20.63,-72.318C-22.568,-69.644 -22.529,-68.712 -20.153,-66.402C-19.774,-66.032 -19.269,-65.793 -18.671,-65.393C-16.988,-68.306 -13.918,-68.004 -11.344,-68.813C-10.937,-68.941 -10.291,-68.859 -9.97,-68.604C-9.063,-67.88 -8.119,-67.492 -6.947,-67.391C-6.531,-67.355 -5.917,-66.588 -5.875,-66.112C-5.833,-65.642 -6.278,-64.918 -6.719,-64.653C-7.803,-64.002 -8.978,-63.471 -10.17,-63.04C-11.862,-62.428 -13.484,-62.491 -14.611,-64.514C-16.287,-62.145 -16.957,-59.943 -17.358,-57.204C-16.469,-57.326 -15.813,-57.393 -15.167,-57.511C-13.271,-57.858 -12.467,-57.246 -12.631,-55.294C-12.729,-54.13 -12.271,-53.577 -11.26,-53.496C-9.98,-53.393 -9.227,-52.668 -8.641,-51.658C-8.08,-50.693 -7.252,-50.428 -6.194,-50.608C-5.171,-50.78 -4.133,-50.872 -3.11,-51.05C0.321,-51.645 3.206,-50.55 5.591,-48.132C6.866,-46.839 8.003,-45.406 9.145,-43.989C9.687,-43.317 10.206,-42.792 11.146,-43.103C13.955,-44.029 16.268,-42.659 18.648,-41.519C19.779,-40.976 20.946,-40.454 22.153,-40.135C25.001,-39.382 26.89,-37.436 28.178,-35.021C30.451,-30.76 31.602,-26.242 30,-21.419C28.394,-16.584 29.792,-12.494 33.04,-8.836C33.647,-8.151 34.642,-7.502 33.772,-6.415C33.167,-5.658 31.744,-5.659 30.763,-6.676C29.226,-8.27 27.729,-9.966 26.56,-11.834C25.382,-13.717 25.565,-13.849 23.517,-13.61C19.946,-13.191 16.492,-13.554 13.281,-15.254C12.092,-15.885 11.023,-16.741 9.889,-17.477C9.38,-17.807 8.845,-18.094 8.385,-18.363C8.1,-18.12 7.895,-18.034 7.873,-17.915C6.936,-12.677 4.893,-7.697 5.004,-2.195C5.149,4.941 8.993,9.343 14.752,12.526C16.614,13.556 18.764,14.055 20.758,14.856C22.997,15.756 25.287,15.606 27.168,15.443C28.431,14.278 29.391,13.374 30.373,12.493C31.26,11.697 32.199,10.958 33.063,10.139C34.415,8.857 35.498,8.641 37.136,9.621C38.223,10.271 39.211,11.088 40.23,11.847C42.077,13.223 44.112,14.043 46.444,14.047C47.883,14.049 49.324,14.028 50.759,14.106C53.692,14.265 55.695,12.766 56.914,10.342C57.833,8.512 58.478,6.496 58.934,4.492C59.461,2.18 59.313,2.149 61.625,1.706C61.854,1.662 62.069,1.55 62.53,1.382L62.53,-2.677C65.06,-3.377 65.767,-3.015 65.919,-0.771C66.048,1.134 66.065,3.084 65.804,4.968C65.219,9.191 64.971,13.372 65.719,17.613C66.176,20.202 66.287,22.853 66.526,25.479C66.668,27.027 66.605,27.079 64.298,27.965C64.08,27.322 63.716,26.701 63.674,26.057C63.353,21.122 63.103,16.181 62.806,11.244C62.761,10.492 62.587,9.748 62.063,8.963C61.606,9.782 61.081,10.571 60.703,11.426C59.022,15.227 55.804,16.599 51.998,16.606C48.816,16.613 45.634,16.142 42.452,15.878C40.447,15.711 38.853,14.673 37.348,13.45C36.805,13.008 36.258,12.57 35.689,12.112C33.546,13.723 31.541,15.243 29.521,16.744C29.208,16.976 28.854,17.219 28.485,17.303C24.447,18.221 20.477,18.327 16.459,16.917C10.955,14.984 7.48,10.767 4.042,6.457C3.463,5.733 3.021,4.899 2.28,3.749C1.56,5.601 1.117,7.071 0.428,8.415C-0.258,9.756 -1.223,10.951 -2.009,12.245C-2.826,13.591 -3.576,14.977 -4.422,16.465C-4.008,16.671 -3.679,16.875 -3.323,17.004C-2.377,17.346 -1.989,17.973 -1.958,19C-1.923,20.192 -1.657,21.376 -1.543,22.568C-1.415,23.926 -0.7,24.732 0.571,25.176C1.451,25.482 2.283,25.924 3.039,26.719C2.187,26.575 1.334,26.432 0.37,26.27C-0.203,27.119 -0.007,27.883 0.98,27.997C2.376,28.158 3.943,29.055 5.176,27.495C5.283,27.358 5.619,27.306 5.816,27.351C7.67,27.781 9.621,28.003 11.337,28.755C13.328,29.628 15.249,30.373 17.46,30.489C19.763,30.611 22.046,31.072 24.343,31.347C25.127,31.441 25.935,31.358 26.716,31.469C27.529,31.583 28.323,31.832 29.114,32.019C28.985,33.717 27.987,33.871 26.909,33.992C23.336,34.394 19.921,33.464 16.486,32.763C13.914,32.238 11.392,31.443 8.807,31.013C6.294,30.594 3.736,30.399 1.189,30.265C-1.2,30.14 -2.843,29.376 -3.583,26.831C-4.119,24.99 -4.783,23.224 -4.89,21.275C-4.952,20.124 -5.324,18.99 -5.559,17.84C-7.271,18 -7.943,19.196 -8.875,20.011C-10.135,21.112 -11.248,22.475 -12.679,23.265C-15.165,24.637 -17.774,25.869 -20.463,26.763C-23.405,27.741 -26.466,28.377 -29.648,27.637C-31.253,27.263 -31.762,27.699 -32.521,29.439C-33.5,31.681 -33.993,31.781 -36.322,31.253C-39.005,30.642 -41.036,28.994 -43.203,27.513C-44.359,26.722 -45.565,26.004 -46.743,25.257C-48.62,27.717 -47.368,30.85 -49.072,33.004C-50.269,33.007 -50.86,32.316 -50.772,31.512C-50.481,28.836 -50.091,26.162 -49.564,23.523C-49.299,22.198 -48.254,21.698 -46.849,21.76C-45.045,21.838 -43.577,21.123 -42.71,19.434C-42.601,19.221 -42.383,19.005 -42.393,18.798C-42.492,16.691 -41.294,15.257 -39.511,13.802C-40.695,13.01 -41.624,12.319 -42.62,11.747C-43.375,11.312 -44.219,11.029 -45.021,10.676C-45.905,10.287 -46.351,9.639 -46.44,8.644C-46.529,7.654 -46.793,6.681 -47.055,5.309C-53.122,9.774 -54.936,16.603 -58.736,22.507C-59.444,21.861 -60.033,21.324 -60.708,20.708C-59.252,18.336 -57.811,16.146 -56.53,13.867C-54.397,10.072 -51.343,7.056 -48.415,3.922C-47.074,2.486 -47.147,2.119 -48.689,0.916C-51.901,-1.588 -54.951,-4.336 -58.349,-6.553C-60.698,-8.085 -61.73,-9.744 -61.604,-12.546C-61.505,-14.754 -62.037,-16.988 -62.28,-19.212C-62.378,-20.111 -62.808,-20.75 -63.727,-20.868C-65.854,-21.141 -67.985,-21.376 -70.119,-21.585C-70.958,-21.667 -71.921,-21.32 -72.486,-22.59C-71.558,-23.405 -70.357,-23.517 -69.235,-23.445C-66.931,-23.299 -64.611,-23.111 -62.35,-22.671C-59.893,-22.195 -58.916,-20.795 -58.75,-18.027C-58.646,-16.271 -58.61,-14.509 -58.602,-12.75C-58.594,-11.094 -57.898,-9.955 -56.538,-8.956C-53.068,-6.409 -49.835,-3.523 -46.263,-1.139C-44.372,0.124 -43.392,1.344 -43.666,3.638C-43.969,6.178 -42.861,7.969 -40.65,9.39C-37.404,11.479 -37.508,11.588 -34.246,9.204C-31.93,7.511 -29.425,6.046 -27.744,3.62C-26.483,1.799 -25.046,0.101 -25.271,-2.405C-25.367,-3.466 -24.937,-4.613 -24.582,-5.665C-23.665,-8.38 -23.625,-11.153 -23.834,-13.96C-23.988,-16.023 -24.116,-18.087 -24.255,-20.151L-24.283,-20.119Z" style="fill:rgb(70,70,70);fill-rule:nonzero;"/>
                </g>
                <g transform="matrix(1,0,0,1,122.991,82.4072)">
                    <path d="M0,-54.63C0.367,-53.855 0.603,-53.204 0.961,-52.63C2.47,-50.213 4.632,-48.225 5.611,-45.444C5.755,-45.037 6.409,-44.651 6.888,-44.554C7.891,-44.348 8.937,-44.245 9.96,-44.268C12.385,-44.322 13.068,-45.491 11.777,-47.646C10.846,-49.197 9.695,-50.655 8.447,-51.97C6.244,-54.291 3.521,-55.298 0,-54.63M32.533,-14.795C32.766,-13.852 32.869,-13.023 33.181,-12.281C33.58,-11.33 34.121,-10.434 34.648,-9.542C35.781,-7.626 35.61,-6.808 33.518,-5.831C31.348,-4.819 30.15,-3.235 29.956,-0.857C29.897,-0.141 29.788,0.574 29.656,1.281C29.434,2.47 28.848,3.368 27.577,3.625C26.335,3.876 25.58,3.129 25.083,2.183C24.157,0.42 23.435,-1.453 22.452,-3.18C21.754,-4.405 20.799,-5.492 19.892,-6.585C19.606,-6.929 19.124,-7.236 18.696,-7.295C18.289,-7.35 17.684,-7.179 17.447,-6.882C17.237,-6.618 17.237,-5.903 17.452,-5.637C18.154,-4.768 18.567,-3.901 18.167,-2.794C15.731,-1.892 15.124,-2.043 13.685,-3.911C13.441,-4.228 13.162,-4.526 12.966,-4.869C11.875,-6.786 10.204,-7.628 8.038,-7.721C7.038,-7.764 6.047,-8.023 5.066,-8.182C5.346,-10.326 5.563,-10.733 7.095,-10.671C9.232,-10.585 11.392,-10.368 13.477,-9.91C14.503,-9.685 15.313,-9.623 16.176,-10.184C16.509,-10.4 16.87,-10.581 17.233,-10.742C19.939,-11.942 21.435,-11.611 23.371,-9.357C23.942,-8.691 24.454,-7.974 24.985,-7.274C25.508,-6.586 26.021,-5.891 26.636,-5.068C27.635,-5.941 28.568,-6.668 29.381,-7.512C29.658,-7.8 29.733,-8.383 29.719,-8.826C29.704,-9.289 29.53,-9.773 29.325,-10.199C26.955,-15.128 27.529,-20.142 28.919,-25.158C29.604,-27.629 28.59,-29.82 27.575,-31.811C26.357,-34.195 24.565,-36.294 22.963,-38.473C21.537,-40.413 19.45,-41.241 17.153,-41.395C13.965,-41.608 10.764,-41.63 7.569,-41.745C6.608,-41.779 5.875,-41.557 5.509,-40.517C5.365,-40.109 4.925,-39.761 4.543,-39.493C3.592,-38.826 2.75,-38.894 2.413,-39.966C1.953,-41.431 0.792,-41.577 -0.29,-41.931C-2.08,-42.517 -2.135,-42.489 -1.643,-44.154C-0.737,-47.222 -1.287,-49.763 -3.906,-51.843C-5.66,-53.235 -7.263,-54.787 -9.564,-55.251C-9.845,-55.308 -10.082,-55.582 -10.314,-55.738C-9.874,-57.739 -8.88,-58.506 -6.989,-58.096C-6.003,-57.881 -5.054,-57.371 -4.165,-56.86C-3.043,-56.218 -1.965,-56.091 -0.632,-56.038C2.442,-55.916 5.695,-55.646 8.489,-54.496C11.19,-53.385 12.998,-50.763 14.021,-47.86C14.233,-47.258 14.414,-46.639 14.543,-46.015C14.761,-44.964 15.43,-44.564 16.434,-44.58C19.472,-44.633 21.97,-43.384 24.271,-41.496C26.67,-39.527 29.383,-37.901 30.712,-34.885C31.355,-33.426 32.09,-32.008 32.77,-30.564C33.64,-28.714 33.182,-26.788 33.041,-24.891C32.975,-24.018 32.804,-23.148 32.612,-22.291C32.365,-21.188 32.685,-20.345 33.37,-19.431C35.233,-16.947 36.904,-14.32 38.75,-11.823C40.886,-8.939 43.117,-6.124 45.329,-3.296C46.311,-2.039 47.359,-0.836 48.351,0.414C48.59,0.716 48.894,1.118 48.867,1.449C48.82,2.02 48.664,2.691 48.298,3.079C48.132,3.255 47.193,3.012 46.884,2.689C45.502,1.251 44.132,-0.217 42.923,-1.799C40.019,-5.598 37.208,-9.468 34.357,-13.307C34.027,-13.751 33.691,-14.193 33.328,-14.609C33.247,-14.702 33.038,-14.684 32.533,-14.795" style="fill:rgb(70,70,70);fill-rule:nonzero;"/>
                </g>
                <g transform="matrix(1,0,0,1,26.2203,34.6349)">
                    <path d="M0,-33.26C2.36,-31.721 4.785,-30.227 7.118,-28.6C11.502,-25.545 15.796,-22.36 20.197,-19.33C24.202,-16.574 28.33,-13.999 32.347,-11.261C36.092,-8.707 39.77,-6.055 43.456,-3.416C44.032,-3.005 44.535,-2.469 44.995,-1.925C45.502,-1.325 45.317,-0.614 44.766,-0.243C44.404,0 43.747,-0.064 43.266,-0.177C42.917,-0.26 42.655,-0.671 42.33,-0.9C38.744,-3.416 35.167,-5.944 31.562,-8.433C25.275,-12.774 18.449,-16.314 12.561,-21.252C10.315,-23.137 8.031,-24.979 5.712,-26.773C3.896,-28.178 1.991,-29.468 0.143,-30.833C-0.66,-31.426 -1.407,-32.079 0,-33.26" style="fill:rgb(70,70,70);fill-rule:nonzero;"/>
                </g>
                <g transform="matrix(1,0,0,1,166.685,9.0211)">
                    <path d="M0,19.095C-0.894,20.763 -1.918,20.949 -3.106,20.895C-5.328,20.792 -7.556,20.807 -9.774,20.656C-11.433,20.541 -13.106,20.361 -14.722,19.989C-15.862,19.726 -16.813,18.987 -17.371,17.706C-16.271,17.022 -15.43,17.154 -14.519,17.619C-11.892,18.963 -9.084,18.729 -6.303,18.381C-4.918,18.208 -4.633,17.796 -4.614,15.973C-4.574,12.059 -4.63,8.144 -4.649,4.23C-4.652,3.511 -4.632,2.789 -4.679,2.073C-4.777,0.564 -5.122,0.186 -6.578,0.294C-9.347,0.501 -12.108,0.801 -14.994,1.074C-15.665,2.281 -15.459,3.657 -15.137,4.933C-14.617,6.991 -14.572,9.018 -14.83,11.107C-14.956,12.12 -14.792,13.173 -14.73,14.207C-14.672,15.189 -15.114,15.76 -16.088,15.767C-17.048,15.775 -17.215,15.061 -17.224,14.277C-17.268,10.364 -17.319,6.45 -17.352,2.538C-17.356,1.982 -17.324,1.414 -17.218,0.869C-16.933,-0.592 -16.481,-1.021 -14.961,-1.093C-13.13,-1.181 -11.29,-1.111 -9.46,-1.216C-7.792,-1.31 -6.135,-1.603 -4.468,-1.71C-2.191,-1.854 -1.905,-1.53 -1.913,0.842C-1.928,5.795 -1.96,10.748 -1.947,15.701C-1.943,17.125 -2.219,18.734 0,19.095" style="fill:rgb(70,70,70);fill-rule:nonzero;"/>
                </g>
                <g transform="matrix(1,0,0,1,125.029,106.292)">
                    <path d="M0,8.614C1.161,5.912 3.719,7.873 5.666,6.509C3.524,6.304 1.781,6.032 0.032,5.999C-2.186,5.957 -4.411,6.206 -6.629,6.151C-9.093,6.091 -11.551,5.816 -14.014,5.663C-15.042,5.598 -16.074,5.616 -17.103,5.576C-18.261,5.531 -19.061,4.912 -19.484,3.876C-19.61,3.569 -19.565,3.021 -19.363,2.802C-19.173,2.595 -18.593,2.52 -18.318,2.656C-13.168,5.212 -7.673,4.978 -2.171,4.712C-1.215,4.666 -0.226,4.42 0.691,4.585C5.323,5.418 9.907,4.523 14.509,4.335C15.067,4.312 15.628,4.289 16.18,4.213C20.112,3.671 20.145,3.431 20.797,0.221C20.875,-0.163 21.033,-0.543 21.214,-0.893C21.562,-1.564 22.191,-1.853 22.796,-1.44C23.15,-1.198 23.472,-0.502 23.388,-0.099C23.061,1.457 22.736,3.055 22.081,4.487C21.477,5.805 21.527,6.908 22.199,8.09C22.317,8.298 22.509,8.512 22.515,8.727C22.529,9.306 22.461,9.886 22.425,10.467C21.78,10.333 21.125,10.231 20.497,10.044C20.309,9.987 20.198,9.684 20.043,9.503C18.915,8.177 17.726,7.883 15.866,8.284C11.991,9.12 8.006,9.466 4.057,9.934C2.682,10.097 1.377,9.71 0,8.614" style="fill:rgb(70,70,70);fill-rule:nonzero;"/>
                </g>
                <g transform="matrix(1,0,0,1,35.4805,60.7542)">
                    <path d="M0,-44.769C-1.168,-36.362 -0.158,-28.545 0.874,-20.827C1.573,-15.587 1.651,-10.331 2.294,-5.111C2.46,-3.764 2.592,-2.415 2.749,-1.067C2.896,0.19 2.457,1.088 1.561,1.181C0.343,1.307 0.183,0.294 -0.072,-0.518C-0.238,-1.043 -0.274,-1.618 -0.313,-2.174C-0.567,-5.842 -0.759,-9.514 -1.062,-13.177C-1.358,-16.755 -1.763,-20.324 -2.119,-23.897C-2.237,-25.089 -2.433,-26.281 -2.453,-27.474C-2.546,-32.896 -3.036,-38.317 -2.478,-43.74C-2.453,-43.977 -2.464,-44.219 -2.457,-44.458C-2.424,-45.438 -1.936,-46.076 -0.96,-45.754C-0.45,-45.586 -0.112,-44.892 0,-44.769" style="fill:rgb(70,70,70);fill-rule:nonzero;"/>
                </g>
                <g transform="matrix(1,0,0,1,42.1558,68.8992)">
                    <path d="M0,-42.54C1.784,-42.944 2.398,-42.159 2.656,-40.919C3.52,-36.775 4.065,-32.579 4.019,-28.355C3.96,-22.995 4.279,-17.671 4.813,-12.346C5.005,-10.443 4.941,-8.517 5.048,-6.603C5.127,-5.175 5.298,-3.752 5.418,-2.326C5.458,-1.851 5.626,-1.3 5.449,-0.914C5.212,-0.395 4.734,0.301 4.292,0.355C3.875,0.404 3.293,-0.221 2.934,-0.668C2.719,-0.936 2.776,-1.434 2.738,-1.83C2.607,-3.181 2.442,-4.529 2.371,-5.884C1.868,-15.447 1.4,-25.014 0.877,-34.577C0.799,-36.001 0.457,-37.409 0.294,-38.831C0.154,-40.057 0.096,-41.292 0,-42.54" style="fill:rgb(70,70,70);fill-rule:nonzero;"/>
                </g>
                <g transform="matrix(1,0,0,1,55.6451,75.5541)">
                    <path d="M0,-40.021C1.873,-39.931 2.438,-39.054 2.556,-37.705C2.849,-34.362 3.219,-31.025 3.435,-27.678C3.724,-23.214 3.869,-18.743 4.131,-14.277C4.276,-11.807 4.578,-9.347 4.727,-6.877C4.823,-5.29 4.821,-3.69 4.754,-2.1C4.733,-1.586 4.462,-1.007 4.127,-0.606C3.864,-0.292 3.283,0 2.924,-0.077C2.585,-0.15 2.203,-0.677 2.103,-1.072C1.911,-1.835 1.868,-2.645 1.825,-3.438C1.21,-14.685 0.604,-25.933 0.006,-37.181C-0.04,-38.034 0,-38.891 0,-40.021" style="fill:rgb(70,70,70);fill-rule:nonzero;"/>
                </g>
                <g transform="matrix(1,0,0,1,105.689,0.2612)">
                    <path d="M0,6.14C-0.83,6.323 -1.717,6.729 -2.575,6.672C-6.821,6.396 -10.795,5.079 -14.562,3.153C-15.645,2.598 -15.53,1.241 -14.438,0.431C-13.266,-0.437 -6.968,-0.589 -6.17,0.556C-4.976,2.267 -3.149,2.714 -1.548,3.626C-0.673,4.124 0.016,4.688 0,6.14" style="fill:rgb(70,70,70);fill-rule:nonzero;"/>
                </g>
                <g transform="matrix(1,0,0,1,162.065,98.1946)">
                    <path d="M0,-0.265C0,-2.734 -0.004,-5.202 0.004,-7.671C0.005,-8.227 -0.113,-8.872 0.124,-9.316C0.372,-9.78 0.937,-10.241 1.443,-10.359C2.125,-10.517 2.646,-10.085 2.693,-9.284C2.753,-8.251 2.875,-7.22 2.882,-6.187C2.912,-1.492 2.91,3.204 2.921,7.899C2.921,8.217 2.964,8.539 2.93,8.853C2.827,9.82 2.188,10.252 1.298,10.231C0.447,10.212 0.037,9.651 0.018,8.811C-0.008,7.697 -0.041,6.582 -0.046,5.467C-0.057,3.557 -0.049,1.646 -0.049,-0.265L0,-0.265Z" style="fill:rgb(70,70,70);fill-rule:nonzero;"/>
                </g>
                <g transform="matrix(1,0,0,1,27.0567,10.6759)">
                    <path d="M0,24.405C-2.447,23.868 -2.557,23.812 -2.615,22.235C-2.867,15.467 -3.094,8.699 -3.313,1.93C-3.328,1.473 -3.207,1.012 -3.079,0C-2.499,0.701 -2.003,1.022 -1.957,1.399C-1.44,5.588 -0.952,9.781 -0.542,13.982C-0.286,16.6 -0.164,19.231 -0.007,21.858C0.039,22.638 0,23.424 0,24.405" style="fill:rgb(70,70,70);fill-rule:nonzero;"/>
                </g>
                <g transform="matrix(1,0,0,1,136.617,60.0677)">
                    <path d="M0,6.522C1.381,5.071 2.43,4.029 3.388,2.91C3.576,2.69 3.415,2.171 3.415,1.5L-2.035,1.5C-1.346,0.769 -1.108,0.28 -0.784,0.213C0.757,-0.102 2.322,-0.469 3.879,-0.47C4.584,-0.47 5.745,0.22 5.896,0.803C6.17,1.874 6.277,3.452 5.679,4.175C4.713,5.34 3.151,6.04 1.768,6.805C1.43,6.992 0.811,6.668 0,6.522" style="fill:rgb(70,70,70);fill-rule:nonzero;"/>
                </g>
                <g transform="matrix(1,0,0,1,109.32,32.3803)">
                    <path d="M0,-3.19C-0.589,-1.269 -2.194,-0.517 -3.397,0.588C-3.551,0.729 -3.942,0.849 -4.051,0.762C-5.573,-0.45 -7.312,0.547 -8.912,0.237C-9.13,0.194 -9.323,0.022 -9.527,-0.089C-9.651,-1.129 -8.771,-1.26 -8.193,-1.519C-6.52,-2.267 -4.795,-2.899 -3.102,-3.604C-2.06,-4.039 -1.105,-3.962 0,-3.19" style="fill:rgb(70,70,70);fill-rule:nonzero;"/>
                </g>
                <g transform="matrix(1,0,0,1,132.807,66.5076)">
                    <path d="M0,-4.623C2.077,-4.013 2.284,-2.884 0.863,0C-0.334,-1.468 -0.214,-3 0,-4.623" style="fill:rgb(70,70,70);fill-rule:nonzero;"/>
                </g>
                <g transform="matrix(0.996536,0.0831621,0.0831621,-0.996536,68.021,64.4095)">
                    <path d="M0.087,0.007C-0.054,0.695 -0.196,1.384 -0.338,2.074C-0.196,2.094 -0.054,2.114 0.087,2.135C0.083,1.421 0.079,0.708 0.069,-0.016C0.061,-0.027 0.087,0.007 0.087,0.007" style="fill:rgb(70,70,70);fill-rule:nonzero;"/>
                </g>
                <g transform="matrix(0.214261,-0.976777,-0.976777,-0.214261,67.2165,59.2292)">
                    <path d="M-0.085,-0.072C-0.164,-0.083 -0.241,-0.093 -0.32,-0.104C-0.242,-0.039 -0.172,0.039 -0.085,0.087C-0.019,0.122 0.067,0.118 0.146,0.133L-0.085,-0.072Z" style="fill:rgb(70,70,70);fill-rule:nonzero;"/>
                </g>
            </g>
        </g>
    </g>
</svg>
