<?xml version="1.0" encoding="UTF-8" standalone="no"?>
<!DOCTYPE svg PUBLIC "-//W3C//DTD SVG 1.1//EN" "http://www.w3.org/Graphics/SVG/1.1/DTD/svg11.dtd">
<svg width="100%" height="100%" viewBox="0 0 80 80" version="1.1" xmlns="http://www.w3.org/2000/svg" xmlns:xlink="http://www.w3.org/1999/xlink" xml:space="preserve" xmlns:serif="http://www.serif.com/" style="fill-rule:evenodd;clip-rule:evenodd;stroke-linejoin:round;stroke-miterlimit:2;">
    <g transform="matrix(1,0,0,1,0,-295.039)">
        <g id="about" transform="matrix(1,0,0,1,-115,295.039)">
            <rect x="115" y="0" width="80" height="80" style="fill:none;"/>
            <g>
                <g transform="matrix(43.706,0,0,45.9533,140.796,58.2435)">
                    <path d="M0.302,-0.198L0.23,-0.198C0.23,-0.262 0.241,-0.312 0.263,-0.347C0.282,-0.377 0.321,-0.412 0.379,-0.451C0.395,-0.462 0.408,-0.471 0.419,-0.478C0.43,-0.485 0.438,-0.491 0.444,-0.496C0.482,-0.527 0.501,-0.561 0.501,-0.598C0.501,-0.635 0.483,-0.665 0.446,-0.69C0.411,-0.715 0.365,-0.727 0.31,-0.727C0.267,-0.727 0.225,-0.719 0.184,-0.704C0.142,-0.688 0.103,-0.666 0.065,-0.637L0.065,-0.726C0.085,-0.736 0.103,-0.745 0.12,-0.753C0.137,-0.76 0.152,-0.766 0.167,-0.771C0.217,-0.788 0.266,-0.797 0.314,-0.797C0.386,-0.797 0.448,-0.78 0.5,-0.746C0.557,-0.709 0.585,-0.659 0.585,-0.597C0.585,-0.558 0.574,-0.525 0.552,-0.497C0.531,-0.468 0.493,-0.438 0.439,-0.406C0.38,-0.371 0.342,-0.34 0.327,-0.313C0.31,-0.288 0.302,-0.249 0.302,-0.198ZM0.264,0.003C0.249,0.003 0.237,-0.004 0.23,-0.019C0.222,-0.034 0.218,-0.05 0.218,-0.067C0.218,-0.084 0.221,-0.098 0.226,-0.11C0.235,-0.129 0.248,-0.138 0.266,-0.138C0.283,-0.138 0.296,-0.129 0.305,-0.111C0.312,-0.098 0.315,-0.083 0.315,-0.066C0.315,-0.04 0.309,-0.022 0.297,-0.011C0.289,-0.002 0.278,0.003 0.264,0.003Z" style="fill:rgb(108,108,108);fill-rule:nonzero;"/>
                </g>
                <g transform="matrix(1,0,0,1,115,-181.217)">
                    <path d="M80,181.217L0,181.217L0,261.217L80,261.217L80,181.217ZM79,182.217L79,260.217C79,260.217 1,260.217 1,260.217C1,260.217 1,182.217 1,182.217L79,182.217Z" style="fill:rgb(108,108,108);"/>
                </g>
            </g>
        </g>
    </g>
</svg>
