<?xml version="1.0" encoding="UTF-8" standalone="no"?>
<!DOCTYPE svg PUBLIC "-//W3C//DTD SVG 1.1//EN" "http://www.w3.org/Graphics/SVG/1.1/DTD/svg11.dtd">
<svg width="100%" height="100%" viewBox="0 0 80 80" version="1.1" xmlns="http://www.w3.org/2000/svg" xmlns:xlink="http://www.w3.org/1999/xlink" xml:space="preserve" xmlns:serif="http://www.serif.com/" style="fill-rule:evenodd;clip-rule:evenodd;stroke-linejoin:round;stroke-miterlimit:2;">
    <g transform="matrix(1,0,0,1,-3199.51,0)">
        <g id="Layer-1" serif:id="Layer 1">
        </g>
        <g id="Layer-11" serif:id="Layer 1">
        </g>
        <g id="Layer-12" serif:id="Layer 1">
        </g>
        <g id="Layer-13" serif:id="Layer 1">
        </g>
        <g id="drawings-two" serif:id="drawings two" transform="matrix(1,0,0,1,3084.51,0)">
            <rect x="115" y="0" width="80" height="80" style="fill:white;"/>
            <clipPath id="_clip1">
                <rect x="115" y="0" width="80" height="80"/>
            </clipPath>
            <g clip-path="url(#_clip1)">
                <g transform="matrix(0.185724,0,0,0.185724,115,7.42895e-05)">
                    <g transform="matrix(1,0,0,1,-3174.76,-375.039)">
                        <rect x="3174.76" y="375.039" width="430.747" height="430.747" style="fill:rgb(246,246,246);"/>
                    </g>
                    <g transform="matrix(1.00347,0,0,1.00347,171.069,349.126)">
                        <path d="M0,-266.713C-1.098,-266.257 -2.432,-265.682 -3.782,-265.15C-4.872,-264.72 -5.976,-264.322 -7.086,-263.947C-7.665,-263.752 -8.319,-263.737 -8.855,-263.47C-10.769,-262.517 -12.637,-261.472 -14.543,-260.504C-15.084,-260.229 -15.686,-259.968 -16.278,-259.921C-18.111,-259.772 -19.602,-258.955 -20.906,-257.742C-22.953,-255.841 -24.731,-253.51 -27.068,-252.097C-30.309,-250.138 -32.426,-247.189 -34.358,-244.301C-36.031,-241.8 -38.46,-240.617 -40.484,-238.775C-40.919,-238.378 -41.273,-237.891 -41.654,-237.437C-42.534,-236.391 -43.285,-235.196 -44.311,-234.324C-46.072,-232.827 -48.006,-231.531 -49.863,-230.145C-49.972,-230.063 -50.063,-229.934 -50.119,-229.807C-50.657,-228.605 -51.165,-227.39 -51.721,-226.196C-52.352,-224.841 -53.097,-223.58 -54.573,-222.945C-54.854,-222.824 -55.11,-222.56 -55.291,-222.301C-56.198,-221.009 -57.043,-219.672 -57.973,-218.397C-58.935,-217.077 -60.149,-215.907 -60.92,-214.49C-61.675,-213.102 -61.986,-211.476 -62.546,-209.973C-62.705,-209.546 -62.991,-209.129 -63.319,-208.809C-65.494,-206.68 -67.744,-204.625 -69.866,-202.445C-70.693,-201.595 -71.709,-200.74 -71.539,-199.273C-71.506,-198.991 -71.892,-198.648 -72.111,-198.353C-72.563,-197.748 -73.115,-197.201 -73.473,-196.547C-73.81,-195.931 -73.868,-195.163 -74.194,-194.538C-75.335,-192.349 -76.556,-190.202 -77.711,-188.021C-78.43,-186.664 -78.866,-185.093 -79.819,-183.941C-81.283,-182.171 -81.946,-180.323 -81.888,-178.046C-81.869,-177.328 -82.461,-176.406 -83.048,-175.893C-85.489,-173.766 -86.895,-170.977 -87.117,-167.938C-87.294,-165.506 -88.786,-163.778 -89.36,-161.602C-89.944,-159.386 -91.135,-157.332 -92.04,-155.198C-92.147,-154.944 -92.125,-154.635 -92.163,-154.352C-92.329,-153.127 -92.188,-151.744 -92.721,-150.708C-94.053,-148.12 -93.724,-145.245 -94.483,-142.576C-95.077,-140.491 -95.566,-138.375 -96.067,-136.264C-96.417,-134.785 -97.123,-133.239 -96.944,-131.814C-96.52,-128.424 -97.483,-125.164 -97.442,-121.829C-97.41,-119.297 -97.478,-116.763 -97.555,-114.232C-97.581,-113.367 -97.845,-112.508 -97.87,-111.642C-97.901,-110.598 -97.834,-109.546 -97.729,-108.505C-97.679,-108 -97.328,-107.517 -97.312,-107.017C-97.187,-103.294 -97.004,-99.566 -97.067,-95.843C-97.098,-94.013 -97.627,-92.193 -97.899,-90.364C-97.973,-89.866 -98.099,-89.271 -97.907,-88.855C-96.836,-86.531 -97.592,-83.936 -96.574,-81.514C-95.779,-79.623 -96.142,-77.276 -95.747,-75.178C-95.347,-73.05 -94.703,-70.963 -94.064,-68.889C-93.58,-67.319 -92.93,-65.8 -92.366,-64.255C-91.977,-63.19 -91.693,-62.078 -91.211,-61.058C-90.428,-59.397 -89.52,-57.795 -88.667,-56.166C-87.814,-54.539 -87.009,-52.886 -86.098,-51.294C-85.643,-50.498 -84.96,-49.835 -84.445,-49.068C-83.822,-48.139 -83.386,-47.06 -82.657,-46.232C-81.359,-44.758 -79.92,-43.407 -78.5,-42.046C-78.182,-41.743 -77.7,-41.606 -77.285,-41.41C-76.375,-40.979 -75.453,-40.574 -74.55,-40.129C-74.139,-39.925 -73.752,-39.669 -73.373,-39.409C-72.448,-38.777 -71.508,-38.164 -70.626,-37.477C-69.807,-36.84 -69.116,-36.026 -68.259,-35.456C-67.204,-34.754 -65.912,-34.373 -64.944,-33.583C-63.534,-32.432 -62.386,-30.965 -61.004,-29.774C-59.867,-28.793 -58.517,-28.062 -57.325,-27.137C-55.613,-25.81 -53.968,-24.395 -52.274,-23.044C-51.72,-22.601 -51.116,-22.219 -50.514,-21.842C-48.244,-20.419 -45.966,-19.007 -43.689,-17.594C-42.972,-17.149 -42.273,-16.667 -41.524,-16.283C-40.1,-15.552 -38.687,-14.43 -37.194,-14.294C-35.042,-14.096 -33.877,-12.595 -32.311,-11.629C-30.668,-10.615 -29.102,-9.479 -27.479,-8.434C-25.903,-7.419 -24.14,-6.631 -22.748,-5.415C-21.134,-4.004 -19.46,-2.911 -17.399,-2.305C-16.569,-2.062 -15.676,-1.54 -15.142,-0.878C-13.634,0.992 -11.391,1.262 -9.375,1.878C-6.937,2.622 -4.367,2.93 -1.866,3.478C-1.531,3.551 -1.297,4.028 -0.958,4.141C1.208,4.86 3.391,5.53 5.569,6.213C5.61,6.227 5.665,6.209 5.71,6.197C8.147,5.516 10.122,6.664 12.217,7.66C13.933,8.475 15.86,9.37 17.667,9.316C19.194,9.271 20.638,9.063 22.17,9.487C23.806,9.939 25.576,9.941 27.175,10.477C31.096,11.792 35.075,11.207 39.057,11.244C41.583,11.267 44.153,11.615 46.61,12.206C48.504,12.662 50.318,13.737 52.281,12.937C54.952,11.848 57.597,12.123 60.284,12.669C61.06,12.827 61.974,13.321 62.59,13.075C65.527,11.9 68.545,11.249 71.682,10.922C72.816,10.803 73.916,10.188 74.991,9.709C76.139,9.198 77.239,8.58 78.359,8.008C79.401,7.476 80.461,6.973 81.48,6.401C82.879,5.615 84.213,4.707 85.64,3.978C87.13,3.215 88.706,2.623 90.226,1.914C91.071,1.52 92.149,1.238 92.649,0.557C94.051,-1.35 96.077,-2.479 98.049,-3.298C101.632,-4.788 104.49,-7.309 107.748,-9.237C108.641,-9.765 109.384,-10.557 110.295,-11.04C111.895,-11.884 114.1,-11.438 115.219,-13.365C115.335,-13.564 115.716,-13.661 115.99,-13.709C119.019,-14.236 121.041,-16.538 123.516,-18.024C125.492,-19.212 127.212,-20.819 129.106,-22.153C130.104,-22.854 131.265,-23.318 132.286,-23.989C132.959,-24.431 133.427,-25.265 134.137,-25.556C136.798,-26.646 138.804,-28.359 140.275,-30.853C141.159,-32.35 141.852,-34.407 143.908,-34.546C146.771,-34.741 147.873,-36.89 149.288,-38.736C150.256,-39.999 151.019,-41.42 152.006,-42.664C152.948,-43.851 154.191,-44.808 155.071,-46.033C156.274,-47.707 157.243,-49.547 158.348,-51.295C158.724,-51.889 159.222,-52.406 159.637,-52.978C160.168,-53.713 160.661,-54.474 161.188,-55.213C162.672,-57.29 164.66,-59.176 165.522,-61.484C166.478,-64.042 168.058,-66.112 169.356,-68.395C170.066,-69.644 171.33,-70.592 171.214,-72.267C171.188,-72.63 171.565,-73.025 171.767,-73.4C172.9,-75.515 174.111,-77.594 173.772,-80.165C173.716,-80.586 173.96,-81.095 174.183,-81.498C175.171,-83.277 176.22,-85.022 177.201,-86.804C177.397,-87.16 177.486,-87.63 177.465,-88.039C177.41,-89.08 177.497,-90.003 178.372,-90.761C178.689,-91.037 178.762,-91.606 178.916,-92.052C179.599,-94.013 180.237,-95.991 180.954,-97.939C181.765,-100.141 182.999,-102.255 183.411,-104.522C184.164,-108.668 184.446,-112.899 184.931,-117.094C184.984,-117.563 184.939,-118.123 185.18,-118.478C186.072,-119.8 185.817,-121.193 185.659,-122.617C185.605,-123.093 185.794,-123.596 185.867,-124.088C186.039,-125.236 186.298,-126.38 186.349,-127.532C186.391,-128.467 186.109,-129.414 186.097,-130.357C186.05,-133.705 186.22,-137.065 185.997,-140.4C185.792,-143.476 186.519,-146.559 185.813,-149.614C185.655,-150.3 185.544,-150.998 185.354,-151.674C184.702,-153.997 183.709,-156.275 183.435,-158.639C183.067,-161.804 182.572,-164.9 181.529,-167.907C181.374,-168.354 181.214,-168.8 181.076,-169.253C180.477,-171.233 179.94,-173.233 179.277,-175.191C178.295,-178.093 175.491,-180.06 175.067,-183.268C175.052,-183.388 174.864,-183.476 174.806,-183.601C173.994,-185.326 172.158,-186.428 172.076,-188.65C172.021,-190.129 171.366,-191.581 171.036,-193.057C170.847,-193.902 170.831,-194.788 170.632,-195.63C170.187,-197.502 169.875,-199.439 169.146,-201.2C168.16,-203.579 166.319,-205.584 166.073,-208.305C166.002,-209.098 165.898,-210.496 165.591,-210.56C163.913,-210.906 163.812,-212.49 162.921,-213.384C161.327,-214.984 161.528,-217.031 160.88,-218.858C160.243,-220.654 160.174,-222.621 158.887,-224.24C157.865,-225.527 157.07,-227.046 156.426,-228.569C155.032,-231.86 154.857,-235.726 151.608,-238.113C150.059,-239.252 148.692,-240.638 147.158,-241.8C146.357,-242.407 145.247,-242.625 144.499,-243.276C142.579,-244.944 140.81,-246.784 138.931,-248.503C137.439,-249.867 135.918,-251.205 134.333,-252.458C132.708,-253.743 131.055,-255.015 129.295,-256.101C127.547,-257.181 125.83,-258.186 124.829,-260.112C124.544,-260.659 123.847,-261.06 123.255,-261.368C121.91,-262.067 120.514,-262.665 119.14,-263.307C117.698,-263.981 116.314,-264.838 114.809,-265.299C111.591,-266.286 108.312,-267.071 105.057,-267.935C103.551,-268.336 102.063,-268.924 100.53,-269.079C97.976,-269.337 95.392,-269.282 92.823,-269.42C90.447,-269.548 88.058,-269.628 85.708,-269.969C83.996,-270.218 82.347,-270.881 80.658,-271.313C79.701,-271.558 78.631,-272.057 77.768,-271.835C75.168,-271.166 72.933,-272.582 70.508,-272.834C69.512,-272.938 68.596,-273.768 67.63,-274.239C67.342,-274.379 67.01,-274.481 66.692,-274.498C64.408,-274.62 62.122,-274.709 59.837,-274.829C59.463,-274.848 59.094,-274.973 58.723,-275.045C57.618,-275.26 56.513,-275.464 55.411,-275.689C54.722,-275.83 54.043,-276.026 53.351,-276.151C51.837,-276.424 50.307,-276.93 48.804,-276.863C46.108,-276.745 43.428,-276.272 40.741,-275.956C40.507,-275.928 40.264,-275.964 40.026,-275.975C38.564,-276.043 36.936,-276.556 35.68,-276.081C33.472,-275.247 31.226,-275.514 29.089,-275.522C25.477,-275.536 22.943,-273.283 19.903,-272.132C17.892,-271.371 15.868,-270.087 13.842,-270.071C11.442,-270.053 9.71,-268.642 7.587,-268.134C5.188,-267.56 3.099,-265.699 0,-266.713M34.464,-284.978C34.711,-285.003 34.958,-285.026 35.205,-285.05C36.029,-284.852 36.863,-284.463 37.681,-284.496C39.084,-284.552 40.537,-285.229 41.863,-285.007C44.661,-284.542 47.408,-284.654 50.203,-284.813C51.646,-284.894 53.132,-284.582 54.57,-284.302C58.153,-283.606 61.578,-282.101 65.325,-282.225C65.737,-282.238 66.159,-282.049 66.573,-281.943C69.093,-281.297 71.604,-280.615 74.133,-280.012C76.48,-279.452 78.833,-278.894 81.209,-278.483C83.779,-278.038 86.37,-277.614 88.969,-277.467C90.675,-277.371 92.41,-277.788 94.134,-277.963C94.367,-277.986 94.609,-277.943 94.847,-277.925C97.199,-277.744 99.549,-277.492 101.905,-277.4C103.914,-277.32 105.9,-277.349 107.604,-276.012C107.905,-275.776 108.405,-275.792 108.814,-275.692C110.354,-275.314 111.896,-274.945 113.433,-274.556C114.425,-274.304 115.533,-274.228 116.376,-273.719C119.241,-271.989 122.009,-270.097 124.822,-268.28C125.091,-268.107 125.412,-267.951 125.723,-267.919C127.163,-267.765 128.236,-267.054 129.314,-266.09C131.289,-264.324 133.36,-262.637 135.546,-261.143C137.734,-259.648 140.516,-258.9 141.449,-255.977C141.516,-255.768 141.724,-255.583 141.904,-255.432C142.898,-254.605 143.879,-253.755 144.914,-252.98C147.561,-251 150.238,-249.062 152.894,-247.093C153.835,-246.395 154.744,-245.653 155.673,-244.937C156.539,-244.268 157.697,-243.779 158.224,-242.906C159.4,-240.956 160.249,-238.809 161.256,-236.755C162.481,-234.254 163.759,-231.779 164.962,-229.268C165.923,-227.261 167.203,-225.293 167.609,-223.168C167.995,-221.146 168.29,-219.546 170.097,-218.147C172.069,-216.619 173.31,-214.411 173.838,-211.77C174.197,-209.972 175.279,-208.309 176.102,-206.616C176.698,-205.386 177.659,-204.275 177.993,-202.989C178.538,-200.892 178.485,-198.634 179.076,-196.555C180.186,-192.659 181.571,-188.841 182.867,-184.999C182.915,-184.858 183.232,-184.807 183.425,-184.714C183.495,-184.652 183.56,-184.585 183.619,-184.514C183.751,-184.301 183.884,-184.088 184.017,-183.875C184.079,-183.702 184.143,-183.53 184.204,-183.359C184.235,-182.904 184.144,-182.392 184.321,-182.001C185.3,-179.847 186.365,-177.731 187.358,-175.583C187.938,-174.33 188.636,-173.085 188.941,-171.759C190.042,-166.966 191.037,-162.149 191.995,-157.325C192.521,-154.675 192.85,-151.986 193.359,-149.333C193.507,-148.564 193.973,-147.857 194.293,-147.122C194.325,-146.895 194.358,-146.668 194.39,-146.442C193.09,-143.356 193.854,-140.175 193.963,-137.025C193.874,-136.225 193.785,-135.425 193.696,-134.627C193.579,-134.255 193.354,-133.88 193.363,-133.512C193.405,-131.894 193.519,-130.278 193.6,-128.661C193.633,-128.01 193.648,-127.36 193.672,-126.71C193.615,-125.9 193.559,-125.09 193.503,-124.283C192.865,-123.787 192.862,-123.553 193.483,-123.003C193.49,-122.377 193.497,-121.75 193.504,-121.125C193.162,-120.369 192.649,-119.64 192.517,-118.847C192.271,-117.384 192.329,-115.872 192.115,-114.401C191.776,-112.075 191.488,-109.719 190.858,-107.465C190.302,-105.476 189.073,-103.668 188.565,-101.672C187.925,-99.155 187.725,-96.526 187.31,-93.95C187.23,-93.455 187.191,-92.786 186.868,-92.523C184.103,-90.27 184.509,-86.728 183.286,-83.858C182.462,-81.925 181.95,-79.86 181.248,-77.871C181.132,-77.542 180.766,-77.296 180.502,-77.025C179.729,-76.227 179.021,-75.45 179.458,-74.16C179.583,-73.792 179.344,-73.229 179.132,-72.83C178.083,-70.857 176.869,-68.962 175.952,-66.931C175.434,-65.782 175.374,-64.424 175.107,-63.161C175.036,-63.05 174.964,-62.939 174.894,-62.83C174.651,-62.661 174.34,-62.542 174.177,-62.315C172.804,-60.411 171.47,-58.478 170.103,-56.57C168.285,-54.031 166.518,-51.452 164.602,-48.988C161.864,-45.469 158.977,-42.067 156.229,-38.555C155.345,-37.423 154.703,-36.103 153.95,-34.869C153.95,-34.869 153.864,-34.784 153.865,-34.785L152.793,-34.02C152.793,-34.02 152.702,-33.916 152.702,-33.917C152.358,-33.378 152.015,-32.838 151.67,-32.298C151.538,-32.161 151.406,-32.023 151.275,-31.886C150.815,-31.271 150.354,-30.655 149.895,-30.04C149.877,-29.989 149.843,-29.954 149.794,-29.933C147.014,-29.186 144.674,-27.794 142.937,-25.43C142.413,-24.717 141.755,-24.046 141.025,-23.553C139.396,-22.451 137.546,-21.638 136.032,-20.405C133.658,-18.469 131.488,-16.283 129.232,-14.203L128.544,-13.582C128.451,-13.587 128.342,-13.626 128.267,-13.59C125.399,-12.264 122.498,-11.014 120.17,-8.753C119.591,-8.191 118.699,-7.933 117.925,-7.594C116.795,-7.1 115.481,-6.873 114.531,-6.154C111.971,-4.217 108.98,-3.14 106.223,-1.61C105.619,-1.274 105.261,-0.499 104.79,0.074C104.766,0.131 104.725,0.171 104.668,0.195C104.35,0.476 104.03,0.757 103.711,1.037L103.613,1.12C103.063,1.465 102.51,1.813 101.958,2.16L101.869,2.23C100.071,3.058 98.273,3.887 96.476,4.715C96.348,4.832 96.221,4.951 96.095,5.068C95.222,5.245 94.319,5.333 93.482,5.615C90.35,6.665 88.696,9.587 86.206,11.458C85.938,11.487 85.67,11.515 85.402,11.543C84.849,11.557 84.255,11.446 83.75,11.61C82.438,12.036 81.15,12.552 79.876,13.087C77.494,14.088 75.054,14.99 72.786,16.209C71.669,16.81 70.741,16.533 69.684,16.507C68.13,16.469 66.314,16.15 65.066,16.81C62.213,18.321 59.42,18.507 56.407,17.771C55.868,17.64 55.263,17.694 54.7,17.761C52.717,17.996 50.743,18.429 48.758,18.482C47.466,18.516 45.975,18.33 44.905,17.689C43.473,16.831 42.077,16.191 40.425,16.105C39.616,16.063 38.804,16.043 37.994,16.016C34.991,15.916 31.965,16.017 28.992,15.663C25.85,15.288 22.761,14.472 19.645,13.869C18.853,13.715 17.967,13.813 17.26,13.495C15.017,12.488 12.664,12.299 10.267,12.228C9.814,12.215 9.242,12.177 8.936,11.91C6.632,9.894 3.584,9.939 0.912,9.41C-3.396,8.556 -3.427,8.874 -7.217,6.536C-8.598,5.684 -10.214,5.079 -11.803,4.741C-13.437,4.392 -14.353,3.819 -14.118,2.02C-14.087,1.786 -14.385,1.508 -14.531,1.25C-14.71,1.469 -15.017,1.671 -15.047,1.909C-15.218,3.257 -16.182,3.481 -17.142,3.148C-18.206,2.779 -19.533,2.563 -19.851,1.108C-19.88,0.976 -20.063,0.809 -20.199,0.782C-21.835,0.456 -23.006,-0.45 -24.142,-1.695C-25.149,-2.798 -26.674,-3.418 -27.931,-4.305C-28.521,-4.722 -29.009,-5.282 -29.566,-5.75C-29.872,-6.005 -30.2,-6.266 -30.562,-6.418C-31.572,-6.838 -32.609,-7.19 -33.626,-7.594C-34.101,-7.783 -34.556,-8.025 -35.016,-8.251C-35.885,-8.675 -36.766,-9.08 -37.616,-9.541C-39.096,-10.34 -40.548,-11.19 -42.026,-11.995C-43.465,-12.779 -44.941,-13.5 -46.367,-14.308C-48.589,-15.568 -50.272,-17.627 -52.922,-18.322C-54.298,-18.683 -55.472,-19.815 -56.732,-20.608C-56.848,-20.681 -56.922,-20.82 -57.02,-20.925C-58.258,-22.262 -59.488,-23.606 -60.743,-24.927C-60.964,-25.161 -61.266,-25.348 -61.565,-25.473C-65.229,-26.999 -67.717,-29.827 -69.98,-32.938C-70.256,-33.318 -70.98,-33.674 -71.408,-33.589C-73.127,-33.25 -74.501,-33.698 -75.691,-34.946C-76.462,-35.755 -77.232,-36.587 -78.116,-37.257C-79.857,-38.58 -82.082,-38.943 -83.835,-40.458C-85.628,-42.006 -86.68,-44.098 -85.601,-46.48C-86.055,-46.746 -86.5,-47.194 -87.001,-47.269C-89.974,-47.714 -91.349,-50.084 -92.621,-52.263C-93.606,-53.951 -93.835,-56.07 -94.471,-57.973C-94.78,-58.899 -95.275,-59.761 -95.639,-60.671C-96.192,-62.054 -96.665,-63.471 -97.249,-64.842C-97.693,-65.886 -98.28,-66.869 -98.761,-67.898C-99.253,-68.953 -99.293,-69.863 -98.125,-69.953C-98.684,-70.543 -99.652,-71.095 -99.815,-71.827C-100.233,-73.701 -100.267,-75.657 -100.506,-77.575C-100.685,-79.008 -100.527,-80.546 -101.675,-81.727C-101.824,-81.881 -101.82,-82.257 -101.777,-82.512C-101.248,-85.661 -102.638,-88.524 -103.362,-91.419C-103.903,-93.578 -104.079,-95.486 -103.399,-97.539C-103.286,-97.881 -103.128,-98.3 -103.227,-98.608C-103.644,-99.899 -102.583,-101.47 -103.981,-102.572C-104.062,-102.635 -104.083,-102.865 -104.04,-102.984C-103.482,-104.532 -104.271,-105.752 -104.956,-107.021C-105.167,-107.414 -105.306,-107.932 -105.252,-108.366C-104.914,-111.086 -104.498,-113.796 -104.144,-116.515C-104.07,-117.076 -104.102,-117.663 -104.168,-118.227C-104.307,-119.386 -104.645,-120.539 -104.636,-121.692C-104.625,-123.096 -104.277,-124.496 -104.199,-125.904C-104.141,-126.938 -104.374,-127.988 -104.317,-129.021C-104.213,-130.92 -104.021,-132.814 -103.81,-134.704C-103.644,-136.196 -103.499,-137.704 -103.16,-139.161C-102.593,-141.594 -101.848,-143.986 -101.247,-146.412C-101.095,-147.029 -101.24,-147.714 -101.182,-148.362C-101.1,-149.283 -101.101,-150.247 -100.81,-151.106C-100.069,-153.286 -99.141,-155.402 -98.382,-157.577C-98.056,-158.509 -98.045,-159.549 -97.746,-160.493C-97.172,-162.302 -96.504,-164.081 -95.858,-165.866C-94.909,-168.488 -94.549,-171.315 -92.977,-173.724C-91.895,-175.384 -90.9,-176.927 -90.824,-179.221C-90.751,-181.377 -89.209,-183.479 -88.338,-185.615C-87.973,-186.511 -87.684,-187.438 -87.333,-188.339C-87.197,-188.691 -87.029,-189.047 -86.8,-189.343C-85.637,-190.846 -84.442,-192.324 -83.277,-193.825C-83.081,-194.078 -82.813,-194.431 -82.857,-194.692C-83.111,-196.193 -82.146,-197.146 -81.474,-198.289C-80.752,-199.517 -80.32,-200.914 -79.761,-202.237C-79.415,-202.605 -79.069,-202.972 -78.724,-203.338C-78.042,-203.883 -77.191,-204.311 -76.705,-204.996C-75.147,-207.191 -73.875,-209.604 -72.185,-211.682C-71.33,-212.734 -70.722,-213.684 -70.672,-215.004C-70.613,-215.251 -70.555,-215.498 -70.496,-215.744C-70.261,-216.331 -70.026,-216.919 -69.791,-217.506C-69.608,-217.695 -69.425,-217.884 -69.244,-218.071C-68.132,-219.56 -67.103,-221.123 -65.882,-222.52C-64.519,-224.08 -63.153,-225.742 -61.464,-226.878C-60.261,-227.688 -59.438,-228.49 -59.046,-229.823C-58.9,-230.322 -58.817,-230.88 -58.535,-231.294C-57.584,-232.689 -55.978,-233.629 -55.671,-235.469C-52.859,-236.635 -51.212,-239.146 -49.123,-241.145C-47.387,-242.806 -45.853,-244.767 -43.88,-246.066C-41.491,-247.639 -39.771,-249.799 -37.862,-251.788C-36.948,-252.741 -36.761,-254.395 -35.841,-255.339C-34.133,-257.095 -32.163,-258.607 -30.238,-260.14C-28.259,-261.715 -25.706,-262.564 -24.299,-264.871C-24.167,-265.088 -23.874,-265.234 -23.625,-265.347C-21.919,-266.127 -20.189,-266.854 -18.501,-267.67C-17.26,-268.269 -16.088,-269.011 -14.856,-269.631C-12.485,-270.825 -9.825,-271.12 -7.338,-272.083C-2.374,-274.005 2.878,-275.204 8.039,-276.599C10.509,-277.266 13.065,-277.639 15.244,-279.109C15.542,-279.311 15.758,-279.635 16.012,-279.902C16.168,-279.995 16.324,-280.088 16.479,-280.179C16.817,-280.245 17.188,-280.246 17.489,-280.391C18.71,-280.978 19.853,-281.795 21.128,-282.186C23.992,-283.065 26.917,-283.741 29.818,-284.5C30.273,-284.516 30.728,-284.533 31.182,-284.549C31.493,-284.524 31.805,-284.499 32.117,-284.474C32.659,-284.556 33.202,-284.639 33.743,-284.721C33.983,-284.806 34.224,-284.892 34.464,-284.978" style="fill:rgb(62,32,39);fill-rule:nonzero;"/>
                    </g>
                    <g transform="matrix(1.00347,0,0,1.00347,161.636,105.306)">
                        <path d="M0,210.973C0.03,211.025 0.056,211.078 0.076,211.134C0.359,211.503 0.565,212.029 0.939,212.214C2.668,213.074 4.636,213.577 6.159,214.696C8.625,216.507 11.659,216.406 14.287,217.609C15.978,218.382 17.867,218.721 19.667,219.255C20.752,219.577 22.027,219.642 22.882,220.275C24.64,221.576 26.739,221.516 28.654,221.959C31.753,222.678 34.975,222.96 38.162,223.187C42.439,223.492 46.731,223.613 51.019,223.725C54.09,223.805 57.179,223.563 60.234,223.799C62.904,224.006 65.425,223.658 67.961,222.952C69.546,222.512 71.147,222.057 72.772,221.852C75.781,221.474 78.807,221.817 81.765,220.421C84.203,219.271 87.042,218.974 89.699,218.285C90.057,218.192 90.419,218.061 90.738,217.874C92.125,217.067 93.429,216.073 94.892,215.449C96.535,214.747 98.318,214.373 100.037,213.847C100.166,213.808 100.327,213.714 100.377,213.602C100.9,212.459 101.973,212.252 103.029,211.954C103.892,211.711 104.729,211.364 105.565,211.03C107.575,210.226 109.574,209.393 111.587,208.598C112.018,208.428 112.594,208.5 112.933,208.24C114.844,206.77 116.934,205.781 119.254,205.054C120.781,204.576 122.069,203.338 123.465,202.444C125.182,201.344 127.005,200.378 128.593,199.116C130.753,197.397 132.826,195.543 134.766,193.579C136.618,191.704 139.09,190.441 140.27,187.876C140.695,186.952 141.409,186.086 142.183,185.414C144.092,183.756 145.796,181.94 147.172,179.822C147.871,178.746 148.54,177.651 149.182,176.542C150.43,174.39 151.267,171.815 152.999,170.185C154.433,168.835 154.34,167.178 155.183,165.785C155.914,164.576 156.219,163.115 156.753,161.781C157.104,160.907 157.503,160.049 157.926,159.207C158.243,158.577 158.659,157.999 158.981,157.371C159.301,156.744 159.615,156.104 159.833,155.437C160.222,154.244 160.323,152.901 160.937,151.85C161.771,150.427 162.76,149.186 163.2,147.48C164.035,144.238 165.3,141.109 166.275,137.9C166.76,136.301 166.896,134.598 167.374,132.996C167.995,130.908 168.801,128.874 169.523,126.815C171.206,122.013 172.202,117.104 171.927,111.979C171.882,111.135 172.072,110.277 172.175,109.428C172.348,108.012 172.642,106.603 172.697,105.183C172.797,102.589 172.772,99.99 172.775,97.392C172.778,94.264 172.894,91.126 172.706,88.008C172.509,84.755 172.075,81.511 171.625,78.28C171.145,74.819 170.836,71.329 169.659,67.983C169.069,66.308 168.92,64.483 168.417,62.771C168.103,61.702 167.456,60.735 167.038,59.69C166.376,58.036 165.782,56.354 165.164,54.682C165.002,54.247 164.759,53.813 164.724,53.365C164.443,49.799 163.286,46.487 161.429,43.497C159.234,39.964 156.784,36.586 154.388,33.181C152.434,30.403 150.444,27.648 148.382,24.951C146.755,22.822 144.836,20.903 143.336,18.694C141.75,16.359 139.742,14.552 137.54,12.876C135.585,11.391 133.485,10.033 131.793,8.286C129.848,6.276 127.54,4.999 125.091,3.843C124.458,3.544 123.746,3.349 123.197,2.937C121.508,1.664 119.703,0.57 118.038,-0.768C116.081,-2.34 113.428,-3.069 111.042,-4.079C109.842,-4.586 108.549,-4.867 107.324,-5.321C105.641,-5.945 104.028,-7 102.303,-7.212C99.766,-7.523 97.466,-7.998 95.646,-9.933C95.363,-10.234 94.829,-10.325 94.392,-10.448C93.8,-10.615 93.197,-10.774 92.587,-10.837C91.343,-10.966 90.086,-10.989 88.844,-11.131C87.753,-11.256 86.675,-11.489 85.59,-11.662C83.655,-11.971 81.72,-12.277 79.783,-12.572C79.184,-12.663 78.579,-12.702 77.979,-12.788C76.567,-12.992 75.163,-13.294 73.743,-13.396C72.682,-13.472 71.593,-13.18 70.533,-13.261C68.877,-13.388 67.241,-13.737 65.587,-13.908C63.154,-14.16 60.705,-14.269 58.28,-14.573C56.656,-14.776 55.101,-15.109 53.588,-14.089C53.177,-13.812 52.466,-13.825 51.928,-13.916C49.763,-14.282 47.669,-14.201 45.592,-13.401C44.67,-13.046 43.649,-12.677 42.697,-12.732C40.542,-12.855 38.428,-13.323 36.252,-12.688C34.677,-12.228 33.024,-12.033 31.403,-11.739C30.891,-11.647 30.369,-11.595 29.85,-11.562C28.824,-11.498 27.786,-11.533 26.771,-11.397C24.509,-11.092 22.243,-10.779 20.006,-10.331C18.483,-10.026 17.007,-9.488 15.51,-9.054C14.868,-8.727 14.227,-8.4 13.586,-8.072C12.807,-8.38 12.104,-8.473 11.8,-7.441C10.659,-6.256 9.518,-5.071 8.377,-3.886C8.113,-3.868 7.813,-3.926 7.591,-3.82C6.157,-3.135 4.7,-2.484 3.326,-1.69C0.774,-0.217 -1.74,1.324 -4.243,2.879C-6.261,4.132 -8.271,5.405 -10.226,6.753C-11.414,7.573 -12.593,8.454 -13.598,9.482C-15.372,11.299 -17.033,13.228 -18.695,15.151C-19.397,15.964 -19.939,16.914 -20.626,17.742C-22.038,19.442 -23.131,21.352 -25.34,22.407C-26.766,23.089 -27.789,24.658 -28.922,25.894C-29.568,26.599 -30.011,27.489 -30.653,28.198C-32.328,30.046 -34.365,31.614 -34.999,34.22C-35.095,34.618 -35.348,34.989 -35.574,35.343C-37.159,37.825 -39.773,39.307 -41.493,41.779C-43.44,44.579 -45.686,47.161 -47.16,50.288C-47.781,51.605 -48.4,52.948 -49.222,54.141C-50.504,56.004 -51.959,57.749 -53.334,59.55C-53.418,59.659 -53.425,59.822 -53.495,59.946C-54.69,62.075 -55.758,64.294 -57.142,66.294C-57.914,67.411 -58.718,68.333 -58.768,69.807C-58.793,70.531 -59.444,71.239 -59.833,71.943C-60.313,72.809 -60.828,73.655 -61.303,74.524C-61.752,75.347 -62.241,76.16 -62.584,77.027C-63.42,79.139 -64.237,81.262 -64.955,83.416C-65.537,85.162 -65.842,87.006 -66.482,88.727C-67.863,92.441 -69.983,95.896 -70.389,99.944C-70.572,101.766 -70.657,103.599 -70.786,105.427C-70.815,105.832 -70.844,106.238 -70.873,106.643C-71.137,108.253 -71.518,109.857 -71.626,111.478C-71.707,112.695 -71.283,113.945 -71.354,115.163C-71.509,117.794 -72.009,120.416 -71.086,123.011C-70.981,123.305 -71.077,123.666 -71.06,123.995C-70.983,125.439 -71.046,126.909 -70.787,128.319C-70.246,131.257 -69.545,134.166 -68.884,137.082C-68.674,138.009 -68.379,138.916 -68.134,139.835C-67.922,140.632 -67.728,141.433 -67.525,142.233C-67.668,142.28 -67.812,142.327 -67.955,142.372C-66.732,143.422 -66.285,144.757 -66.272,146.33C-66.265,147.318 -66.121,148.331 -65.86,149.285C-65.32,151.258 -64.273,153.174 -64.143,155.16C-63.948,158.145 -62.473,160.555 -61.209,163.005C-59.905,165.535 -57.959,167.734 -56.305,170.085C-56.063,170.43 -55.896,170.827 -55.669,171.183C-55.069,172.123 -54.449,173.052 -53.847,173.992C-53.321,174.812 -52.797,175.634 -52.293,176.469C-52.054,176.866 -51.918,177.332 -51.643,177.698C-49.92,179.973 -47.717,181.657 -45.323,183.21C-42.511,185.036 -40.127,187.614 -37.172,189.096C-34.882,190.244 -33.456,192.278 -31.46,193.408C-28.895,194.861 -27.165,197.494 -24.195,198.271C-23.818,198.369 -23.543,198.811 -23.19,199.047C-22.087,199.785 -20.979,200.516 -19.854,201.221C-18.942,201.792 -18.01,202.333 -17.077,202.87C-15.813,203.597 -14.577,204.385 -13.262,205.008C-10.732,206.206 -8.167,207.333 -5.593,208.436C-4.627,208.849 -3.598,209.114 -2.597,209.446C-2.465,209.546 -2.333,209.646 -2.201,209.745C-1.467,210.155 -0.734,210.564 0,210.973M18.048,-16.669C21.896,-16.255 25.367,-16.899 28.726,-18.473C29.473,-18.823 30.503,-18.568 31.402,-18.596C32.904,-18.643 34.404,-18.723 35.906,-18.738C37.937,-18.757 39.899,-19.101 41.79,-19.848C44.13,-18.554 46.346,-20.223 48.644,-20.145C50.873,-20.068 53.107,-20.143 55.339,-20.136C57.806,-20.128 60.279,-20.202 62.737,-20.049C64.386,-19.946 66.006,-19.454 67.653,-19.235C70.716,-18.829 73.801,-18.573 76.852,-18.093C78.045,-17.906 79.17,-17.285 80.325,-16.857C80.635,-16.741 81.087,-16.409 81.224,-16.511C83.047,-17.878 85.146,-16.223 87.066,-17.146C89.024,-18.087 90.711,-17.139 92.291,-15.869C92.895,-15.382 93.782,-15.028 94.55,-15.006C96.088,-14.964 97.516,-14.8 98.982,-14.197C101.303,-13.242 103.75,-12.594 106.132,-11.782C106.705,-11.588 107.23,-11.258 107.777,-10.99C108.73,-10.523 109.56,-10.082 110.809,-10.188C111.905,-10.281 113.089,-9.302 114.241,-8.811C114.861,-8.547 115.509,-8.345 116.115,-8.053C116.808,-7.719 117.793,-7.484 118.084,-6.915C119.285,-4.566 121.69,-4.07 123.695,-2.97C124.643,-2.45 125.694,-2.116 126.701,-1.704C127.008,-1.578 127.365,-1.316 127.632,-1.382C129.492,-1.844 130.164,-0.309 131.206,0.636C132.71,2.002 134.244,3.339 135.791,4.659C136.07,4.897 136.473,5.135 136.816,5.13C138.767,5.102 140.126,6.391 141.667,7.256C142.149,7.526 142.562,7.975 142.913,8.417C144.922,10.948 146.776,13.618 148.938,16.009C150.531,17.77 152.725,18.998 154.261,20.797C155.545,22.303 156.292,24.277 157.22,26.073C157.629,26.864 157.731,27.86 158.264,28.53C159.187,29.687 160.376,30.626 161.38,31.724C162.299,32.731 163.232,33.755 163.966,34.895C166.27,38.475 167.998,42.359 169.715,46.243C170.173,47.277 170.76,48.266 171.109,49.335C171.347,50.063 171.242,50.897 171.351,51.676C171.484,52.618 171.371,53.831 171.912,54.432C173.335,56.012 173.633,57.827 173.798,59.786C173.854,60.451 174.189,61.098 174.43,61.74C175.04,63.358 175.822,64.929 176.253,66.592C176.877,68.998 177.29,71.462 177.712,73.915C177.839,74.654 177.675,75.438 177.694,76.201C177.706,76.707 177.646,77.31 177.889,77.702C179.061,79.58 179.402,81.519 178.714,83.651C178.615,83.958 178.849,84.372 178.923,84.739C179.111,85.659 179.572,86.629 179.421,87.492C179.114,89.257 179.757,90.857 179.875,92.532C180.044,94.939 179.98,97.365 179.959,99.783C179.946,101.331 179.921,102.889 179.747,104.424C179.4,107.481 178.899,110.52 178.563,113.577C178.435,114.739 178.709,115.945 178.583,117.107C178.259,120.101 178.147,123.107 177.007,126.004C175.958,128.67 175.376,131.519 174.542,134.272C174.323,134.992 173.911,135.65 173.617,136.348C173.433,136.785 173.134,137.263 173.183,137.689C173.337,139.066 172.759,140.173 172.167,141.327C171.931,141.789 172.013,142.405 171.893,142.938C171.72,143.713 171.569,144.506 171.279,145.241C170.203,147.965 169.079,150.671 167.961,153.379C167.6,154.253 167.248,155.135 166.811,155.971C166.459,156.644 165.639,157.246 165.628,157.89C165.584,160.717 163.48,162.446 162.297,164.658C162.119,164.991 161.828,165.351 161.844,165.687C161.95,167.905 160.393,169.292 159.361,170.964C157.892,173.343 156.525,175.786 155.161,178.228C153.638,180.952 152.222,183.739 150.644,186.429C150.051,187.44 149.098,188.233 148.37,189.172C146.946,191.01 145.873,193.295 144.083,194.625C142.112,196.09 141.021,198.257 139.231,199.668C134.421,203.457 129.362,206.93 124.379,210.496C123.807,210.907 123.079,211.09 122.443,211.419C121.577,211.868 120.754,212.41 119.869,212.811C118.75,213.318 117.48,213.555 116.466,214.206C114.162,215.687 111.499,216.286 109.111,217.452C107.559,218.209 105.979,218.607 104.431,219.215C101.225,220.475 98.171,222.117 95.03,223.545C93.827,224.092 92.58,224.577 91.308,224.931C88.424,225.737 85.513,226.445 82.613,227.191C79.464,228 76.337,228.907 73.162,229.588C70.494,230.161 67.751,230.89 65.076,230.773C62.861,230.675 60.773,231.196 58.642,231.183C55.667,231.166 52.699,230.668 49.721,230.481C47.736,230.357 45.736,230.463 43.747,230.374C42.334,230.311 40.929,230.077 39.517,229.958C39.157,229.928 38.783,230.041 38.417,230.097C37.949,230.167 37.478,230.336 37.018,230.306C35.102,230.183 33.187,230.035 31.278,229.827C30.155,229.703 29.025,229.525 27.935,229.235C25.431,228.57 22.935,227.867 20.462,227.095C17.53,226.179 14.629,225.162 11.705,224.221C11.262,224.078 10.75,224.162 10.295,224.043C9.113,223.735 7.927,223.424 6.777,223.015C4.948,222.364 3.145,221.639 1.337,220.931C0.905,220.762 0.452,220.596 0.082,220.327C-2.186,218.68 -4.312,216.793 -6.721,215.394C-9.282,213.907 -12.174,213.001 -14.795,211.605C-17.582,210.121 -20.933,209.72 -23.19,207.188C-23.622,206.703 -24.441,206.573 -25.071,206.257C-28.784,204.395 -32.154,202.109 -35.199,199.214C-37.451,197.075 -40.241,195.505 -42.778,193.662C-46.188,191.185 -49.779,188.911 -52.92,186.128C-55.189,184.119 -57.25,181.786 -58.693,178.949C-59.968,176.442 -61.785,174.216 -63.292,171.822C-64.625,169.703 -66.082,167.621 -67.08,165.346C-68.238,162.708 -68.918,159.864 -69.877,157.133C-70.33,155.847 -70.766,154.692 -70.532,153.196C-70.36,152.093 -71.299,150.856 -71.554,149.639C-71.945,147.779 -72.062,145.856 -72.504,144.01C-72.964,142.088 -73.756,140.247 -74.25,138.331C-74.705,136.563 -74.965,134.744 -75.297,132.944C-75.417,132.289 -75.355,131.566 -75.615,130.98C-77.345,127.075 -77.188,122.833 -77.888,118.746C-78.15,117.211 -78.495,115.691 -78.768,114.157C-78.825,113.838 -78.866,113.347 -78.688,113.184C-76.646,111.319 -77.657,108.724 -77.08,106.516C-76.606,104.7 -76.225,102.897 -74.856,101.516C-74.29,100.945 -74.168,100.5 -74.498,99.65C-74.838,98.774 -74.889,97.623 -74.636,96.712C-73.995,94.398 -73.106,92.153 -72.336,89.873C-72.218,89.522 -72.059,89.086 -72.165,88.773C-72.938,86.482 -71.838,84.509 -71.179,82.458C-70.458,80.212 -69.825,77.931 -68.977,75.734C-68.494,74.483 -67.636,73.381 -66.99,72.189C-66.293,70.905 -65.859,69.409 -64.925,68.341C-63.701,66.941 -62.916,65.58 -62.675,63.669C-62.544,62.629 -61.298,61.726 -60.543,60.77C-60.369,60.55 -59.991,60.376 -59.974,60.161C-59.73,56.974 -57.272,55.166 -55.522,52.918C-55.436,52.807 -55.288,52.672 -55.301,52.565C-55.526,50.731 -53.98,49.954 -53.1,48.768C-52.619,48.12 -52.378,47.301 -51.951,46.606C-51.132,45.274 -50.286,43.957 -49.401,42.668C-48.437,41.265 -47.467,39.859 -46.409,38.528C-44.626,36.284 -42.742,34.12 -40.965,31.872C-40.404,31.163 -40.05,30.29 -39.606,29.489C-39.49,29.281 -39.434,29.022 -39.276,28.856C-37.204,26.666 -35.435,24.269 -32.904,22.415C-30.308,20.514 -28.38,17.697 -26.164,15.277C-26.103,15.21 -26.103,15.086 -26.04,15.022C-23.659,12.576 -21.253,10.153 -18.904,7.676C-18.269,7.006 -17.807,6.171 -17.262,5.415C-16.962,5 -16.712,4.301 -16.341,4.226C-13.848,3.726 -12.181,1.933 -10.26,0.537C-10.221,0.509 -10.175,0.471 -10.134,0.472C-7.22,0.556 -6.164,-2.607 -3.659,-3.238C-3.574,-3.259 -3.458,-3.337 -3.44,-3.41C-2.936,-5.378 -0.769,-5.729 0.247,-7.202C0.396,-7.418 0.703,-7.704 0.901,-7.678C2.41,-7.483 3.001,-8.587 3.893,-9.467C4.701,-10.266 5.936,-10.628 6.972,-11.203C7.878,-11.705 8.747,-12.276 9.669,-12.743C12.225,-14.038 14.797,-15.301 17.373,-16.556C17.618,-16.676 17.933,-16.652 18.048,-16.669" style="fill:rgb(62,32,39);fill-rule:nonzero;"/>
                    </g>
                    <g transform="matrix(1.00347,0,0,1.00347,-3182.38,-381.923)">
                        <path d="M3261.77,526.301C3261.22,527.624 3260.78,529.022 3260.06,530.249C3259.39,531.393 3258.42,532.345 3258.68,533.847C3258.72,534.107 3258.45,534.46 3258.26,534.714C3257.09,536.215 3255.9,537.693 3254.74,539.195C3254.51,539.491 3254.34,539.847 3254.2,540.199C3253.85,541.101 3253.56,542.028 3253.2,542.924C3252.33,545.059 3250.78,547.161 3250.71,549.317C3250.64,551.612 3249.64,553.154 3248.56,554.814C3246.99,557.224 3246.63,560.05 3245.68,562.672C3245.03,564.457 3244.36,566.236 3243.79,568.045C3243.49,568.989 3243.48,570.029 3243.15,570.961C3242.39,573.136 3241.47,575.252 3240.73,577.433C3240.43,578.291 3240.44,579.256 3240.35,580.176C3240.3,580.824 3240.44,581.509 3240.29,582.126C3239.69,584.552 3238.94,586.944 3238.38,589.377C3238.04,590.835 3237.89,592.343 3237.73,593.835C3237.51,595.724 3237.32,597.619 3237.22,599.517C3237.16,600.551 3237.39,601.6 3237.34,602.634C3237.26,604.043 3236.91,605.442 3236.9,606.846C3236.89,608 3237.23,609.152 3237.37,610.311C3237.43,610.876 3237.47,611.463 3237.39,612.023C3237.04,614.742 3236.62,617.453 3236.28,620.173C3236.23,620.606 3236.37,621.125 3236.58,621.517C3237.26,622.787 3238.05,624.007 3237.49,625.554C3237.45,625.674 3237.47,625.903 3237.55,625.967C3238.95,627.068 3237.89,628.639 3238.31,629.93C3238.41,630.238 3238.25,630.657 3238.14,631C3237.46,633.052 3237.63,634.961 3238.17,637.12C3238.9,640.014 3240.29,642.878 3239.76,646.026C3239.72,646.281 3239.71,646.657 3239.86,646.811C3241.01,647.993 3240.85,649.53 3241.03,650.964C3241.27,652.882 3241.3,654.838 3241.72,656.712C3241.88,657.443 3242.85,657.996 3243.41,658.586C3242.24,658.676 3242.28,659.586 3242.77,660.64C3243.26,661.67 3243.84,662.652 3244.29,663.696C3244.87,665.067 3245.34,666.484 3245.9,667.868C3246.26,668.777 3246.76,669.639 3247.07,670.565C3247.7,672.468 3247.93,674.588 3248.91,676.275C3250.19,678.455 3251.56,680.824 3254.53,681.269C3255.03,681.344 3255.48,681.793 3255.93,682.058C3254.86,684.44 3255.91,686.532 3257.7,688.081C3259.45,689.595 3261.68,689.959 3263.42,691.281C3264.3,691.952 3265.07,692.784 3265.84,693.593C3267.03,694.841 3268.41,695.289 3270.13,694.949C3270.56,694.864 3271.28,695.22 3271.56,695.6C3273.82,698.712 3276.31,701.54 3279.97,703.065C3280.27,703.19 3280.57,703.378 3280.79,703.611C3282.05,704.932 3283.28,706.276 3284.52,707.613C3284.61,707.718 3284.69,707.857 3284.8,707.93C3286.06,708.723 3287.24,709.855 3288.61,710.217C3291.26,710.912 3292.95,712.97 3295.17,714.23C3296.59,715.039 3298.07,715.759 3299.51,716.544C3300.99,717.348 3302.44,718.198 3303.92,718.998C3304.77,719.459 3305.65,719.863 3306.52,720.288C3306.98,720.513 3307.43,720.756 3307.91,720.944C3308.93,721.348 3309.96,721.701 3310.97,722.121C3311.34,722.272 3311.66,722.533 3311.97,722.789C3312.53,723.257 3313.01,723.816 3313.6,724.233C3314.86,725.121 3316.39,725.74 3317.39,726.843C3318.53,728.089 3319.7,728.995 3321.34,729.32C3321.47,729.347 3321.66,729.514 3321.68,729.646C3322,731.101 3323.33,731.317 3324.39,731.686C3325.35,732.019 3326.32,731.796 3326.49,730.447C3326.52,730.21 3326.83,730.008 3327,729.789C3327.15,730.047 3327.45,730.324 3327.42,730.558C3327.18,732.357 3328.1,732.93 3329.73,733.279C3331.32,733.618 3332.94,734.222 3334.32,735.074C3338.11,737.413 3338.14,737.094 3342.45,737.948C3345.12,738.477 3348.17,738.432 3350.47,740.448C3350.78,740.716 3351.35,740.754 3351.8,740.766C3354.2,740.838 3356.55,741.026 3358.8,742.034C3359.5,742.351 3360.39,742.254 3361.18,742.407C3364.3,743.01 3367.39,743.827 3370.53,744.202C3373.5,744.555 3376.53,744.455 3379.53,744.554C3380.34,744.582 3381.15,744.601 3381.96,744.643C3383.61,744.729 3385.01,745.37 3386.44,746.227C3387.51,746.869 3389,747.054 3390.29,747.02C3392.28,746.968 3394.25,746.535 3396.24,746.3C3396.8,746.232 3397.4,746.178 3397.94,746.309C3400.95,747.046 3403.75,746.859 3406.6,745.348C3407.85,744.688 3409.66,745.008 3411.22,745.046C3412.28,745.071 3413.2,745.348 3414.32,744.748C3416.59,743.528 3419.03,742.627 3421.41,741.626C3422.69,741.091 3423.97,740.574 3425.28,740.148C3425.79,739.984 3426.38,740.095 3426.94,740.082C3426.07,740.648 3425.26,741.366 3424.32,741.75C3422.27,742.587 3420.13,743.213 3418.06,744.005C3416.52,744.593 3415.04,745.339 3413.5,745.946C3413.13,746.092 3412.62,746.08 3412.24,745.947C3409.32,744.929 3406.72,745.98 3404.16,747.184C3402.26,748.078 3400.41,748.023 3398.51,747.217C3398.01,747.004 3397.29,746.773 3396.87,746.973C3394.89,747.929 3392.73,747.2 3390.75,747.768C3388.6,748.384 3386.85,747.596 3385.16,746.418C3383.5,745.262 3381.59,745.158 3379.67,745.17C3377.28,745.183 3374.86,745.429 3372.5,745.167C3369.56,744.839 3366.67,744.069 3363.74,743.54C3362.62,743.336 3361.42,743.445 3360.35,743.104C3357.24,742.113 3354.09,741.604 3350.83,741.395C3349.18,741.291 3347.62,740.274 3345.97,739.918C3342.6,739.19 3339.19,738.641 3335.8,737.987C3335.35,737.899 3334.84,737.727 3334.5,737.428C3331.4,734.658 3327.41,733.887 3323.68,732.526C3322.59,732.13 3321.64,731.356 3320.64,730.73C3320.08,730.38 3319.54,730 3319.02,729.593C3317.95,728.756 3316.9,727.888 3315.84,727.041C3315.28,726.595 3314.76,726.079 3314.14,725.745C3310.88,723.989 3307.58,722.302 3304.33,720.541C3303.5,720.093 3302.83,719.351 3301.99,718.935C3300.56,718.227 3299.06,717.681 3297.59,717.046C3296.86,716.729 3296.09,716.454 3295.44,716.006C3293.81,714.87 3292.3,713.538 3290.61,712.49C3288.83,711.381 3286.84,710.599 3285.05,709.501C3283.76,708.714 3282.64,707.656 3281.47,706.69C3279.99,705.461 3278.49,704.234 3277.06,702.949C3275.44,701.504 3273.77,700.088 3272.32,698.487C3270.95,696.973 3269.04,696.703 3267.37,695.883C3266.45,695.435 3265.39,695.011 3264.79,694.263C3262.66,691.648 3259.44,690.754 3256.83,688.92C3255.68,688.111 3254.77,687.31 3254.54,685.849C3254.24,683.985 3253.19,682.532 3251.81,681.299C3250.7,680.315 3249.4,679.464 3248.57,678.286C3247.84,677.243 3247.46,675.861 3247.22,674.574C3246.87,672.62 3246.24,670.853 3245.19,669.146C3244.36,667.799 3243.99,666.174 3243.32,664.718C3242.54,663.027 3241.61,661.399 3240.81,659.715C3240.6,659.266 3240.57,658.715 3240.53,658.204C3240.29,655.501 3240.11,652.792 3239.82,650.094C3239.74,649.366 3239.33,648.675 3239.08,647.962C3238.89,647.424 3238.66,646.89 3238.56,646.336C3237.9,642.834 3237.13,639.343 3236.7,635.812C3236.48,634.029 3236.89,632.171 3237,630.345C3237.04,629.679 3237.19,628.974 3237.04,628.35C3236.46,626.021 3237.14,623.515 3235.68,621.245C3235.12,620.39 3235.74,618.777 3235.84,617.511C3235.91,616.572 3236.02,615.636 3236.09,614.697C3236.11,614.513 3235.97,614.287 3236.03,614.14C3237.31,611.273 3235.88,608.444 3235.95,605.604C3236.01,602.774 3236.29,599.946 3236.55,597.124C3236.76,594.922 3237.03,592.721 3237.38,590.539C3237.62,589.055 3238.09,587.609 3238.41,586.136C3238.93,583.74 3239.82,581.448 3239.72,578.891C3239.65,577.098 3240.12,575.353 3241.16,573.649C3242.2,571.948 3242.44,569.768 3243.07,567.811C3243.52,566.424 3244.1,565.077 3244.51,563.678C3244.99,562.03 3245.3,560.331 3245.76,558.677C3246.52,555.988 3246.91,553.202 3248.65,550.816C3249.66,549.436 3250.09,547.64 3250.88,546.083C3251.81,544.255 3251.5,542.274 3251.82,540.385C3252.05,539.052 3253.07,537.767 3253.98,536.666C3254.8,535.679 3255.96,534.979 3256.95,534.137C3257.13,533.989 3257.36,533.77 3257.37,533.576C3257.49,530.642 3260.58,529.307 3261.12,526.598C3261.15,526.461 3261.55,526.399 3261.77,526.301ZM3341.53,461.825C3344.63,462.839 3346.72,460.978 3349.12,460.404C3351.24,459.896 3352.98,458.485 3355.38,458.467C3357.4,458.452 3359.43,457.167 3361.44,456.406C3364.48,455.255 3367.01,453.002 3370.62,453.016C3372.76,453.024 3375.01,453.291 3377.22,452.457C3378.47,451.982 3380.1,452.496 3381.56,452.563C3381.8,452.574 3382.04,452.61 3382.28,452.583C3384.96,452.267 3387.64,451.793 3390.34,451.675C3391.84,451.608 3393.37,452.114 3394.89,452.387C3395.58,452.512 3396.26,452.708 3396.95,452.849C3398.05,453.074 3399.15,453.278 3400.26,453.493C3400.63,453.565 3401,453.69 3401.37,453.709C3403.66,453.83 3405.94,453.918 3408.23,454.041C3408.55,454.057 3408.88,454.159 3409.16,454.299C3410.13,454.77 3411.05,455.601 3412.04,455.704C3414.47,455.956 3416.7,457.373 3419.3,456.704C3420.17,456.481 3421.24,456.98 3422.19,457.225C3423.88,457.657 3425.53,458.32 3427.24,458.569C3429.59,458.91 3431.98,458.99 3434.36,459.118C3436.93,459.256 3439.51,459.202 3442.07,459.459C3443.6,459.614 3445.09,460.203 3446.59,460.603C3449.85,461.467 3453.13,462.252 3456.34,463.239C3457.85,463.701 3459.23,464.557 3460.68,465.231C3462.05,465.874 3463.45,466.471 3464.79,467.17C3465.38,467.478 3466.08,467.879 3466.36,468.426C3467.37,470.352 3469.08,471.357 3470.83,472.437C3472.59,473.523 3474.24,474.795 3475.87,476.081C3477.45,477.333 3478.97,478.671 3480.47,480.036C3482.35,481.754 3484.11,483.594 3486.03,485.263C3486.78,485.913 3487.89,486.131 3488.69,486.738C3490.23,487.9 3491.59,489.286 3493.14,490.425C3496.39,492.812 3496.57,496.678 3497.96,499.969C3498.61,501.492 3499.4,503.011 3500.42,504.298C3501.71,505.917 3501.78,507.884 3502.41,509.68C3503.06,511.507 3502.86,513.555 3504.46,515.154C3505.35,516.048 3505.45,517.632 3507.13,517.978C3507.43,518.042 3507.54,519.44 3507.61,520.233C3507.86,522.954 3509.7,524.959 3510.68,527.338C3511.41,529.099 3511.72,531.037 3512.17,532.909C3512.37,533.75 3512.38,534.636 3512.57,535.481C3512.9,536.957 3513.56,538.409 3513.61,539.888C3513.69,542.11 3515.53,543.212 3516.34,544.937C3516.4,545.062 3516.59,545.15 3516.6,545.27C3517.03,548.478 3519.83,550.445 3520.81,553.348C3521.48,555.306 3522.01,557.306 3522.61,559.285C3522.75,559.738 3522.91,560.184 3523.07,560.631C3524.11,563.638 3524.6,566.734 3524.97,569.899C3525.24,572.263 3526.24,574.541 3526.89,576.864C3527.08,577.54 3527.19,578.238 3527.35,578.924C3528.05,581.979 3527.33,585.062 3527.53,588.138C3527.76,591.473 3527.59,594.833 3527.63,598.181C3527.64,599.124 3527.93,600.071 3527.88,601.006C3527.83,602.159 3527.57,603.302 3527.4,604.45C3527.33,604.942 3527.14,605.445 3527.19,605.921C3527.35,607.345 3527.61,608.738 3526.72,610.06C3526.47,610.416 3526.52,610.975 3526.47,611.444C3525.98,615.639 3525.7,619.871 3524.95,624.016C3524.53,626.284 3523.3,628.397 3522.49,630.599C3521.77,632.547 3521.13,634.525 3520.45,636.486C3520.3,636.932 3520.22,637.501 3519.91,637.777C3519.03,638.536 3518.95,639.458 3519,640.499C3519.02,640.909 3518.93,641.378 3518.74,641.734C3517.76,643.516 3516.71,645.261 3515.72,647.041C3515.49,647.443 3515.25,647.953 3515.31,648.374C3515.65,650.944 3514.44,653.023 3513.3,655.138C3513.1,655.513 3512.72,655.908 3512.75,656.271C3512.87,657.946 3511.6,658.894 3510.89,660.143C3509.59,662.426 3508.01,664.497 3507.06,667.054C3506.2,669.362 3504.21,671.249 3502.72,673.326C3502.2,674.064 3501.7,674.826 3501.17,675.56C3500.76,676.132 3500.26,676.649 3499.88,677.244C3498.78,678.991 3497.81,680.832 3496.61,682.505C3495.73,683.73 3494.48,684.687 3493.54,685.874C3492.55,687.119 3491.79,688.54 3490.82,689.802C3489.41,691.648 3488.31,693.797 3485.44,693.992C3483.39,694.131 3482.69,696.188 3481.81,697.685C3480.34,700.179 3478.33,701.892 3475.67,702.982C3474.96,703.273 3474.49,704.107 3473.82,704.549C3472.8,705.22 3471.64,705.684 3470.64,706.385C3468.75,707.719 3467.03,709.327 3465.05,710.514C3462.58,712 3460.55,714.302 3457.53,714.83C3457.25,714.877 3456.87,714.974 3456.75,715.173C3455.64,717.1 3453.43,716.654 3451.83,717.499C3450.92,717.981 3450.18,718.773 3449.28,719.301C3446.03,721.229 3443.17,723.75 3439.58,725.24C3437.61,726.059 3435.59,727.188 3434.18,729.095C3433.68,729.776 3432.61,730.058 3431.76,730.453C3430.24,731.162 3428.66,731.753 3427.18,732.516C3425.75,733.246 3424.41,734.153 3423.02,734.939C3422,735.511 3420.94,736.014 3419.89,736.546C3418.77,737.119 3417.67,737.736 3416.53,738.248C3415.45,738.726 3414.35,739.341 3413.22,739.46C3410.08,739.788 3407.06,740.438 3404.12,741.613C3403.51,741.859 3402.6,741.365 3401.82,741.208C3399.13,740.662 3396.49,740.386 3393.82,741.475C3391.85,742.275 3390.04,741.201 3388.14,740.745C3385.69,740.153 3383.12,739.805 3380.59,739.782C3376.61,739.746 3372.63,740.331 3368.71,739.015C3367.11,738.479 3365.34,738.477 3363.71,738.025C3362.17,737.601 3360.73,737.809 3359.2,737.854C3357.4,737.908 3355.47,737.013 3353.75,736.198C3351.66,735.203 3349.68,734.054 3347.24,734.735C3347.2,734.748 3347.14,734.765 3347.1,734.751C3344.93,734.068 3342.74,733.398 3340.58,732.679C3340.24,732.566 3340,732.089 3339.67,732.016C3337.17,731.468 3334.6,731.161 3332.16,730.416C3330.14,729.8 3327.9,729.53 3326.39,727.661C3325.86,726.999 3324.97,726.476 3324.14,726.233C3322.08,725.627 3320.4,724.535 3318.79,723.124C3317.39,721.907 3315.63,721.12 3314.06,720.104C3312.43,719.059 3310.87,717.923 3309.22,716.91C3307.66,715.943 3306.49,714.442 3304.34,714.245C3302.85,714.108 3301.43,712.986 3300.01,712.255C3299.26,711.872 3298.56,711.389 3297.85,710.944C3295.57,709.531 3293.29,708.12 3291.02,706.696C3290.42,706.319 3289.82,705.937 3289.26,705.495C3287.57,704.143 3285.92,702.728 3284.21,701.401C3283.02,700.476 3281.67,699.746 3280.53,698.764C3279.15,697.573 3278,696.106 3276.59,694.956C3275.62,694.166 3274.33,693.785 3273.28,693.083C3272.42,692.512 3271.73,691.698 3270.91,691.061C3270.03,690.374 3269.09,689.761 3268.16,689.129C3267.78,688.87 3267.4,688.613 3266.99,688.41C3266.08,687.964 3265.16,687.559 3264.25,687.128C3263.84,686.932 3263.35,686.795 3263.04,686.492C3261.62,685.131 3260.18,683.78 3258.88,682.306C3258.15,681.478 3257.71,680.399 3257.09,679.47C3256.58,678.704 3255.89,678.041 3255.44,677.245C3254.53,675.652 3253.72,673.999 3252.87,672.373C3252.02,670.744 3251.11,669.141 3250.32,667.48C3249.84,666.46 3249.56,665.348 3249.17,664.284C3248.61,662.738 3247.95,661.219 3247.47,659.649C3246.83,657.576 3246.19,655.488 3245.79,653.36C3245.39,651.262 3245.76,648.916 3244.96,647.024C3243.94,644.602 3244.7,642.007 3243.63,639.683C3243.44,639.267 3243.56,638.672 3243.64,638.174C3243.91,636.345 3244.44,634.525 3244.47,632.695C3244.53,628.972 3244.35,625.245 3244.22,621.521C3244.21,621.021 3243.86,620.539 3243.81,620.034C3243.7,618.993 3243.63,617.94 3243.66,616.896C3243.69,616.03 3243.95,615.171 3243.98,614.306C3244.06,611.775 3244.12,609.241 3244.09,606.709C3244.05,603.374 3245.02,600.114 3244.59,596.724C3244.41,595.299 3245.12,593.753 3245.47,592.274C3245.97,590.163 3246.46,588.047 3247.05,585.962C3247.81,583.293 3247.48,580.418 3248.82,577.83C3249.35,576.794 3249.21,575.411 3249.37,574.186C3249.41,573.903 3249.39,573.594 3249.5,573.34C3250.4,571.207 3251.59,569.152 3252.18,566.937C3252.75,564.76 3254.24,563.032 3254.42,560.601C3254.64,557.561 3256.05,554.772 3258.49,552.645C3259.07,552.132 3259.67,551.21 3259.65,550.493C3259.59,548.215 3260.25,546.367 3261.72,544.598C3262.67,543.445 3263.11,541.874 3263.82,540.518C3264.98,538.336 3266.2,536.189 3267.34,534C3267.67,533.375 3267.72,532.607 3268.06,531.991C3268.42,531.337 3268.97,530.79 3269.42,530.185C3269.64,529.891 3270.03,529.547 3270,529.266C3269.83,527.798 3270.84,526.943 3271.67,526.093C3273.79,523.913 3276.04,521.858 3278.22,519.729C3278.54,519.409 3278.83,518.992 3278.99,518.565C3279.55,517.062 3279.86,515.437 3280.62,514.048C3281.39,512.631 3282.6,511.461 3283.56,510.142C3284.49,508.866 3285.34,507.529 3286.24,506.237C3286.43,505.978 3286.68,505.714 3286.96,505.593C3288.44,504.958 3289.18,503.697 3289.82,502.342C3290.37,501.148 3290.88,499.933 3291.42,498.731C3291.47,498.604 3291.56,498.475 3291.67,498.394C3293.53,497.007 3295.46,495.711 3297.22,494.214C3298.25,493.342 3299,492.147 3299.88,491.101C3300.26,490.647 3300.62,490.16 3301.05,489.764C3303.08,487.921 3305.5,486.738 3307.18,484.237C3309.11,481.35 3311.23,478.4 3314.47,476.441C3316.8,475.028 3318.58,472.697 3320.63,470.796C3321.93,469.583 3323.42,468.766 3325.26,468.618C3325.85,468.57 3326.45,468.309 3326.99,468.035C3328.9,467.066 3330.77,466.021 3332.68,465.068C3333.22,464.801 3333.87,464.786 3334.45,464.591C3335.56,464.216 3336.66,463.818 3337.75,463.389C3339.1,462.856 3340.44,462.281 3341.53,461.825ZM3427.74,739.996C3430.23,738.125 3431.89,735.203 3435.02,734.152C3435.85,733.871 3436.76,733.782 3437.63,733.605C3437.06,734.028 3436.54,734.728 3435.92,734.823C3433.86,735.142 3432.46,736.286 3431.24,737.872C3430.56,738.749 3429.68,739.476 3428.81,740.177C3428.62,740.326 3428.1,740.067 3427.74,739.996ZM3438.01,733.253C3439.81,732.425 3441.61,731.596 3443.41,730.768C3443.35,730.928 3443.35,731.186 3443.24,731.233C3441.77,731.92 3440.28,732.589 3438.78,733.231C3438.56,733.324 3438.27,733.25 3438.01,733.253ZM3446.33,728.612C3446.8,728.04 3447.15,727.264 3447.76,726.928C3450.51,725.398 3453.51,724.321 3456.07,722.384C3457.02,721.666 3458.33,721.438 3459.46,720.944C3460.23,720.605 3461.13,720.347 3461.7,719.786C3464.03,717.524 3466.93,716.274 3469.8,714.948C3469.88,714.913 3469.99,714.952 3470.08,714.957C3469.94,715.22 3469.85,715.682 3469.67,715.716C3468.23,715.99 3467.43,717.013 3466.68,718.114C3466.6,718.229 3466.48,718.397 3466.37,718.4C3464.55,718.454 3464.21,720.015 3463.3,721.13C3462.08,722.629 3460.52,723.79 3458.18,723.449C3457.32,723.323 3456.21,724.262 3455.35,724.906C3454.39,725.631 3453.6,726.394 3452.19,726.023C3451.63,725.875 3450.86,726.398 3450.22,726.696C3448.91,727.306 3447.62,727.97 3446.33,728.612ZM3350.18,468.892C3350.07,468.909 3349.75,468.885 3349.51,469.004C3346.93,470.26 3344.36,471.523 3341.8,472.818C3340.88,473.285 3340.01,473.856 3339.11,474.358C3338.07,474.933 3336.84,475.294 3336.03,476.093C3335.14,476.974 3334.54,478.078 3333.03,477.882C3332.84,477.857 3332.53,478.143 3332.38,478.359C3331.37,479.832 3329.2,480.183 3328.69,482.151C3328.68,482.224 3328.56,482.301 3328.48,482.323C3325.97,482.954 3324.91,486.116 3322,486.033C3321.96,486.031 3321.91,486.07 3321.88,486.098C3319.95,487.494 3318.29,489.287 3315.79,489.787C3315.42,489.861 3315.17,490.561 3314.87,490.976C3314.33,491.732 3313.87,492.567 3313.23,493.237C3310.88,495.714 3308.47,498.136 3306.09,500.583C3306.03,500.647 3306.03,500.771 3305.97,500.838C3303.75,503.257 3301.83,506.074 3299.23,507.976C3296.7,509.83 3294.93,512.227 3292.86,514.416C3292.7,514.583 3292.64,514.841 3292.53,515.05C3292.08,515.851 3291.73,516.724 3291.17,517.433C3289.39,519.681 3287.51,521.844 3285.73,524.088C3284.67,525.42 3283.7,526.825 3282.73,528.228C3281.85,529.518 3281,530.835 3280.18,532.167C3279.76,532.862 3279.51,533.681 3279.03,534.329C3278.15,535.515 3276.61,536.292 3276.83,538.125C3276.85,538.233 3276.7,538.368 3276.61,538.479C3274.86,540.727 3272.4,542.535 3272.16,545.721C3272.14,545.937 3271.77,546.11 3271.59,546.331C3270.84,547.287 3269.59,548.189 3269.46,549.229C3269.22,551.141 3268.43,552.502 3267.21,553.902C3266.28,554.969 3265.84,556.466 3265.14,557.75C3264.5,558.942 3263.64,560.044 3263.16,561.294C3262.31,563.492 3261.68,565.772 3260.95,568.019C3260.3,570.069 3259.2,572.043 3259.97,574.333C3260.08,574.647 3259.92,575.082 3259.8,575.434C3259.03,577.713 3258.14,579.958 3257.5,582.273C3257.25,583.184 3257.3,584.335 3257.64,585.211C3257.97,586.061 3257.84,586.506 3257.28,587.077C3255.91,588.458 3255.53,590.26 3255.05,592.077C3254.48,594.285 3255.49,596.879 3253.45,598.745C3253.27,598.908 3253.31,599.399 3253.37,599.717C3253.64,601.251 3253.98,602.772 3254.25,604.307C3254.95,608.394 3254.79,612.635 3256.52,616.541C3256.78,617.126 3256.72,617.85 3256.84,618.504C3257.17,620.304 3257.43,622.124 3257.89,623.892C3258.38,625.808 3259.17,627.649 3259.63,629.571C3260.07,631.416 3260.19,633.339 3260.58,635.2C3260.84,636.416 3261.77,637.654 3261.6,638.756C3261.37,640.252 3261.81,641.408 3262.26,642.694C3263.22,645.424 3263.9,648.269 3265.05,650.907C3266.05,653.182 3267.51,655.264 3268.84,657.382C3270.35,659.777 3272.17,662.002 3273.44,664.509C3274.89,667.346 3276.95,669.679 3279.21,671.689C3282.36,674.471 3285.95,676.746 3289.36,679.223C3291.89,681.066 3294.68,682.635 3296.93,684.775C3299.98,687.669 3303.35,689.956 3307.06,691.818C3307.69,692.133 3308.51,692.264 3308.94,692.749C3311.2,695.281 3314.55,695.682 3317.34,697.166C3319.96,698.562 3322.85,699.467 3325.41,700.955C3327.82,702.354 3329.95,704.241 3332.22,705.888C3332.59,706.157 3333.04,706.323 3333.47,706.492C3335.28,707.2 3337.08,707.924 3338.91,708.576C3340.06,708.985 3341.25,709.295 3342.43,709.604C3342.88,709.723 3343.4,709.639 3343.84,709.782C3346.76,710.723 3349.66,711.74 3352.6,712.656C3355.07,713.427 3357.57,714.13 3360.07,714.795C3361.16,715.085 3362.29,715.264 3363.41,715.387C3365.32,715.596 3367.24,715.744 3369.15,715.867C3369.61,715.897 3370.08,715.728 3370.55,715.658C3370.92,715.602 3371.29,715.489 3371.65,715.519C3373.06,715.638 3374.47,715.872 3375.88,715.935C3377.87,716.024 3379.87,715.917 3381.86,716.041C3384.83,716.229 3387.8,716.727 3390.78,716.744C3392.91,716.756 3394.99,716.236 3397.21,716.333C3399.89,716.451 3402.63,715.722 3405.3,715.149C3408.47,714.467 3411.6,713.561 3414.75,712.751C3417.65,712.005 3420.56,711.297 3423.44,710.492C3424.71,710.137 3425.96,709.653 3427.16,709.106C3430.31,707.677 3433.36,706.036 3436.57,704.776C3438.11,704.167 3439.69,703.77 3441.24,703.012C3443.63,701.847 3446.3,701.248 3448.6,699.767C3449.61,699.116 3450.89,698.878 3452,698.372C3452.89,697.97 3453.71,697.428 3454.58,696.98C3455.21,696.651 3455.94,696.467 3456.51,696.057C3461.5,692.491 3466.56,689.018 3471.37,685.229C3473.16,683.818 3474.25,681.651 3476.22,680.186C3478.01,678.856 3479.08,676.571 3480.5,674.733C3481.23,673.793 3482.19,673 3482.78,671.99C3484.36,669.299 3485.77,666.513 3487.3,663.789C3488.66,661.347 3490.03,658.904 3491.49,656.525C3492.53,654.853 3494.08,653.465 3493.98,651.248C3493.96,650.912 3494.25,650.551 3494.43,650.218C3495.61,648.006 3497.72,646.278 3497.76,643.451C3497.77,642.807 3498.59,642.205 3498.95,641.532C3499.38,640.696 3499.73,639.814 3500.1,638.94C3501.21,636.232 3502.34,633.526 3503.41,630.801C3503.7,630.067 3503.86,629.274 3504.03,628.499C3504.15,627.965 3504.07,627.35 3504.3,626.888C3504.89,625.734 3505.47,624.626 3505.32,623.249C3505.27,622.824 3505.57,622.345 3505.75,621.909C3506.05,621.21 3506.46,620.552 3506.68,619.832C3507.51,617.08 3508.09,614.231 3509.14,611.565C3510.28,608.667 3510.39,605.662 3510.72,602.667C3510.84,601.505 3510.57,600.299 3510.7,599.138C3511.03,596.081 3511.53,593.041 3511.88,589.985C3512.06,588.449 3512.08,586.892 3512.09,585.343C3512.11,582.926 3512.18,580.5 3512.01,578.093C3511.89,576.418 3511.25,574.818 3511.56,573.052C3511.71,572.19 3511.24,571.22 3511.06,570.299C3510.98,569.933 3510.75,569.519 3510.85,569.211C3511.54,567.08 3511.2,565.141 3510.02,563.262C3509.78,562.871 3509.84,562.268 3509.83,561.761C3509.81,560.999 3509.97,560.214 3509.85,559.476C3509.42,557.023 3509.01,554.559 3508.39,552.152C3507.96,550.489 3507.17,548.918 3506.57,547.3C3506.32,546.659 3505.99,546.012 3505.93,545.347C3505.77,543.388 3505.47,541.573 3504.05,539.993C3503.51,539.392 3503.62,538.178 3503.49,537.236C3503.38,536.458 3503.48,535.624 3503.24,534.895C3502.89,533.827 3502.31,532.838 3501.85,531.803C3500.13,527.919 3498.4,524.036 3496.1,520.456C3495.37,519.316 3494.43,518.291 3493.51,517.285C3492.51,516.187 3491.32,515.248 3490.4,514.091C3489.87,513.421 3489.76,512.425 3489.36,511.634C3488.43,509.837 3487.68,507.863 3486.4,506.358C3484.86,504.559 3482.66,503.331 3481.07,501.57C3478.91,499.179 3477.06,496.509 3475.05,493.978C3474.7,493.536 3474.28,493.087 3473.8,492.817C3472.26,491.952 3470.9,490.663 3468.95,490.691C3468.61,490.696 3468.2,490.458 3467.93,490.219C3466.38,488.9 3464.85,487.563 3463.34,486.197C3462.3,485.251 3461.63,483.717 3459.77,484.178C3459.5,484.245 3459.14,483.983 3458.84,483.857C3457.83,483.445 3456.78,483.11 3455.83,482.59C3453.82,481.491 3451.42,480.995 3450.22,478.646C3449.93,478.077 3448.94,477.841 3448.25,477.507C3447.64,477.215 3446.99,477.014 3446.38,476.75C3445.22,476.258 3444.04,475.28 3442.94,475.373C3441.69,475.479 3440.86,475.038 3439.91,474.57C3439.36,474.302 3438.84,473.973 3438.27,473.778C3435.89,472.966 3433.44,472.318 3431.12,471.364C3429.65,470.761 3428.22,470.597 3426.68,470.554C3425.92,470.533 3425.03,470.179 3424.43,469.691C3422.85,468.421 3421.16,467.474 3419.2,468.415C3417.28,469.337 3415.18,467.683 3413.36,469.049C3413.22,469.152 3412.77,468.819 3412.46,468.704C3411.31,468.275 3410.18,467.655 3408.99,467.467C3405.94,466.987 3402.85,466.731 3399.79,466.325C3398.14,466.107 3396.52,465.615 3394.87,465.512C3392.41,465.359 3389.94,465.433 3387.47,465.425C3385.24,465.417 3383.01,465.493 3380.78,465.416C3378.48,465.337 3376.26,467.006 3373.92,465.712C3372.03,466.459 3370.07,466.803 3368.04,466.823C3366.54,466.837 3365.04,466.917 3363.54,466.965C3362.64,466.993 3361.61,466.738 3360.86,467.088C3357.5,468.662 3354.03,469.306 3350.18,468.892ZM3470.77,714.335C3473.02,712.255 3475.19,710.068 3477.57,708.133C3479.08,706.899 3480.93,706.087 3482.56,704.984C3483.29,704.491 3483.95,703.82 3484.47,703.107C3486.21,700.744 3488.55,699.352 3491.33,698.605C3491.25,698.796 3491.22,699.059 3491.08,699.167C3489.72,700.189 3488.35,701.184 3486.98,702.186C3486.87,702.27 3486.7,702.315 3486.63,702.425C3484.93,705.21 3482.04,706.495 3479.38,708.02C3478.32,708.626 3477.91,709.393 3477.54,710.479C3477.29,711.183 3476.41,711.704 3475.74,712.214C3474.92,712.84 3473.92,713.264 3473.18,713.969C3472.39,714.73 3471.67,714.854 3470.77,714.335ZM3332.21,696.695C3333.44,697.112 3334.67,697.55 3335.91,697.933C3336.37,698.076 3336.89,698.198 3337.36,698.139C3338.7,697.971 3339.93,698.101 3340.89,699.165C3341.6,699.951 3342.28,699.967 3342.92,699.145C3343.69,698.153 3344.58,697.863 3345.81,698.277C3346.57,698.536 3347.45,698.428 3348.22,698.689C3348.64,698.834 3348.97,699.366 3349.24,699.785C3349.9,700.794 3350.53,701.707 3351.93,701.89C3352.47,701.963 3353.08,702.659 3353.38,703.22C3353.81,704.016 3354.19,704.3 3354.84,703.563C3355.48,702.839 3356,703.3 3356.75,703.406C3359.32,703.767 3361.22,705.798 3363.6,706.12C3365.44,706.37 3367.03,706.878 3368.66,707.639C3369.48,708.024 3370.54,708.134 3371.45,708.04C3373.77,707.801 3376.04,707.741 3378.36,708.054C3379.7,708.235 3381.11,707.905 3382.49,707.871C3383.58,707.844 3384.68,707.972 3385.77,707.934C3387.27,707.883 3388.76,707.703 3390.25,707.642C3391.85,707.578 3393.44,707.552 3395.04,707.582C3395.87,707.596 3396.44,707.335 3397.18,706.872C3398.79,705.868 3400.26,704.414 3402.39,704.434C3402.83,704.439 3403.31,704.204 3403.72,703.982C3404.47,703.579 3405.01,703.773 3405.8,704.084C3406.88,704.507 3408.2,704.347 3409.42,704.385C3409.84,704.399 3410.27,704.156 3410.68,704.198C3412.62,704.395 3414.16,704.187 3415.89,702.717C3417.74,701.148 3420.47,700.755 3423.07,701.007C3423.85,701.082 3424.49,701.005 3424.73,700.07C3424.8,699.8 3425.15,699.466 3425.42,699.404C3428.36,698.745 3429.97,696.468 3431.77,694.376C3432.25,693.82 3433.18,693.311 3433.87,693.343C3435.75,693.432 3437.16,692.478 3438.32,691.361C3440.11,689.625 3442.15,689.818 3444.28,689.91C3444.93,689.937 3445.59,689.696 3446.24,689.582C3446.92,689.462 3447.64,689.165 3448.29,689.264C3450.08,689.537 3451.15,688.591 3452.17,687.36C3452.52,686.931 3453.1,686.682 3453.59,686.372C3453.9,686.174 3454.37,686.096 3454.54,685.824C3455.17,684.802 3455.68,683.708 3456.29,682.672C3456.47,682.369 3456.77,682.044 3457.09,681.941C3458.57,681.462 3460.09,681.107 3461.56,680.597C3462.1,680.412 3462.81,680.014 3462.96,679.554C3463.56,677.735 3465.22,677.183 3466.61,676.422C3468.37,675.452 3470.2,674.729 3470.07,672.258C3470.06,672.122 3470.09,671.892 3470.16,671.854C3471.65,671.142 3472.33,669.503 3473.9,668.799C3475.04,668.286 3475.94,667.226 3476.93,666.393C3477.06,666.281 3477.09,666.055 3477.19,665.897C3478.36,664.062 3479.56,662.255 3480.68,660.392C3482.15,657.931 3483.59,655.446 3484.97,652.932C3485.49,651.992 3485.78,650.928 3486.22,649.944C3486.87,648.489 3487.6,647.068 3488.24,645.607C3489.03,643.804 3489.7,641.95 3490.52,640.165C3491.25,638.591 3492.12,637.084 3492.91,635.542C3493.25,634.892 3493.59,634.244 3493.87,633.568C3494.25,632.642 3494.55,631.688 3494.9,630.752C3495.42,629.383 3496.1,628.057 3496.43,626.647C3496.99,624.268 3497.19,621.798 3497.82,619.442C3498.42,617.205 3499.44,615.085 3500.17,612.878C3500.69,611.306 3500.88,609.613 3501.49,608.089C3502.43,605.765 3502.64,603.344 3502.46,600.954C3502.27,598.436 3503.2,596.125 3503.3,593.7C3503.44,590.448 3503.32,587.186 3503.41,583.931C3503.46,582.211 3503.82,580.496 3503.83,578.778C3503.85,576.812 3503.66,574.841 3503.5,572.878C3503.31,570.694 3503.09,568.513 3502.82,566.338C3502.41,562.906 3501.95,559.479 3501.51,556.05C3501.5,556.003 3501.49,555.951 3501.47,555.912C3499.66,553.022 3500.32,549.302 3498.27,546.462C3497.77,545.778 3497.9,544.67 3497.49,543.891C3495.91,540.89 3495.65,537.493 3494.5,534.378C3493.79,532.436 3493.07,530.359 3491.8,528.789C3489.75,526.246 3488.42,523.341 3486.78,520.587C3485.63,518.66 3484.08,516.973 3482.72,515.174C3481.71,513.848 3480.73,512.51 3479.72,511.182C3478.36,509.376 3477.11,507.474 3475.59,505.812C3474.8,504.954 3473.57,504.5 3472.51,503.911C3471.68,503.455 3470.81,503.092 3469.99,502.647C3469.7,502.493 3469.52,502.127 3469.22,502.005C3466.81,500.995 3465.57,498.825 3464.04,496.92C3463.71,496.507 3463.17,496.012 3462.71,495.996C3461.07,495.94 3459.98,494.982 3459.23,493.789C3458.4,492.487 3457.29,491.922 3455.91,491.955C3453.71,492.008 3452.19,490.677 3450.53,489.586C3449.14,488.67 3447.71,488.387 3445.98,488.71C3444.74,488.941 3443.37,488.395 3442.05,488.228C3441.58,488.169 3441.08,488.117 3440.62,488.213C3439,488.549 3437.46,488.702 3435.97,487.666C3435.3,487.197 3434.4,487.074 3433.63,486.719C3432.63,486.249 3431.28,485.951 3430.75,485.141C3429.68,483.52 3427.86,483.28 3426.52,482.223C3426.11,481.9 3425.59,481.632 3425.34,481.208C3424.45,479.661 3423.17,479.284 3421.42,479.176C3419.09,479.032 3416.81,478.299 3414.48,477.943C3411.79,477.53 3409.08,477.204 3406.37,476.932C3404.38,476.733 3402.38,476.686 3400.39,476.56C3400.26,476.551 3400.09,476.484 3400.01,476.386C3398.03,474.188 3395.24,474.535 3392.72,474.154C3390.28,473.785 3387.8,473.637 3385.33,473.58C3384.18,473.554 3383.03,474.141 3381.88,474.162C3379.01,474.215 3376.14,474.111 3373.27,474.05C3372.72,474.039 3372.16,473.844 3371.62,473.902C3369.64,474.114 3367.66,474.378 3365.69,474.669C3365.24,474.736 3364.82,474.99 3364.38,475.15C3363.02,475.649 3361.63,476.102 3360.29,476.657C3359.51,476.981 3358.72,477.371 3358.06,477.899C3355.98,479.59 3354.22,479.743 3351.86,478.464C3350.5,477.728 3349.05,477.154 3347.64,476.507C3349.14,476.073 3350.62,475.535 3352.14,475.23C3354.38,474.782 3356.64,474.469 3358.91,474.164C3359.92,474.028 3360.96,474.063 3361.98,473.999C3362.5,473.966 3363.03,473.914 3363.54,473.821C3365.16,473.528 3366.81,473.333 3368.39,472.873C3370.56,472.238 3372.68,472.706 3374.83,472.829C3375.78,472.884 3376.8,472.515 3377.73,472.16C3379.8,471.36 3381.9,471.279 3384.06,471.645C3384.6,471.736 3385.31,471.749 3385.72,471.472C3387.24,470.452 3388.79,470.785 3390.41,470.988C3392.84,471.292 3395.29,471.401 3397.72,471.653C3399.38,471.824 3401.01,472.173 3402.67,472.299C3403.73,472.381 3404.82,472.089 3405.88,472.165C3407.3,472.267 3408.7,472.569 3410.11,472.773C3410.71,472.859 3411.32,472.898 3411.92,472.989C3413.85,473.284 3415.79,473.59 3417.72,473.899C3418.81,474.072 3419.89,474.305 3420.98,474.43C3422.22,474.571 3423.48,474.594 3424.72,474.724C3425.33,474.787 3425.93,474.946 3426.53,475.112C3426.96,475.236 3427.5,475.327 3427.78,475.628C3429.6,477.563 3431.9,478.038 3434.44,478.349C3436.16,478.561 3437.78,479.616 3439.46,480.239C3440.68,480.694 3441.98,480.975 3443.18,481.482C3445.56,482.492 3448.21,483.22 3450.17,484.793C3451.84,486.131 3453.64,487.225 3455.33,488.498C3455.88,488.91 3456.59,489.105 3457.22,489.404C3459.67,490.56 3461.98,491.837 3463.93,493.846C3465.62,495.593 3467.72,496.952 3469.67,498.437C3471.88,500.112 3473.88,501.92 3475.47,504.255C3476.97,506.464 3478.89,508.383 3480.52,510.511C3482.58,513.209 3484.57,515.964 3486.52,518.742C3488.92,522.147 3491.37,525.525 3493.56,529.058C3495.42,532.048 3496.58,535.36 3496.86,538.926C3496.89,539.374 3497.14,539.808 3497.3,540.243C3497.92,541.915 3498.51,543.596 3499.17,545.251C3499.59,546.296 3500.24,547.263 3500.55,548.332C3501.05,550.044 3501.2,551.869 3501.79,553.544C3502.97,556.89 3503.28,560.38 3503.76,563.841C3504.21,567.072 3504.64,570.316 3504.84,573.569C3505.03,576.687 3504.91,579.825 3504.91,582.953C3504.91,585.55 3504.93,588.15 3504.83,590.744C3504.78,592.164 3504.48,593.573 3504.31,594.989C3504.21,595.838 3504.02,596.696 3504.06,597.54C3504.34,602.665 3503.34,607.574 3501.66,612.376C3500.93,614.435 3500.13,616.468 3499.51,618.557C3499.03,620.159 3498.89,621.862 3498.41,623.461C3497.43,626.67 3496.17,629.799 3495.33,633.041C3494.89,634.747 3493.91,635.988 3493.07,637.411C3492.46,638.462 3492.36,639.804 3491.97,640.998C3491.75,641.665 3491.43,642.305 3491.12,642.932C3490.79,643.56 3490.38,644.138 3490.06,644.768C3489.64,645.61 3489.24,646.467 3488.89,647.341C3488.35,648.675 3488.05,650.136 3487.32,651.345C3486.47,652.739 3486.57,654.396 3485.13,655.746C3483.4,657.376 3482.56,659.951 3481.32,662.103C3480.67,663.212 3480,664.307 3479.31,665.383C3477.93,667.501 3476.23,669.317 3474.32,670.975C3473.54,671.647 3472.83,672.513 3472.4,673.437C3471.22,676.002 3468.75,677.265 3466.9,679.14C3464.96,681.104 3462.89,682.958 3460.73,684.676C3459.14,685.939 3457.32,686.905 3455.6,688.005C3454.2,688.899 3452.91,690.136 3451.39,690.615C3449.07,691.341 3446.98,692.331 3445.07,693.8C3444.73,694.061 3444.15,693.989 3443.72,694.159C3441.71,694.954 3439.71,695.787 3437.7,696.591C3436.86,696.924 3436.03,697.272 3435.16,697.515C3434.11,697.813 3433.03,698.02 3432.51,699.163C3432.46,699.275 3432.3,699.369 3432.17,699.408C3430.45,699.934 3428.67,700.308 3427.03,701.009C3425.56,701.633 3424.26,702.628 3422.87,703.435C3422.55,703.622 3422.19,703.753 3421.83,703.845C3419.18,704.535 3416.34,704.832 3413.9,705.982C3410.94,707.378 3407.91,707.035 3404.91,707.413C3403.28,707.618 3401.68,708.073 3400.1,708.513C3397.56,709.218 3395.04,709.567 3392.37,709.36C3389.31,709.124 3386.22,709.366 3383.15,709.286C3378.87,709.174 3374.57,709.052 3370.3,708.748C3367.11,708.521 3363.89,708.239 3360.79,707.52C3358.87,707.077 3356.77,707.136 3355.02,705.836C3354.16,705.203 3352.89,705.137 3351.8,704.816C3350,704.282 3348.11,703.943 3346.42,703.17C3343.79,701.966 3340.76,702.068 3338.29,700.257C3336.77,699.137 3334.8,698.634 3333.07,697.775C3332.7,697.59 3332.49,697.064 3332.21,696.695ZM3491.43,698.498L3492.81,696.651C3492.35,697.268 3491.89,697.883 3491.43,698.498ZM3494.24,694.763L3494.24,694.622L3493.2,696.24C3494.39,696.287 3494.24,695.476 3494.24,694.763ZM3261.26,592.203C3261.27,593.188 3261.23,594.177 3261.3,595.158C3261.32,595.563 3261.48,596.187 3261.75,596.307C3263.01,596.86 3263.45,597.615 3262.8,598.739C3261.49,600.988 3261.28,603.466 3261.54,605.907C3261.89,609.243 3262.62,612.541 3263.18,615.855C3263.27,616.372 3263.35,616.89 3263.41,617.411C3263.73,620.416 3264.37,623.327 3265.95,625.96C3266.07,626.163 3266.21,626.386 3266.24,626.611C3266.46,628.418 3266.51,630.261 3266.9,632.026C3267.4,634.249 3268.18,636.407 3268.84,638.596C3268.97,639.047 3269.2,639.522 3269.16,639.965C3268.95,642.2 3270,643.942 3271.12,645.739C3272.07,647.274 3272.68,649.021 3273.6,650.578C3274.28,651.731 3275.23,652.728 3276.06,653.797C3276.29,654.095 3276.52,654.393 3276.74,654.697C3278.05,656.472 3279.37,658.243 3280.66,660.03C3280.85,660.285 3281.07,660.638 3281.03,660.908C3280.85,662.182 3281.52,663.004 3282.4,663.726C3284.38,665.366 3286.1,667.366 3288.76,668.078C3289.36,668.239 3289.76,669.054 3290.31,669.502C3291.73,670.668 3293.05,672.044 3294.66,672.857C3295.81,673.437 3297.34,673.304 3298.71,673.376C3300.51,673.471 3301.74,674.184 3302.4,675.954C3302.55,676.359 3303.34,676.725 3303.85,676.755C3304.78,676.807 3305.41,677.007 3305.63,678.013C3305.69,678.315 3305.91,678.661 3306.16,678.834C3308.02,680.097 3309.49,681.875 3311.52,682.905C3311.68,682.988 3311.9,683.127 3311.93,683.272C3312.23,684.768 3313.53,684.794 3314.61,685.151C3315.64,685.49 3316.41,686.091 3316.33,687.295C3316.26,688.379 3316.76,688.865 3317.74,689.291C3321.45,690.902 3325.11,692.626 3328.77,694.331C3329.07,694.47 3329.28,694.779 3329.54,695.008C3328.54,694.674 3327.51,694.409 3326.54,693.996C3323.97,692.893 3321.4,691.766 3318.87,690.568C3317.56,689.945 3316.32,689.157 3315.06,688.431C3314.12,687.893 3313.19,687.352 3312.28,686.781C3311.16,686.076 3310.05,685.346 3308.94,684.607C3308.59,684.371 3308.32,683.93 3307.94,683.831C3304.97,683.055 3303.24,680.421 3300.67,678.968C3298.68,677.838 3297.25,675.805 3294.96,674.656C3292.01,673.174 3289.62,670.597 3286.81,668.77C3284.42,667.217 3282.21,665.533 3280.49,663.258C3280.22,662.892 3280.08,662.426 3279.84,662.029C3279.34,661.194 3278.81,660.372 3278.29,659.552C3277.68,658.612 3277.07,657.683 3276.47,656.743C3276.24,656.387 3276.07,655.99 3275.83,655.645C3274.18,653.294 3272.23,651.095 3270.93,648.565C3269.66,646.115 3268.19,643.705 3267.99,640.721C3267.86,638.734 3266.81,636.818 3266.27,634.845C3266.01,633.891 3265.87,632.878 3265.86,631.891C3265.85,630.317 3265.4,628.982 3264.18,627.932C3264.32,627.887 3264.47,627.84 3264.61,627.793C3264.41,626.993 3264.21,626.192 3264,625.395C3263.76,624.476 3263.46,623.569 3263.25,622.642C3262.59,619.726 3261.89,616.817 3261.35,613.879C3261.09,612.469 3261.15,610.999 3261.07,609.556C3261.06,609.226 3261.15,608.865 3261.05,608.571C3260.12,605.976 3260.62,603.354 3260.78,600.724C3260.85,599.505 3260.43,598.255 3260.51,597.038C3260.62,595.417 3261,593.813 3261.26,592.203ZM3495.49,693.669C3496.24,692.435 3496.88,691.114 3497.76,689.982C3500.51,686.471 3503.4,683.068 3506.14,679.55C3508.05,677.086 3509.82,674.507 3511.64,671.968C3513.01,670.06 3514.34,668.127 3515.71,666.223C3515.88,665.996 3516.19,665.877 3516.43,665.708C3516.36,667.257 3515.52,668.372 3514.45,669.398C3513.89,669.934 3513.45,670.603 3512.97,671.225C3511.64,672.947 3510.3,674.652 3509.03,676.415C3508.51,677.131 3508.22,678.001 3507.76,678.759C3506.59,680.675 3505.92,682.799 3503.78,684.215C3501.96,685.412 3500.8,687.603 3499.32,689.327C3498.07,690.794 3496.77,692.224 3495.49,693.669ZM3516.64,665.377C3516.91,664.113 3516.97,662.756 3517.49,661.606C3518.4,659.576 3519.62,657.681 3520.67,655.708C3520.88,655.309 3521.12,654.746 3520.99,654.378C3520.56,653.088 3521.26,652.311 3522.04,651.513C3522.3,651.241 3522.67,650.996 3522.78,650.667C3523.49,648.678 3524,646.612 3524.82,644.68C3526.04,641.81 3525.64,638.268 3528.4,636.015C3528.73,635.752 3528.76,635.083 3528.84,634.588C3529.26,632.012 3529.46,629.383 3530.1,626.865C3530.61,624.87 3531.84,623.062 3532.39,621.072C3533.02,618.818 3533.31,616.463 3533.65,614.137C3533.86,612.666 3533.81,611.153 3534.05,609.69C3534.18,608.898 3534.7,608.169 3535.04,607.413C3534.9,608.467 3534.7,609.516 3534.64,610.572C3534.51,612.865 3534.58,615.178 3534.31,617.453C3534.16,618.732 3533.53,619.96 3533.08,621.198C3532.41,623.016 3531.65,624.8 3531.07,626.642C3530.64,627.996 3530.38,629.411 3530.12,630.814C3529.85,632.299 3529.74,633.817 3529.42,635.289C3529.28,635.933 3528.78,636.495 3528.45,637.101C3527.85,638.209 3527.04,639.262 3526.7,640.446C3526.04,642.693 3525.7,645.034 3525.1,647.302C3524.86,648.238 3524.24,649.07 3523.84,649.976C3523.05,651.791 3522.37,653.66 3521.5,655.439C3520.63,657.238 3519.52,658.924 3518.65,660.722C3518.09,661.858 3517.8,663.119 3517.34,664.306C3517.18,664.694 3516.88,665.022 3516.64,665.377ZM3248.44,658.02C3248.9,657.049 3248.94,655.754 3248.7,654.633C3248.45,653.512 3247.91,652.565 3247.2,652.29C3246.93,654.301 3246.97,656.213 3248.44,658.02ZM3246.42,649.135C3247.12,648.157 3247.58,647.505 3248.05,646.857C3248.95,645.601 3248.69,644.55 3247.39,643.668C3247.02,643.418 3246.75,642.88 3246.63,642.423C3246.4,641.556 3246.4,640.626 3246.14,639.772C3245.92,639.053 3246.23,637.805 3244.97,637.939C3244.76,637.961 3244.53,639.513 3244.61,640.332C3244.74,641.774 3245.08,643.201 3245.38,644.624C3245.66,645.979 3246,647.321 3246.42,649.135ZM3535.02,605.536C3534.71,605.26 3534.55,605.064 3534.56,604.875C3534.56,604.686 3534.72,604.504 3535.04,604.256C3535.03,604.683 3535.03,605.109 3535.02,605.536ZM3535.21,601.828C3535.18,601.178 3535.17,600.527 3535.14,599.877C3535.05,598.26 3534.94,596.643 3534.9,595.025C3534.89,594.657 3535.11,594.282 3535.23,593.911C3535.42,594.113 3535.77,594.311 3535.77,594.516C3535.81,596.613 3535.81,598.713 3535.76,600.81C3535.75,601.154 3535.4,601.489 3535.21,601.828ZM3535.5,591.513C3535.39,588.363 3534.62,585.182 3535.93,582.096C3536.04,582.216 3536.26,582.335 3536.25,582.451C3536.21,585.123 3536.16,587.794 3536.05,590.463C3536.03,590.82 3535.69,591.164 3535.5,591.513ZM3340.51,481.674C3339.99,482.863 3339.34,484.097 3337.91,484.13C3335.77,484.178 3334.04,485.126 3332.38,486.245C3329.31,488.317 3326.5,490.874 3323.22,492.504C3319.55,494.325 3317.84,497.782 3315.21,500.453C3313.25,502.441 3311.64,504.76 3309.75,506.818C3308.93,507.705 3307.84,508.365 3306.81,509.02C3305.41,509.907 3304.19,510.847 3303.79,512.61C3303.66,513.19 3303.06,513.688 3302.61,514.166C3301.81,515.026 3301.04,515.956 3300.11,516.653C3298.18,518.09 3298.23,520.668 3296.7,522.273C3295.87,523.141 3294.84,523.82 3293.89,524.574C3293.75,524.688 3293.5,524.698 3293.4,524.832C3291.91,526.899 3290.4,528.963 3288.96,531.067C3288.58,531.632 3288.43,532.353 3288.1,532.963C3287.6,533.866 3287.14,534.814 3286.49,535.595C3285.64,536.615 3285.04,537.561 3285.13,539.023C3285.17,539.84 3284.41,540.718 3283.96,541.543C3283.36,542.654 3282.74,543.758 3282.07,544.829C3281.73,545.38 3281.29,545.881 3280.84,546.352C3280.02,547.199 3280.21,547.884 3281.3,548.266C3281.8,548.439 3282.23,548.825 3282.55,549.03C3281.74,550.639 3281.14,552.142 3280.26,553.456C3279.55,554.515 3278.45,555.312 3277.61,556.293C3277.25,556.71 3277.02,557.279 3276.86,557.819C3275.82,561.457 3273.12,563.87 3270.51,566.318C3269.91,566.878 3268.84,566.798 3268.58,567.948C3268.34,568.97 3267.95,569.747 3269.2,570.482C3270.07,570.995 3269.42,571.96 3268.84,572.191C3267.8,572.602 3267.94,573.327 3267.81,574.128C3267.72,574.662 3267.22,575.144 3266.85,575.612C3266.4,576.188 3265.82,576.673 3265.45,577.291C3264.97,578.084 3264.75,579.028 3264.26,579.806C3262.91,581.944 3262.62,584.321 3262.36,586.759C3262.22,588.189 3261.7,589.581 3261.35,590.988C3261.48,589.159 3261.56,587.327 3261.74,585.504C3262.15,581.457 3264.27,578.001 3265.65,574.288C3266.29,572.566 3266.6,570.723 3267.18,568.976C3267.9,566.822 3268.72,564.699 3269.55,562.588C3269.89,561.72 3270.38,560.907 3270.83,560.085C3271.31,559.216 3271.82,558.369 3272.3,557.503C3272.69,556.799 3273.34,556.091 3273.37,555.368C3273.42,553.894 3274.22,552.972 3274.99,551.855C3276.38,549.855 3277.44,547.635 3278.64,545.506C3278.71,545.382 3278.72,545.219 3278.8,545.11C3280.18,543.31 3281.63,541.565 3282.91,539.701C3283.73,538.508 3284.35,537.166 3284.97,535.848C3286.45,532.722 3288.69,530.139 3290.64,527.339C3292.36,524.867 3294.97,523.385 3296.56,520.903C3296.79,520.549 3297.04,520.178 3297.14,519.78C3297.77,517.174 3299.81,515.606 3301.48,513.758C3302.12,513.049 3302.57,512.159 3303.21,511.455C3304.35,510.218 3305.37,508.649 3306.8,507.967C3309,506.912 3310.1,505.003 3311.51,503.302C3312.2,502.474 3312.74,501.524 3313.44,500.712C3315.1,498.789 3316.76,496.859 3318.54,495.043C3319.54,494.015 3320.72,493.133 3321.91,492.314C3323.86,490.966 3325.87,489.693 3327.89,488.439C3330.39,486.884 3332.91,485.343 3335.46,483.87C3336.83,483.077 3338.29,482.425 3339.73,481.74C3339.95,481.634 3340.25,481.692 3340.51,481.674ZM3535.83,581.416C3535.51,580.681 3535.04,579.974 3534.89,579.205C3534.39,576.552 3534.06,573.863 3533.53,571.213C3532.57,566.389 3531.58,561.571 3530.48,556.779C3530.17,555.453 3529.47,554.208 3528.89,552.955C3527.9,550.807 3526.84,548.691 3525.86,546.537C3525.68,546.146 3525.77,545.634 3525.74,545.179C3526.4,546.379 3527.12,547.551 3527.72,548.783C3528.68,550.783 3529.59,552.811 3530.47,554.848C3530.85,555.71 3531.21,556.604 3531.38,557.52C3531.87,560.021 3533.11,562.346 3532.93,565.017C3532.87,566.099 3533.33,567.221 3533.58,568.318C3534.28,571.397 3535.07,574.459 3535.68,577.557C3535.93,578.805 3535.79,580.127 3535.83,581.416ZM3524.96,543.824C3524.77,543.731 3524.45,543.681 3524.4,543.539C3523.11,539.698 3521.72,535.88 3520.61,531.983C3520.02,529.905 3520.07,527.647 3519.53,525.549C3519.19,524.264 3518.23,523.152 3517.64,521.923C3516.81,520.23 3515.73,518.567 3515.37,516.768C3514.85,514.127 3513.61,511.919 3511.63,510.392C3509.83,508.992 3509.53,507.393 3509.14,505.371C3508.74,503.245 3507.46,501.277 3506.5,499.271C3505.29,496.76 3504.02,494.284 3502.79,491.784C3501.78,489.729 3500.94,487.583 3499.76,485.632C3499.23,484.76 3498.07,484.27 3497.21,483.601C3496.28,482.885 3495.37,482.143 3494.43,481.445C3491.77,479.476 3489.1,477.538 3486.45,475.558C3485.41,474.783 3484.43,473.934 3483.44,473.106C3483.26,472.956 3483.05,472.771 3482.98,472.561C3482.05,469.639 3479.27,468.891 3477.08,467.395C3474.9,465.902 3472.82,464.215 3470.85,462.449C3469.77,461.485 3468.7,460.773 3467.26,460.62C3466.95,460.587 3466.63,460.431 3466.36,460.258C3463.54,458.442 3460.78,456.55 3457.91,454.82C3457.07,454.311 3455.96,454.234 3454.97,453.983C3453.43,453.594 3451.89,453.224 3450.35,452.846C3449.94,452.746 3449.44,452.763 3449.14,452.527C3447.44,451.19 3445.45,451.218 3443.44,451.139C3441.08,451.046 3438.73,450.795 3436.38,450.613C3436.14,450.595 3435.9,450.552 3435.67,450.576C3433.95,450.751 3432.21,451.167 3430.5,451.071C3427.91,450.925 3425.31,450.501 3422.74,450.056C3420.37,449.644 3418.02,449.087 3415.67,448.527C3413.14,447.923 3410.63,447.241 3408.11,446.595C3407.69,446.49 3407.27,446.3 3406.86,446.314C3403.11,446.437 3399.69,444.932 3396.11,444.236C3394.67,443.956 3393.18,443.644 3391.74,443.726C3388.94,443.884 3386.2,443.997 3383.4,443.531C3382.07,443.31 3380.62,443.986 3379.22,444.042C3378.4,444.075 3377.56,443.687 3376.74,443.488C3377.89,443.353 3379.03,443.237 3380.17,443.074C3380.88,442.975 3381.57,442.761 3382.27,442.678C3382.97,442.596 3383.83,442.343 3384.35,442.636C3386.48,443.83 3388.66,442.903 3390.81,443.022C3392.5,443.116 3394.19,443.185 3395.86,443.389C3397.27,443.56 3398.65,443.909 3400.04,444.18C3400.41,444.251 3400.84,444.221 3401.13,444.412C3402.85,445.546 3404.74,445.623 3406.73,445.747C3408.84,445.88 3410.92,446.53 3413.01,447.009C3416.92,447.908 3420.8,448.963 3424.74,449.725C3427.04,450.17 3429.35,450.441 3431.79,450.128C3434.91,449.73 3438.12,449.776 3441.25,450.621C3441.99,450.822 3442.85,450.552 3443.65,450.549C3445.65,450.544 3447.56,450.698 3449.44,451.69C3450.87,452.442 3452.67,452.444 3454.24,452.965C3456.24,453.622 3458.25,454.298 3460.09,455.279C3462.22,456.412 3464.14,457.912 3466.18,459.195C3466.81,459.588 3467.54,459.991 3468.25,460.044C3470.52,460.215 3471.28,462.358 3472.88,463.4C3474.81,464.667 3476.69,466.026 3478.62,467.304C3479.69,468.01 3480.83,468.601 3481.89,469.307C3482.28,469.561 3482.72,469.951 3482.83,470.361C3483.43,472.552 3485.02,473.815 3486.78,475.019C3488.12,475.925 3489.23,477.161 3490.55,478.08C3492.53,479.455 3494.47,481.199 3496.7,481.834C3499.29,482.572 3500.09,484.311 3500.92,486.339C3501.05,486.648 3501.16,486.986 3501.38,487.23C3503.11,489.209 3503.76,491.734 3504.89,494.017C3505.26,494.771 3505.76,495.461 3506.21,496.176C3506.29,496.295 3506.43,496.377 3506.49,496.502C3507.63,499.137 3508.78,501.766 3509.87,504.423C3510.1,504.976 3510.09,505.632 3510.16,506.242C3510.32,507.505 3510.88,508.457 3511.77,509.452C3513.32,511.196 3515.48,512.562 3515.75,515.277C3515.89,516.717 3516.45,518.117 3516.85,519.53C3516.91,519.75 3517.07,519.957 3517.22,520.137C3518.37,521.511 3519.55,522.864 3520.68,524.255C3520.96,524.6 3521.23,525.043 3521.29,525.47C3521.71,528.721 3521.9,532.015 3522.54,535.222C3522.9,537.052 3523.19,538.987 3524.6,540.583C3525.19,541.252 3524.87,542.72 3524.96,543.824ZM3270.86,513.535C3270.81,514.854 3270.21,515.805 3269.35,516.856C3267.66,518.935 3266.39,521.348 3264.83,523.542C3264.34,524.228 3263.49,524.655 3262.81,525.201C3264.35,522.794 3265.83,520.354 3267.44,517.996C3268.49,516.448 3269.72,515.018 3270.86,513.535ZM3271.74,511.032L3271.04,512.794C3270.59,511.82 3270.72,511.485 3271.74,511.032ZM3357.55,448.636C3357.29,448.903 3357.08,449.227 3356.78,449.429C3354.6,450.899 3352.04,451.272 3349.57,451.939C3344.41,453.334 3339.16,454.532 3334.2,456.455C3331.71,457.418 3329.05,457.713 3326.68,458.907C3325.45,459.527 3324.28,460.269 3323.03,460.868C3321.35,461.684 3319.62,462.411 3317.91,463.191C3317.66,463.304 3317.37,463.45 3317.24,463.667C3315.83,465.974 3313.28,466.823 3311.3,468.398C3309.37,469.931 3307.4,471.443 3305.69,473.198C3304.78,474.143 3304.59,475.797 3303.67,476.75C3301.76,478.739 3300.05,480.899 3297.66,482.472C3295.68,483.771 3294.15,485.732 3292.41,487.393C3290.32,489.392 3288.68,491.903 3285.86,493.069C3285.56,494.909 3283.95,495.849 3283,497.244C3282.72,497.658 3282.64,498.216 3282.49,498.715C3282.1,500.048 3281.28,500.85 3280.07,501.66C3278.38,502.796 3277.02,504.458 3275.65,506.018C3274.43,507.415 3273.4,508.978 3272.29,510.467C3272.41,509.843 3272.32,509.072 3272.66,508.624C3274.37,506.376 3276.18,504.199 3277.99,502.032C3278.35,501.607 3278.86,501.292 3279.34,500.998C3280.53,500.273 3281.57,499.602 3281.78,497.928C3281.91,496.932 3282.93,496.047 3283.56,495.122C3283.74,494.86 3284.14,494.64 3284.15,494.388C3284.22,492.862 3285.48,492.547 3286.43,491.772C3288.48,490.099 3290.51,488.299 3292.13,486.218C3293.64,484.268 3295.57,482.972 3297.46,481.54C3297.95,481.166 3298.55,480.892 3298.94,480.44C3301.03,478.063 3303.76,476.2 3304.83,473.004C3304.96,472.628 3305.32,472.286 3305.65,472.032C3308.57,469.801 3311.51,467.592 3314.45,465.379C3314.79,465.121 3315.22,464.943 3315.48,464.623C3317.34,462.362 3319.79,461.127 3322.53,460.318C3323.2,460.12 3323.85,459.753 3324.42,459.333C3326.11,458.071 3328.14,457.764 3330.07,457.126C3333.13,456.112 3336.14,454.951 3339.19,453.891C3340.21,453.536 3341.27,453.303 3342.32,453.01C3344.12,452.501 3345.92,451.955 3347.74,451.491C3348.52,451.293 3349.38,451.382 3350.13,451.133C3352.41,450.383 3354.64,449.528 3356.9,448.724C3357.1,448.653 3357.33,448.663 3357.55,448.636ZM3345.72,477.488C3345.42,477.593 3345.12,477.698 3344.83,477.804C3344.53,477.909 3344.23,478.015 3343.93,478.12C3344.24,477.087 3344.94,477.18 3345.72,477.488ZM3371.35,444.038C3368.45,444.797 3365.53,445.473 3362.66,446.352C3361.39,446.744 3360.24,447.56 3359.02,448.147C3358.72,448.292 3358.35,448.293 3358.01,448.359C3359.45,447.31 3360.76,446.106 3362.59,445.663C3365.28,445.014 3367.93,444.187 3370.83,443.368C3370.88,443.424 3371.12,443.731 3371.35,444.038ZM3373.18,444.027L3373.42,444.046C3373.5,444.052 3373.57,444.058 3373.65,444.064L3373.18,444.027ZM3376,443.56L3375.28,443.817C3375.52,443.731 3375.76,443.645 3376,443.56Z" style="fill:rgb(255,131,89);fill-rule:nonzero;"/>
                    </g>
                </g>
            </g>
        </g>
    </g>
</svg>
