<?xml version="1.0" encoding="UTF-8" standalone="no"?>
<!DOCTYPE svg PUBLIC "-//W3C//DTD SVG 1.1//EN" "http://www.w3.org/Graphics/SVG/1.1/DTD/svg11.dtd">
<svg width="100%" height="100%" viewBox="0 0 80 80" version="1.1" xmlns="http://www.w3.org/2000/svg" xmlns:xlink="http://www.w3.org/1999/xlink" xml:space="preserve" xmlns:serif="http://www.serif.com/" style="fill-rule:evenodd;clip-rule:evenodd;stroke-linecap:square;stroke-linejoin:bevel;stroke-miterlimit:1.5;">
    <g transform="matrix(1,0,0,1,-213.727,-442.558)">
        <g id="Layer-1" serif:id="Layer 1">
        </g>
        <g id="Layer-11" serif:id="Layer 1">
        </g>
        <g id="Layer-12" serif:id="Layer 1">
        </g>
        <g id="Layer-13" serif:id="Layer 1">
        </g>
        <g id="fullscreen" transform="matrix(1,0,0,1,98.7269,442.558)">
            <rect x="115" y="0" width="80" height="80" style="fill:none;"/>
            <clipPath id="_clip1">
                <rect x="115" y="0" width="80" height="80"/>
            </clipPath>
            <g clip-path="url(#_clip1)">
                <g>
                    <g transform="matrix(-1,0,0,1,195,-181.217)">
                        <path d="M80,181.217L0,181.217L0,261.217L80,261.217L80,181.217ZM79,182.217L1,182.217C1,182.217 1,260.217 1,260.217C1,260.217 79,260.217 79,260.217L79,182.217Z" style="fill:rgb(108,108,108);"/>
                    </g>
                    <g transform="matrix(0.876568,0,0,0.876568,19.132,4.93728)">
                        <g transform="matrix(-34.8174,-34.8174,-22.1768,22.1768,131.796,33.2119)">
                            <path d="M0.1,-0.792L0.136,-0.82L0.418,-0.37L0.136,0.08L0.1,0.052L0.36,-0.37L0.1,-0.792Z" style="fill:rgb(108,108,108);fill-rule:nonzero;"/>
                        </g>
                        <g transform="matrix(0.841175,0,0,0.841175,-238.21,-117.737)">
                            <path d="M434.333,154.268L458.294,178.229" style="fill:none;stroke:rgb(108,108,108);stroke-width:2.71px;"/>
                        </g>
                    </g>
                    <g transform="matrix(0.876568,0,0,0.876568,19.132,4.93728)">
                        <g transform="matrix(34.8174,34.8174,22.1768,-22.1768,178.204,46.7881)">
                            <path d="M0.1,-0.792L0.136,-0.82L0.418,-0.37L0.136,0.08L0.1,0.052L0.36,-0.37L0.1,-0.792Z" style="fill:rgb(108,108,108);fill-rule:nonzero;"/>
                        </g>
                        <g transform="matrix(0.841175,0,0,0.841175,-202.407,-81.9336)">
                            <path d="M434.333,154.268L458.294,178.229" style="fill:none;stroke:rgb(108,108,108);stroke-width:2.71px;"/>
                        </g>
                    </g>
                </g>
            </g>
        </g>
    </g>
</svg>
