<?xml version="1.0" encoding="UTF-8" standalone="no"?>
<!DOCTYPE svg PUBLIC "-//W3C//DTD SVG 1.1//EN" "http://www.w3.org/Graphics/SVG/1.1/DTD/svg11.dtd">
<svg width="100%" height="100%" viewBox="0 0 80 80" version="1.1" xmlns="http://www.w3.org/2000/svg" xmlns:xlink="http://www.w3.org/1999/xlink" xml:space="preserve" xmlns:serif="http://www.serif.com/" style="fill-rule:evenodd;clip-rule:evenodd;stroke-linecap:square;stroke-linejoin:bevel;stroke-miterlimit:1.5;">
    <g transform="matrix(1,0,0,1,-427.454,-295.039)">
        <g id="fullscreen" transform="matrix(1,0,0,1,312.454,295.039)">
            <rect x="115" y="0" width="80" height="80" style="fill:none;"/>
            <g>
                <g transform="matrix(-1,0,0,1,195,-181.217)">
                    <path d="M80,181.217L0,181.217L0,261.217L80,261.217L80,181.217ZM79,182.217L1,182.217C1,182.217 1,260.217 1,260.217C1,260.217 79,260.217 79,260.217L79,182.217Z" style="fill:rgb(108,108,108);"/>
                </g>
                <g transform="matrix(-0.520145,-0.520145,-0.331304,0.331304,1117.93,980.015)">
                    <text x="1858.07px" y="59.357px" style="font-family:'AppleGothic';font-size:66.938px;fill:rgb(108,108,108);">&gt;</text>
                </g>
                <g transform="matrix(0.520145,0.520145,0.331304,-0.331304,-807.93,-900.015)">
                    <text x="1858.07px" y="59.357px" style="font-family:'AppleGothic';font-size:66.938px;fill:rgb(108,108,108);">&gt;</text>
                </g>
                <g transform="matrix(0.841175,0,0,0.841175,-238.21,-117.737)">
                    <path d="M434.333,154.268L458.294,178.229" style="fill:none;stroke:rgb(108,108,108);stroke-width:2.38px;"/>
                </g>
                <g transform="matrix(0.841175,0,0,0.841175,-202.407,-81.9336)">
                    <path d="M434.333,154.268L458.294,178.229" style="fill:none;stroke:rgb(108,108,108);stroke-width:2.38px;"/>
                </g>
            </g>
        </g>
    </g>
</svg>
