<?xml version="1.0" encoding="UTF-8" standalone="no"?>
<!DOCTYPE svg PUBLIC "-//W3C//DTD SVG 1.1//EN" "http://www.w3.org/Graphics/SVG/1.1/DTD/svg11.dtd">
<svg width="100%" height="100%" viewBox="0 0 80 80" version="1.1" xmlns="http://www.w3.org/2000/svg" xmlns:xlink="http://www.w3.org/1999/xlink" xml:space="preserve" xmlns:serif="http://www.serif.com/" style="fill-rule:evenodd;clip-rule:evenodd;stroke-linejoin:round;stroke-miterlimit:2;">
    <g transform="matrix(1,0,0,1,-1035,0)">
        <g id="Layer-1" serif:id="Layer 1">
        </g>
        <g id="Layer-11" serif:id="Layer 1">
        </g>
        <g id="gardenmusic" transform="matrix(1,0,0,1,920,0)">
            <rect x="115" y="0" width="80" height="80" style="fill:none;"/>
            <clipPath id="_clip1">
                <rect x="115" y="0" width="80" height="80"/>
            </clipPath>
            <g clip-path="url(#_clip1)">
                <g transform="matrix(0.228833,0,0,0.22883,114.999,0.000205947)">
                    <g transform="matrix(1,0,0,1,136.112,-0.0009)">
                        <path d="M0,349.604L-136.112,349.604L-136.112,0L-12.819,0C-12.74,0.846 -12.641,1.69 -12.587,2.537C-12.429,5.01 -12.317,7.487 -12.128,9.958C-12.067,10.758 -11.705,11.543 -11.687,12.339C-11.627,15.009 -11.662,17.68 -11.656,20.351C-11.654,21.273 -11.808,22.236 -11.603,23.113C-10.783,26.613 -10.364,30.125 -10.655,33.726C-10.77,35.15 -10.702,36.597 -10.621,38.027C-10.453,41.003 -10.222,43.975 -10.015,46.948C-9.978,47.489 -9.922,48.03 -9.89,48.571C-9.715,51.551 -9.321,54.539 -9.425,57.509C-9.573,61.712 -9.65,65.872 -8.71,70.005C-8.411,71.323 -8.215,72.694 -8.21,74.042C-8.196,77.765 -8.33,81.49 -8.355,85.214C-8.362,86.178 -8.182,87.142 -8.091,88.107C-7.873,90.419 -7.577,92.727 -7.457,95.044C-7.277,98.557 -7.514,102.062 -7.069,105.597C-6.554,109.691 -6.652,113.863 -6.491,118.001C-6.443,119.239 -6.431,120.479 -6.377,121.716C-6.255,124.531 -6.438,127.409 -5.892,130.141C-5.368,132.758 -5.119,135.333 -5.13,137.973C-5.143,140.885 -5.187,143.8 -5.098,146.71C-4.92,152.524 -4.672,158.337 -4.419,164.148C-4.381,165.026 -4.204,165.906 -4.007,166.765C-3.836,167.511 -3.349,168.227 -3.34,168.96C-3.277,173.989 -3.303,179.019 -3.299,184.048C-3.298,186.378 -3.349,188.71 -3.271,191.039C-3.22,192.542 -3.026,194.046 -2.805,195.537C-2.644,196.622 -2.158,197.679 -2.125,198.759C-2.027,201.895 -2.11,205.037 -2.074,208.175C-2.04,211.24 -1.956,214.303 -1.876,217.368C-1.729,222.991 -1.539,228.613 -1.425,234.236C-1.355,237.676 -1.414,241.119 -1.376,244.56C-1.359,246.187 -1.147,247.817 -1.205,249.439C-1.375,254.239 -1.739,259.038 -0.992,263.824C-0.94,264.157 -1.048,264.514 -1.077,264.861C-1.177,266.093 -1.385,267.329 -1.349,268.557C-1.277,270.992 -1.036,273.419 -0.928,275.853C-0.851,277.588 -0.912,279.331 -0.849,281.068C-0.668,286.066 -0.397,291.063 -0.275,296.063C-0.183,299.853 -0.235,303.648 -0.283,307.441C-0.299,308.699 -0.35,309.932 -1.256,311.046C-2.162,312.161 -2.007,313.504 -1.359,314.786C-1.05,315.396 -0.659,316.05 -0.625,316.702C-0.395,321.192 -0.2,325.686 -0.096,330.181C-0.036,332.734 -0.221,335.291 -0.204,337.846C-0.178,341.766 -0.072,345.685 0,349.604" style="fill:rgb(126,79,37);fill-rule:nonzero;"/>
                    </g>
                    <g transform="matrix(1,0,0,1,306.447,263.499)">
                        <path d="M0,-177.396L0.07,-177.39C0.143,-176.894 0.19,-176.393 0.291,-175.903C0.592,-174.427 1.016,-172.969 1.203,-171.479C1.517,-168.981 1.669,-166.463 1.922,-163.957C2.016,-163.031 3.336,-161.957 4.256,-162.043C6.14,-162.22 8.025,-162.396 9.901,-162.645C12.365,-162.971 13.644,-164.512 13.282,-166.725C13.146,-167.56 12.992,-168.478 12.543,-169.157C11.663,-170.487 11.776,-171.946 11.663,-173.385C11.561,-174.694 11.643,-176.025 11.445,-177.317C11.103,-179.566 10.463,-181.777 10.218,-184.033C9.973,-186.292 10.015,-188.587 10.011,-190.867C10.004,-194.042 10.083,-197.217 10.104,-200.392C10.118,-202.564 10.078,-204.72 11.13,-206.747C11.489,-207.439 11.749,-208.363 11.613,-209.1C11.164,-211.537 12.771,-213.44 13.123,-215.663C13.349,-217.086 14.098,-218.422 14.363,-219.843C14.591,-221.066 14.561,-222.301 15.846,-223.007C16.001,-223.092 16.02,-223.417 16.113,-223.626C16.344,-224.141 16.582,-224.652 16.815,-225.165C16.973,-225.51 17.11,-225.865 17.288,-226.199C17.581,-226.751 17.796,-227.403 18.233,-227.807C18.796,-228.327 18.841,-228.796 18.233,-229.082C16.958,-229.682 15.615,-230.14 14.295,-230.642C13.517,-230.937 12.636,-231.064 11.962,-231.51C9.924,-232.859 7.334,-231.797 6.779,-229.394C6.533,-228.327 6.015,-227.316 5.571,-226.302C4.923,-224.82 3.88,-223.411 3.647,-221.873C3.367,-220.017 1.717,-218.51 2.353,-216.469C2.385,-216.364 2.194,-216.206 2.157,-216.061C1.913,-215.088 1.655,-214.119 1.453,-213.138C1.212,-211.968 1.162,-210.74 0.782,-209.621C-0.166,-206.824 -0.713,-204.016 -0.229,-201.055C-0.131,-200.458 -0.3,-199.821 -0.303,-199.202C-0.324,-195.136 -0.381,-191.07 -0.33,-187.005C-0.291,-183.801 -0.115,-180.599 0,-177.396M-122.536,-180.276L-122.299,-180.262C-122.245,-179.765 -122.3,-179.224 -122.117,-178.78C-121.667,-177.682 -121.132,-176.616 -120.589,-175.559C-119.618,-173.667 -118.396,-173.092 -116.3,-173.457C-115.769,-173.55 -115.177,-173.748 -114.699,-173.607C-113.279,-173.188 -112.226,-173.802 -111.151,-174.565C-110.21,-175.234 -109.208,-175.816 -108.252,-176.464C-107.902,-176.701 -107.595,-177.003 -107.289,-177.297C-105.605,-178.921 -104.013,-180.657 -102.217,-182.146C-101.009,-183.147 -99.553,-183.88 -98.133,-184.585C-97.292,-185.003 -96.32,-185.276 -95.386,-185.356C-93.889,-185.485 -92.374,-185.402 -90.867,-185.403C-80.077,-185.41 -69.287,-185.434 -58.497,-185.416C-54.111,-185.408 -49.726,-185.263 -45.341,-185.267C-40.187,-185.271 -35.032,-185.38 -29.878,-185.425C-27.09,-185.449 -24.302,-185.421 -21.514,-185.443C-18.886,-185.463 -16.258,-185.514 -13.63,-185.558C-11.088,-185.601 -8.543,-185.605 -6.004,-185.72C-4.722,-185.778 -4.2,-186.394 -4.17,-187.677C-4.133,-189.3 -4.063,-190.934 -4.19,-192.549C-4.502,-196.517 -4.222,-200.441 -3.57,-204.353C-3.366,-205.585 -4.207,-206.463 -5.469,-206.338C-5.854,-206.3 -6.24,-206.195 -6.623,-206.209C-9.936,-206.328 -13.247,-206.471 -16.56,-206.593C-16.944,-206.607 -17.331,-206.525 -17.718,-206.506C-20.015,-206.393 -22.312,-206.209 -24.61,-206.195C-26.974,-206.18 -29.338,-206.386 -31.701,-206.387C-32.924,-206.387 -34.157,-205.989 -35.364,-206.073C-36.535,-206.154 -37.675,-206.573 -38.79,-205.872C-38.854,-205.833 -39.007,-205.928 -39.114,-205.97C-40.799,-206.641 -42.479,-206.549 -44.182,-206.009C-44.506,-205.907 -44.907,-206.024 -45.271,-206.067C-45.946,-206.148 -46.621,-206.339 -47.293,-206.321C-48.55,-206.289 -49.806,-206.038 -51.06,-206.06C-53.708,-206.105 -56.355,-206.34 -59.003,-206.355C-60.431,-206.364 -61.857,-205.993 -63.289,-205.946C-65.442,-205.876 -67.601,-205.945 -69.756,-205.945C-73.479,-205.947 -77.202,-205.965 -80.924,-205.932C-83.747,-205.907 -86.568,-205.799 -89.392,-205.757C-91.21,-205.729 -93.03,-205.732 -94.849,-205.776C-95.199,-205.785 -95.552,-206.03 -95.889,-206.198C-96.777,-206.642 -97.652,-207.115 -98.544,-207.553C-99.318,-207.935 -100.191,-208.174 -100.872,-208.678C-101.701,-209.291 -102.393,-210.096 -103.105,-210.854C-103.36,-211.126 -103.505,-211.503 -103.698,-211.833C-103.872,-212.128 -103.992,-212.477 -104.227,-212.712C-105.089,-213.576 -105.961,-214.435 -106.883,-215.235C-109.149,-217.204 -111.694,-218.581 -114.75,-218.892C-118.188,-219.243 -120.017,-218.408 -121.313,-215.354C-121.886,-214.008 -122.335,-212.598 -122.474,-210.997C-122.787,-207.374 -122.099,-203.882 -121.811,-200.34C-121.744,-199.51 -121.253,-198.712 -121.199,-197.885C-121.09,-196.158 -121.203,-194.489 -121.733,-192.749C-122.355,-190.709 -122.385,-188.468 -122.512,-186.305C-122.629,-184.302 -122.536,-182.287 -122.536,-180.276M-170.335,86.104C-170.407,82.185 -170.513,78.266 -170.539,74.346C-170.556,71.792 -170.371,69.234 -170.431,66.681C-170.535,62.186 -170.73,57.692 -170.96,53.202C-170.994,52.55 -171.385,51.896 -171.694,51.286C-172.342,50.004 -172.497,48.661 -171.591,47.546C-170.685,46.432 -170.634,45.199 -170.618,43.941C-170.57,40.148 -170.518,36.353 -170.61,32.563C-170.732,27.563 -171.003,22.566 -171.184,17.568C-171.247,15.831 -171.186,14.088 -171.263,12.353C-171.371,9.919 -171.612,7.492 -171.684,5.057C-171.72,3.829 -171.512,2.593 -171.412,1.361C-171.383,1.014 -171.275,0.657 -171.327,0.324C-172.074,-4.462 -171.709,-9.261 -171.54,-14.061C-171.482,-15.683 -171.694,-17.313 -171.711,-18.94C-171.749,-22.381 -171.69,-25.824 -171.76,-29.264C-171.874,-34.887 -172.063,-40.509 -172.211,-46.132C-172.291,-49.197 -172.375,-52.26 -172.409,-55.325C-172.445,-58.463 -172.362,-61.605 -172.459,-64.741C-172.493,-65.821 -172.979,-66.878 -173.14,-67.963C-173.361,-69.454 -173.555,-70.958 -173.605,-72.461C-173.684,-74.79 -173.633,-77.122 -173.634,-79.452C-173.638,-84.481 -173.612,-89.511 -173.675,-94.54C-173.684,-95.273 -174.171,-95.989 -174.342,-96.735C-174.539,-97.594 -174.716,-98.474 -174.754,-99.352C-175.007,-105.163 -175.255,-110.976 -175.433,-116.79C-175.522,-119.7 -175.478,-122.615 -175.465,-125.527C-175.454,-128.166 -175.703,-130.742 -176.227,-133.359C-176.773,-136.091 -176.59,-138.969 -176.712,-141.784C-176.766,-143.021 -176.778,-144.261 -176.826,-145.499C-176.987,-149.637 -176.889,-153.809 -177.404,-157.903C-177.849,-161.437 -177.612,-164.943 -177.792,-168.456C-177.912,-170.773 -178.208,-173.081 -178.426,-175.393C-178.517,-176.358 -178.697,-177.322 -178.69,-178.286C-178.665,-182.01 -178.531,-185.735 -178.545,-189.459C-178.55,-190.806 -178.746,-192.177 -179.045,-193.495C-179.985,-197.628 -179.908,-201.788 -179.76,-205.991C-179.656,-208.961 -180.05,-211.949 -180.225,-214.929C-180.257,-215.47 -180.312,-216.011 -180.35,-216.552C-180.557,-219.525 -180.788,-222.497 -180.956,-225.473C-181.037,-226.903 -181.105,-228.35 -180.99,-229.774C-180.699,-233.375 -181.118,-236.887 -181.937,-240.387C-182.143,-241.264 -181.989,-242.227 -181.991,-243.149C-181.997,-245.82 -181.962,-248.491 -182.022,-251.161C-182.04,-251.957 -182.402,-252.742 -182.463,-253.542C-182.652,-256.013 -182.764,-258.49 -182.922,-260.963C-182.976,-261.81 -183.075,-262.654 -183.154,-263.5L32.202,-263.5C30.642,-262.431 29.075,-261.372 27.525,-260.289C27.085,-259.981 26.68,-259.618 26.281,-259.255C25.778,-258.797 25.288,-258.323 24.811,-257.838C24.066,-257.084 23.317,-256.334 22.61,-255.547C22.196,-255.087 21.885,-254.537 21.483,-254.066C20.051,-252.385 18.558,-250.755 17.168,-249.041C16.106,-247.732 16.733,-246.34 18.393,-246.067C19.225,-245.93 20.058,-245.753 20.863,-245.509C21.552,-245.299 22.182,-244.886 22.874,-244.707C24.244,-244.352 25.677,-244.347 26.954,-243.513C27.799,-242.96 28.797,-243.096 29.595,-243.947C30.176,-244.567 30.964,-245.005 31.488,-245.662C32.806,-247.311 35.119,-246.894 36.57,-248.219C36.63,-248.273 36.795,-248.214 36.91,-248.203C39.65,-247.938 42.104,-245.525 42.091,-242.739C42.083,-241.194 41.523,-239.647 41.151,-238.117C41.101,-237.908 40.694,-237.647 40.453,-237.646C39.059,-237.644 37.643,-237.18 36.306,-238.188C35.719,-238.63 34.772,-238.6 33.985,-238.771C33.649,-238.844 33.147,-238.759 32.992,-238.958C32.022,-240.2 30.684,-240.22 29.312,-240.222C29.128,-240.222 28.937,-240.31 28.759,-240.383C27.556,-240.879 26.366,-241.408 25.152,-241.876C23.467,-242.527 21.791,-243.231 20.059,-243.726C18.859,-244.069 17.484,-243.811 16.529,-244.918C16.407,-245.061 16.088,-245.104 15.87,-245.083C13.352,-244.837 11.313,-247.062 8.729,-246.466C8.637,-246.445 8.488,-246.519 8.413,-246.595C7.602,-247.414 6.548,-247.53 5.502,-247.5C3.917,-247.453 2.708,-249.291 0.967,-248.372C0.93,-248.353 0.84,-248.452 0.769,-248.478C-0.936,-249.088 -2.614,-250.073 -4.354,-250.193C-5.944,-250.303 -7.371,-250.712 -8.865,-251.087C-9.788,-251.319 -10.806,-251.149 -11.755,-251.311C-14.958,-251.858 -18.142,-252.531 -21.35,-253.043C-23.598,-253.403 -25.733,-254.352 -28.131,-254.025C-29.118,-253.89 -30.194,-254.652 -31.258,-254.787C-35.023,-255.268 -38.798,-255.685 -42.576,-256.058C-43.914,-256.189 -45.286,-256.006 -46.616,-256.173C-48.993,-256.469 -51.349,-257.221 -53.716,-257.235C-56.815,-257.254 -59.896,-257.846 -62.998,-257.496C-63.188,-257.475 -63.384,-257.532 -63.576,-257.535C-64.243,-257.546 -64.911,-257.547 -65.578,-257.555C-65.961,-257.559 -66.347,-257.534 -66.725,-257.581C-67.485,-257.674 -68.238,-257.879 -69,-257.909C-70.801,-257.978 -72.625,-257.653 -74.375,-258.425C-74.8,-258.612 -75.363,-258.508 -75.861,-258.495C-76.667,-258.474 -77.474,-258.366 -78.278,-258.384C-80.98,-258.443 -83.681,-258.616 -86.382,-258.607C-89.901,-258.595 -93.435,-258.607 -96.938,-258.324C-101.183,-257.981 -105.39,-257.2 -109.674,-257.37C-110.636,-257.408 -111.622,-257.48 -112.562,-257.324C-114.49,-257.004 -116.414,-256.608 -118.307,-256.117C-120.153,-255.637 -121.299,-254.151 -121.115,-252.223C-120.814,-249.078 -121.089,-245.847 -119.868,-242.818C-119.745,-242.513 -119.757,-242.122 -119.803,-241.784C-120.107,-239.551 -120.397,-237.314 -120.771,-235.092C-121.243,-232.281 -121.272,-229.482 -120.77,-226.675C-120.402,-224.629 -118.914,-223.135 -117.257,-222.707C-115.002,-222.124 -112.301,-221.521 -110.517,-224.129C-110.392,-224.312 -110.155,-224.416 -109.976,-224.564C-107.117,-226.922 -104.204,-229.217 -101.42,-231.66C-99.209,-233.599 -97.22,-235.791 -95.005,-237.726C-93.823,-238.757 -92.473,-239.777 -91.019,-240.275C-88.704,-241.067 -86.238,-241.418 -83.836,-241.955C-83.42,-242.048 -82.927,-242.021 -82.597,-242.242C-81.092,-243.248 -79.431,-242.986 -77.77,-243.043C-73.858,-243.176 -69.951,-243.437 -66.046,-243.689C-64.973,-243.758 -63.912,-244.079 -62.842,-244.107C-60.222,-244.178 -57.595,-244.245 -54.98,-244.131C-50.992,-243.958 -47.011,-243.662 -43.031,-243.356C-40.144,-243.135 -37.262,-242.835 -34.381,-242.527C-33.539,-242.438 -32.719,-242.114 -31.878,-242.05C-29.327,-241.857 -26.766,-241.789 -24.218,-241.568C-23.234,-241.483 -22.286,-241.024 -21.302,-240.911C-19.88,-240.746 -18.436,-240.774 -17.007,-240.646C-16.488,-240.6 -15.987,-240.343 -15.479,-240.179C-14.77,-239.95 -14.076,-239.617 -13.348,-239.504C-9.819,-238.959 -6.282,-238.472 -2.749,-237.964C-2.711,-237.959 -2.666,-237.953 -2.638,-237.93C-1.171,-236.756 0.663,-237 2.336,-236.613C3.346,-236.38 4.282,-235.752 5.294,-235.617C7.064,-235.381 8.748,-235.283 10.522,-234.568C12.377,-233.821 14.513,-233.504 16.503,-232.892C18.355,-232.321 20.067,-231.275 22.076,-231.215C22.219,-231.211 22.357,-231.093 22.498,-231.028C24.221,-230.22 25.921,-229.361 27.672,-228.62C29.092,-228.019 30.66,-227.721 32.006,-226.998C34.249,-225.792 36.335,-224.297 38.55,-223.035C39.792,-222.327 40.669,-221.414 41.246,-220.114C41.615,-219.281 42.025,-218.374 43.156,-218.284L43.156,-215.021C42.821,-214.799 42.37,-214.649 42.177,-214.339C41.812,-213.754 41.471,-213.099 41.344,-212.43C41.127,-211.294 40.438,-210.925 39.415,-210.594C38.033,-210.147 36.753,-209.389 35.419,-208.789C34.797,-208.509 34.169,-208.185 33.51,-208.058C31.323,-207.637 29.128,-207.247 26.923,-206.946C25.712,-206.781 24.474,-206.814 23.247,-206.77C21.165,-206.694 19.082,-206.568 17,-206.577C15.575,-206.583 14.321,-205.599 14.245,-204.169C14.149,-202.36 14.035,-200.55 14.017,-198.74C13.981,-195.293 14.137,-191.84 13.956,-188.403C13.857,-186.509 15.502,-185.157 17.344,-185.47C18.782,-185.714 20.288,-185.771 21.745,-185.662C24.324,-185.468 26.896,-185.14 29.455,-184.765C31.668,-184.441 33.889,-184.091 36.048,-183.528C37.292,-183.204 38.557,-182.61 39.566,-181.823C41.013,-180.694 42.074,-177.084 40.423,-175.111C40.066,-174.686 40.057,-173.966 39.694,-173.55C38.572,-172.262 37.559,-170.649 36.119,-169.938C34.826,-169.299 33.637,-168.664 32.531,-167.741C31.481,-166.864 30.288,-166.285 28.858,-165.988C26.541,-165.506 24.409,-164.314 22.053,-163.867C21.383,-163.739 20.747,-163.443 20.084,-163.27C17.731,-162.657 15.373,-162.064 13.017,-161.463C12.98,-161.454 12.949,-161.422 12.912,-161.413C11.999,-161.18 11.094,-160.907 10.17,-160.726C8.889,-160.475 7.586,-160.329 6.306,-160.071C5.378,-159.883 4.482,-159.534 3.553,-159.355C2.803,-159.212 2.018,-159.262 1.26,-159.145C-0.954,-158.805 -3.158,-158.399 -5.374,-158.069C-6.518,-157.899 -7.819,-158.127 -8.797,-157.653C-10.271,-156.94 -11.755,-156.859 -13.295,-156.732C-15.378,-156.561 -17.459,-156.346 -19.531,-156.077C-20.938,-155.895 -22.32,-155.489 -23.729,-155.362C-26.276,-155.132 -28.841,-155.085 -31.39,-154.861C-32.459,-154.768 -33.496,-154.301 -34.565,-154.206C-39.493,-153.767 -44.426,-153.364 -49.36,-153.018C-52.417,-152.804 -55.48,-152.685 -58.542,-152.576C-61.527,-152.47 -64.515,-152.425 -67.501,-152.368C-68.932,-152.341 -70.363,-152.312 -71.793,-152.353C-72.927,-152.385 -73.188,-152.832 -72.615,-153.783C-72.176,-154.511 -72.543,-154.756 -73.127,-154.968C-74.772,-155.565 -76.345,-155.126 -77.442,-153.622C-78.01,-152.843 -78.657,-152.531 -79.6,-152.548C-81.657,-152.583 -83.717,-152.575 -85.774,-152.531C-89.748,-152.444 -93.389,-153.337 -96.562,-155.874C-98.681,-157.567 -100.922,-159.109 -103.043,-160.801C-104.334,-161.832 -105.464,-163.062 -106.73,-164.125C-108.441,-165.562 -110.247,-166.886 -111.947,-168.335C-112.999,-169.232 -114.305,-169.144 -115.483,-169.536C-118.334,-170.483 -120.135,-169.661 -120.992,-166.812C-121.112,-166.414 -121.405,-166.07 -121.565,-165.68C-121.842,-165.007 -122.281,-164.32 -122.293,-163.633C-122.347,-160.345 -122.325,-157.054 -122.226,-153.767C-122.199,-152.899 -121.716,-152.054 -121.593,-151.178C-121.402,-149.818 -120.96,-148.335 -121.302,-147.09C-122.159,-143.967 -122.266,-140.814 -122.296,-137.638C-122.314,-135.582 -119.927,-132.878 -117.9,-132.547C-115.193,-132.104 -112.49,-131.639 -109.775,-131.256C-108.551,-131.083 -107.303,-131.052 -106.064,-131.019C-103.174,-130.94 -100.283,-130.858 -97.392,-130.861C-95.648,-130.862 -93.906,-131.067 -92.162,-131.098C-89.229,-131.15 -86.283,-130.99 -83.36,-131.183C-77.713,-131.555 -72.057,-131.408 -66.396,-131.882C-61.259,-132.312 -56.108,-133.146 -50.897,-132.825C-49.398,-132.732 -47.87,-133.232 -46.347,-133.391C-44.348,-133.599 -42.343,-133.765 -40.337,-133.899C-38.229,-134.04 -36.109,-134.042 -34.009,-134.25C-31.128,-134.535 -28.265,-134.984 -25.388,-135.313C-22.124,-135.687 -18.798,-135.432 -15.592,-136.419C-14.538,-136.744 -13.394,-136.804 -12.283,-136.903C-10.605,-137.053 -8.907,-137.028 -7.246,-137.274C-6.04,-137.453 -4.836,-138.344 -3.711,-138.215C-1.882,-138.006 -0.264,-138.424 1.406,-138.913C1.926,-139.065 2.461,-139.183 2.996,-139.261C7.282,-139.887 11.578,-140.451 15.854,-141.132C18.777,-141.598 21.657,-142.34 24.586,-142.746C28.839,-143.335 32.946,-144.892 37.319,-144.678C37.541,-144.667 37.771,-144.783 37.993,-144.851C39.66,-145.361 40.566,-145.058 41.724,-143.796C42.073,-143.415 42.672,-143.261 43.156,-143.003L43.156,-135.778C42.382,-135.501 41.596,-135.254 40.839,-134.937C40.35,-134.732 39.928,-134.263 39.435,-134.19C37.827,-133.952 36.203,-133.753 34.582,-133.72C33.777,-133.704 32.914,-133.969 32.166,-134.304C30.265,-135.155 29.039,-136.78 27.75,-138.344C26.802,-139.495 25.947,-141.026 23.971,-140.182C23.798,-140.108 23.524,-140.311 23.3,-140.306C22.807,-140.296 22.303,-140.29 21.825,-140.184C21.002,-140 20.204,-139.705 19.381,-139.52C17.721,-139.148 16.04,-138.861 14.387,-138.46C13.047,-138.135 12.808,-137.325 13.64,-136.246C13.78,-136.062 13.911,-135.866 14.015,-135.661C15.651,-132.413 18.324,-130.038 20.867,-127.562C22.334,-126.134 23.875,-124.846 25.703,-123.808C27.888,-122.565 29.668,-120.616 32.114,-119.774C34.187,-119.062 36.272,-118.333 38.409,-117.881C39.942,-117.556 41.57,-117.676 43.156,-117.598L43.156,-109.208C42.3,-108.916 41.427,-108.665 40.596,-108.314C40.142,-108.122 39.798,-107.64 39.339,-107.492C35.821,-106.352 32.974,-104.207 30.353,-101.684C29.242,-100.615 28.067,-99.611 26.916,-98.584C25.597,-97.409 24.262,-96.25 22.949,-95.067C22.093,-94.295 21.312,-93.432 20.408,-92.721C19.498,-92.005 19.317,-90.702 20.23,-89.929C20.657,-89.568 21.254,-89.413 21.768,-89.151C23.264,-88.389 24.873,-87.784 26.219,-86.813C27.849,-85.637 29.224,-85.58 30.784,-86.935C32.239,-88.199 33.816,-89.323 35.293,-90.563C36.627,-91.684 38.008,-92.453 39.866,-92.309C40.665,-92.247 41.175,-92.304 41.347,-91.361C41.505,-90.49 41.759,-89.617 42.115,-88.81C42.3,-88.39 42.799,-88.109 43.156,-87.766L43.156,-86.367C42.09,-86.2 41.979,-85.448 41.973,-84.554C41.953,-82.058 39.977,-79.739 37.563,-79.998C35.41,-80.229 33.34,-81.223 31.234,-81.885C31.167,-81.907 31.122,-81.993 31.057,-82.033C30.177,-82.575 29.335,-83.202 28.402,-83.629C27.354,-84.109 26.175,-84.304 25.143,-84.808C23.811,-85.459 22.638,-86.471 21.271,-87.003C19.615,-87.647 17.896,-88.086 16.46,-89.213C15.855,-89.687 15.183,-90.111 14.479,-90.415C12.659,-91.203 11.555,-90.539 11.177,-88.609C11.104,-88.234 10.639,-87.64 10.399,-87.661C9.995,-87.697 9.305,-88.14 9.304,-88.415C9.301,-89.122 9.434,-89.958 9.835,-90.507C10.386,-91.261 10.302,-91.801 9.701,-92.314C9.331,-92.63 8.836,-92.943 8.373,-92.984C6.153,-93.179 4.365,-94.205 2.689,-95.588C1.878,-96.257 1.003,-97.02 -0.237,-96.583C-0.364,-96.539 -0.538,-96.617 -0.687,-96.651C-1.684,-96.881 -2.682,-97.105 -3.675,-97.35C-4.159,-97.469 -4.639,-97.614 -5.111,-97.773C-7.179,-98.47 -9.242,-99.177 -11.308,-99.877C-11.379,-99.901 -11.465,-99.905 -11.539,-99.892C-13.782,-99.497 -15.487,-101.58 -17.723,-101.242C-17.846,-101.224 -17.988,-101.397 -18.134,-101.443C-18.968,-101.709 -19.79,-102.04 -20.645,-102.206C-22.425,-102.551 -24.226,-102.791 -26.013,-103.107C-26.771,-103.242 -27.509,-103.504 -28.269,-103.626C-30.566,-103.996 -33.026,-103.382 -35.159,-104.774C-35.312,-104.874 -35.53,-104.902 -35.722,-104.911C-37.927,-105.019 -40.135,-105.091 -42.339,-105.224C-43.682,-105.305 -45.081,-105.27 -46.344,-105.653C-48.034,-106.168 -49.696,-106.083 -51.395,-106.044C-53.403,-105.999 -55.413,-106.019 -57.423,-105.986C-60.866,-105.93 -64.359,-106.191 -67.737,-105.685C-70.519,-105.267 -73.267,-105.066 -76.056,-104.98C-77.002,-104.952 -77.945,-104.633 -78.876,-104.394C-79.611,-104.204 -80.315,-103.893 -81.052,-103.705C-82.463,-103.345 -83.874,-102.957 -85.309,-102.722C-87.718,-102.327 -90.094,-101.865 -92.351,-100.886C-93.685,-100.308 -95.059,-99.821 -96.409,-99.281C-96.839,-99.11 -97.233,-98.806 -97.675,-98.72C-100.247,-98.218 -102.307,-96.861 -104.091,-95.008C-104.247,-94.847 -104.463,-94.647 -104.66,-94.637C-105.774,-94.581 -106.595,-94.019 -107.424,-93.32C-109.984,-91.162 -113.229,-89.752 -114.788,-86.508C-114.836,-86.408 -114.943,-86.336 -115.017,-86.247C-115.938,-85.114 -116.782,-83.909 -117.798,-82.869C-118.808,-81.834 -119.07,-80.519 -119.529,-79.262C-120.001,-77.972 -120.474,-76.682 -120.956,-75.396C-121.049,-75.146 -121.212,-74.922 -121.302,-74.671C-121.566,-73.933 -122.004,-73.193 -122.028,-72.442C-122.118,-69.648 -122.107,-66.849 -122.057,-64.054C-122.032,-62.702 -121.895,-61.343 -121.706,-60.002C-121.243,-56.712 -120.721,-53.431 -120.222,-50.146C-120.182,-49.878 -120.126,-49.613 -120.09,-49.345C-119.761,-46.946 -119.143,-44.541 -119.187,-42.148C-119.236,-39.458 -119.841,-36.771 -120.291,-34.098C-120.48,-32.973 -120.889,-31.884 -121.201,-30.781C-121.418,-30.018 -121.759,-29.268 -121.833,-28.493C-121.942,-27.337 -121.826,-26.163 -121.873,-25C-122.066,-20.27 -120.988,-16 -118,-12.163C-116.617,-10.386 -114.743,-10.103 -112.964,-9.812C-111.53,-9.577 -109.942,-10.263 -108.426,-10.56C-108.206,-10.603 -107.957,-10.703 -107.805,-10.858C-106.066,-12.62 -104.33,-14.381 -102.626,-16.175C-101.673,-17.178 -100.795,-18.251 -99.856,-19.269C-99.363,-19.803 -98.808,-20.278 -98.29,-20.791C-97.129,-21.94 -95.98,-23.24 -94.268,-23.382C-90.455,-23.698 -86.631,-23.937 -82.808,-24.031C-79.396,-24.115 -75.979,-23.971 -72.563,-23.913C-69.474,-23.859 -66.371,-24.62 -63.292,-23.752C-63.09,-23.695 -62.841,-23.82 -62.611,-23.841C-61.203,-23.969 -59.796,-24.176 -58.386,-24.197C-56.153,-24.228 -53.919,-24.106 -51.685,-24.098C-47.977,-24.084 -44.269,-24.119 -40.561,-24.111C-39.942,-24.109 -39.325,-23.933 -38.709,-23.941C-34.959,-23.991 -31.209,-24.09 -27.459,-24.128C-26.222,-24.141 -24.98,-23.938 -23.744,-23.972C-20.335,-24.065 -16.928,-24.233 -13.52,-24.369C-12.557,-24.407 -11.591,-24.491 -10.629,-24.454C-9.166,-24.399 -7.705,-24.167 -6.244,-24.17C-3.461,-24.175 -0.679,-24.33 2.104,-24.356C6.055,-24.394 10.007,-24.373 13.958,-24.381C14.268,-24.382 14.577,-24.427 14.887,-24.435C17.816,-24.511 20.745,-24.616 23.676,-24.647C25.912,-24.671 28.172,-24.389 30.381,-24.624C33.355,-24.939 35.648,-23.498 37.905,-22.07C39.316,-21.176 40.36,-19.717 41.645,-18.597C42.016,-18.273 42.646,-18.243 43.156,-18.078L43.156,-0.831C40.754,-0.75 38.349,-0.704 35.949,-0.575C34.364,-0.49 32.779,-0.332 31.206,-0.12C30.39,-0.009 29.592,0.262 28.8,0.509C28.104,0.726 27.427,1.217 26.742,1.215C25.596,1.212 24.772,1.752 23.87,2.297C22.394,3.187 20.836,3.941 19.353,4.821C17.738,5.778 16.161,6.798 14.588,7.823C14.041,8.178 13.525,8.595 13.047,9.04C11.717,10.275 10.386,11.511 9.112,12.804C8.391,13.538 7.787,14.387 7.118,15.174C6.92,15.407 6.645,15.579 6.462,15.821C5.421,17.204 4.419,18.616 3.36,19.985C2.819,20.683 2.1,21.254 1.618,21.987C0.673,23.423 -0.133,24.952 -1.062,26.4C-1.317,26.799 -1.853,27.009 -2.179,27.377C-3.464,28.831 -4.756,30.28 -5.963,31.796C-6.476,32.441 -6.669,33.352 -7.211,33.961C-8.489,35.399 -9.937,36.685 -11.222,38.118C-11.831,38.797 -12.081,39.827 -12.74,40.428C-15.338,42.797 -17.062,46.025 -20.147,47.91C-22.639,49.431 -24.816,51.465 -27.636,52.453C-27.952,52.564 -28.245,52.791 -28.502,53.019C-29.735,54.114 -31.047,55.009 -32.776,55.12C-33.218,55.148 -33.648,55.401 -34.077,55.567C-35.84,56.252 -37.563,57.073 -39.373,57.598C-41.257,58.144 -43.224,58.405 -45.154,58.793C-46.132,58.991 -47.103,59.313 -48.087,59.361C-49.073,59.41 -50.071,59.106 -51.065,59.096C-54.776,59.059 -58.499,59.261 -62.193,59.012C-64.604,58.85 -66.975,58.078 -69.354,57.54C-69.67,57.468 -69.92,57.14 -70.224,56.975C-70.486,56.834 -70.805,56.625 -71.059,56.669C-72.285,56.886 -73.126,56.21 -73.99,55.537C-74.292,55.301 -74.61,55.075 -74.949,54.899C-76.099,54.302 -77.332,53.896 -77.984,52.56C-78.279,51.956 -79.09,51.622 -79.6,51.099C-80.761,49.906 -82.298,48.986 -82.498,47.073C-82.538,46.689 -82.874,46.335 -83.077,45.97C-83.727,44.807 -84.588,43.709 -84.966,42.464C-85.297,41.375 -85.071,40.12 -85.125,38.939C-85.137,38.683 -85.222,38.371 -85.388,38.192C-85.911,37.629 -85.855,37.122 -85.429,36.538C-85.287,36.343 -85.265,36.032 -85.26,35.772C-85.234,34.281 -85.364,32.772 -85.17,31.305C-85.046,30.364 -84.477,29.474 -84.063,28.583C-83.836,28.094 -83.396,27.682 -83.26,27.179C-82.525,24.47 -80.475,22.653 -78.355,21.357C-76.162,20.017 -73.439,19.469 -70.886,18.825C-69.614,18.503 -68.2,18.69 -66.853,18.735C-63.766,18.839 -61.333,20.303 -59.62,22.762C-58.692,24.094 -58.442,25.759 -59.549,27.248C-60.735,28.844 -61.921,30.449 -63.217,31.956C-65.241,34.311 -66.106,37.061 -66.081,40.088C-66.072,41.176 -65.992,42.528 -65.372,43.297C-63.06,46.166 -59.948,47.695 -56.227,47.929C-55.188,47.995 -54.159,48.209 -53.123,48.332C-51.748,48.495 -50.368,48.77 -48.994,48.749C-47.354,48.723 -46.779,48.057 -46.399,46.445C-46.293,45.99 -46.104,45.418 -45.76,45.177C-43.672,43.719 -41.544,42.318 -39.399,40.946C-37.61,39.801 -35.623,38.91 -34.01,37.564C-32.131,35.996 -30.52,34.092 -28.884,32.253C-28.338,31.639 -28.017,30.797 -27.693,30.018C-26.481,27.092 -26.178,23.971 -25.873,20.865C-25.804,20.164 -26.039,19.414 -26.227,18.71C-26.514,17.63 -27.022,16.591 -27.174,15.498C-27.334,14.336 -27.836,13.476 -28.63,12.68C-29.696,11.612 -30.929,10.625 -31.701,9.364C-33.498,6.435 -36.658,5.372 -39.206,3.478C-39.913,2.953 -40.651,2.44 -41.443,2.062C-43.451,1.105 -45.782,0.826 -47.458,-0.836C-47.581,-0.958 -47.821,-1.032 -47.999,-1.017C-50.309,-0.83 -52.3,-2.328 -54.64,-2.178C-57.073,-2.022 -59.311,-3.507 -61.8,-3.283C-62.081,-3.257 -62.379,-3.484 -62.678,-3.562C-62.97,-3.639 -63.271,-3.691 -63.57,-3.724C-64.266,-3.803 -64.963,-3.87 -65.66,-3.93C-66.079,-3.966 -66.504,-4.028 -66.921,-3.999C-69.301,-3.829 -71.678,-3.584 -74.061,-3.464C-76.123,-3.361 -78.215,-3.569 -80.256,-3.321C-83.632,-2.909 -87.005,-2.369 -90.325,-1.638C-92.644,-1.128 -94.862,-0.18 -97.143,0.516C-99.8,1.329 -102.499,2.026 -104.823,3.65C-105.173,3.893 -105.486,4.225 -105.871,4.375C-108.424,5.369 -110.671,6.796 -112.713,8.644C-114.745,10.482 -117.109,11.989 -117.816,14.901C-117.878,15.155 -118.245,15.327 -118.446,15.556C-119.193,16.408 -120.228,17.125 -119.715,18.542C-119.641,18.748 -119.871,19.109 -120.035,19.347C-121.368,21.286 -121.866,23.41 -121.539,25.739C-121.309,27.385 -121.132,29.039 -120.889,30.682C-120.766,31.515 -120.52,32.33 -120.382,33.161C-120.272,33.82 -120.199,34.492 -120.193,35.159C-120.189,35.573 -120.377,35.986 -120.414,36.405C-120.639,38.939 -120.842,41.475 -121.059,44.01C-121.205,45.728 -121.855,47.381 -121.411,49.18C-121.08,50.524 -121.115,51.954 -120.908,53.333C-120.766,54.283 -120.624,55.272 -120.241,56.136C-119.563,57.671 -119.27,59.362 -118.058,60.698C-116.669,62.229 -115.678,64.142 -114.203,65.568C-112.153,67.549 -109.818,69.237 -107.593,71.035C-107.358,71.224 -107.049,71.399 -106.76,71.426C-105.364,71.561 -104.299,72.346 -103.105,72.978C-101.214,73.98 -99.127,74.631 -97.086,75.324C-94.858,76.079 -92.659,76.99 -90.25,77.05C-90.028,77.056 -89.813,77.2 -89.59,77.26C-87.313,77.875 -85.067,78.722 -82.75,79.037C-80.001,79.409 -77.228,79.534 -74.462,79.951C-70.927,80.483 -67.293,80.431 -63.699,80.487C-60.762,80.534 -57.817,80.431 -54.883,80.27C-53.548,80.197 -52.237,79.756 -50.902,79.597C-48.761,79.341 -46.598,79.249 -44.462,78.958C-43.096,78.772 -41.764,78.345 -40.412,78.042C-39.167,77.764 -37.906,77.549 -36.672,77.233C-34.646,76.713 -32.473,76.646 -30.699,75.321C-30.56,75.216 -30.319,75.256 -30.134,75.203C-29.541,75.033 -28.937,74.888 -28.366,74.665C-26.819,74.058 -25.334,73.185 -23.734,72.855C-22.19,72.536 -21.036,71.8 -19.934,70.81C-19.705,70.606 -19.434,70.441 -19.163,70.292C-16.73,68.952 -14.272,67.656 -11.865,66.271C-10.228,65.33 -8.605,64.34 -7.075,63.236C-5.521,62.112 -4.178,60.679 -2.576,59.639C-0.886,58.542 0.504,57.233 1.736,55.655C2.449,54.742 3.83,54.235 4.278,53.255C5.306,51.009 7.307,49.679 8.953,48.157C10.496,46.731 11.512,45.01 12.83,43.483C13.884,42.262 14.688,40.827 15.722,39.586C17.022,38.027 18.612,36.768 19.565,34.849C20.483,33 21.937,31.42 23.107,29.691C24.725,27.302 26.32,24.879 28.401,22.879C30.005,21.337 31.835,20.026 33.605,18.665C34.203,18.205 34.887,17.742 35.601,17.567C38.151,16.944 40.706,16.836 43.156,18.047L43.156,55.106C40.096,55.713 37.378,54.208 34.613,53.437C32.883,52.955 31.218,52.313 29.395,52.182C25.349,51.89 21.603,52.464 18.73,55.701C18.555,55.898 18.4,56.144 18.323,56.394C17.874,57.872 17.433,59.353 17.032,60.844C16.961,61.11 17.015,61.473 17.146,61.719C18.125,63.544 19.964,63.963 21.669,62.781C22.98,61.87 26.001,61.791 27.157,62.842C28.471,64.036 30.248,64.763 31.008,66.538C31.063,66.669 31.219,66.76 31.333,66.865C33.033,68.43 34.678,70.064 36.456,71.535C37.662,72.533 39.007,73.397 40.389,74.138C41.213,74.581 42.228,74.669 43.156,74.917L43.156,86.104L-170.335,86.104Z" style="fill:rgb(180,154,127);fill-rule:nonzero;"/>
                    </g>
                    <g transform="matrix(1,0,0,1,349.603,165.81)">
                        <path d="M0,79.612C-0.511,79.447 -1.141,79.417 -1.512,79.092C-2.796,77.972 -3.84,76.513 -5.251,75.62C-7.508,74.192 -9.801,72.751 -12.775,73.066C-14.984,73.3 -17.244,73.018 -19.48,73.043C-22.411,73.074 -25.34,73.178 -28.27,73.255C-28.579,73.262 -28.889,73.307 -29.198,73.308C-33.149,73.317 -37.102,73.296 -41.052,73.334C-43.835,73.36 -46.617,73.514 -49.4,73.519C-50.861,73.522 -52.322,73.291 -53.785,73.236C-54.747,73.199 -55.713,73.283 -56.676,73.321C-60.084,73.457 -63.491,73.625 -66.9,73.717C-68.137,73.752 -69.378,73.549 -70.615,73.561C-74.365,73.599 -78.115,73.699 -81.865,73.749C-82.481,73.757 -83.099,73.581 -83.717,73.579C-87.425,73.571 -91.133,73.605 -94.841,73.591C-97.075,73.584 -99.31,73.462 -101.542,73.493C-102.952,73.513 -104.359,73.72 -105.768,73.848C-105.997,73.87 -106.246,73.995 -106.448,73.937C-109.527,73.07 -112.63,73.831 -115.72,73.777C-119.135,73.718 -122.552,73.575 -125.964,73.659C-129.787,73.753 -133.611,73.992 -137.424,74.307C-139.136,74.45 -140.285,75.75 -141.446,76.899C-141.964,77.412 -142.52,77.886 -143.013,78.421C-143.951,79.438 -144.829,80.511 -145.782,81.514C-147.486,83.308 -149.223,85.07 -150.961,86.832C-151.113,86.987 -151.362,87.087 -151.582,87.13C-153.099,87.426 -154.687,88.113 -156.12,87.878C-157.899,87.587 -159.773,87.303 -161.156,85.527C-164.145,81.69 -165.223,77.42 -165.029,72.69C-164.982,71.527 -165.099,70.352 -164.989,69.197C-164.915,68.422 -164.574,67.672 -164.357,66.909C-164.045,65.805 -163.636,64.716 -163.447,63.591C-162.997,60.919 -162.393,58.232 -162.343,55.542C-162.299,53.149 -162.917,50.744 -163.246,48.344C-163.282,48.077 -163.338,47.811 -163.378,47.544C-163.877,44.258 -164.399,40.977 -164.862,37.687C-165.051,36.346 -165.188,34.988 -165.213,33.635C-165.264,30.841 -165.274,28.042 -165.185,25.248C-165.16,24.497 -164.723,23.757 -164.458,23.018C-164.368,22.767 -164.205,22.544 -164.112,22.294C-163.63,21.008 -163.157,19.717 -162.686,18.427C-162.227,17.171 -161.964,15.855 -160.954,14.821C-159.938,13.781 -159.094,12.576 -158.173,11.443C-158.1,11.353 -157.992,11.282 -157.944,11.181C-156.385,7.938 -153.141,6.528 -150.58,4.37C-149.751,3.671 -148.931,3.109 -147.816,3.052C-147.619,3.043 -147.403,2.843 -147.247,2.681C-145.463,0.829 -143.403,-0.529 -140.831,-1.03C-140.39,-1.117 -139.995,-1.42 -139.565,-1.592C-138.215,-2.132 -136.841,-2.618 -135.507,-3.197C-133.25,-4.175 -130.874,-4.637 -128.465,-5.032C-127.03,-5.267 -125.619,-5.656 -124.208,-6.015C-123.472,-6.203 -122.768,-6.514 -122.032,-6.704C-121.102,-6.944 -120.158,-7.262 -119.212,-7.291C-116.423,-7.376 -113.675,-7.577 -110.894,-7.995C-107.516,-8.501 -104.022,-8.241 -100.579,-8.296C-98.569,-8.329 -96.56,-8.309 -94.551,-8.354C-92.853,-8.393 -91.19,-8.478 -89.5,-7.964C-88.237,-7.58 -86.838,-7.615 -85.495,-7.534C-83.291,-7.402 -81.083,-7.329 -78.878,-7.221C-78.687,-7.213 -78.468,-7.184 -78.315,-7.085C-76.183,-5.693 -73.723,-6.306 -71.425,-5.937C-70.665,-5.815 -69.928,-5.552 -69.169,-5.418C-67.382,-5.102 -65.581,-4.861 -63.801,-4.516C-62.946,-4.35 -62.124,-4.019 -61.29,-3.754C-61.145,-3.708 -61.002,-3.534 -60.879,-3.553C-58.644,-3.89 -56.938,-1.807 -54.695,-2.202C-54.621,-2.216 -54.535,-2.212 -54.464,-2.188C-52.398,-1.488 -50.335,-0.781 -48.268,-0.084C-47.795,0.076 -47.315,0.22 -46.831,0.34C-45.838,0.585 -44.84,0.809 -43.844,1.038C-43.694,1.072 -43.521,1.151 -43.394,1.106C-42.153,0.67 -41.278,1.432 -40.467,2.102C-38.791,3.485 -37.003,4.51 -34.783,4.706C-34.32,4.746 -33.825,5.059 -33.455,5.376C-32.854,5.889 -32.771,6.428 -33.321,7.183C-33.723,7.731 -33.855,8.568 -33.853,9.275C-33.852,9.55 -33.161,9.993 -32.757,10.029C-32.518,10.05 -32.053,9.455 -31.979,9.081C-31.602,7.151 -30.497,6.487 -28.677,7.275C-27.974,7.579 -27.301,8.003 -26.696,8.477C-25.26,9.603 -23.541,10.043 -21.886,10.686C-20.519,11.218 -19.346,12.23 -18.014,12.882C-16.981,13.385 -15.802,13.581 -14.754,14.06C-13.821,14.488 -12.979,15.115 -12.1,15.657C-12.034,15.697 -11.989,15.783 -11.922,15.804C-9.816,16.467 -7.746,17.461 -5.594,17.692C-3.18,17.951 -1.203,15.632 -1.184,13.135C-1.177,12.242 -1.066,11.49 0,11.323L0,32.532C-0.49,32.425 -0.998,32.367 -1.468,32.201C-3.033,31.645 -4.599,31.083 -6.14,30.462C-7.783,29.8 -9.502,29.238 -11,28.324C-12.744,27.26 -15.099,27.328 -16.368,25.4C-16.481,25.228 -16.877,25.256 -17.132,25.164C-17.965,24.864 -18.831,24.628 -19.614,24.229C-21.587,23.228 -23.708,22.586 -25.539,21.202C-26.665,20.352 -28.331,20.215 -29.756,19.761C-30.124,19.644 -30.506,19.565 -30.865,19.425C-33.079,18.565 -35.277,17.666 -37.5,16.83C-39.476,16.089 -41.45,15.324 -43.473,14.732C-45.549,14.125 -47.681,13.706 -49.792,13.221C-50.993,12.945 -52.209,12.729 -53.406,12.439C-54.828,12.094 -56.219,11.596 -57.655,11.349C-59.789,10.981 -61.944,10.701 -64.102,10.515C-67.217,10.248 -70.341,10.067 -73.464,9.922C-74.311,9.882 -74.863,9.741 -75.056,8.802C-75.273,7.735 -75.82,7.539 -76.554,8.314C-77.886,9.721 -79.51,9.985 -81.335,9.945C-83.54,9.897 -85.753,9.926 -87.953,10.07C-93.492,10.432 -98.835,11.864 -104.197,13.178C-104.947,13.363 -105.833,13.266 -106.457,13.634C-108.889,15.072 -111.812,15.284 -114.164,16.984C-115.856,18.209 -117.883,18.966 -119.73,19.985C-120.563,20.444 -121.489,20.894 -122.08,21.596C-123.475,23.254 -124.734,25.03 -125.963,26.817C-126.483,27.574 -126.798,28.472 -127.188,29.315C-127.666,30.351 -128.044,31.444 -128.621,32.42C-129.026,33.104 -129.427,33.604 -128.704,34.331C-128.505,34.531 -128.58,35.056 -128.61,35.425C-128.902,38.925 -129.483,42.445 -127.794,45.788C-127.225,46.916 -126.735,48.06 -125.432,48.643C-124.753,48.947 -124.233,49.605 -123.637,50.096C-123.375,50.313 -123.13,50.609 -122.825,50.706C-121.255,51.202 -119.67,51.653 -118.086,52.106C-116.767,52.484 -115.449,52.871 -114.115,53.191C-113.769,53.274 -113.366,53.121 -112.988,53.08C-112.65,53.043 -112.303,52.942 -111.976,52.986C-110.072,53.244 -108.174,53.81 -106.282,52.911C-106.132,52.839 -105.905,52.944 -105.715,52.937C-104.174,52.887 -102.595,53.025 -101.099,52.736C-97.759,52.092 -94.452,51.266 -91.148,50.451C-89.201,49.969 -87.259,49.441 -85.359,48.799C-83.121,48.041 -80.973,46.996 -78.708,46.341C-76.895,45.815 -74.957,45.719 -73.481,44.325C-73.34,44.192 -73.019,44.27 -72.811,44.181C-71.157,43.476 -69.51,42.757 -67.863,42.035C-67.441,41.849 -67.032,41.636 -66.615,41.441C-65.435,40.887 -64.232,40.376 -63.076,39.775C-60.855,38.621 -58.663,37.411 -56.451,36.237C-55.565,35.766 -54.461,35.523 -53.808,34.841C-52.46,33.434 -50.834,32.515 -49.209,31.534C-48.061,30.841 -47.074,29.865 -45.899,29.23C-44.796,28.634 -43.854,27.995 -43.379,26.796C-43.297,26.59 -43.117,26.408 -42.946,26.255C-41.029,24.531 -39.023,22.895 -37.213,21.067C-36.147,19.99 -34.673,20.094 -33.819,20.719C-32.631,21.589 -31.365,21.919 -29.955,22.127C-27.413,22.502 -26.614,24.433 -28.254,26.393C-30.005,28.487 -31.954,30.418 -33.828,32.408C-33.98,32.571 -34.231,32.636 -34.418,32.772C-35.849,33.819 -37.604,34.626 -38.621,35.984C-39.967,37.78 -41.866,38.561 -43.586,39.676C-46.394,41.498 -49.274,43.209 -52.155,44.914C-52.87,45.338 -53.704,45.555 -54.479,45.88C-55.356,46.245 -56.294,46.519 -57.086,47.022C-58.131,47.685 -59.055,48.444 -60.41,48.498C-61.131,48.527 -61.838,49.006 -62.541,49.305C-63.412,49.675 -64.264,50.091 -65.14,50.449C-66.618,51.053 -68.121,51.604 -69.588,52.238C-69.92,52.382 -70.145,52.773 -70.464,53.097C-70.192,53.245 -70.074,53.365 -69.995,53.343C-68.686,52.986 -67.388,52.819 -66.016,53.084C-65.336,53.215 -64.587,52.927 -63.87,52.935C-62.685,52.949 -61.495,53.149 -60.317,53.09C-58.379,52.991 -56.476,53.172 -54.553,53.298C-53.337,53.377 -52.011,52.872 -50.675,53.094C-50.312,53.155 -49.889,52.738 -49.49,52.732C-48.145,52.713 -46.796,52.754 -45.451,52.822C-44.259,52.883 -43.065,53.125 -41.88,53.083C-39.154,52.985 -36.434,52.653 -33.708,52.621C-30.682,52.586 -27.653,53.256 -24.622,52.592C-24.294,52.52 -23.928,52.645 -23.579,52.646C-21.762,52.651 -19.943,52.654 -18.126,52.64C-16.597,52.629 -15.057,52.704 -13.543,52.541C-11.785,52.35 -9.954,52.194 -8.329,51.571C-5.722,50.571 -3.977,48.313 -2.02,46.422C-1.395,45.817 -0.838,45.472 0,45.584L0,79.612Z" style="fill:rgb(64,62,59);fill-rule:nonzero;"/>
                    </g>
                    <g transform="matrix(1,0,0,1,349.603,321.957)">
                        <path d="M0,-40.411C-2.45,-41.622 -5.005,-41.515 -7.556,-40.891C-8.27,-40.717 -8.953,-40.254 -9.551,-39.794C-11.321,-38.432 -13.151,-37.121 -14.755,-35.579C-16.836,-33.579 -18.432,-31.156 -20.049,-28.767C-21.22,-27.038 -22.673,-25.459 -23.591,-23.609C-24.544,-21.69 -26.134,-20.432 -27.435,-18.872C-28.469,-17.632 -29.272,-16.196 -30.326,-14.975C-31.645,-13.448 -32.66,-11.727 -34.203,-10.302C-35.85,-8.779 -37.851,-7.449 -38.878,-5.203C-39.326,-4.223 -40.707,-3.717 -41.42,-2.804C-42.652,-1.225 -44.042,0.083 -45.732,1.181C-47.334,2.221 -48.677,3.653 -50.231,4.777C-51.762,5.882 -53.384,6.871 -55.021,7.813C-57.429,9.197 -59.887,10.493 -62.319,11.833C-62.59,11.983 -62.861,12.148 -63.09,12.352C-64.192,13.342 -65.347,14.077 -66.891,14.397C-68.49,14.727 -69.976,15.6 -71.522,16.206C-72.094,16.43 -72.697,16.574 -73.29,16.744C-73.476,16.798 -73.716,16.758 -73.855,16.862C-75.629,18.188 -77.803,18.255 -79.828,18.775C-81.063,19.091 -82.323,19.306 -83.568,19.584C-84.92,19.887 -86.252,20.314 -87.618,20.499C-89.754,20.79 -91.917,20.883 -94.059,21.139C-95.394,21.298 -96.704,21.738 -98.039,21.812C-100.974,21.973 -103.918,22.075 -106.855,22.028C-110.449,21.973 -114.083,22.025 -117.618,21.492C-120.384,21.075 -123.157,20.95 -125.906,20.578C-128.224,20.264 -130.469,19.416 -132.746,18.802C-132.969,18.741 -133.185,18.598 -133.406,18.592C-135.815,18.531 -138.015,17.62 -140.242,16.865C-142.283,16.173 -144.37,15.522 -146.261,14.52C-147.455,13.888 -148.521,13.103 -149.916,12.968C-150.205,12.941 -150.515,12.766 -150.749,12.576C-152.975,10.778 -155.31,9.091 -157.359,7.11C-158.834,5.684 -159.825,3.771 -161.214,2.239C-162.426,0.903 -162.719,-0.787 -163.397,-2.322C-163.78,-3.186 -163.922,-4.176 -164.064,-5.126C-164.271,-6.505 -164.236,-7.934 -164.567,-9.278C-165.011,-11.077 -164.361,-12.73 -164.215,-14.448C-163.998,-16.983 -163.795,-19.519 -163.57,-22.054C-163.533,-22.473 -163.346,-22.886 -163.35,-23.3C-163.355,-23.967 -163.429,-24.639 -163.538,-25.298C-163.676,-26.129 -163.922,-26.943 -164.045,-27.776C-164.288,-29.42 -164.465,-31.073 -164.695,-32.72C-165.022,-35.049 -164.524,-37.173 -163.191,-39.111C-163.027,-39.349 -162.797,-39.711 -162.871,-39.916C-163.384,-41.333 -162.35,-42.051 -161.603,-42.902C-161.401,-43.132 -161.034,-43.304 -160.973,-43.557C-160.266,-46.47 -157.901,-47.976 -155.869,-49.814C-153.827,-51.662 -151.58,-53.09 -149.027,-54.084C-148.643,-54.233 -148.329,-54.565 -147.98,-54.808C-145.655,-56.432 -142.956,-57.13 -140.299,-57.942C-138.019,-58.639 -135.8,-59.587 -133.481,-60.097C-130.161,-60.827 -126.788,-61.367 -123.412,-61.779C-121.371,-62.027 -119.279,-61.819 -117.217,-61.923C-114.834,-62.042 -112.457,-62.287 -110.077,-62.457C-109.66,-62.486 -109.235,-62.425 -108.816,-62.389C-108.119,-62.328 -107.422,-62.262 -106.727,-62.182C-106.427,-62.149 -106.126,-62.098 -105.834,-62.02C-105.535,-61.942 -105.237,-61.716 -104.956,-61.741C-102.467,-61.966 -100.23,-60.48 -97.796,-60.637C-95.456,-60.786 -93.465,-59.288 -91.155,-59.475C-90.978,-59.49 -90.737,-59.416 -90.614,-59.295C-88.938,-57.633 -86.607,-57.353 -84.6,-56.396C-83.808,-56.018 -83.069,-55.506 -82.362,-54.98C-79.814,-53.087 -76.654,-52.023 -74.857,-49.095C-74.085,-47.834 -72.853,-46.847 -71.786,-45.778C-70.992,-44.982 -70.49,-44.122 -70.33,-42.961C-70.179,-41.867 -69.67,-40.828 -69.383,-39.748C-69.195,-39.045 -68.96,-38.295 -69.029,-37.594C-69.334,-34.487 -69.638,-31.366 -70.85,-28.44C-71.173,-27.661 -71.494,-26.819 -72.04,-26.205C-73.676,-24.366 -75.287,-22.463 -77.166,-20.894C-78.779,-19.549 -80.767,-18.657 -82.556,-17.513C-84.7,-16.14 -86.828,-14.739 -88.916,-13.281C-89.261,-13.04 -89.449,-12.469 -89.556,-12.014C-89.936,-10.401 -90.51,-9.735 -92.15,-9.71C-93.524,-9.688 -94.904,-9.964 -96.279,-10.127C-97.315,-10.249 -98.344,-10.464 -99.383,-10.529C-103.105,-10.764 -106.216,-12.293 -108.528,-15.161C-109.148,-15.931 -109.229,-17.282 -109.237,-18.37C-109.263,-21.397 -108.397,-24.147 -106.373,-26.503C-105.077,-28.01 -103.892,-29.614 -102.705,-31.211C-101.599,-32.699 -101.849,-34.364 -102.776,-35.696C-104.489,-38.155 -106.922,-39.619 -110.009,-39.724C-111.356,-39.768 -112.771,-39.955 -114.042,-39.634C-116.596,-38.989 -119.318,-38.441 -121.511,-37.101C-123.631,-35.806 -125.682,-33.988 -126.416,-31.279C-126.552,-30.776 -126.992,-30.364 -127.219,-29.876C-127.633,-28.984 -128.202,-28.095 -128.326,-27.153C-128.521,-25.686 -128.391,-24.178 -128.416,-22.686C-128.421,-22.427 -128.443,-22.115 -128.585,-21.921C-129.011,-21.337 -129.067,-20.829 -128.544,-20.266C-128.378,-20.088 -128.293,-19.775 -128.281,-19.519C-128.228,-18.339 -128.453,-17.084 -128.122,-15.994C-127.744,-14.749 -126.883,-13.651 -126.233,-12.488C-126.03,-12.123 -125.694,-11.769 -125.654,-11.386C-125.454,-9.473 -123.917,-8.553 -122.756,-7.359C-122.246,-6.837 -121.436,-6.503 -121.141,-5.898C-120.488,-4.562 -119.255,-4.156 -118.105,-3.559C-117.767,-3.384 -117.448,-3.157 -117.146,-2.922C-116.282,-2.248 -115.441,-1.572 -114.215,-1.789C-113.961,-1.834 -113.643,-1.625 -113.38,-1.483C-113.076,-1.318 -112.826,-0.99 -112.51,-0.919C-110.131,-0.381 -107.76,0.392 -105.35,0.554C-101.655,0.803 -97.933,0.601 -94.222,0.638C-93.228,0.648 -92.229,0.951 -91.243,0.902C-90.259,0.855 -89.288,0.532 -88.311,0.335C-86.38,-0.054 -84.413,-0.314 -82.529,-0.86C-80.72,-1.386 -78.996,-2.206 -77.233,-2.891C-76.805,-3.057 -76.374,-3.31 -75.933,-3.339C-74.203,-3.449 -72.892,-4.345 -71.658,-5.439C-71.401,-5.667 -71.108,-5.894 -70.792,-6.006C-67.973,-6.993 -65.795,-9.027 -63.304,-10.549C-60.218,-12.433 -58.494,-15.661 -55.896,-18.03C-55.237,-18.632 -54.987,-19.661 -54.378,-20.341C-53.093,-21.773 -51.646,-23.059 -50.367,-24.497C-49.825,-25.106 -49.632,-26.017 -49.119,-26.662C-47.912,-28.179 -46.62,-29.628 -45.335,-31.081C-45.009,-31.449 -44.474,-31.659 -44.218,-32.058C-43.289,-33.507 -42.483,-35.035 -41.538,-36.472C-41.057,-37.204 -40.337,-37.775 -39.796,-38.474C-38.737,-39.843 -37.735,-41.255 -36.694,-42.638C-36.512,-42.88 -36.236,-43.052 -36.038,-43.284C-35.369,-44.071 -34.766,-44.921 -34.044,-45.654C-32.771,-46.947 -31.439,-48.183 -30.109,-49.419C-29.631,-49.863 -29.115,-50.28 -28.568,-50.636C-26.995,-51.66 -25.418,-52.681 -23.804,-53.638C-22.32,-54.517 -20.763,-55.271 -19.286,-56.161C-18.384,-56.706 -17.561,-57.246 -16.414,-57.243C-15.729,-57.241 -15.053,-57.732 -14.356,-57.949C-13.564,-58.196 -12.767,-58.468 -11.95,-58.578C-10.377,-58.79 -8.792,-58.948 -7.207,-59.033C-4.808,-59.162 -2.402,-59.208 0,-59.289L0,-40.411Z" style="fill:rgb(64,62,59);fill-rule:nonzero;"/>
                    </g>
                    <g transform="matrix(1,0,0,1,349.603,60.6232)">
                        <path d="M0,59.873C-0.484,59.615 -1.083,59.461 -1.433,59.08C-2.59,57.818 -3.496,57.515 -5.163,58.025C-5.386,58.093 -5.615,58.208 -5.837,58.198C-10.21,57.984 -14.317,59.54 -18.57,60.13C-21.499,60.536 -24.379,61.278 -27.302,61.744C-31.578,62.425 -35.874,62.989 -40.16,63.615C-40.695,63.693 -41.23,63.811 -41.75,63.963C-43.42,64.452 -45.038,64.87 -46.867,64.661C-47.992,64.532 -49.196,65.423 -50.402,65.602C-52.063,65.848 -53.762,65.823 -55.439,65.973C-56.55,66.072 -57.694,66.132 -58.748,66.456C-61.954,67.444 -65.28,67.189 -68.544,67.562C-71.421,67.892 -74.284,68.341 -77.165,68.626C-79.266,68.833 -81.386,68.836 -83.493,68.977C-85.499,69.111 -87.504,69.277 -89.503,69.485C-91.026,69.644 -92.555,70.144 -94.054,70.051C-99.265,69.729 -104.415,70.564 -109.553,70.994C-115.213,71.468 -120.869,71.321 -126.517,71.693C-129.439,71.886 -132.385,71.726 -135.318,71.778C-137.063,71.809 -138.805,72.014 -140.548,72.015C-143.439,72.018 -146.33,71.936 -149.221,71.857C-150.459,71.824 -151.707,71.792 -152.932,71.62C-155.646,71.237 -158.35,70.771 -161.057,70.329C-163.083,69.998 -165.471,67.294 -165.452,65.238C-165.422,62.061 -165.315,58.909 -164.458,55.786C-164.116,54.541 -164.559,53.058 -164.749,51.698C-164.872,50.822 -165.355,49.977 -165.382,49.109C-165.481,45.822 -165.503,42.531 -165.449,39.243C-165.438,38.556 -164.998,37.869 -164.722,37.196C-164.562,36.806 -164.269,36.462 -164.148,36.064C-163.291,33.215 -161.49,32.393 -158.64,33.34C-157.461,33.732 -156.155,33.644 -155.104,34.541C-153.403,35.99 -151.598,37.313 -149.887,38.75C-148.62,39.814 -147.49,41.044 -146.199,42.075C-144.078,43.767 -141.837,45.309 -139.718,47.002C-136.545,49.539 -132.904,50.432 -128.931,50.345C-126.873,50.301 -124.813,50.292 -122.756,50.328C-121.813,50.345 -121.166,50.033 -120.599,49.254C-119.501,47.749 -117.929,47.31 -116.283,47.908C-115.699,48.12 -115.332,48.365 -115.771,49.093C-116.345,50.044 -116.083,50.491 -114.949,50.523C-113.52,50.564 -112.088,50.535 -110.657,50.508C-107.671,50.451 -104.684,50.406 -101.698,50.3C-98.637,50.191 -95.573,50.072 -92.517,49.858C-87.582,49.512 -82.649,49.109 -77.722,48.67C-76.652,48.575 -75.615,48.108 -74.546,48.015C-71.997,47.791 -69.433,47.744 -66.885,47.514C-65.477,47.387 -64.095,46.981 -62.688,46.799C-60.615,46.53 -58.534,46.315 -56.451,46.144C-54.911,46.017 -53.427,45.936 -51.953,45.223C-50.976,44.749 -49.674,44.977 -48.53,44.807C-46.314,44.477 -44.11,44.071 -41.896,43.73C-41.139,43.614 -40.354,43.664 -39.604,43.52C-38.674,43.342 -37.778,42.993 -36.851,42.805C-35.57,42.547 -34.268,42.401 -32.986,42.15C-32.063,41.969 -31.157,41.696 -30.244,41.463C-30.207,41.454 -30.176,41.422 -30.14,41.413C-27.783,40.811 -25.425,40.219 -23.072,39.606C-22.409,39.433 -21.773,39.137 -21.104,39.009C-18.747,38.561 -16.615,37.37 -14.298,36.888C-12.868,36.591 -11.675,36.012 -10.625,35.135C-9.52,34.212 -8.33,33.577 -7.037,32.937C-5.598,32.227 -4.584,30.614 -3.462,29.326C-3.1,28.91 -3.09,28.19 -2.733,27.765C-1.082,25.792 -2.144,22.182 -3.59,21.053C-4.6,20.266 -5.864,19.672 -7.108,19.348C-9.268,18.785 -11.488,18.435 -13.701,18.111C-16.261,17.736 -18.832,17.408 -21.411,17.214C-22.868,17.105 -24.374,17.162 -25.812,17.406C-27.654,17.719 -29.299,16.367 -29.2,14.473C-29.02,11.036 -29.175,7.582 -29.14,4.136C-29.121,2.326 -29.007,0.516 -28.911,-1.294C-28.835,-2.723 -27.581,-3.707 -26.156,-3.701C-24.074,-3.692 -21.991,-3.818 -19.909,-3.894C-18.683,-3.938 -17.444,-3.905 -16.233,-4.07C-14.028,-4.371 -11.833,-4.761 -9.646,-5.182C-8.987,-5.309 -8.359,-5.633 -7.737,-5.913C-6.403,-6.513 -5.123,-7.272 -3.741,-7.718C-2.718,-8.049 -2.029,-8.418 -1.812,-9.554C-1.686,-10.223 -1.345,-10.878 -0.979,-11.463C-0.786,-11.773 -0.335,-11.923 0,-12.145L0,59.873Z" style="fill:rgb(64,62,59);fill-rule:nonzero;"/>
                    </g>
                    <g transform="matrix(1,0,0,1,349.603,181.575)">
                        <path d="M0,29.818C-0.838,29.707 -1.395,30.051 -2.02,30.656C-3.977,32.547 -5.722,34.805 -8.329,35.805C-9.954,36.428 -11.785,36.585 -13.543,36.775C-15.057,36.938 -16.597,36.863 -18.126,36.875C-19.943,36.888 -21.762,36.885 -23.579,36.88C-23.928,36.88 -24.294,36.755 -24.622,36.827C-27.653,37.49 -30.682,36.82 -33.708,36.855C-36.434,36.887 -39.154,37.219 -41.88,37.317C-43.065,37.359 -44.259,37.117 -45.451,37.056C-46.796,36.988 -48.145,36.947 -49.49,36.966C-49.889,36.972 -50.312,37.389 -50.675,37.329C-52.011,37.106 -53.337,37.611 -54.553,37.532C-56.476,37.406 -58.379,37.225 -60.317,37.324C-61.495,37.383 -62.685,37.183 -63.87,37.17C-64.587,37.162 -65.336,37.449 -66.016,37.318C-67.388,37.053 -68.686,37.22 -69.995,37.578C-70.074,37.599 -70.192,37.479 -70.464,37.332C-70.145,37.007 -69.92,36.616 -69.588,36.472C-68.121,35.839 -66.618,35.288 -65.14,34.683C-64.264,34.325 -63.412,33.91 -62.541,33.54C-61.838,33.24 -61.131,32.761 -60.41,32.732C-59.055,32.678 -58.131,31.92 -57.086,31.256C-56.294,30.754 -55.356,30.479 -54.479,30.114C-53.704,29.79 -52.87,29.572 -52.155,29.148C-49.274,27.443 -46.394,25.732 -43.586,23.911C-41.866,22.796 -39.967,22.014 -38.621,20.218C-37.604,18.86 -35.849,18.053 -34.418,17.006C-34.231,16.871 -33.98,16.805 -33.828,16.642C-31.954,14.652 -30.005,12.721 -28.254,10.628C-26.614,8.668 -27.413,6.736 -29.955,6.361C-31.365,6.153 -32.631,5.823 -33.819,4.954C-34.673,4.329 -36.147,4.224 -37.213,5.301C-39.023,7.13 -41.029,8.765 -42.946,10.489C-43.117,10.642 -43.297,10.824 -43.379,11.03C-43.854,12.229 -44.796,12.869 -45.899,13.464C-47.074,14.099 -48.061,15.075 -49.209,15.768C-50.834,16.75 -52.46,17.669 -53.808,19.075C-54.461,19.757 -55.565,20.001 -56.451,20.471C-58.663,21.645 -60.855,22.855 -63.076,24.009C-64.232,24.61 -65.435,25.122 -66.615,25.675C-67.032,25.871 -67.441,26.084 -67.863,26.269C-69.51,26.991 -71.157,27.711 -72.811,28.416C-73.019,28.505 -73.34,28.426 -73.481,28.559C-74.957,29.954 -76.895,30.049 -78.708,30.575C-80.973,31.23 -83.121,32.275 -85.359,33.033C-87.259,33.675 -89.201,34.204 -91.148,34.685C-94.452,35.501 -97.759,36.326 -101.099,36.97C-102.595,37.259 -104.174,37.122 -105.715,37.172C-105.905,37.178 -106.132,37.073 -106.282,37.145C-108.174,38.045 -110.072,37.478 -111.976,37.22C-112.303,37.176 -112.65,37.277 -112.988,37.314C-113.366,37.355 -113.769,37.508 -114.115,37.425C-115.449,37.105 -116.767,36.718 -118.086,36.34C-119.67,35.887 -121.255,35.436 -122.825,34.94C-123.13,34.843 -123.375,34.547 -123.637,34.331C-124.233,33.839 -124.753,33.181 -125.432,32.878C-126.735,32.295 -127.225,31.15 -127.794,30.022C-129.483,26.679 -128.902,23.16 -128.61,19.66C-128.58,19.291 -128.505,18.765 -128.704,18.565C-129.427,17.839 -129.026,17.339 -128.621,16.654C-128.044,15.678 -127.666,14.586 -127.188,13.549C-126.798,12.707 -126.483,11.808 -125.963,11.051C-124.734,9.264 -123.475,7.488 -122.08,5.831C-121.489,5.129 -120.563,4.678 -119.73,4.219C-117.883,3.2 -115.856,2.443 -114.164,1.218C-111.812,-0.482 -108.889,-0.694 -106.457,-2.131C-105.833,-2.499 -104.947,-2.403 -104.197,-2.587C-98.835,-3.902 -93.492,-5.333 -87.953,-5.696C-85.753,-5.84 -83.54,-5.869 -81.335,-5.821C-79.51,-5.781 -77.886,-6.044 -76.554,-7.452C-75.82,-8.227 -75.273,-8.031 -75.056,-6.964C-74.863,-6.024 -74.311,-5.884 -73.464,-5.844C-70.341,-5.699 -67.217,-5.518 -64.102,-5.25C-61.944,-5.065 -59.789,-4.785 -57.655,-4.416C-56.219,-4.169 -54.828,-3.671 -53.406,-3.327C-52.209,-3.036 -50.993,-2.821 -49.792,-2.544C-47.681,-2.06 -45.549,-1.641 -43.473,-1.034C-41.45,-0.442 -39.476,0.323 -37.5,1.064C-35.277,1.9 -33.079,2.799 -30.865,3.66C-30.506,3.799 -30.124,3.879 -29.756,3.996C-28.331,4.449 -26.665,4.587 -25.539,5.436C-23.708,6.82 -21.587,7.463 -19.614,8.464C-18.831,8.862 -17.965,9.098 -17.132,9.398C-16.877,9.49 -16.481,9.463 -16.368,9.634C-15.099,11.562 -12.744,11.495 -11,12.558C-9.502,13.472 -7.783,14.035 -6.14,14.696C-4.599,15.317 -3.033,15.88 -1.468,16.435C-0.998,16.601 -0.49,16.659 0,16.766L0,29.818Z" style="fill:rgb(180,154,127);fill-rule:nonzero;"/>
                    </g>
                    <g transform="matrix(1,0,0,1,349.603,-0.0001)">
                        <path d="M0,45.215C-1.131,45.125 -1.541,44.218 -1.91,43.385C-2.487,42.085 -3.364,41.172 -4.606,40.465C-6.821,39.202 -8.907,37.707 -11.15,36.502C-12.496,35.778 -14.064,35.481 -15.484,34.879C-17.235,34.138 -18.936,33.279 -20.658,32.471C-20.799,32.406 -20.937,32.288 -21.08,32.284C-23.089,32.224 -24.801,31.178 -26.653,30.608C-28.644,29.995 -30.779,29.678 -32.634,28.931C-34.408,28.216 -36.092,28.118 -37.862,27.882C-38.874,27.747 -39.811,27.119 -40.82,26.886C-42.493,26.499 -44.327,26.743 -45.794,25.569C-45.822,25.547 -45.867,25.541 -45.905,25.535C-49.438,25.027 -52.976,24.54 -56.504,23.995C-57.232,23.882 -57.926,23.549 -58.636,23.32C-59.144,23.156 -59.645,22.899 -60.163,22.853C-61.592,22.725 -63.036,22.754 -64.458,22.589C-65.442,22.475 -66.391,22.016 -67.374,21.931C-69.922,21.711 -72.483,21.642 -75.034,21.449C-75.875,21.385 -76.695,21.062 -77.537,20.972C-80.418,20.664 -83.3,20.364 -86.188,20.143C-90.167,19.838 -94.148,19.542 -98.136,19.368C-100.751,19.254 -103.378,19.321 -105.998,19.392C-107.068,19.421 -108.129,19.741 -109.202,19.81C-113.107,20.062 -117.015,20.323 -120.926,20.456C-122.587,20.513 -124.248,20.252 -125.753,21.257C-126.083,21.478 -126.576,21.451 -126.992,21.544C-129.395,22.081 -131.86,22.432 -134.175,23.224C-135.629,23.722 -136.98,24.742 -138.161,25.774C-140.376,27.708 -142.365,29.901 -144.576,31.84C-147.36,34.282 -150.273,36.577 -153.132,38.935C-153.312,39.083 -153.548,39.188 -153.673,39.37C-155.457,41.979 -158.158,41.375 -160.413,40.793C-162.07,40.364 -163.559,38.87 -163.926,36.824C-164.429,34.017 -164.399,31.218 -163.927,28.407C-163.554,26.185 -163.264,23.948 -162.959,21.715C-162.913,21.377 -162.901,20.986 -163.024,20.681C-164.245,17.652 -163.971,14.421 -164.271,11.277C-164.455,9.348 -163.31,7.862 -161.463,7.382C-159.57,6.891 -157.646,6.495 -155.718,6.175C-154.778,6.019 -153.792,6.091 -152.83,6.129C-148.546,6.299 -144.339,5.518 -140.095,5.175C-136.591,4.892 -133.058,4.904 -129.538,4.892C-126.837,4.883 -124.136,5.056 -121.435,5.115C-120.63,5.133 -119.823,5.026 -119.018,5.004C-118.52,4.991 -117.956,4.887 -117.531,5.074C-115.781,5.846 -113.957,5.521 -112.156,5.59C-111.395,5.62 -110.642,5.825 -109.881,5.919C-109.503,5.965 -109.117,5.941 -108.734,5.944C-108.067,5.952 -107.399,5.953 -106.732,5.964C-106.54,5.967 -106.344,6.025 -106.154,6.003C-103.052,5.653 -99.972,6.245 -96.872,6.264C-94.505,6.278 -92.149,7.03 -89.772,7.326C-88.442,7.493 -87.07,7.31 -85.732,7.442C-81.954,7.814 -78.18,8.232 -74.414,8.712C-73.351,8.847 -72.274,9.609 -71.287,9.474C-68.89,9.147 -66.754,10.096 -64.506,10.456C-61.298,10.968 -58.114,11.641 -54.911,12.188C-53.962,12.35 -52.944,12.18 -52.021,12.412C-50.527,12.787 -49.101,13.196 -47.51,13.306C-45.771,13.426 -44.092,14.411 -42.388,15.022C-42.316,15.048 -42.227,15.147 -42.189,15.128C-40.448,14.209 -39.239,16.046 -37.654,16C-36.608,15.969 -35.555,16.086 -34.743,16.904C-34.668,16.98 -34.52,17.054 -34.428,17.033C-31.843,16.438 -29.805,18.662 -27.286,18.416C-27.068,18.395 -26.749,18.438 -26.627,18.581C-25.672,19.688 -24.297,19.43 -23.098,19.773C-21.365,20.268 -19.689,20.972 -18.004,21.623C-16.79,22.091 -15.601,22.62 -14.397,23.116C-14.22,23.189 -14.028,23.278 -13.844,23.278C-12.473,23.279 -11.134,23.299 -10.164,24.542C-10.009,24.74 -9.507,24.655 -9.171,24.729C-8.384,24.9 -7.437,24.869 -6.851,25.312C-5.514,26.319 -4.098,25.855 -2.703,25.853C-2.462,25.852 -2.056,25.591 -2.005,25.382C-1.633,23.852 -1.073,22.305 -1.065,20.76C-1.052,17.974 -3.506,15.561 -6.246,15.296C-6.361,15.285 -6.526,15.226 -6.586,15.28C-8.037,16.606 -10.351,16.189 -11.668,17.838C-12.192,18.494 -12.98,18.932 -13.562,19.552C-14.359,20.403 -15.357,20.539 -16.202,19.986C-17.479,19.153 -18.912,19.147 -20.282,18.793C-20.975,18.613 -21.604,18.2 -22.293,17.99C-23.099,17.746 -23.932,17.569 -24.764,17.432C-26.423,17.159 -27.05,15.767 -25.988,14.459C-24.599,12.744 -23.105,11.114 -21.673,9.433C-21.271,8.962 -20.96,8.412 -20.546,7.952C-19.839,7.165 -19.09,6.415 -18.346,5.661C-17.868,5.176 -17.378,4.702 -16.875,4.244C-16.477,3.881 -16.071,3.518 -15.631,3.211C-14.081,2.128 -12.515,1.068 -10.954,0L0,0L0,45.215Z" style="fill:rgb(64,62,59);fill-rule:nonzero;"/>
                    </g>
                    <g transform="matrix(1,0,0,1,349.603,122.515)">
                        <path d="M0,23.386C-1.586,23.308 -3.214,23.428 -4.747,23.103C-6.884,22.652 -8.97,21.923 -11.042,21.21C-13.488,20.368 -15.269,18.419 -17.453,17.177C-19.281,16.138 -20.822,14.85 -22.289,13.423C-24.832,10.947 -27.505,8.572 -29.142,5.324C-29.245,5.118 -29.376,4.922 -29.517,4.739C-30.349,3.659 -30.109,2.849 -28.77,2.524C-27.116,2.123 -25.436,1.836 -23.775,1.464C-22.952,1.28 -22.154,0.985 -21.331,0.801C-20.854,0.694 -20.35,0.688 -19.856,0.678C-19.632,0.674 -19.358,0.876 -19.186,0.803C-17.209,-0.042 -16.354,1.489 -15.406,2.64C-14.117,4.204 -12.892,5.829 -10.99,6.68C-10.242,7.015 -9.379,7.28 -8.574,7.264C-6.953,7.231 -5.329,7.032 -3.722,6.794C-3.229,6.721 -2.807,6.252 -2.317,6.047C-1.561,5.73 -0.774,5.483 0,5.206L0,23.386Z" style="fill:rgb(64,62,59);fill-rule:nonzero;"/>
                    </g>
                    <g transform="matrix(1,0,0,1,349.603,315.39)">
                        <path d="M0,23.026C-0.929,22.779 -1.943,22.69 -2.768,22.248C-4.149,21.506 -5.494,20.642 -6.7,19.644C-8.479,18.173 -10.123,16.54 -11.823,14.974C-11.938,14.87 -12.093,14.779 -12.148,14.647C-12.908,12.873 -14.686,12.145 -15.999,10.952C-17.155,9.9 -20.176,9.979 -21.487,10.89C-23.192,12.073 -25.031,11.654 -26.01,9.829C-26.142,9.583 -26.195,9.219 -26.124,8.954C-25.724,7.463 -25.282,5.981 -24.833,4.504C-24.756,4.254 -24.602,4.007 -24.426,3.81C-21.554,0.574 -17.808,0 -13.762,0.292C-11.938,0.422 -10.273,1.064 -8.543,1.546C-5.778,2.317 -3.061,3.823 0,3.215L0,23.026Z" style="fill:rgb(64,62,59);fill-rule:nonzero;"/>
                    </g>
                    <g transform="matrix(1,0,0,1,349.603,156.478)">
                        <path d="M0,19.256C-0.357,18.913 -0.856,18.631 -1.041,18.212C-1.397,17.404 -1.651,16.532 -1.81,15.661C-1.981,14.718 -2.491,14.775 -3.29,14.713C-5.148,14.569 -6.529,15.338 -7.863,16.458C-9.34,17.699 -10.917,18.823 -12.372,20.087C-13.933,21.442 -15.308,21.384 -16.937,20.209C-18.283,19.237 -19.893,18.632 -21.389,17.871C-21.902,17.609 -22.499,17.453 -22.926,17.092C-23.839,16.32 -23.658,15.016 -22.748,14.3C-21.845,13.59 -21.063,12.726 -20.207,11.954C-18.895,10.771 -17.56,9.612 -16.24,8.437C-15.089,7.411 -13.914,6.407 -12.804,5.338C-10.183,2.815 -7.335,0.67 -3.817,-0.47C-3.358,-0.619 -3.015,-1.1 -2.561,-1.292C-1.729,-1.643 -0.856,-1.894 0,-2.186L0,19.256Z" style="fill:rgb(64,62,59);fill-rule:nonzero;"/>
                    </g>
                    <g transform="matrix(1,0,0,1,183.911,51.4417)">
                        <path d="M0,31.781C0,29.771 -0.093,27.756 0.024,25.752C0.151,23.589 0.181,21.348 0.803,19.309C1.333,17.568 1.446,15.9 1.337,14.173C1.283,13.345 0.792,12.547 0.726,11.718C0.437,8.175 -0.251,4.683 0.062,1.06C0.201,-0.54 0.65,-1.95 1.223,-3.297C2.52,-6.35 4.348,-7.185 7.786,-6.835C10.842,-6.523 13.387,-5.147 15.653,-3.177C16.575,-2.377 17.447,-1.518 18.31,-0.655C18.544,-0.42 18.664,-0.071 18.838,0.225C19.031,0.554 19.176,0.931 19.431,1.203C20.144,1.961 20.835,2.767 21.664,3.38C22.345,3.883 23.218,4.122 23.992,4.504C24.884,4.943 25.759,5.416 26.647,5.86C26.984,6.027 27.337,6.273 27.687,6.281C29.506,6.325 31.326,6.328 33.145,6.301C35.968,6.259 38.789,6.15 41.612,6.125C45.334,6.093 49.058,6.111 52.78,6.112C54.936,6.113 57.094,6.181 59.247,6.111C60.679,6.064 62.105,5.694 63.533,5.702C66.182,5.717 68.828,5.952 71.477,5.998C72.73,6.02 73.986,5.769 75.243,5.736C75.915,5.718 76.59,5.909 77.266,5.99C77.629,6.033 78.03,6.151 78.355,6.048C80.057,5.509 81.737,5.417 83.422,6.087C83.529,6.13 83.683,6.225 83.746,6.185C84.861,5.484 86.001,5.904 87.172,5.984C88.379,6.068 89.612,5.67 90.835,5.671C93.198,5.672 95.563,5.878 97.926,5.863C100.224,5.848 102.521,5.665 104.818,5.551C105.205,5.532 105.592,5.45 105.977,5.465C109.289,5.586 112.601,5.73 115.913,5.848C116.296,5.862 116.682,5.757 117.067,5.719C118.329,5.594 119.17,6.472 118.966,7.704C118.314,11.616 118.034,15.54 118.346,19.509C118.473,21.123 118.403,22.757 118.366,24.381C118.336,25.664 117.814,26.279 116.532,26.337C113.993,26.452 111.448,26.457 108.906,26.499C106.278,26.544 103.65,26.594 101.022,26.614C98.234,26.636 95.446,26.608 92.658,26.633C87.504,26.677 82.35,26.786 77.195,26.791C72.811,26.795 68.425,26.649 64.039,26.642C53.249,26.624 42.459,26.647 31.669,26.655C30.162,26.656 28.647,26.573 27.15,26.701C26.216,26.781 25.244,27.054 24.403,27.472C22.983,28.177 21.527,28.91 20.319,29.912C18.523,31.401 16.932,33.136 15.247,34.76C14.941,35.054 14.634,35.357 14.284,35.593C13.328,36.241 12.326,36.823 11.385,37.492C10.311,38.255 9.257,38.869 7.837,38.45C7.359,38.309 6.768,38.508 6.236,38.6C4.14,38.966 2.918,38.39 1.947,36.499C1.404,35.441 0.869,34.376 0.419,33.278C0.236,32.833 0.291,32.292 0.237,31.796L0,31.781Z" style="fill:rgb(64,62,59);fill-rule:nonzero;"/>
                    </g>
                    <g transform="matrix(1,0,0,1,306.447,46.0791)">
                        <path d="M0,40.024C-0.115,36.821 -0.291,33.619 -0.33,30.415C-0.381,26.35 -0.324,22.284 -0.303,18.218C-0.3,17.599 -0.131,16.962 -0.229,16.365C-0.713,13.404 -0.166,10.596 0.782,7.799C1.162,6.68 1.212,5.452 1.453,4.282C1.655,3.301 1.913,2.332 2.157,1.359C2.194,1.214 2.385,1.056 2.353,0.951C1.717,-1.09 3.367,-2.597 3.647,-4.453C3.88,-5.991 4.923,-7.4 5.571,-8.882C6.015,-9.896 6.533,-10.907 6.779,-11.974C7.334,-14.377 9.924,-15.439 11.962,-14.09C12.636,-13.644 13.517,-13.517 14.295,-13.222C15.615,-12.72 16.958,-12.262 18.233,-11.662C18.841,-11.376 18.796,-10.907 18.233,-10.387C17.796,-9.983 17.581,-9.331 17.288,-8.779C17.11,-8.445 16.973,-8.09 16.815,-7.745C16.582,-7.232 16.344,-6.721 16.113,-6.206C16.02,-5.997 16.001,-5.672 15.846,-5.587C14.561,-4.881 14.591,-3.646 14.363,-2.423C14.098,-1.002 13.349,0.334 13.123,1.757C12.771,3.98 11.164,5.883 11.613,8.32C11.749,9.057 11.489,9.981 11.13,10.673C10.078,12.7 10.118,14.856 10.104,17.028C10.083,20.203 10.004,23.378 10.011,26.553C10.015,28.833 9.973,31.128 10.218,33.387C10.463,35.643 11.103,37.854 11.445,40.103C11.643,41.395 11.561,42.726 11.663,44.035C11.776,45.474 11.663,46.933 12.543,48.263C12.992,48.942 13.146,49.86 13.282,50.695C13.644,52.908 12.365,54.449 9.901,54.775C8.025,55.024 6.14,55.2 4.256,55.377C3.336,55.463 2.016,54.389 1.922,53.463C1.669,50.957 1.517,48.439 1.203,45.941C1.016,44.451 0.592,42.993 0.291,41.517C0.19,41.027 0.143,40.526 0.07,40.03L0,40.024Z" style="fill:rgb(64,62,59);fill-rule:nonzero;"/>
                    </g>
                </g>
            </g>
        </g>
        <g id="Layer-12" serif:id="Layer 1">
        </g>
    </g>
</svg>
