<?xml version="1.0" encoding="UTF-8" standalone="no"?>
<!DOCTYPE svg PUBLIC "-//W3C//DTD SVG 1.1//EN" "http://www.w3.org/Graphics/SVG/1.1/DTD/svg11.dtd">
<svg width="100%" height="100%" viewBox="0 0 80 80" version="1.1" xmlns="http://www.w3.org/2000/svg" xmlns:xlink="http://www.w3.org/1999/xlink" xml:space="preserve" xmlns:serif="http://www.serif.com/" style="fill-rule:evenodd;clip-rule:evenodd;stroke-linejoin:round;stroke-miterlimit:2;">
    <g transform="matrix(1,0,0,1,-2530,0)">
        <g id="inlet" transform="matrix(1,0,0,1,2415,0)">
            <rect x="115" y="0" width="80" height="80" style="fill:white;"/>
            <clipPath id="_clip1">
                <rect x="115" y="0" width="80" height="80"/>
            </clipPath>
            <g clip-path="url(#_clip1)">
                <g transform="matrix(1.03293,0,0,1.02475,-427.612,-49.1168)">
                    <rect x="525.312" y="47.931" width="77.449" height="78.068" style="fill:rgb(50,165,116);"/>
                </g>
                <g transform="matrix(0.456635,0,0,0.456635,-130.382,2.49198)">
                    <g transform="matrix(51.7764,0,0,51.7764,546.721,101.746)">
                        <path d="M0.263,-0.677L0.263,-0.725C0.263,-0.737 0.269,-0.747 0.282,-0.756C0.296,-0.765 0.309,-0.77 0.322,-0.77C0.335,-0.77 0.348,-0.765 0.361,-0.756C0.374,-0.747 0.381,-0.737 0.381,-0.725L0.381,-0.677C0.381,-0.665 0.374,-0.655 0.361,-0.646C0.348,-0.637 0.335,-0.632 0.322,-0.632C0.309,-0.632 0.296,-0.637 0.282,-0.646C0.269,-0.655 0.263,-0.665 0.263,-0.677ZM0.125,-0.467L0.125,-0.536L0.366,-0.536L0.366,-0.068L0.52,-0.068L0.52,-0L0.107,-0L0.107,-0.068L0.277,-0.068L0.277,-0.467L0.125,-0.467Z" style="fill:rgb(188,188,188);fill-rule:nonzero;"/>
                    </g>
                    <g transform="matrix(51.7764,0,0,51.7764,577.792,101.746)">
                        <path d="M0.348,-0.552C0.459,-0.552 0.515,-0.481 0.515,-0.341L0.515,-0L0.426,-0L0.426,-0.33C0.426,-0.368 0.424,-0.395 0.42,-0.411C0.416,-0.427 0.41,-0.441 0.402,-0.451C0.386,-0.473 0.359,-0.483 0.321,-0.483C0.283,-0.483 0.25,-0.472 0.224,-0.45C0.198,-0.428 0.185,-0.399 0.185,-0.362L0.185,-0L0.096,-0L0.096,-0.536L0.177,-0.536L0.182,-0.478C0.218,-0.527 0.273,-0.552 0.348,-0.552Z" style="fill:rgb(188,188,188);fill-rule:nonzero;"/>
                    </g>
                    <g transform="matrix(51.7764,0,0,51.7764,608.863,101.746)">
                        <path d="M0.507,-0L0.437,-0C0.374,-0 0.329,-0.007 0.302,-0.02C0.286,-0.027 0.274,-0.036 0.265,-0.045C0.241,-0.07 0.228,-0.126 0.227,-0.211L0.227,-0.696L0.067,-0.696L0.067,-0.764L0.316,-0.764L0.316,-0.216C0.316,-0.151 0.322,-0.111 0.334,-0.097C0.346,-0.082 0.361,-0.074 0.378,-0.072C0.396,-0.069 0.415,-0.068 0.433,-0.068L0.512,-0.068L0.507,-0Z" style="fill:rgb(188,188,188);fill-rule:nonzero;"/>
                    </g>
                    <g transform="matrix(51.7764,0,0,51.7764,639.934,101.746)">
                        <path d="M0.2,-0.025C0.162,-0.05 0.135,-0.084 0.116,-0.126C0.098,-0.168 0.089,-0.215 0.089,-0.269C0.089,-0.322 0.098,-0.369 0.115,-0.411C0.131,-0.454 0.156,-0.488 0.19,-0.513C0.223,-0.539 0.26,-0.552 0.3,-0.552C0.375,-0.552 0.431,-0.526 0.466,-0.475C0.501,-0.423 0.519,-0.359 0.519,-0.284L0.519,-0.254L0.179,-0.254C0.181,-0.199 0.195,-0.152 0.22,-0.114C0.246,-0.075 0.284,-0.056 0.335,-0.056C0.37,-0.059 0.417,-0.078 0.479,-0.112L0.508,-0.051C0.465,-0.009 0.408,0.012 0.334,0.012C0.282,0.012 0.237,-0 0.2,-0.025ZM0.434,-0.319C0.427,-0.429 0.389,-0.483 0.318,-0.483C0.239,-0.483 0.194,-0.429 0.182,-0.319L0.434,-0.319Z" style="fill:rgb(188,188,188);fill-rule:nonzero;"/>
                    </g>
                    <g transform="matrix(51.7764,0,0,51.7764,671.005,101.746)">
                        <path d="M0.285,-0.467L0.285,-0.216C0.285,-0.185 0.286,-0.16 0.29,-0.142C0.293,-0.123 0.3,-0.109 0.31,-0.097C0.321,-0.086 0.334,-0.078 0.35,-0.074C0.366,-0.07 0.389,-0.068 0.417,-0.068L0.515,-0.068L0.51,-0L0.42,-0C0.328,-0 0.266,-0.017 0.236,-0.051C0.216,-0.073 0.204,-0.109 0.199,-0.158C0.197,-0.18 0.196,-0.206 0.196,-0.238L0.196,-0.467L0.044,-0.467L0.054,-0.536L0.196,-0.536L0.196,-0.72L0.285,-0.747L0.285,-0.536L0.51,-0.536L0.51,-0.467L0.285,-0.467Z" style="fill:rgb(188,188,188);fill-rule:nonzero;"/>
                    </g>
                </g>
            </g>
        </g>
    </g>
</svg>
