<?xml version="1.0" encoding="UTF-8" standalone="no"?>
<!DOCTYPE svg PUBLIC "-//W3C//DTD SVG 1.1//EN" "http://www.w3.org/Graphics/SVG/1.1/DTD/svg11.dtd">
<svg width="100%" height="100%" viewBox="0 0 80 80" version="1.1" xmlns="http://www.w3.org/2000/svg" xmlns:xlink="http://www.w3.org/1999/xlink" xml:space="preserve" xmlns:serif="http://www.serif.com/" style="fill-rule:evenodd;clip-rule:evenodd;stroke-linejoin:round;stroke-miterlimit:2;">
    <rect id="mainstay" x="0" y="0" width="80" height="80" style="fill:none;"/>
    <g id="mainstay1" serif:id="mainstay">
        <g>
            <rect x="0" y="0" width="80" height="80" style="fill:url(#_Linear1);"/>
            <g transform="matrix(0.161579,0,0,0.161579,28.9116,33.5965)">
                <path d="M0,128.83C0.531,128.553 0.697,128.507 0.807,128.402C4.164,125.231 6.384,121.434 7.263,116.863C7.456,115.86 7.939,114.912 8.301,113.943C8.717,112.826 9.355,111.745 9.525,110.594C9.859,108.322 10.106,106.011 10.072,103.72C10.037,101.378 10.863,99.694 12.353,97.857C15.917,93.464 17.157,89.432 13.542,84.797C11.261,81.873 10.991,78.353 11.147,74.772C11.197,73.65 11.274,72.433 10.911,71.411C10.394,69.957 10.266,68.607 10.485,67.086C10.583,66.407 9.933,65.573 9.484,64.902C9.393,64.766 8.397,64.925 8.303,65.149C7.727,66.532 7.205,67.95 6.824,69.398C6.051,72.341 5.302,75.294 4.697,78.273C4.376,79.858 4.453,81.52 4.212,83.127C3.928,85.019 3.313,86.875 3.172,88.771C2.986,91.271 3.217,93.8 3.094,96.307C2.979,98.633 2.638,100.947 2.389,103.266C1.938,107.451 1.513,111.64 1.017,115.819C0.638,119.009 0.11,122.182 -0.236,125.374C-0.35,126.418 -0.103,127.502 0,128.83M127.518,9.748C126.503,10.446 125.191,10.964 124.489,11.927C123.589,13.161 123.211,14.767 122.556,16.188C120.933,19.704 118.981,23.103 117.715,26.742C116.147,31.248 113.735,35.494 113.576,40.494C113.467,43.901 112.736,47.289 112.29,50.685C112.268,50.846 112.329,51.016 112.319,51.178C112.159,53.898 112.05,56.622 111.814,59.336C111.595,61.838 111.269,64.331 110.932,66.821C110.588,69.36 110.368,71.938 109.74,74.411C108.948,77.535 107.706,80.543 106.842,83.653C106.383,85.307 106.056,87.079 106.133,88.777C106.233,91.001 106.659,93.238 107.204,95.404C107.521,96.66 108.163,97.938 108.982,98.942C111.053,101.477 113.353,103.824 115.471,106.323C116.628,107.688 117.425,109.392 118.696,110.621C121.326,113.166 123.952,115.812 126.971,117.831C130.393,120.118 132.59,120.031 135.459,117.451C135.778,117.165 136.141,116.848 136.537,116.74C139.737,115.872 142.093,113.623 143.918,111.198C145.929,108.528 149.007,107.528 151.262,105.321C152.794,103.82 154.831,102.838 156.634,101.611C158.849,100.105 161.126,98.679 163.248,97.049C165.588,95.252 167.894,93.379 170.005,91.323C171.712,89.663 173.122,87.693 174.636,85.839C175.294,85.032 175.902,84.183 176.502,83.331C177.942,81.29 179.307,79.192 180.807,77.196C182.839,74.49 185.034,71.904 187.042,69.182C189.792,65.455 192.792,61.895 194.693,57.59C195.161,56.532 194.962,55.977 194.302,55.142C192.396,52.735 189.556,51.659 187.193,49.912C183.718,47.344 180.151,44.897 176.727,42.263C174.308,40.4 172.066,38.306 169.736,36.326C168.402,35.193 167.062,34.067 165.704,32.964C163.309,31.017 161.133,28.612 158.43,27.287C155.618,25.907 153.573,23.583 150.685,22.272C146.938,20.572 143.647,17.877 140.13,15.658C138.705,14.758 137.251,13.874 135.72,13.177C133.137,12 130.484,10.977 127.518,9.748M-18.93,287.187C-19.473,282.787 -19.971,278.38 -20.61,273.993C-20.701,273.373 -21.371,272.686 -21.954,272.314C-25.233,270.22 -28.572,268.22 -31.879,266.17C-33.933,264.897 -34.487,262.997 -34.402,260.66C-34.279,257.247 -34.438,253.825 -34.387,250.408C-34.323,246.096 -34.179,241.783 -34.05,237.472C-33.994,235.628 -33.862,233.787 -33.811,231.943C-33.704,228.076 -33.69,224.205 -33.521,220.341C-33.36,216.678 -32.992,213.023 -32.824,209.36C-32.699,206.626 -32.797,203.882 -32.689,201.146C-32.652,200.185 -32.304,199.236 -32.087,198.284C-31.991,197.861 -31.792,197.447 -31.771,197.023C-31.574,193.284 -31.457,189.539 -31.219,185.803C-30.936,181.34 -30.401,176.888 -30.262,172.422C-30.121,167.904 -30.344,163.376 -30.37,158.852C-30.374,158.156 -30.112,157.461 -30.081,156.76C-30.016,155.251 -30.035,153.738 -29.992,152.227C-29.954,150.865 -29.875,149.505 -29.818,148.143C-29.586,142.503 -29.447,136.856 -29.097,131.223C-28.811,126.598 -28.009,121.994 -27.921,117.371C-27.825,112.263 -25.745,107.638 -24.983,102.707C-24.026,96.509 -22.757,90.358 -21.842,84.154C-21.511,81.909 -21.903,79.565 -21.802,77.273C-21.704,75.05 -21.271,72.838 -21.208,70.614C-21.116,67.323 -21.292,64.025 -21.223,60.733C-21.143,56.916 -20.831,53.102 -20.781,49.285C-20.666,40.468 -20.647,31.65 -20.59,22.833C-20.565,19.056 -20.545,15.278 -20.514,11.501C-20.512,11.175 -20.443,10.85 -20.402,10.524C-20.126,8.313 -19.921,6.089 -19.552,3.893C-19.136,1.416 -18.557,-1.032 -18.081,-3.499C-17.875,-4.566 -17.854,-5.676 -17.568,-6.717C-16.719,-9.816 -16.255,-13.157 -14.727,-15.892C-13.487,-18.11 -10.949,-19.616 -8.942,-21.388C-7.009,-23.095 -5.155,-24.945 -3.016,-26.351C-0.704,-27.869 1.819,-29.148 4.399,-30.144C6.252,-30.859 8.387,-30.811 10.327,-31.352C11.375,-31.644 12.557,-32.243 13.193,-33.075C14.914,-35.325 15.834,-37.9 15.766,-40.846C15.635,-46.481 14.939,-52.13 15.962,-57.754C15.981,-57.86 15.981,-57.973 15.977,-58.082C15.791,-62.49 15.519,-66.897 15.44,-71.307C15.376,-74.906 15.549,-78.508 15.604,-82.109C15.651,-85.168 15.623,-88.229 15.734,-91.284C15.829,-93.906 16.162,-96.52 16.232,-99.141C16.343,-103.327 16.263,-107.518 16.385,-111.702C16.447,-113.834 16.769,-115.957 16.983,-118.084C17.231,-120.539 17.443,-123 17.754,-125.447C18.224,-129.143 19.621,-132.466 21.679,-135.587C23.2,-137.894 24.461,-140.381 25.728,-142.844C27.693,-146.666 29.978,-150.129 34.054,-152.067C36.896,-153.419 39.51,-155.436 42.475,-156.289C46.094,-157.329 49.834,-158.357 53.759,-157.92C56.315,-157.636 58.906,-157.628 61.483,-157.589C66.894,-157.508 71.611,-155.186 76.116,-152.647C78.475,-151.316 80.216,-148.882 82.223,-146.934C86.103,-143.166 88.704,-138.577 90.766,-133.636C92.234,-130.121 93.843,-126.662 95.207,-123.108C95.922,-121.241 96.151,-119.194 96.766,-117.282C98.065,-113.246 98.339,-109.068 98.881,-104.903C99.508,-100.097 100.751,-95.372 101.735,-90.614C103.099,-84.017 104.692,-77.459 105.771,-70.816C106.606,-65.673 108.747,-61.147 110.963,-56.558C111.801,-54.821 112.062,-52.791 112.48,-50.871C112.943,-48.75 113.126,-46.553 113.751,-44.486C114.034,-43.55 114.937,-42.587 115.815,-42.079C121.272,-38.923 126.802,-35.893 132.307,-32.818C132.642,-32.631 132.962,-32.419 133.297,-32.231C135.723,-30.868 138.236,-29.637 140.558,-28.117C143.988,-25.872 147.359,-23.522 150.614,-21.033C154.171,-18.313 157.573,-15.389 161.035,-12.544C161.881,-11.849 162.687,-11.105 163.532,-10.406C165.504,-8.775 167.51,-7.182 169.46,-5.524C170.242,-4.86 170.92,-4.073 171.634,-3.332C171.9,-3.057 172.075,-2.638 172.389,-2.477C175.743,-0.764 178.414,1.814 181.221,4.246C182.648,5.483 184.5,6.219 185.993,7.393C188.316,9.222 190.495,11.233 192.737,13.165C196.396,16.318 200.104,19.418 203.702,22.64C206.226,24.901 208.584,27.349 211.051,29.676C212.806,31.332 214.639,32.907 216.405,34.553C218.922,36.898 221.428,39.257 223.907,41.644C225.903,43.566 228.2,45.3 229.728,47.549C231.482,50.13 232.972,53.078 233.713,56.079C234.106,57.667 233.079,60.025 231.965,61.478C229.622,64.536 226.845,67.272 224.158,70.055C222.143,72.142 220.028,74.138 217.885,76.095C215.907,77.902 213.812,79.583 211.804,81.36C209.718,83.207 207.703,85.134 205.602,86.964C204.37,88.039 202.995,88.949 201.751,90.014C200.131,91.402 198.536,92.826 197.005,94.314C193.899,97.333 190.859,100.42 187.755,103.442C187.175,104.007 186.403,104.369 185.761,104.879C184.525,105.861 183.318,106.881 182.099,107.887C181.551,108.339 181.042,108.845 180.455,109.238C177.19,111.429 173.938,113.641 170.621,115.75C168.103,117.351 165.471,118.774 162.937,120.352C161.594,121.188 160.381,122.23 159.058,123.101C156.366,124.869 153.604,126.533 150.933,128.332C147.359,130.739 143.874,133.277 140.293,135.674C137.759,137.371 135.158,138.972 132.533,140.526C131.173,141.332 130.333,142.824 130.556,144.717C130.697,145.914 130.842,147.134 131.207,148.273C131.436,148.989 131.95,149.75 132.555,150.184C134.021,151.231 135.57,152.188 137.168,153.02C139.646,154.309 141.179,156.469 142.165,158.87C142.958,160.802 143.237,163.01 143.365,165.118C143.418,166.017 142.66,167.107 141.998,167.877C141.005,169.03 139.624,169.861 138.702,171.057C138.178,171.735 137.929,172.93 138.1,173.783C138.589,176.228 139.36,178.618 140.013,181.032C140.911,184.35 142.121,187.623 142.62,191.001C143.296,195.584 143.495,200.243 143.768,204.878C143.942,207.827 143.917,210.79 143.917,213.747C143.916,218.059 143.917,222.374 143.804,226.684C143.713,230.175 143.336,233.66 143.312,237.148C143.298,239.146 143.627,241.166 143.992,243.142C144.835,247.718 145.827,252.267 146.689,256.84C146.981,258.392 146.84,260.051 147.282,261.547C149.691,269.723 151.022,278.077 151.695,286.553C151.712,286.767 151.793,286.976 151.845,287.187L-18.93,287.187Z" style="fill:rgb(208,208,208);fill-rule:nonzero;"/>
            </g>
        </g>
    </g>
    <g id="Layer-1" serif:id="Layer 1">
    </g>
    <defs>
        <linearGradient id="_Linear1" x1="0" y1="0" x2="1" y2="0" gradientUnits="userSpaceOnUse" gradientTransform="matrix(4.89859e-15,-80,80,4.89859e-15,40,80)"><stop offset="0" style="stop-color:rgb(128,163,173);stop-opacity:1"/><stop offset="1" style="stop-color:rgb(40,119,143);stop-opacity:1"/></linearGradient>
    </defs>
</svg>
