<?xml version="1.0" encoding="UTF-8" standalone="no"?>
<!DOCTYPE svg PUBLIC "-//W3C//DTD SVG 1.1//EN" "http://www.w3.org/Graphics/SVG/1.1/DTD/svg11.dtd">
<svg width="100%" height="100%" viewBox="0 0 80 80" version="1.1" xmlns="http://www.w3.org/2000/svg" xmlns:xlink="http://www.w3.org/1999/xlink" xml:space="preserve" xmlns:serif="http://www.serif.com/" style="fill-rule:evenodd;clip-rule:evenodd;stroke-linejoin:round;stroke-miterlimit:2;">
    <g transform="matrix(1,0,0,1,-1725,-93.4511)">
        <g id="Layer-1" serif:id="Layer 1">
        </g>
        <g id="Layer-11" serif:id="Layer 1">
        </g>
        <g id="Layer-12" serif:id="Layer 1">
        </g>
        <g id="Layer-13" serif:id="Layer 1">
        </g>
        <g id="walkc" transform="matrix(1,0,0,1,1610,93.4511)">
            <rect x="115" y="0" width="80" height="80" style="fill:none;"/>
            <clipPath id="_clip1">
                <rect x="115" y="0" width="80" height="80"/>
            </clipPath>
            <g clip-path="url(#_clip1)">
                <g id="Isolation-Mode" serif:id="Isolation Mode" transform="matrix(0.138278,0,0,0.138278,140.08,10.6158)">
                    <g transform="matrix(7.2318,0,0,7.2318,-12656.2,-752.591)">
                        <rect x="1725" y="93.451" width="80" height="80" style="fill:rgb(58,58,58);"/>
                    </g>
                    <g transform="matrix(1.16977,0,0,1.16977,78.6255,244.881)">
                        <path d="M0,-55.829C0.141,-61.776 0.328,-70.251 0.548,-78.725C0.721,-85.352 0.861,-91.98 1.154,-98.602C1.391,-103.968 1.75,-109.331 2.236,-114.68C2.369,-116.144 2.875,-117.733 3.685,-118.948C6.719,-123.502 8.204,-128.625 9.728,-133.784C11.157,-138.623 12.816,-143.4 14.541,-148.144C15.145,-149.804 16.075,-151.415 17.161,-152.811C18.679,-154.762 19.453,-156.882 19.989,-159.274C21.25,-164.901 22.838,-170.446 26.585,-175.058C26.858,-175.395 27.058,-175.838 27.401,-176.065C29.536,-177.479 29.488,-179.524 28.886,-181.588C28.295,-183.615 27.596,-185.642 26.659,-187.528C25.571,-189.716 23.384,-190.427 21.127,-190.809C19.575,-191.072 17.992,-191.164 16.449,-191.466C14.175,-191.911 13.389,-192.761 13.111,-195.036C12.775,-197.786 12.5,-200.544 12.246,-203.304C12.097,-204.915 11.396,-205.982 9.842,-206.646C6.657,-208.009 6.459,-209.725 9.118,-211.887C9.625,-212.298 10.104,-212.748 10.642,-213.113C13.259,-214.883 14.011,-217.333 13.456,-220.358C12.715,-224.398 13.661,-228.025 16.375,-231.138C17.222,-232.108 17.499,-233.139 17.334,-234.434C16.968,-237.319 17.485,-238.1 20.228,-239.033C25.016,-240.663 29.844,-240.389 34.685,-239.262C43.647,-237.175 51.512,-233.228 57.562,-226.062C59.718,-223.507 60.926,-220.597 61.221,-217.345C61.737,-211.655 61.199,-206.034 59.337,-200.616C58.839,-199.167 57.993,-197.722 56.955,-196.6C54.677,-194.141 53.743,-191.531 54.939,-188.27C56.397,-184.297 57.442,-180.131 59.295,-176.357C60.527,-173.851 62.773,-171.805 64.723,-169.699C67.88,-166.291 70.662,-162.702 72.598,-158.403C74.537,-154.102 76.909,-149.994 79.141,-145.829C80.567,-143.17 81.157,-140.342 81.149,-137.355C81.137,-132.626 80.982,-127.891 81.174,-123.17C81.391,-117.859 81.921,-112.562 82.326,-107.26C82.433,-105.852 82.549,-104.445 82.714,-103.043C83.323,-97.883 84.047,-92.734 84.55,-87.563C85.07,-82.212 85.59,-76.847 85.74,-71.478C86.006,-61.917 86.043,-52.349 86.084,-42.783C86.127,-32.787 86.062,-22.79 86.042,-12.794C86.042,-12.359 86.024,-11.925 86,-11.49C85.919,-10.07 85.221,-9.398 83.762,-9.658C83.121,-9.772 82.482,-9.915 81.835,-9.995C80.094,-10.211 79.685,-9.855 79.622,-8.125C79.615,-7.962 79.609,-7.798 79.617,-7.636C79.717,-5.287 79.31,-3.102 77.747,-1.223C76.677,0.065 76.982,1.323 77.843,2.66C78.688,3.971 79.612,4.85 81.289,4.449C81.603,4.374 81.989,4.259 82.25,4.372C83,4.697 84.058,4.973 84.324,5.568C84.581,6.142 84.252,7.384 83.743,7.818C82.098,9.221 80.233,10.361 78.489,11.651C76.795,12.903 75.058,14.122 73.541,15.567C73.163,15.927 73.286,17.266 73.649,17.872C75.208,20.479 76.363,23.22 76.698,26.232C77.077,29.624 77.501,33.035 77.515,36.441C77.537,41.395 78.814,45.784 81.714,49.856C84.825,54.222 86.691,59.252 88.354,64.317C90.181,69.885 92.099,75.441 93.545,81.111C95.099,87.205 96.069,93.444 97.441,99.588C98.989,106.517 100.642,113.424 102.359,120.314C104.064,127.155 106.047,133.93 107.641,140.796C108.865,146.067 109.751,151.422 110.622,156.766C110.933,158.678 110.897,160.677 110.778,162.622C110.404,168.719 111.471,174.637 112.841,180.518C113.819,184.713 113.764,184.834 109.456,184.818C104.726,184.801 99.997,184.814 95.268,184.763C92.751,184.736 92.291,184.342 92.198,181.833C92.135,180.156 91.451,179.363 89.815,179.613C87.842,179.916 85.864,180.251 83.935,180.752C81.047,181.502 78.195,182.39 75.338,183.253C70.82,184.618 66.64,183.123 62.484,181.692C57.762,180.067 53.006,178.489 48.43,176.511C45.743,175.35 43.301,173.553 40.893,171.84C39.558,170.891 39.395,169.396 40.227,167.888C41.038,166.419 42.261,166.131 43.824,166.408C48.309,167.202 52.794,168.013 57.302,168.661C63.381,169.536 68.003,166.674 72.009,162.526C72.474,162.047 72.643,161.149 72.695,160.426C72.996,156.252 73.25,152.075 73.45,147.897C73.5,146.823 73.285,145.738 73.222,144.657C73.125,142.992 72.66,141.226 73.051,139.68C73.994,135.962 73.02,132.661 71.828,129.217C68.559,119.775 65.448,110.281 63.367,100.479C61.676,92.516 59.961,84.551 57.939,76.669C56.51,71.102 54.527,65.679 52.833,60.178C51.043,54.369 49.388,48.517 47.515,42.735C45.926,37.829 43.743,33.089 42.483,28.109C40.676,20.967 39.464,13.675 38.017,6.442C37.847,5.592 38.018,4.59 37.622,3.891C37.167,3.087 36.255,2.543 35.542,1.886C35.078,2.444 34.376,2.934 34.189,3.573C33.013,7.586 31.985,11.642 30.827,15.66C30.564,16.569 30.175,17.587 29.519,18.215C23.427,24.044 20.315,31.572 17.47,39.234C16.455,41.966 15.66,44.799 15.008,47.642C13.818,52.829 11.591,57.579 9.359,62.364C5.249,71.176 1.321,80.072 -2.693,88.929C-4.734,93.432 -6.886,97.887 -8.831,102.43C-12.206,110.318 -15.368,118.299 -18.794,126.164C-21.547,132.486 -24.422,138.763 -27.502,144.93C-29.421,148.774 -30.152,152.833 -30.667,156.983C-30.935,159.153 -31.215,159.443 -33.306,159.078C-38.112,158.238 -42.919,157.399 -47.732,156.597C-49.223,156.348 -50.029,155.603 -50.212,154.055C-50.582,150.925 -50.792,150.891 -53.957,150.644C-58.776,150.268 -63.582,149.731 -68.392,149.249C-72.831,148.805 -76.28,146.316 -79.635,143.696C-84.17,140.154 -88.908,136.813 -93.065,132.865C-96.337,129.758 -98.918,125.905 -101.69,122.296C-102.637,121.063 -102.754,119.539 -101.677,118.205C-100.576,116.842 -99.165,117.095 -97.811,117.692C-96.375,118.327 -94.981,119.066 -93.592,119.801C-86.293,123.669 -78.425,125.589 -70.311,126.742C-66.233,127.322 -62.819,126.111 -59.837,123.394C-55.328,119.286 -50.985,115.029 -48.004,109.62C-43.838,102.062 -39.409,94.626 -35.702,86.847C-33.723,82.695 -32.795,77.983 -31.804,73.435C-30.383,66.913 -29.456,60.286 -28.095,53.75C-27.122,49.079 -25.806,44.479 -24.603,39.858C-23.083,34.025 -21.601,28.179 -19.934,22.388C-19.386,20.486 -18.419,18.678 -17.447,16.937C-16.497,15.234 -15.409,13.579 -14.179,12.069C-11.692,9.016 -11.153,5.303 -10.275,1.664C-8.814,-4.386 -7.336,-10.411 -4.793,-16.166C-2.874,-20.511 -1.608,-25.146 -0.112,-29.673C0.101,-30.316 -0.004,-31.073 -0.004,-31.777C0.002,-38.952 0,-46.126 0,-55.829" style="fill:rgb(227,227,227);fill-rule:nonzero;"/>
                    </g>
                </g>
            </g>
        </g>
    </g>
</svg>
