<?xml version="1.0" encoding="UTF-8" standalone="no"?>
<!DOCTYPE svg PUBLIC "-//W3C//DTD SVG 1.1//EN" "http://www.w3.org/Graphics/SVG/1.1/DTD/svg11.dtd">
<svg width="100%" height="100%" viewBox="0 0 80 80" version="1.1" xmlns="http://www.w3.org/2000/svg" xmlns:xlink="http://www.w3.org/1999/xlink" xml:space="preserve" xmlns:serif="http://www.serif.com/" style="fill-rule:evenodd;clip-rule:evenodd;stroke-linejoin:round;stroke-miterlimit:2;">
    <g transform="matrix(1,0,0,1,-1380,0)">
        <g id="Layer-1" serif:id="Layer 1">
        </g>
        <g id="Layer-11" serif:id="Layer 1">
        </g>
        <g id="Layer-12" serif:id="Layer 1">
        </g>
        <g id="soft" transform="matrix(1,0,0,1,1265,0)">
            <rect x="115" y="0" width="80" height="80" style="fill:white;"/>
            <g transform="matrix(0.886574,0,0,0.886574,-1104.04,4.53123)">
                <g id="Layer-13" serif:id="Layer 1">
                    <path d="M1416.36,75.418C1413.81,75.42 1411.67,75.219 1409.56,74.814C1407.73,74.463 1405.92,74.009 1404.09,73.653C1402.69,73.379 1401.53,72.651 1400.42,71.811C1400.03,71.518 1399.91,71.18 1400.03,70.821C1400.16,70.442 1400.54,70.171 1400.98,70.165C1401.64,70.156 1402.27,70.357 1402.88,70.599C1404.6,71.275 1406.34,71.829 1408.14,72.242C1409.91,72.651 1411.71,72.919 1413.53,73.033C1415.56,73.159 1417.58,73.121 1419.59,72.864C1420.84,72.706 1422.07,72.517 1423.31,72.368C1423.79,72.311 1424.27,72.314 1424.75,72.31C1426.88,72.287 1429.01,72.211 1431.12,71.894C1434.09,71.451 1436.89,70.564 1439.46,68.974C1439.96,68.664 1440.48,68.439 1441.09,68.495C1441.18,68.504 1441.28,68.509 1441.38,68.529C1441.66,68.587 1441.7,68.662 1441.59,68.93C1441.25,69.762 1440.68,70.412 1439.94,70.904C1438.25,72.033 1436.42,72.884 1434.47,73.47C1432.48,74.067 1430.44,74.231 1428.37,74.297C1426.81,74.346 1425.26,74.509 1423.7,74.663C1422.5,74.782 1421.3,74.952 1420.11,75.124C1418.74,75.321 1417.36,75.427 1416.36,75.418ZM1404.4,41.634C1404.51,40.082 1404.61,38.39 1404.74,36.7C1404.86,35.124 1405.03,33.551 1405.14,31.975C1405.25,30.434 1405.31,28.89 1405.22,27.343C1405.19,26.884 1405.24,26.42 1405.26,25.96C1405.32,24.902 1404.26,24.393 1403.43,24.901C1402.88,25.234 1402.39,25.642 1401.88,26.027C1399.36,27.926 1397.05,30.048 1394.86,32.316C1392.28,34.998 1389.88,37.85 1387.57,40.765C1386.79,41.746 1386.05,42.755 1385.26,43.723C1384.97,44.067 1384.62,44.372 1384.25,44.619C1383.88,44.865 1383.43,44.75 1383.11,44.433C1382.83,44.163 1382.75,43.771 1382.99,43.379C1383.31,42.849 1383.68,42.345 1384.05,41.85C1385.38,40.084 1386.67,38.286 1388.08,36.58C1389.29,35.1 1390.62,33.712 1391.94,32.313C1392.99,31.193 1394.07,30.103 1395.17,29.029C1395.65,28.552 1396.21,28.144 1396.74,27.712C1397.15,27.374 1397.53,27.01 1397.57,26.435C1397.6,25.943 1397.42,25.507 1397.15,25.114C1396.28,23.838 1395.6,22.467 1395.11,21.003C1394.75,19.934 1394.45,18.849 1394.16,17.759C1393.77,16.264 1393.43,14.759 1393.07,13.256C1393.03,13.104 1393.01,12.933 1393.04,12.784C1393.18,12.135 1393.83,11.942 1394.36,12.38C1395.18,13.059 1395.71,13.933 1395.98,14.952C1396.26,16.007 1396.45,17.084 1396.71,18.144C1397.13,19.866 1397.75,21.518 1398.58,23.084C1398.74,23.371 1398.93,23.646 1399.15,23.882C1399.7,24.458 1400.44,24.569 1401.2,24.148C1402.06,23.673 1402.89,23.14 1403.74,22.635C1405.28,21.716 1406.82,20.794 1408.36,19.884C1409.24,19.369 1409.63,18.628 1409.51,17.615C1409.28,15.728 1409.07,13.839 1408.84,11.954C1408.76,11.304 1408.63,10.657 1408.48,10.019C1408.39,9.634 1408.11,9.373 1407.76,9.177C1407.51,9.042 1407.28,8.87 1407.08,8.675C1406.79,8.389 1406.74,8.05 1406.95,7.7C1407.32,7.091 1407.86,6.675 1408.58,6.635C1409.21,6.599 1409.68,6.956 1410.02,7.454C1410.62,8.318 1410.99,9.283 1411.24,10.302C1411.51,11.461 1411.52,12.643 1411.57,13.823C1411.62,14.734 1411.68,15.651 1411.84,16.548C1412.03,17.615 1412.62,18.015 1413.69,17.858C1414.74,17.707 1415.77,17.501 1416.81,17.278C1417.72,17.079 1418.63,16.837 1419.54,16.585C1419.86,16.496 1420.17,16.344 1420.46,16.184C1420.95,15.921 1421.21,15.478 1421.21,14.942C1421.21,14.207 1421.16,13.47 1421.09,12.738C1420.99,11.784 1420.83,10.837 1420.74,9.883C1420.61,8.57 1420.38,7.282 1419.95,6.033C1419.91,5.918 1419.89,5.791 1419.88,5.668C1419.84,5.207 1419.97,4.952 1420.31,4.783C1420.72,4.586 1421.16,4.632 1421.46,4.897C1421.86,5.246 1421.95,5.732 1422.04,6.212C1422.27,7.379 1422.51,8.545 1422.7,9.718C1422.92,11.067 1423.09,12.424 1423.29,13.775C1423.35,14.148 1423.45,14.523 1423.59,14.873C1423.76,15.303 1424.13,15.524 1424.59,15.559C1424.92,15.586 1425.27,15.586 1425.6,15.548C1427.68,15.313 1429.76,15.272 1431.85,15.228C1432.43,15.215 1433.02,15.147 1433.59,15.052C1434.31,14.933 1434.69,14.503 1434.72,13.773C1434.75,12.976 1434.72,12.177 1434.72,11.379C1434.72,10.847 1434.76,10.31 1434.71,9.782C1434.63,8.873 1434.48,7.97 1434.36,7.064C1434.3,6.563 1434.21,6.062 1434.2,5.559C1434.18,4.948 1434.51,4.59 1435.07,4.499C1435.68,4.4 1436.15,4.666 1436.38,5.21C1436.58,5.714 1436.46,6.224 1436.46,6.735C1436.45,7.4 1436.45,8.068 1436.52,8.728C1436.63,9.876 1436.81,11.017 1436.92,12.164C1436.96,12.513 1436.89,12.873 1436.87,13.227C1436.79,14.403 1437.18,15.075 1438.28,15.431C1439.69,15.887 1441.12,16.286 1442.54,16.691C1445.21,17.449 1447.86,18.236 1450.26,19.681C1451.73,20.567 1453.15,21.524 1454.34,22.783C1454.58,23.041 1454.82,23.306 1455.04,23.585C1455.28,23.886 1455.29,24.181 1455.12,24.448C1454.89,24.794 1454.52,24.977 1454.17,24.889C1453.96,24.838 1453.75,24.772 1453.57,24.673C1452.7,24.216 1451.87,23.72 1451.14,23.051C1449.96,21.971 1448.56,21.241 1447.1,20.623C1445.39,19.902 1443.67,19.206 1441.96,18.501C1441.48,18.306 1441.02,18.276 1440.62,18.658C1440.34,18.922 1440.28,19.228 1440.43,19.581C1441.42,21.884 1442.18,24.265 1442.82,26.684C1443.54,29.395 1443.93,32.152 1443.76,34.962C1443.71,35.82 1443.58,36.675 1443.44,37.524C1443.2,38.969 1442.94,40.411 1442.65,41.848C1442.37,43.275 1442.09,44.705 1441.74,46.116C1441.37,47.595 1440.96,49.064 1440.5,50.517C1439.73,52.928 1438.67,55.212 1437.37,57.383C1436.15,59.414 1434.83,61.366 1433.28,63.159C1431.03,65.756 1428.42,67.882 1425.32,69.376C1424.13,69.947 1422.91,70.432 1421.6,70.649C1419.05,71.075 1416.74,70.526 1414.71,68.873C1413.62,67.981 1412.78,66.865 1411.94,65.749C1409.69,62.741 1407.94,59.463 1406.74,55.904C1406.23,54.387 1405.84,52.824 1405.45,51.268C1405.03,49.568 1404.8,47.831 1404.66,46.087C1404.54,44.654 1404.49,43.216 1404.4,41.634ZM1407.25,46.682C1407.28,47.053 1407.29,47.43 1407.36,47.793C1407.57,48.774 1407.77,49.757 1408.04,50.722C1408.4,52.056 1408.79,53.387 1409.24,54.697C1410.01,56.994 1410.99,59.211 1412.16,61.338C1413.18,63.191 1414.25,65.013 1415.66,66.604C1416.38,67.407 1417.19,68.096 1418.19,68.518C1419.56,69.093 1420.93,68.966 1422.27,68.473C1424.79,67.547 1426.98,66.084 1428.9,64.222C1430.27,62.896 1431.47,61.423 1432.65,59.931C1434.03,58.195 1435.17,56.325 1436.05,54.291C1437.06,51.952 1437.75,49.511 1438.31,47.035C1438.78,45.003 1439.17,42.954 1439.66,40.925C1440.06,39.227 1440.55,37.547 1440.99,35.859C1441.07,35.577 1441.16,35.293 1441.18,35.007C1441.2,34.646 1441.15,34.281 1441.12,33.919C1441.04,32.892 1440.98,31.862 1440.87,30.839C1440.74,29.684 1440.56,28.534 1440.39,27.383C1440.15,25.675 1439.79,23.994 1439.24,22.356C1438.77,20.957 1437.98,19.715 1437.3,18.423C1437.18,18.187 1437.01,18.145 1436.75,18.238C1436.45,18.344 1436.14,18.415 1435.82,18.439C1435.28,18.482 1434.77,18.306 1434.29,18.078C1433.28,17.602 1432.25,17.336 1431.13,17.36C1429.41,17.396 1427.7,17.487 1426,17.735C1424.68,17.928 1423.37,18.147 1422.06,18.38C1420.86,18.594 1419.66,18.844 1418.45,19.073C1417.19,19.313 1415.92,19.524 1414.66,19.791C1413.5,20.037 1412.66,20.692 1412.23,21.838C1412.07,22.27 1411.85,22.7 1411.58,23.07C1411.29,23.459 1410.91,23.478 1410.52,23.178C1410.29,22.996 1410.1,22.753 1409.91,22.519C1409.62,22.159 1409.36,22.07 1408.93,22.227C1407.66,22.695 1407.02,23.575 1406.99,24.93C1406.98,25.444 1406.98,25.959 1406.99,26.472C1407.07,28.647 1407.11,30.823 1407.24,32.994C1407.34,34.731 1407.52,36.464 1407.73,38.192C1407.92,39.848 1408.19,41.496 1408.43,43.147C1408.48,43.481 1408.48,43.804 1408.23,44.075C1407.55,44.81 1407.25,45.687 1407.25,46.682ZM1420.91,51.831C1419.01,51.84 1417.89,50.818 1417.21,49.2C1416.74,48.075 1416.5,46.903 1416.46,45.682C1416.38,43.138 1416.97,40.786 1418.48,38.713C1418.84,38.227 1419.29,37.78 1419.77,37.427C1420.65,36.796 1421.65,36.825 1422.63,37.145C1423.1,37.297 1423.57,37.492 1423.98,37.766C1424.89,38.388 1425.06,39.356 1424.96,40.367C1424.9,41.016 1424.7,41.65 1424.61,42.299C1424.49,43.23 1424.4,44.167 1424.32,45.103C1424.18,46.733 1424.01,48.356 1423.39,49.891C1423.28,50.154 1423.16,50.414 1423.02,50.66C1422.55,51.501 1421.82,51.883 1420.91,51.831Z" style="fill:rgb(156,194,166);fill-rule:nonzero;"/>
                </g>
            </g>
        </g>
        <g id="Layer-14" serif:id="Layer 1">
        </g>
    </g>
</svg>
