<?xml version="1.0" encoding="UTF-8" standalone="no"?>
<!DOCTYPE svg PUBLIC "-//W3C//DTD SVG 1.1//EN" "http://www.w3.org/Graphics/SVG/1.1/DTD/svg11.dtd">
<svg width="100%" height="100%" viewBox="0 0 80 80" version="1.1" xmlns="http://www.w3.org/2000/svg" xmlns:xlink="http://www.w3.org/1999/xlink" xml:space="preserve" xmlns:serif="http://www.serif.com/" style="fill-rule:evenodd;clip-rule:evenodd;stroke-linecap:round;stroke-linejoin:round;stroke-miterlimit:10;">
    <g transform="matrix(1,0,0,1,-3094.76,0)">
        <g id="Layer-1" serif:id="Layer 1">
        </g>
        <g id="Layer-11" serif:id="Layer 1">
        </g>
        <g id="Layer-12" serif:id="Layer 1">
        </g>
        <g id="star" transform="matrix(1,0,0,1,2979.76,0)">
            <rect x="115" y="0" width="80" height="80" style="fill:white;"/>
            <clipPath id="_clip1">
                <rect x="115" y="0" width="80" height="80"/>
            </clipPath>
            <g clip-path="url(#_clip1)">
                <g transform="matrix(1.03293,0,0,1.02475,-427.612,-49.1168)">
                    <rect x="525.312" y="47.931" width="77.449" height="78.068" style="fill:rgb(50,165,116);"/>
                </g>
                <g transform="matrix(0.456635,0,0,0.456635,-130.382,2.49198)">
                    <text x="546.721px" y="101.746px" style="font-family:'OxygenMono-Regular', 'Oxygen Mono', monospace;font-size:51.776px;fill:rgb(188,188,188);">inlet</text>
                </g>
                <g transform="matrix(0.886304,0,0,0.886304,-4419.44,-409.613)">
                    <rect x="5116.13" y="462.158" width="90.263" height="90.263" style="fill:rgb(247,249,193);"/>
                </g>
                <g transform="matrix(1.29819e-18,0.021201,-0.0203504,1.2461e-18,155,24.7556)">
                    <g transform="matrix(1,0,0,1,-2480.31,-1753.94)">
                        <g id="Layer-13" serif:id="Layer 1" transform="matrix(4.16667,0,0,4.16667,0,0)">
                            <g transform="matrix(-0.673999,0,0,1,411.682,45.9106)">
                                <path d="M-1067.6,0L0,0" style="fill:none;fill-rule:nonzero;stroke:rgb(35,31,32);stroke-width:7.04px;"/>
                            </g>
                            <g transform="matrix(1,0,0,1,628.754,792.425)">
                                <path d="M0,-298.161C-2.061,-297.292 -2.255,-295.017 -2.547,-293.539C-3.522,-288.586 -6.376,-284.287 -7.218,-279.349C-8.222,-273.461 -11.719,-268.496 -13.569,-262.864C-15.297,-257.606 -17.11,-252.238 -19.117,-247.005C-20.162,-244.279 -21.232,-241.346 -21.187,-238.172C-21.162,-236.403 -21.639,-234.474 -22.837,-232.81C-24.39,-230.653 -24.255,-227.811 -24.748,-225.389C-25.559,-221.396 -26.932,-217.57 -27.731,-213.593C-29.368,-205.449 -32.235,-197.598 -34.136,-189.549C-35.761,-182.669 -38.816,-176.315 -40.402,-169.46C-42.207,-161.659 -45.042,-154.119 -45.866,-146.055C-46.275,-142.046 -47.516,-138.056 -48.886,-134.234C-49.523,-132.454 -48.948,-130.795 -49.395,-129.164C-51.665,-120.879 -53.147,-112.455 -54.661,-104.008C-55.728,-98.054 -56.959,-92.015 -58.871,-86.257C-59.857,-83.288 -59.743,-80.137 -61.11,-77.314C-62.882,-73.655 -63.162,-69.561 -64.229,-65.711C-66.175,-58.682 -68.176,-51.63 -69.81,-44.494C-70.731,-40.474 -71.543,-36.031 -74.825,-32.46C-77.731,-29.299 -79.547,-24.987 -80.257,-20.716C-80.947,-16.562 -83.577,-14.575 -86.655,-12.37C-90.152,-9.864 -94.008,-7.727 -96.682,-4.176C-97.659,-2.878 -98.493,-1.654 -98.45,0" style="fill:none;fill-rule:nonzero;stroke:rgb(35,31,32);stroke-width:6px;"/>
                            </g>
                            <g transform="matrix(1,0,0,1,825.353,716.26)">
                                <path d="M0,-258.582C1.143,-258.529 2.121,-258.652 3.069,-257.44C7.548,-251.716 13.251,-247.104 18.51,-242.14C22.424,-238.443 26.546,-234.809 30.957,-231.554C34.933,-228.62 38.178,-224.863 41.301,-221.002C44.882,-216.574 48.688,-212.285 52.752,-208.284C55.537,-205.542 58.027,-202.56 60.421,-199.558C63.39,-195.832 66.476,-192.129 70.229,-189.368C80.283,-181.974 87.516,-171.745 97.252,-164.09C102.216,-160.187 106.486,-155.544 110.656,-150.928C114.117,-147.097 117.907,-143.799 121.951,-140.702C124.547,-138.715 125.803,-135.657 128.237,-133.549C130.135,-131.904 131.911,-130.242 134.231,-129.04C137.523,-127.336 139.809,-124.273 142.339,-121.657C145.491,-118.397 148.645,-115.234 152.306,-112.49C158.758,-107.654 164.535,-102.041 170.435,-96.57C175.072,-92.269 180.719,-89.224 185.529,-85.064C191.095,-80.252 196.371,-75.207 201.459,-69.919C205.26,-65.968 209.298,-62.2 213.55,-58.729C214.821,-57.69 215.584,-56.379 216.758,-55.35C226.527,-46.782 234.485,-36.469 244.16,-27.804C247.729,-24.607 251.196,-21.299 254.706,-18.037C256.423,-16.441 257.46,-14.363 258.588,-12.392C261.231,-7.769 265.489,-4.668 269.572,-1.595C271.783,0.07 275.255,-0.287 278.189,-0.304C283.927,-0.337 289.573,-1.858 295.352,-1.449" style="fill:none;fill-rule:nonzero;stroke:rgb(35,31,32);stroke-width:6px;"/>
                            </g>
                            <g transform="matrix(1,0,0,1,1124.02,440.947)">
                                <path d="M0,-44.886C-5.51,-47.056 -11.708,-47.683 -16.264,-51.99C-19.022,-54.597 -22.965,-55.242 -25.945,-57.558C-26.84,-58.254 -27.653,-59.109 -28.621,-59.665C-32.532,-61.914 -36.442,-60.627 -39.12,-57.608C-41.465,-54.965 -44.604,-54.084 -47.874,-53.493C-54.063,-52.376 -59.757,-49.632 -65.903,-48.3C-67.969,-47.852 -69.734,-45.966 -71.936,-45.13C-78.033,-42.814 -84.34,-41.234 -90.624,-39.558C-91.117,-39.427 -91.606,-39.648 -92.146,-39.282C-97.662,-35.537 -104.474,-35.644 -110.516,-33.391C-115.406,-31.567 -120.689,-31.011 -125.589,-28.988C-128.983,-27.586 -132.851,-27.339 -136.367,-26.169C-141.358,-24.507 -146.175,-22.342 -151.154,-20.639C-154.506,-19.493 -157.984,-18.648 -161.408,-17.758C-164.69,-16.904 -167.8,-15.624 -170.974,-14.569C-179.161,-11.846 -186.795,-7.594 -195.129,-5.312C-199.406,-4.142 -203.631,-2.721 -207.999,-1.75C-211.428,-0.987 -214.854,0.322 -218.302,1.238C-221.396,2.059 -224.73,1.959 -227.903,2.552C-231.75,3.271 -235.536,4.298 -239.354,5.17C-240.043,5.327 -240.763,5.489 -241.459,5.456C-246.713,5.213 -251.721,6.636 -256.835,7.411C-260.05,7.899 -263.241,8.548 -266.456,8.969C-272.411,9.749 -278.086,11.62 -283.891,12.962C-286.22,13.5 -288.489,13.735 -290.835,13.775C-293.211,13.816 -295.254,14.41 -295.953,17.028" style="fill:none;fill-rule:nonzero;stroke:rgb(35,31,32);stroke-width:6px;"/>
                            </g>
                            <g transform="matrix(1,0,0,1,764.236,337.702)">
                                <path d="M0,-256.984C-0.401,-256.737 -0.854,-256.541 -1.186,-256.224C-1.388,-256.031 -1.474,-255.655 -1.495,-255.354C-1.812,-250.873 -3.827,-246.985 -6.051,-243.226C-8.759,-238.648 -9.521,-233.329 -12.029,-228.686C-13.018,-226.855 -13.534,-224.693 -14.816,-223.115C-17.688,-219.58 -17.531,-215.148 -18.855,-211.179C-19.686,-208.69 -21.424,-206.823 -22.344,-204.426C-24.762,-198.134 -27.301,-191.87 -30.175,-185.77C-32.17,-181.534 -33.788,-177.137 -36.628,-173.225C-39.692,-169.003 -41.933,-164.203 -44.564,-159.674C-46.394,-156.526 -48.61,-153.638 -50.143,-150.263C-50.904,-148.588 -51.558,-146.806 -52.301,-145.118C-53.963,-141.342 -56.738,-138.231 -58.41,-134.491C-60.309,-130.242 -62.046,-125.91 -64.196,-121.787C-65.428,-119.425 -67.336,-117.405 -68.947,-115.236C-69.509,-114.482 -70.318,-114.042 -70.51,-112.875C-71.458,-107.115 -75.145,-102.539 -77.684,-97.464C-80.261,-92.314 -83.185,-87.31 -85.425,-82.024C-87.763,-76.506 -91.209,-71.633 -93.926,-66.352C-94.331,-65.565 -94.94,-64.947 -95.192,-64C-96.151,-60.401 -97.798,-57.134 -99.617,-53.815C-102.231,-49.046 -104.739,-44.155 -107.016,-39.162C-112.412,-27.323 -117.059,-15.088 -124.364,-4.161C-125.237,-2.856 -125.618,-1.412 -126.149,0" style="fill:none;fill-rule:nonzero;stroke:rgb(35,31,32);stroke-width:6px;"/>
                            </g>
                            <g transform="matrix(1,0,0,1,786.967,768.725)">
                                <path d="M0,-209.734C0.738,-207.844 -1.389,-208.335 -1.646,-208.358C-3.42,-208.525 -3.914,-207.378 -4.702,-206.203C-7.725,-201.702 -10.916,-197.31 -13.991,-192.843C-16.537,-189.145 -19.221,-185.504 -21.636,-181.768C-23.684,-178.602 -26.155,-175.864 -28.542,-173.077C-31.214,-169.956 -32.754,-166.02 -36.237,-163.467C-39.229,-161.274 -40.609,-157.391 -43.21,-155.104C-49.112,-149.913 -51.767,-142.16 -58.022,-137.541C-63.815,-133.263 -67.762,-127.343 -73.032,-122.666C-78.881,-117.474 -83.548,-111.271 -88.597,-105.403C-90.009,-103.762 -91.774,-102.573 -93.297,-101.133C-96.027,-98.551 -98.393,-95.673 -100.974,-92.985C-109.747,-83.844 -117.702,-73.898 -127.563,-65.835C-133.235,-61.195 -138.14,-55.888 -143.142,-50.64C-145.641,-48.018 -148.665,-46.019 -151.356,-43.621C-158.582,-37.181 -165.937,-30.845 -173.633,-24.965C-179.729,-20.308 -184.51,-14.141 -191.331,-10.368C-194.059,-5.817 -199.334,-4.067 -202.775,-0.299C-202.845,-0.223 -202.972,-0.197 -203.072,-0.148C-203.022,-0.098 -202.972,-0.048 -202.922,0" style="fill:none;fill-rule:nonzero;stroke:rgb(35,31,32);stroke-width:6px;"/>
                            </g>
                            <g transform="matrix(1,0,0,1,787.419,756.58)">
                                <path d="M0,-196.7C7.256,-190.943 15.446,-186.47 22.8,-180.896C29.159,-176.076 36.694,-173.54 43.284,-169.341C47.832,-166.441 52.391,-163.526 56.881,-160.529C62.374,-156.862 68.466,-154.25 74.062,-150.781C78.752,-147.875 83.182,-144.584 88.174,-142.115C90.204,-141.111 92.3,-140.134 94.221,-138.912C96.534,-137.44 99.011,-136.308 101.247,-134.601C105.253,-131.543 109.744,-129.082 114.116,-126.51C121.605,-122.103 128.922,-117.32 136.754,-113.596C144.339,-109.989 150.837,-104.557 158.893,-101.707C161.606,-100.747 163.952,-98.195 166.795,-96.872C173.815,-93.604 180.868,-90.401 187.859,-87.076C192.513,-84.862 197.127,-82.595 201.447,-79.732C206.94,-76.092 212.669,-72.795 218.266,-69.303C219.345,-68.629 220.393,-67.841 221.268,-66.931C224.826,-63.232 229.151,-60.917 233.871,-58.819C240.761,-55.757 247.777,-53.014 254.682,-50.01C260.421,-47.511 265.98,-44.598 271.558,-41.754C279.537,-37.683 286.999,-32.746 294.386,-27.758C298.584,-24.923 302.822,-22.084 306.36,-18.222C308.291,-16.115 311.482,-14.977 313.776,-12.8C316.948,-9.79 320.572,-7.245 323.94,-4.43C326.067,-2.653 328.163,-0.869 330.877,0" style="fill:none;fill-rule:nonzero;stroke:rgb(35,31,32);stroke-width:6px;"/>
                            </g>
                            <g transform="matrix(1,0,0,1,627.851,371.381)">
                                <path d="M0,123.03C-0.948,120.859 -2.926,119.728 -4.833,118.614C-7.206,117.227 -9.325,115.56 -11.119,113.534C-13.067,111.333 -15.715,110.135 -18.072,108.526C-24.773,103.952 -31.349,99.17 -38.287,94.97C-43.836,91.611 -49.12,87.772 -55.099,85.119C-58.051,83.808 -60.3,81.488 -63.117,79.892C-67.605,77.35 -72.207,75.018 -76.814,72.751C-82.277,70.062 -87.131,66.535 -92.112,63.169C-96.546,60.174 -100.641,56.741 -105.627,54.496C-108.016,53.421 -109.8,51.116 -112.015,49.588C-118.692,44.98 -125.239,40.137 -132.232,36.04C-138.427,32.41 -144.36,28.427 -150.169,24.295C-154.337,21.33 -158.528,18.594 -163.126,16.281C-167.886,13.886 -172.2,10.639 -176.732,7.801C-180.162,5.654 -183.162,2.831 -186.976,1.304C-188.977,0.503 -190.882,0 -193.318,0.557C-198.981,1.852 -204.562,3.702 -210.449,3.944" style="fill:none;fill-rule:nonzero;stroke:rgb(35,31,32);stroke-width:6px;"/>
                            </g>
                            <g transform="matrix(1,0,0,1,1118.9,793.654)">
                                <path d="M0,-1.822C-4.919,-1.798 -9.862,-1.496 -14.747,-1.679C-18.946,-1.838 -23.221,-1.485 -27.404,-2.386C-29.019,-2.734 -30.558,-1.84 -32.211,-1.752C-38.402,-1.423 -44.474,-2.38 -50.581,-2.999C-53.146,-3.259 -55.67,-2.747 -58.088,-2.053C-59.616,-1.615 -61.105,-1.426 -62.621,-1.548C-70.052,-2.147 -77.475,-1.631 -84.902,-1.612C-94.031,-1.59 -103.147,-0.993 -112.315,-1.586C-116.305,-1.844 -120.284,-3.152 -124.342,-2.412C-132.372,-0.946 -140.398,-2.248 -148.43,-2.347C-151.65,-2.387 -155.114,-2.935 -158.004,-2.402C-161.684,-1.724 -165.269,-1.645 -168.902,-1.558C-173.625,-1.446 -178.338,-1.234 -183.055,-1.003C-185.64,-0.876 -188.232,-1.654 -190.881,-1.55C-195.493,-1.367 -200.112,-1.294 -204.729,-1.24C-208.943,-1.191 -213.174,-1.01 -217.369,-1.296C-221.077,-1.548 -224.517,-0.091 -228.215,-0.293C-240.046,-0.938 -251.896,-0.524 -263.738,-0.64C-266.261,-0.665 -268.764,0.169 -271.307,-1.153C-272.75,-1.903 -274.45,-0.634 -276.083,-0.635C-281.903,-0.64 -287.743,-0.356 -293.539,-0.73C-297.831,-1.007 -301.932,-1.21 -306.223,-0.176C-310.129,0.764 -314.243,-0.465 -318.226,-0.987C-322.856,-1.593 -327.457,-0.8 -332.089,-1.143C-336.07,-1.438 -339.97,-0.126 -344.15,-0.769C-349.182,-1.544 -354.319,0.002 -359.477,0.1C-365.024,0.205 -370.495,-0.693 -376.044,-0.466C-378.219,-0.377 -380.46,-0.568 -382.661,-0.332C-390.273,0.486 -397.948,0 -405.541,-0.062C-410.512,-0.103 -415.549,0.39 -420.62,-0.124C-426.132,-0.681 -431.838,0.112 -437.45,0.38C-439.697,0.488 -441.939,0.424 -444.069,0.162C-454.317,-1.099 -464.558,0.514 -474.79,-0.047C-477.021,-0.169 -479.325,0.463 -481.444,-0.886C-481.938,-1.202 -482.883,-1.118 -483.511,-0.905C-490.436,1.437 -497.645,0.555 -504.577,0.018C-511.412,-0.512 -518.038,0.907 -524.767,0.535C-526.68,0.43 -528.676,1.038 -530.488,-0.045" style="fill:none;fill-rule:nonzero;stroke:rgb(35,31,32);stroke-width:6px;"/>
                            </g>
                            <g transform="matrix(1,0,0,1,792.838,358.143)">
                                <path d="M0,-301.864C-0.401,-301.568 -1.105,-301.316 -1.159,-300.968C-2.084,-294.928 -4.691,-289.551 -7.84,-284.393C-9.283,-282.029 -11.627,-280.045 -11.413,-276.982C-11.123,-272.827 -10.72,-268.676 -10.208,-264.542C-9.852,-261.66 -9.729,-258.61 -8.633,-255.987C-5.941,-249.554 -7.459,-242.632 -5.654,-236.037C-4.512,-231.86 -4.314,-227.224 -3.902,-222.77C-3.181,-214.977 -2.253,-207.205 -2.069,-199.367C-2.01,-196.794 -1.551,-194.225 -1.196,-191.665C-0.115,-183.862 1.43,-176.092 1.989,-168.253C2.557,-160.294 5.849,-152.677 4.817,-144.563C7.128,-139.875 6.413,-134.646 7.286,-129.71C8.121,-124.984 9.236,-120.177 9.134,-115.234C9.075,-112.381 10.122,-109.52 10.518,-106.642C11.099,-102.406 11.633,-98.16 12.005,-93.903C12.191,-91.767 12.374,-89.541 13.337,-87.732C14.923,-84.751 14.396,-81.548 14.964,-78.486C16.253,-71.526 17.11,-64.487 18.021,-57.464C18.197,-56.108 18.078,-54.732 17.528,-53.298C15.473,-47.931 13.483,-42.475 13.014,-36.728C12.588,-31.509 12.699,-26.262 12.306,-21.013C11.919,-15.85 11.735,-10.56 11.846,-5.334C11.883,-3.597 13.236,-1.911 13.247,0" style="fill:none;fill-rule:nonzero;stroke:rgb(35,31,32);stroke-width:6px;"/>
                            </g>
                            <g transform="matrix(1.04615,0,0,1,420.1,377.141)">
                                <path d="M0,271.017C0.499,268.396 0.248,265.877 -0.557,263.301C-1.816,259.269 -1.061,254.958 -1.892,250.889C-2.59,247.47 -1.239,244.322 -1.323,241.1C-1.456,236.062 0.34,231.016 -1.446,225.968C-1.851,224.824 -1.526,223.421 -1.502,222.138C-1.375,215.216 -2.048,208.299 -1.981,201.403C-1.9,193.109 -1.856,184.812 -1.833,176.517C-1.811,168.816 -1.839,161.106 -2.191,153.414C-2.331,150.36 -3.315,147.174 -2.558,144.266C-1.84,141.511 -1.695,138.92 -2.129,136.233C-2.719,132.58 -2.884,128.955 -2.48,125.261C-2.334,123.926 -2.572,122.128 -3.397,121.195C-5.508,118.808 -5.234,116.081 -5.07,113.422C-4.715,107.685 -4.676,101.967 -5.095,96.236C-5.182,95.042 -5.293,93.883 -4.565,92.655C-2.192,88.643 -2.736,85.648 -6.341,82.632" style="fill:none;fill-rule:nonzero;stroke:rgb(35,31,32);stroke-width:5.86px;"/>
                            </g>
                            <g transform="matrix(1,0,0,1,1127.93,256.466)">
                                <path d="M0,-194.855C0,-189.622 0.383,-184.353 -0.115,-179.166C-0.554,-174.605 0.771,-170.05 -0.537,-165.509C-1.035,-163.78 0.407,-162.119 0.375,-160.194C0.213,-150.52 0.467,-140.838 0.245,-131.166C0.085,-124.148 0.366,-117.13 0.174,-110.135C-0.039,-102.427 0.227,-94.726 0.01,-87.025C-0.101,-83.069 0.77,-79.104 -0.53,-75.153C-0.979,-73.791 0.062,-72.286 0.05,-70.732C0.008,-65.587 -0.764,-60.491 -0.658,-55.327C-0.464,-45.852 -0.563,-36.369 -0.614,-26.89C-0.658,-18.693 -0.826,-10.498 -0.868,-2.302C-0.872,-1.49 -1.665,0 0.301,-0.08" style="fill:none;fill-rule:nonzero;stroke:rgb(35,31,32);stroke-width:6px;"/>
                            </g>
                            <g transform="matrix(1,0,0,1,412.585,362.438)">
                                <path d="M0,-280.979C0.695,-279.234 0.265,-277.42 0.275,-275.646C0.33,-265.97 0.224,-256.292 0.32,-246.616C0.44,-234.568 0.824,-222.522 0.862,-210.475C0.89,-201.884 0.845,-193.292 0.459,-184.696C0.316,-181.517 0.938,-178.195 0.892,-174.927C0.774,-166.629 1.456,-158.356 1.375,-150.042C1.263,-138.399 1.37,-126.739 1.528,-115.087C1.563,-112.505 1.272,-109.947 2.263,-107.332C2.778,-105.97 3.01,-103.964 1.849,-102.32C1.344,-101.604 1.122,-100.557 1.811,-99.687C2.674,-98.598 2.4,-97.338 2.402,-96.128C2.415,-88.624 2.407,-81.119 2.41,-73.614C2.41,-71.653 2.583,-69.685 1.238,-67.96C0.91,-67.54 0.801,-66.752 0.935,-66.216C2.296,-60.754 1.898,-55.116 2.162,-49.607C2.364,-45.37 2.767,-40.881 1.566,-36.568C1.296,-35.598 1.149,-34.338 1.815,-33.332C3.723,-30.449 3.366,-27.1 2.841,-24.172C2.189,-20.529 2.676,-17.021 2.788,-13.48C2.903,-9.816 3.113,-6.175 2.725,-2.516C2.529,-0.666 2.603,-0.653 3.914,0" style="fill:none;fill-rule:nonzero;stroke:rgb(35,31,32);stroke-width:6px;"/>
                            </g>
                            <g transform="matrix(1,0,0,1,1125.52,795.98)">
                                <path d="M0,-300.976C-0.886,-293.382 -0.747,-285.781 -0.329,-278.164C-0.129,-274.507 -0.306,-270.843 -0.889,-267.203C-1.455,-263.659 -1.457,-260.087 -0.883,-256.543C-0.528,-254.355 -0.465,-252.201 -0.894,-250.022C-1.145,-248.747 -1.562,-247.436 -1.463,-246.175C-0.875,-238.753 -2.007,-231.356 -1.745,-223.956C-1.57,-219.016 -1.493,-214.08 -1.521,-209.143C-1.56,-202.231 -1.47,-195.304 -1.898,-188.412C-2.14,-184.531 -2.72,-180.71 -1.817,-176.851C-1.387,-175.009 -3.098,-173.717 -3.087,-171.817C-3.027,-161.351 -3.275,-150.883 -3.29,-140.416C-3.3,-132.813 -2.633,-125.178 -3.151,-117.616C-3.625,-110.695 -3.722,-103.767 -3.759,-96.869C-3.794,-90.356 -4.15,-83.834 -4.158,-77.319C-4.17,-67.359 -3.811,-57.363 -4.498,-47.397C-4.608,-45.799 -4.604,-43.734 -5.278,-42.766C-7.221,-39.98 -6.474,-37.728 -5.534,-34.919C-4.437,-31.637 -5.001,-28.032 -5.175,-24.591C-5.445,-19.248 -5.585,-13.924 -5.12,-8.591C-5.104,-8.395 -5.067,-8.181 -5.126,-8.001C-5.99,-5.331 -6.033,-2.666 -5.118,0" style="fill:none;fill-rule:nonzero;stroke:rgb(35,31,32);stroke-width:6px;"/>
                            </g>
                            <g transform="matrix(1,0,0,1,1124.92,371.354)">
                                <path d="M0,-28.023C-5.625,-29.029 -9.926,-26.156 -13.795,-22.923C-19.695,-17.993 -26.103,-13.886 -33.164,-10.949C-37.058,-9.33 -41.365,-8.505 -45.769,-9.331C-47.742,-9.701 -49.773,-9.862 -51.785,-9.933C-58.809,-10.181 -65.834,-10.465 -72.859,-10.503C-77.475,-10.527 -82.096,-9.936 -86.708,-9.995C-97.674,-10.134 -108.583,-9.037 -119.519,-8.604C-123.406,-8.45 -127.373,-8.127 -131.271,-8C-137.539,-7.795 -143.729,-7.406 -149.956,-6.551C-153.996,-5.996 -158.16,-5.461 -162.274,-5.598C-164.34,-5.667 -166.135,-4.912 -167.967,-4.489C-170.877,-3.817 -173.767,-3.387 -176.723,-3.082C-178.239,-2.925 -179.843,-3.117 -181.307,-2.035C-182.173,-1.395 -183.66,-1.357 -184.856,-1.397C-190.029,-1.565 -195.175,-0.812 -200.184,0C-206.389,1.006 -211.77,-0.837 -217.39,-2.494C-219.194,-3.026 -221.184,-3.051 -223.095,-3.119C-229.416,-3.344 -235.907,-2.184 -242.024,-3.864C-248.746,-5.711 -255.515,-4.937 -262.219,-5.643C-267.235,-6.171 -272.273,-6.657 -277.286,-7.289C-279.497,-7.568 -281.711,-7.827 -283.909,-8.184C-292.783,-9.624 -301.716,-10.318 -310.703,-10.628C-313.02,-10.709 -315.245,-11.955 -317.599,-12.466C-319.31,-12.838 -321.307,-11.754 -322.749,-13.359" style="fill:none;fill-rule:nonzero;stroke:rgb(35,31,32);stroke-width:6px;"/>
                            </g>
                            <g transform="matrix(1,0,0,1,1126.12,494.987)">
                                <path d="M0,-158.765C-0.128,-155.705 -0.781,-152.707 -0.392,-149.571C-0.056,-146.859 -0.56,-144.053 -0.592,-141.287C-0.684,-133.289 -0.037,-125.309 -0.441,-117.284C-0.643,-113.296 -0.718,-109.188 -0.311,-105.145C-0.242,-104.461 -0.061,-103.646 -0.34,-103.092C-2.227,-99.351 -0.82,-95.593 -0.657,-91.813C-0.363,-85.008 -0.109,-78.178 -0.377,-71.378C-0.691,-63.374 -0.33,-55.373 -0.651,-47.382C-0.811,-43.433 -0.748,-39.485 -1.037,-35.519C-1.538,-28.65 -1.168,-21.699 -0.812,-14.799C-0.691,-12.465 -1.044,-10.25 -1.156,-7.979C-1.272,-5.619 -1.047,-3.239 -0.868,-0.874C-0.832,-0.386 -0.319,0 0.301,-0.427" style="fill:none;fill-rule:nonzero;stroke:rgb(35,31,32);stroke-width:6px;"/>
                            </g>
                            <g transform="matrix(1,0,0,1,434.262,335.296)">
                                <path d="M0,-3.518C0.969,-4.74 2.417,-4.633 3.602,-4.36C11.051,-2.64 18.689,-3.661 26.206,-2.732C30.889,-2.153 35.638,-3.2 40.356,-3.696C43.5,-4.026 46.781,-3.327 49.973,-2.893C52.489,-2.55 54.994,-2.701 57.504,-2.629C59.646,-2.567 61.725,-2.594 63.861,-1.833C66.171,-1.011 68.636,-2.204 71.051,-2.362C75.675,-2.666 79.938,-0.497 84.606,-0.76C88.391,-0.974 92.257,-0.354 96.041,-0.387C101.81,-0.437 107.444,1.011 113.205,0.659C113.692,0.629 114.206,1.024 114.708,1.222" style="fill:none;fill-rule:nonzero;stroke:rgb(35,31,32);stroke-width:6px;"/>
                            </g>
                            <g transform="matrix(1,0,0,1,1127.33,336.213)">
                                <path d="M0,-79.382C-0.638,-78.447 -0.276,-77.402 -0.279,-76.42C-0.314,-66.051 -0.16,-55.681 -0.353,-45.316C-0.473,-38.794 0.43,-32.205 -1.466,-25.752C-2.098,-23.6 -0.924,-21.45 -0.855,-19.248C-0.671,-13.319 -2.195,-7.398 -0.913,-1.47C-0.791,-0.903 -1.226,0 0,-0.287" style="fill:none;fill-rule:nonzero;stroke:rgb(35,31,32);stroke-width:6px;"/>
                            </g>
                            <g transform="matrix(1,0,0,1,420.413,792.721)">
                                <path d="M0,-143.674C-0.226,-137.252 0.312,-130.836 -0.78,-124.399C-1.447,-120.46 -0.896,-116.322 -0.907,-112.274C-0.91,-111.06 -0.745,-109.833 -1.48,-108.703C-1.737,-108.308 -1.952,-107.426 -1.769,-107.283C0.601,-105.439 -0.996,-103.092 -0.944,-101.016C-0.701,-91.336 0.494,-81.688 0.005,-71.986C-0.429,-63.382 0.269,-54.8 0.453,-46.21C0.577,-40.409 0.431,-34.561 0.322,-28.735C0.241,-24.373 0.607,-20.038 1.074,-15.687C1.35,-13.112 0.239,-10.437 0.56,-7.697C0.858,-5.153 0.803,-2.568 0.903,0" style="fill:none;fill-rule:nonzero;stroke:rgb(35,31,32);stroke-width:6px;"/>
                            </g>
                            <g transform="matrix(1,0,0,1,415.897,460.345)">
                                <path d="M0,-85.909C1.479,-85.649 1.798,-84.868 1.213,-83.535C-1.482,-77.391 -0.913,-70.741 0.038,-64.631C0.804,-59.704 0.86,-54.933 0.907,-50.065C0.994,-40.881 1.126,-31.699 1.196,-22.515C1.24,-16.787 1.303,-11.058 1.147,-5.334C1.097,-3.486 0.296,-1.681 -0.603,0" style="fill:none;fill-rule:nonzero;stroke:rgb(35,31,32);stroke-width:6px;"/>
                            </g>
                            <g transform="matrix(1,0,0,1,411.682,81.5358)">
                                <path d="M0,-26.738C1.211,-18.178 0.867,-9.566 0.918,-0.966C0.924,0 0.453,-0.372 0,-0.521" style="fill:none;fill-rule:nonzero;stroke:rgb(35,31,32);stroke-width:6px;"/>
                            </g>
                            <g transform="matrix(1,0,0,1,548.97,337.178)">
                                <path d="M0,0.229C-0.099,-1.092 0.753,-1.333 1.806,-1.246C7.521,-0.773 13.288,-1.037 18.969,-0.076C19.359,-0.01 19.771,-0.075 20.172,-0.066C31.31,0.177 42.458,0.114 53.59,0.062C62.15,0.022 70.673,-0.217 79.18,0.831C81.397,1.104 83.571,1.181 85.814,0.888C87.391,0.682 89.165,0.385 90.623,1.562" style="fill:none;fill-rule:nonzero;stroke:rgb(35,31,32);stroke-width:6px;"/>
                            </g>
                            <g transform="matrix(1,0,0,1,433.66,322.673)">
                                <path d="M0,10.29C0.1,9.994 0.201,9.698 0.301,9.401C-4.523,7.94 -7.894,4.078 -12.342,1.991C-14.253,1.093 -16.103,0 -18.366,0.514" style="fill:none;fill-rule:nonzero;stroke:rgb(35,31,32);stroke-width:6px;"/>
                            </g>
                            <g transform="matrix(1,0,0,1,581.787,793.61)">
                                <path d="M0,-21.922C-0.508,-20.694 -1.706,-20.214 -2.717,-19.563C-6.076,-17.402 -7.808,-14.426 -6.166,-11.034C-4.427,-7.443 -3.966,-3.697 -3.011,0" style="fill:none;fill-rule:nonzero;stroke:rgb(35,31,32);stroke-width:6px;"/>
                            </g>
                            <g transform="matrix(2.42522,0,0,0.0782894,421.531,794.601)">
                                <path d="M0,2.469C3.897,1.948 7.867,1.229 11.713,2.01C13.651,2.404 14.847,1.051 16.564,1.232C18.953,1.484 21.333,1.749 23.786,1.733C27.467,1.708 31.087,1.931 34.625,0.696C36.616,0 38.343,1.521 40.348,1.335C44.007,0.996 47.65,1.358 51.182,2.469" style="fill:none;fill-rule:nonzero;stroke:rgb(35,31,32);stroke-width:3.5px;"/>
                            </g>
                            <g transform="matrix(1,0,0,1,587.809,795.524)">
                                <path d="M0,-1.915C-1.779,-1.333 -3.53,-0.52 -5.433,-1.595C-5.735,-1.766 -6.233,-1.678 -6.622,-1.609C-10.459,-0.934 -14.254,-1.652 -18.065,-1.902C-20.651,-2.073 -23.113,-1.261 -25.616,-0.896C-29.748,-0.295 -34.038,-0.665 -38.241,-1.293C-39.723,-1.514 -41.441,-1.859 -42.15,0.158" style="fill:none;fill-rule:nonzero;stroke:rgb(35,31,32);stroke-width:6px;"/>
                            </g>
                            <g transform="matrix(0.665789,0.74614,0.74614,-0.665789,412.906,609.707)">
                                <path d="M-2.72,-6.073C2.693,-6.895 8.086,-8.948 13.558,-6.073" style="fill:none;fill-rule:nonzero;stroke:rgb(35,31,32);stroke-width:6px;"/>
                            </g>
                            <g transform="matrix(1,0,0,1,751.29,81.1627)">
                                <path d="M0,-15.108C3.464,-11.229 5.349,-6.312 8.683,-2.331C9.435,-1.434 10.24,-0.695 11.14,0" style="fill:none;fill-rule:nonzero;stroke:rgb(35,31,32);stroke-width:6px;"/>
                            </g>
                            <g transform="matrix(1,0,0,1,415.596,374.436)">
                                <path d="M0,-11.553C-0.519,-9.935 -0.6,-8.339 0.304,-6.815C1.598,-4.632 0.682,-2.269 0.903,0" style="fill:none;fill-rule:nonzero;stroke:rgb(35,31,32);stroke-width:6px;"/>
                            </g>
                            <g transform="matrix(-1,0,0,1,409.273,472.786)">
                                <path d="M-5.419,0L0,0" style="fill:none;fill-rule:nonzero;stroke:rgb(35,31,32);stroke-width:6px;"/>
                            </g>
                            <g transform="matrix(1,0,0,1,744.667,62.0555)">
                                <path d="M0,-4.888C0.391,-3.467 2.09,-2.505 1.372,-0.626C2.284,-0.401 3.099,-0.201 3.913,0" style="fill:none;fill-rule:nonzero;stroke:rgb(35,31,32);stroke-width:6px;"/>
                            </g>
                            <g transform="matrix(-1,0,0,1,417.101,498.559)">
                                <path d="M-3.613,0L0,0" style="fill:none;fill-rule:nonzero;stroke:rgb(35,31,32);stroke-width:6px;"/>
                            </g>
                            <g transform="matrix(0,1,1,0,876.211,367.918)">
                                <path d="M-1.481,-1.481L1.481,-1.481" style="fill:none;fill-rule:nonzero;stroke:rgb(35,31,32);stroke-width:6px;"/>
                            </g>
                            <g transform="matrix(-1,0,0,1,413.489,369.993)">
                                <path d="M-2.709,0L0,0" style="fill:none;fill-rule:nonzero;stroke:rgb(35,31,32);stroke-width:6px;"/>
                            </g>
                            <g transform="matrix(1,0,0,1,809.396,285.861)">
                                <path d="M0,0L2.107,0" style="fill:none;fill-rule:nonzero;stroke:rgb(35,31,32);stroke-width:6px;"/>
                            </g>
                        </g>
                    </g>
                </g>
            </g>
        </g>
    </g>
</svg>
