<?xml version="1.0" encoding="UTF-8" standalone="no"?>
<!DOCTYPE svg PUBLIC "-//W3C//DTD SVG 1.1//EN" "http://www.w3.org/Graphics/SVG/1.1/DTD/svg11.dtd">
<svg width="100%" height="100%" viewBox="0 0 80 80" version="1.1" xmlns="http://www.w3.org/2000/svg" xmlns:xlink="http://www.w3.org/1999/xlink" xml:space="preserve" xmlns:serif="http://www.serif.com/" style="fill-rule:evenodd;clip-rule:evenodd;stroke-miterlimit:1.5;">
    <g transform="matrix(1,0,0,1,-115,0)">
        <g id="Layer-1" serif:id="Layer 1">
        </g>
        <g id="Layer-11" serif:id="Layer 1">
        </g>
        <rect id="sunbox" x="115" y="0" width="80" height="80" style="fill:none;"/>
        <clipPath id="_clip1">
            <rect id="sunbox1" serif:id="sunbox" x="115" y="0" width="80" height="80"/>
        </clipPath>
        <g clip-path="url(#_clip1)">
            <rect x="115" y="0" width="80" height="80" style="fill:white;"/>
            <g transform="matrix(1,0,0,1,0.5,0)">
                <path d="M147.287,21.379C148.983,12.891 151.807,7.331 155,7.331C158.193,7.331 161.017,12.891 162.713,21.379C169.914,16.577 175.842,14.642 178.1,16.9C180.358,19.158 178.423,25.086 173.621,32.287C182.109,33.983 187.669,36.807 187.669,40C187.669,43.193 182.109,46.017 173.621,47.713C178.423,54.914 180.358,60.842 178.1,63.1C175.842,65.358 169.914,63.423 162.713,58.621C161.017,67.109 158.193,72.669 155,72.669C151.807,72.669 148.983,67.109 147.287,58.621C140.086,63.423 134.158,65.358 131.9,63.1C129.642,60.842 131.577,54.914 136.379,47.713C127.891,46.017 122.331,43.193 122.331,40C122.331,36.807 127.891,33.983 136.379,32.287C131.577,25.086 129.642,19.158 131.9,16.9C134.158,14.642 140.086,16.577 147.287,21.379Z" style="fill:rgb(45,170,225);"/>
                <path d="M146.281,18.95C142.489,16.61 139.102,15.123 136.489,14.643C133.956,14.177 132.028,14.65 130.839,15.839C129.65,17.028 129.177,18.956 129.643,21.489C130.123,24.102 131.61,27.489 133.95,31.281C129.614,32.307 126.168,33.651 123.98,35.159C121.861,36.621 120.831,38.319 120.831,40C120.831,41.681 121.861,43.379 123.98,44.841C126.168,46.349 129.614,47.693 133.95,48.719C131.61,52.511 130.123,55.898 129.643,58.511C129.177,61.044 129.65,62.972 130.839,64.161C132.028,65.35 133.956,65.823 136.489,65.357C139.102,64.877 142.489,63.39 146.281,61.05C147.307,65.386 148.651,68.832 150.159,71.02C151.621,73.139 153.319,74.169 155,74.169C156.681,74.169 158.379,73.139 159.841,71.02C161.349,68.832 162.693,65.386 163.719,61.05C167.511,63.39 170.898,64.877 173.511,65.357C176.044,65.823 177.972,65.35 179.161,64.161C180.35,62.972 180.823,61.044 180.357,58.511C179.877,55.898 178.39,52.511 176.05,48.719C180.386,47.693 183.832,46.349 186.02,44.841C188.139,43.379 189.169,41.681 189.169,40C189.169,38.319 188.139,36.621 186.02,35.159C183.832,33.651 180.386,32.307 176.05,31.281C178.39,27.489 179.877,24.102 180.357,21.489C180.823,18.956 180.35,17.028 179.161,15.839C177.972,14.65 176.044,14.177 173.511,14.643C170.898,15.123 167.511,16.61 163.719,18.95C162.693,14.614 161.349,11.168 159.841,8.98C158.379,6.861 156.681,5.831 155,5.831C153.319,5.831 151.621,6.861 150.159,8.98C148.651,11.168 147.307,14.614 146.281,18.95L146.281,18.95ZM147.287,21.379C148.983,12.891 151.807,7.331 155,7.331C158.193,7.331 161.017,12.891 162.713,21.379C169.914,16.577 175.842,14.642 178.1,16.9C180.358,19.158 178.423,25.086 173.621,32.287C182.109,33.983 187.669,36.807 187.669,40C187.669,43.193 182.109,46.017 173.621,47.713C178.423,54.914 180.358,60.842 178.1,63.1C175.842,65.358 169.914,63.423 162.713,58.621C161.017,67.109 158.193,72.669 155,72.669C151.807,72.669 148.983,67.109 147.287,58.621C140.086,63.423 134.158,65.358 131.9,63.1C129.642,60.842 131.577,54.914 136.379,47.713C127.891,46.017 122.331,43.193 122.331,40C122.331,36.807 127.891,33.983 136.379,32.287C131.577,25.086 129.642,19.158 131.9,16.9C134.158,14.642 140.086,16.577 147.287,21.379Z"/>
            </g>
            <g transform="matrix(0.989859,0,0,0.989859,1.57699,0.405657)">
                <circle cx="155.5" cy="40" r="9.756" style="fill:url(#_Radial2);"/>
                <path d="M155.5,28.729C149.279,28.729 144.229,33.779 144.229,40C144.229,46.221 149.279,51.271 155.5,51.271C161.721,51.271 166.771,46.221 166.771,40C166.771,33.779 161.721,28.729 155.5,28.729ZM155.5,30.244C160.884,30.244 165.256,34.616 165.256,40C165.256,45.384 160.884,49.756 155.5,49.756C150.116,49.756 145.744,45.384 145.744,40C145.744,34.616 150.116,30.244 155.5,30.244Z"/>
            </g>
            <path d="M115,0L195,80" style="fill:none;stroke:black;stroke-width:1.5px;"/>
            <path d="M195,0L115,80" style="fill:none;stroke:black;stroke-width:1.5px;"/>
            <path d="M115,80L115,0L195,0L195,80L115,80ZM116.5,78.5L116.5,1.5C116.5,1.5 193.5,1.5 193.5,1.5C193.5,1.5 193.5,78.5 193.5,78.5L116.5,78.5Z"/>
        </g>
        <g id="Layer-12" serif:id="Layer 1">
        </g>
    </g>
    <defs>
        <radialGradient id="_Radial2" cx="0" cy="0" r="1" gradientUnits="userSpaceOnUse" gradientTransform="matrix(-3.61754e-07,-9.75553,9.75553,-3.61754e-07,155.5,40)"><stop offset="0" style="stop-color:rgb(247,168,46);stop-opacity:1"/><stop offset="1" style="stop-color:rgb(255,120,0);stop-opacity:1"/></radialGradient>
    </defs>
</svg>
