<?xml version="1.0" encoding="UTF-8" standalone="no"?>
<!DOCTYPE svg PUBLIC "-//W3C//DTD SVG 1.1//EN" "http://www.w3.org/Graphics/SVG/1.1/DTD/svg11.dtd">
<svg width="100%" height="100%" viewBox="0 0 2481 3508" version="1.1" xmlns="http://www.w3.org/2000/svg" xmlns:xlink="http://www.w3.org/1999/xlink" xml:space="preserve" xmlns:serif="http://www.serif.com/" style="fill-rule:evenodd;clip-rule:evenodd;stroke-linejoin:round;stroke-miterlimit:2;">
    <g transform="matrix(1,0,0,1,-66722.6,-3229.21)">
        <g id="Artboard1" transform="matrix(1,0,0,1,66722.6,3229.21)">
            <rect x="0" y="0" width="2480.26" height="3507.87" style="fill:none;"/>
            <clipPath id="_clip1">
                <rect x="0" y="0" width="2480.26" height="3507.87"/>
            </clipPath>
            <g clip-path="url(#_clip1)">
                <g transform="matrix(1,0,0,1,-66722.6,-3229.21)">
                    <rect x="66722.6" y="3229.21" width="2480.26" height="3507.87" style="fill:white;"/>
                </g>
                <g transform="matrix(0.957534,0,0,1.04728,52.664,-83.6869)">
                    <g transform="matrix(0.988283,0,0,0.903592,-17342.4,80.2656)">
                        <g transform="matrix(0.91301,0,0,0.91301,8552.33,-3650.27)">
                            <g transform="matrix(1.07668,0,0,0.826785,-22989.5,4887.75)">
                                <rect x="30872.7" y="2555.57" width="465.161" height="663.031" style="fill:rgb(255,0,83);"/>
                            </g>
                            <g id="B" transform="matrix(0.487733,0,0,0.350816,9339.02,6978.28)">
                                <path d="M2359.84,1577.55C2359.84,1590.5 2355.14,1602.92 2346.77,1612.08C2338.39,1621.23 2327.04,1626.38 2315.2,1626.38C2276.29,1626.38 2220.16,1626.38 2181.26,1626.38C2156.6,1626.38 2136.61,1604.52 2136.61,1577.55C2136.61,1344.36 2136.61,345.801 2136.61,112.611C2136.61,85.642 2156.6,63.78 2181.26,63.78L2315.2,63.78C2327.04,63.78 2338.39,68.924 2346.77,78.082C2355.14,87.239 2359.84,99.66 2359.84,112.611C2359.84,251.33 2359.84,637.795 2359.84,637.795L2264.17,637.795L2359.84,682.56C2359.84,682.56 2359.84,1384.17 2359.84,1577.55ZM2270.55,820.661C2270.55,814.186 2268.2,807.977 2264.01,803.398C2259.83,798.82 2254.15,796.248 2248.23,796.248C2248.23,796.248 2248.23,796.248 2248.23,796.248C2242.31,796.248 2236.63,798.82 2232.44,803.398C2228.26,807.977 2225.91,814.186 2225.91,820.661C2225.91,926.994 2225.91,1349.14 2225.91,1455.47C2225.91,1461.95 2228.26,1468.15 2232.44,1472.73C2236.63,1477.31 2242.31,1479.88 2248.23,1479.88C2248.23,1479.88 2248.23,1479.88 2248.23,1479.88C2254.15,1479.88 2259.83,1477.31 2264.01,1472.73C2268.2,1468.15 2270.55,1461.95 2270.55,1455.47C2270.55,1349.14 2270.55,926.994 2270.55,820.661ZM2270.55,234.687C2270.55,221.203 2260.56,210.273 2248.23,210.273C2248.23,210.273 2248.23,210.273 2248.23,210.273C2235.9,210.273 2225.91,221.203 2225.91,234.687C2225.91,297.607 2225.91,464.758 2225.91,527.678C2225.91,541.161 2235.9,552.092 2248.23,552.092C2248.23,552.092 2248.23,552.092 2248.23,552.092C2260.56,552.092 2270.55,541.161 2270.55,527.678C2270.55,464.758 2270.55,297.607 2270.55,234.687Z" style="fill:rgb(6,72,255);"/>
                            </g>
                            <g id="E" transform="matrix(0.484535,0,0,0.350816,9723.72,6978.28)">
                                <path d="M1738.73,1479.88C1751.14,1479.88 1761.2,1468.95 1761.2,1455.47C1761.2,1350.49 1761.2,942.741 1761.2,942.741L1851.08,991.572L1851.08,1577.55C1851.08,1604.52 1830.96,1626.38 1806.14,1626.38C1766.98,1626.38 1710.48,1626.38 1671.32,1626.38C1659.4,1626.38 1647.97,1621.23 1639.54,1612.08C1631.11,1602.92 1626.38,1590.5 1626.38,1577.55C1626.38,1430.4 1626.38,996.293 1626.38,913.488C1626.38,900.301 1632.61,887.892 1643.19,880.02C1643.24,879.987 1643.28,879.954 1643.33,879.92C1654.32,871.742 1660.79,858.838 1660.76,845.136C1660.73,831.434 1654.22,818.556 1643.19,810.42C1643.19,810.42 1643.19,810.419 1643.19,810.419C1632.62,802.617 1626.38,790.258 1626.38,777.119C1626.38,694.373 1626.38,259.841 1626.38,112.611C1626.38,85.642 1646.5,63.78 1671.32,63.78C1710.48,63.78 1766.98,63.78 1806.14,63.78C1830.96,63.78 1851.08,85.642 1851.08,112.611C1851.08,261.329 1851.08,698.585 1851.08,698.585L1761.2,747.416L1761.2,234.687C1761.2,221.203 1751.14,210.273 1738.73,210.273C1738.73,210.273 1738.73,210.273 1738.73,210.273C1726.32,210.273 1716.26,221.203 1716.26,234.687C1716.26,345.554 1716.26,796.248 1716.26,796.248L1761.2,796.248L1849.61,765.354L1851.08,929.247L1761.2,893.91L1716.26,893.91C1716.26,893.91 1716.26,1344.6 1716.26,1455.47C1716.26,1468.95 1726.32,1479.88 1738.73,1479.88C1738.73,1479.88 1738.73,1479.88 1738.73,1479.88Z" style="fill:rgb(6,72,255);"/>
                            </g>
                            <g id="R" transform="matrix(0.921815,0,0,0.725201,8312.47,6116.87)">
                                <path d="M2550.94,1218.68C2538.03,1218.68 2527.56,1229.15 2527.56,1242.06C2527.56,1369.49 2527.56,1974.59 2527.56,1974.59L2574.8,1974.59C2574.8,1974.59 2574.8,1876.77 2574.8,1843.66C2574.8,1840.79 2575.94,1838.05 2577.97,1836.02C2579.99,1833.99 2582.74,1832.85 2585.61,1832.85C2585.61,1832.85 2585.61,1832.85 2585.61,1832.85C2589,1832.85 2592.24,1834.21 2594.62,1836.62C2597.01,1839.02 2598.33,1842.28 2598.29,1845.67C2597.93,1880.55 2596.97,1974.59 2596.97,1974.59L2644.94,1974.59L2645.67,1785.61C2645.67,1785.61 2637.22,1781.38 2627.47,1776.51C2621.97,1773.76 2618.49,1768.14 2618.49,1761.99C2618.49,1755.84 2621.97,1750.22 2627.47,1747.47C2637.22,1742.59 2645.67,1738.37 2645.67,1738.37L2645.67,1242.06C2645.67,1229.15 2635.2,1218.68 2622.29,1218.68C2601.62,1218.68 2571.61,1218.68 2550.94,1218.68ZM2598.43,1691.12L2598.43,1277.74C2598.43,1274.6 2597.18,1271.6 2594.97,1269.38C2592.75,1267.17 2589.75,1265.92 2586.62,1265.92C2586.62,1265.92 2586.61,1265.92 2586.61,1265.92C2580.09,1265.92 2574.8,1271.21 2574.8,1277.74C2574.8,1347.89 2574.8,1706.78 2574.8,1706.78L2598.43,1691.12Z" style="fill:rgb(6,72,255);"/>
                            </g>
                            <g id="A" transform="matrix(0.490739,0,0,0.350816,8970.43,6978.28)">
                                <path d="M2785.67,63.78C2797.49,63.78 2808.82,68.945 2817.18,78.14C2825.53,87.335 2830.22,99.806 2830.22,112.81C2830.22,377.747 2830.22,1626.38 2830.22,1626.38C2830.22,1626.38 2808.84,1626.38 2787.22,1626.38C2762.72,1626.38 2742.85,1604.52 2742.85,1577.55C2742.85,1421.14 2742.85,942.741 2742.85,942.741L2698.48,942.741L2698.48,1626.38L2653.25,1626.38C2641.35,1626.38 2629.93,1621.17 2621.51,1611.91C2613.09,1602.65 2608.37,1590.08 2608.37,1576.98C2608.37,1342.99 2608.37,347.64 2608.37,113.324C2608.37,85.961 2628.52,63.78 2653.39,63.78C2691.96,63.78 2747.23,63.78 2785.67,63.78ZM2742.85,234.687C2742.85,221.203 2732.92,210.273 2720.66,210.273C2720.66,210.273 2720.66,210.273 2720.66,210.273C2708.41,210.273 2698.48,221.203 2698.48,234.687C2698.48,345.554 2698.48,796.248 2698.48,796.248L2742.85,796.248C2742.85,796.248 2742.85,345.554 2742.85,234.687Z" style="fill:rgb(6,72,255);"/>
                            </g>
                        </g>
                        <g transform="matrix(1.03671,0,0,1.03671,-588.816,-558.881)">
                            <g transform="matrix(1.0594,0,0,1.0594,-14856.5,418.513)">
                                <path d="M32044.3,2609.88L32044.3,2918.76L31828.1,2918.76L31828.1,2609.88L31284,2609.88L31284,3269.52L32044.3,3269.52L32044.3,2609.88Z" style="fill:rgb(255,195,5);"/>
                            </g>
                            <g transform="matrix(1,0,0,1,-627.332,372.925)">
                                <g id="A1" serif:id="A" transform="matrix(0.293249,0,0,0.209635,18694.5,3169.72)">
                                    <path d="M2785.67,63.78C2797.49,63.78 2808.82,68.945 2817.18,78.14C2825.53,87.335 2830.22,99.806 2830.22,112.81C2830.22,377.747 2830.22,1626.38 2830.22,1626.38C2830.22,1626.38 2808.84,1626.38 2787.22,1626.38C2762.72,1626.38 2742.85,1604.52 2742.85,1577.55C2742.85,1421.14 2742.85,942.741 2742.85,942.741L2698.48,942.741L2698.48,1626.38L2653.25,1626.38C2641.35,1626.38 2629.93,1621.17 2621.51,1611.91C2613.09,1602.65 2608.37,1590.08 2608.37,1576.98C2608.37,1342.99 2608.37,347.64 2608.37,113.324C2608.37,85.961 2628.52,63.78 2653.39,63.78C2691.96,63.78 2747.23,63.78 2785.67,63.78ZM2742.85,234.687C2742.85,221.203 2732.92,210.273 2720.66,210.273C2720.66,210.273 2720.66,210.273 2720.66,210.273C2708.41,210.273 2698.48,221.203 2698.48,234.687C2698.48,345.554 2698.48,796.248 2698.48,796.248L2742.85,796.248C2742.85,796.248 2742.85,345.554 2742.85,234.687Z" style="fill:rgb(255,103,51);"/>
                                </g>
                                <g id="C" transform="matrix(0.427238,0,0,0.141032,16462.9,2740.72)">
                                    <path d="M6070.49,4053.74C6070.49,4053.74 6070.49,5098.99 6070.49,5386.79C6070.49,5426.87 6056.86,5459.37 6040.03,5459.37C6013.49,5459.37 5975.21,5459.37 5948.67,5459.37C5931.85,5459.37 5918.21,5426.87 5918.21,5386.79C5918.21,5040.16 5918.21,3555.87 5918.21,3209.24C5918.21,3169.16 5931.85,3136.66 5948.67,3136.66C5975.21,3136.66 6013.49,3136.66 6040.03,3136.66C6048.11,3136.66 6055.86,3144.31 6061.57,3157.92C6067.28,3171.53 6070.49,3189.99 6070.49,3209.24C6070.49,3397.64 6070.49,3887.7 6070.49,3887.7L6026.98,3935.09L6009.58,3789.92C6009.58,3789.92 6009.58,3495.29 6009.58,3390.7C6009.58,3370.66 6002.76,3354.41 5994.35,3354.41C5994.35,3354.41 5994.35,3354.41 5994.35,3354.41C5990.31,3354.41 5986.44,3358.24 5983.58,3365.04C5980.73,3371.85 5979.12,3381.08 5979.12,3390.7L5979.12,5205.33C5979.12,5214.95 5980.73,5224.18 5983.58,5230.99C5986.44,5237.79 5990.31,5241.62 5994.35,5241.62L5994.35,5241.62C5998.39,5241.62 6002.26,5237.79 6005.12,5230.99C6007.97,5224.18 6009.58,5214.95 6009.58,5205.33C6009.58,5016.28 6009.58,4152.85 6009.58,4152.85L6027.04,4006.34L6070.49,4053.74Z" style="fill:rgb(255,103,51);"/>
                                </g>
                                <g id="F" transform="matrix(0.550845,0,0,0.433356,18822.2,2654.96)">
                                    <path d="M826.772,1218.68C813.726,1218.68 803.15,1229.26 803.15,1242.3L803.15,1974.59C803.15,1974.59 814.961,1974.59 826.772,1974.59C833.037,1974.59 839.045,1972.1 843.475,1967.67C847.905,1963.24 850.394,1957.23 850.394,1950.96L850.394,1620.26L874.016,1620.26L921.26,1667.5L921.26,1525.77L874.016,1573.01L850.394,1573.01C850.394,1573.01 850.394,1354.99 850.394,1301.36C850.394,1294.83 855.681,1289.55 862.204,1289.55C862.204,1289.55 862.205,1289.55 862.206,1289.55C868.728,1289.55 874.016,1294.83 874.016,1301.36C874.016,1349.16 874.016,1525.77 874.016,1525.77L921.26,1478.52C921.26,1478.52 921.26,1306.35 921.26,1242.3C921.26,1229.26 910.684,1218.68 897.638,1218.68C877.053,1218.68 847.356,1218.68 826.772,1218.68Z" style="fill:rgb(255,103,51);"/>
                                </g>
                                <g id="H" transform="matrix(0.293249,0,0,0.209635,18667.3,3169.72)">
                                    <path d="M1460,723.003C1460,729.478 1462.34,735.687 1466.5,740.266C1470.66,744.844 1476.31,747.416 1482.19,747.416C1482.19,747.416 1482.19,747.416 1482.19,747.416C1488.08,747.416 1493.72,744.844 1497.88,740.266C1502.04,735.687 1504.38,729.478 1504.38,723.003C1504.38,601.06 1504.38,63.78 1504.38,63.78L1548.75,63.78C1573.25,63.78 1593.12,85.642 1593.12,112.611C1593.12,361.789 1593.12,1479.88 1593.12,1479.88L1504.38,1626.38C1504.38,1626.38 1504.38,1045.51 1504.38,918.323C1504.38,911.849 1502.04,905.639 1497.88,901.06C1493.72,896.482 1488.08,893.91 1482.19,893.91C1482.19,893.91 1482.19,893.91 1482.19,893.91C1476.31,893.91 1470.66,896.482 1466.5,901.06C1462.34,905.639 1460,911.849 1460,918.323C1460,1045.51 1460,1626.38 1460,1626.38C1460,1626.38 1437.82,1626.38 1415.63,1626.38C1391.13,1626.38 1371.26,1604.52 1371.26,1577.55C1371.26,1328.37 1371.26,210.273 1371.26,210.273L1460,63.78L1460,723.003Z" style="fill:rgb(255,103,51);"/>
                                </g>
                                <g id="I" transform="matrix(0.293249,0,0,0.209635,19008.5,3169.72)">
                                    <path d="M740.39,63.78L740.39,1479.88L829.134,1626.38L829.134,210.273L740.39,63.78Z" style="fill:rgb(255,103,51);"/>
                                </g>
                                <g id="R1" serif:id="R" transform="matrix(0.550845,0,0,0.433356,18145.2,2654.96)">
                                    <path d="M2550.94,1218.68C2538.03,1218.68 2527.56,1229.15 2527.56,1242.06C2527.56,1369.49 2527.56,1974.59 2527.56,1974.59L2574.8,1974.59C2574.8,1974.59 2574.8,1876.77 2574.8,1843.66C2574.8,1840.79 2575.94,1838.05 2577.97,1836.02C2579.99,1833.99 2582.74,1832.85 2585.61,1832.85C2585.61,1832.85 2585.61,1832.85 2585.61,1832.85C2589,1832.85 2592.24,1834.21 2594.62,1836.62C2597.01,1839.02 2598.33,1842.28 2598.29,1845.67C2597.93,1880.55 2596.97,1974.59 2596.97,1974.59L2644.94,1974.59L2645.67,1785.61C2645.67,1785.61 2637.22,1781.38 2627.47,1776.51C2621.97,1773.76 2618.49,1768.14 2618.49,1761.99C2618.49,1755.84 2621.97,1750.22 2627.47,1747.47C2637.22,1742.59 2645.67,1738.37 2645.67,1738.37L2645.67,1242.06C2645.67,1229.15 2635.2,1218.68 2622.29,1218.68C2601.62,1218.68 2571.61,1218.68 2550.94,1218.68ZM2598.43,1691.12L2598.43,1277.74C2598.43,1274.6 2597.18,1271.6 2594.97,1269.38C2592.75,1267.17 2589.75,1265.92 2586.62,1265.92C2586.62,1265.92 2586.61,1265.92 2586.61,1265.92C2580.09,1265.92 2574.8,1271.21 2574.8,1277.74C2574.8,1347.89 2574.8,1706.78 2574.8,1706.78L2598.43,1691.12Z" style="fill:rgb(255,103,51);"/>
                                </g>
                                <g id="R2" serif:id="R" transform="matrix(0.550845,0,0,0.433356,17755.2,2654.96)">
                                    <path d="M2550.94,1218.68C2538.03,1218.68 2527.56,1229.15 2527.56,1242.06C2527.56,1369.49 2527.56,1974.59 2527.56,1974.59L2574.8,1974.59C2574.8,1974.59 2574.8,1876.77 2574.8,1843.66C2574.8,1840.79 2575.94,1838.05 2577.97,1836.02C2579.99,1833.99 2582.74,1832.85 2585.61,1832.85C2585.61,1832.85 2585.61,1832.85 2585.61,1832.85C2589,1832.85 2592.24,1834.21 2594.62,1836.62C2597.01,1839.02 2598.33,1842.28 2598.29,1845.67C2597.93,1880.55 2596.97,1974.59 2596.97,1974.59L2644.94,1974.59L2645.67,1785.61C2645.67,1785.61 2637.22,1781.38 2627.47,1776.51C2621.97,1773.76 2618.49,1768.14 2618.49,1761.99C2618.49,1755.84 2621.97,1750.22 2627.47,1747.47C2637.22,1742.59 2645.67,1738.37 2645.67,1738.37L2645.67,1242.06C2645.67,1229.15 2635.2,1218.68 2622.29,1218.68C2601.62,1218.68 2571.61,1218.68 2550.94,1218.68ZM2598.43,1691.12L2598.43,1277.74C2598.43,1274.6 2597.18,1271.6 2594.97,1269.38C2592.75,1267.17 2589.75,1265.92 2586.62,1265.92C2586.62,1265.92 2586.61,1265.92 2586.61,1265.92C2580.09,1265.92 2574.8,1271.21 2574.8,1277.74C2574.8,1347.89 2574.8,1706.78 2574.8,1706.78L2598.43,1691.12Z" style="fill:rgb(255,103,51);"/>
                                </g>
                                <g id="s" transform="matrix(0.550845,0,0,0.433356,18627.1,3142.14)">
                                    <path d="M519.685,354.331C519.685,354.331 519.685,183.258 519.685,118.73C519.685,112.3 522.239,106.135 526.785,101.588C531.331,97.042 537.497,94.488 543.926,94.488C564.276,94.488 593.204,94.488 613.554,94.488C626.942,94.488 637.795,105.341 637.795,118.73C637.795,191.258 637.795,401.575 637.795,401.575L614.173,436.392L590.551,354.331L590.551,177.164C590.551,174.032 589.307,171.028 587.092,168.813C584.877,166.599 581.873,165.354 578.741,165.354L578.739,165.354C575.607,165.354 572.603,166.599 570.388,168.813C568.173,171.028 566.929,174.032 566.929,177.164L566.929,354.331C566.929,354.331 637.795,590.551 637.795,590.551C637.795,590.551 637.795,761.624 637.795,826.152C637.795,832.581 635.241,838.747 630.695,843.294C626.149,847.84 619.983,850.394 613.554,850.394C593.204,850.394 564.276,850.394 543.926,850.394C530.538,850.394 519.685,839.54 519.685,826.152C519.685,753.624 519.685,543.307 519.685,543.307L543.307,508.49L566.929,590.551L566.929,767.718C566.929,770.85 568.173,773.854 570.388,776.068C572.603,778.283 575.607,779.528 578.739,779.528L578.741,779.528C581.873,779.528 584.877,778.283 587.092,776.068C589.307,773.854 590.551,770.85 590.551,767.718L590.551,590.551C590.551,590.551 519.685,354.331 519.685,354.331Z" style="fill:rgb(255,103,51);"/>
                                </g>
                                <g id="T" transform="matrix(0.550845,0,0,0.433356,17690.2,2654.96)">
                                    <path d="M3188.21,1242.34C3188.22,1236.07 3185.74,1230.05 3181.3,1225.61C3176.87,1221.17 3170.86,1218.68 3164.59,1218.68C3128.44,1218.68 3059.87,1218.68 3023.7,1218.68C3017.42,1218.68 3011.4,1221.18 3006.97,1225.63C3002.54,1230.08 3000.06,1236.11 3000.08,1242.38C3000.39,1331.84 3001.46,1643.88 3001.46,1643.88L3024.98,1643.88C3031.26,1643.88 3037.29,1641.38 3041.72,1636.92C3046.15,1632.47 3048.63,1626.44 3048.6,1620.16C3048.32,1551.25 3047.5,1352.71 3047.29,1301.64C3047.28,1298.44 3048.54,1295.36 3050.8,1293.09C3053.06,1290.82 3056.14,1289.55 3059.34,1289.55C3059.34,1289.55 3059.34,1289.55 3059.34,1289.55C3065.71,1289.55 3070.87,1294.7 3070.88,1301.07C3070.97,1374.55 3071.45,1777.69 3071.57,1880.07C3071.57,1886.34 3069.09,1892.36 3064.66,1896.79C3060.23,1901.23 3054.21,1903.72 3047.94,1903.72C3039.94,1903.72 3031.02,1903.72 3023.06,1903.72C3010.32,1903.72 3000,1914.04 3000,1926.78C3000,1947.46 3000,1974.59 3000,1974.59L3188.25,1974.59C3188.25,1974.59 3188.25,1948.27 3188.25,1927.71C3188.25,1914.46 3177.51,1903.72 3164.26,1903.72C3156.98,1903.72 3148.99,1903.72 3141.73,1903.72C3135.47,1903.72 3129.46,1901.23 3125.03,1896.8C3120.6,1892.37 3118.11,1886.36 3118.11,1880.1C3118.11,1778.19 3118.11,1377.91 3118.11,1302.01C3118.11,1295.12 3123.69,1289.55 3130.57,1289.55C3130.57,1289.55 3130.57,1289.55 3130.57,1289.55C3136.74,1289.55 3141.75,1294.54 3141.78,1300.71C3141.98,1350.29 3142.81,1551.19 3143.09,1620.35C3143.14,1633.36 3153.7,1643.88 3166.71,1643.88C3177.33,1643.88 3187.52,1643.88 3187.52,1643.88C3187.52,1643.88 3188.06,1331.74 3188.21,1242.34Z" style="fill:rgb(255,103,51);"/>
                                </g>
                                <g id="T1" serif:id="T" transform="matrix(0.550845,0,0,0.433356,17962.5,2653.64)">
                                    <path d="M3188.21,1242.34C3188.22,1236.07 3185.74,1230.05 3181.3,1225.61C3176.87,1221.17 3170.86,1218.68 3164.59,1218.68C3128.44,1218.68 3059.87,1218.68 3023.7,1218.68C3017.42,1218.68 3011.4,1221.18 3006.97,1225.63C3002.54,1230.08 3000.06,1236.11 3000.08,1242.38C3000.39,1331.84 3001.46,1643.88 3001.46,1643.88L3024.98,1643.88C3031.26,1643.88 3037.29,1641.38 3041.72,1636.92C3046.15,1632.47 3048.63,1626.44 3048.6,1620.16C3048.32,1551.25 3047.5,1352.71 3047.29,1301.64C3047.28,1298.44 3048.54,1295.36 3050.8,1293.09C3053.06,1290.82 3056.14,1289.55 3059.34,1289.55C3059.34,1289.55 3059.34,1289.55 3059.34,1289.55C3065.71,1289.55 3070.87,1294.7 3070.88,1301.07C3070.97,1374.55 3071.45,1777.69 3071.57,1880.07C3071.57,1886.34 3069.09,1892.36 3064.66,1896.79C3060.23,1901.23 3054.21,1903.72 3047.94,1903.72C3039.94,1903.72 3031.02,1903.72 3023.06,1903.72C3010.32,1903.72 3000,1914.04 3000,1926.78C3000,1947.46 3000,1974.59 3000,1974.59L3188.25,1974.59C3188.25,1974.59 3188.25,1948.27 3188.25,1927.71C3188.25,1914.46 3177.51,1903.72 3164.26,1903.72C3156.98,1903.72 3148.99,1903.72 3141.73,1903.72C3135.47,1903.72 3129.46,1901.23 3125.03,1896.8C3120.6,1892.37 3118.11,1886.36 3118.11,1880.1C3118.11,1778.19 3118.11,1377.91 3118.11,1302.01C3118.11,1295.12 3123.69,1289.55 3130.57,1289.55C3130.57,1289.55 3130.57,1289.55 3130.57,1289.55C3136.74,1289.55 3141.75,1294.54 3141.78,1300.71C3141.98,1350.29 3142.81,1551.19 3143.09,1620.35C3143.14,1633.36 3153.7,1643.88 3166.71,1643.88C3177.33,1643.88 3187.52,1643.88 3187.52,1643.88C3187.52,1643.88 3188.06,1331.74 3188.21,1242.34Z" style="fill:rgb(255,103,51);"/>
                                </g>
                            </g>
                            <g>
                                <g id="E1" serif:id="E" transform="matrix(0.289241,0,0,0.209418,18169.3,3170.07)">
                                    <path d="M1738.73,1479.88C1751.14,1479.88 1761.2,1468.95 1761.2,1455.47C1761.2,1350.49 1761.2,942.741 1761.2,942.741L1851.08,991.572L1851.08,1577.55C1851.08,1604.52 1830.96,1626.38 1806.14,1626.38C1766.98,1626.38 1710.48,1626.38 1671.32,1626.38C1659.4,1626.38 1647.97,1621.23 1639.54,1612.08C1631.11,1602.92 1626.38,1590.5 1626.38,1577.55C1626.38,1430.4 1626.38,996.293 1626.38,913.488C1626.38,900.301 1632.61,887.892 1643.19,880.02C1643.24,879.987 1643.28,879.954 1643.33,879.92C1654.32,871.742 1660.79,858.838 1660.76,845.136C1660.73,831.434 1654.22,818.556 1643.19,810.42C1643.19,810.42 1643.19,810.419 1643.19,810.419C1632.62,802.617 1626.38,790.258 1626.38,777.119C1626.38,694.373 1626.38,259.841 1626.38,112.611C1626.38,85.642 1646.5,63.78 1671.32,63.78C1710.48,63.78 1766.98,63.78 1806.14,63.78C1830.96,63.78 1851.08,85.642 1851.08,112.611C1851.08,261.329 1851.08,698.585 1851.08,698.585L1761.2,747.416L1761.2,234.687C1761.2,221.203 1751.14,210.273 1738.73,210.273C1738.73,210.273 1738.73,210.273 1738.73,210.273C1726.32,210.273 1716.26,221.203 1716.26,234.687C1716.26,345.554 1716.26,796.248 1716.26,796.248L1761.2,796.248L1849.61,765.354L1851.08,929.247L1761.2,893.91L1716.26,893.91C1716.26,893.91 1716.26,1344.6 1716.26,1455.47C1716.26,1468.95 1726.32,1479.88 1738.73,1479.88C1738.73,1479.88 1738.73,1479.88 1738.73,1479.88Z" style="fill:rgb(255,103,51);"/>
                                </g>
                                <g id="G" transform="matrix(0.550273,0,0,0.432906,17766,2655.85)">
                                    <path d="M944.882,1242.3C944.882,1229.26 955.458,1218.68 968.504,1218.68L1062.99,1218.68L1062.99,1502.14L1015.75,1431.28L1015.75,1301.36C1015.75,1294.83 1010.46,1289.55 1003.94,1289.55C1003.94,1289.55 1003.94,1289.55 1003.94,1289.55C1000.8,1289.55 997.8,1290.79 995.585,1293.01C993.37,1295.22 992.126,1298.23 992.126,1301.36C992.126,1376.99 992.126,1792.65 992.126,1868.29C992.126,1871.42 993.37,1874.42 995.585,1876.64C997.8,1878.85 1000.8,1880.1 1003.94,1880.1C1003.94,1880.1 1003.94,1880.1 1003.94,1880.1C1010.46,1880.1 1015.75,1874.81 1015.75,1868.29C1015.75,1844.05 1015.75,1790.57 1015.75,1785.93C1015.75,1785.72 1015.77,1785.51 1015.83,1785.3C1017.31,1779.37 1039.37,1691.12 1039.37,1691.12L1039.37,1667.5C1039.37,1654.45 1028.79,1643.88 1015.75,1643.88C1015.75,1643.88 1015.75,1643.88 1015.75,1643.88L1015.75,1502.14L1062.99,1573.01L1062.99,1950.96C1062.99,1957.23 1060.5,1963.24 1056.07,1967.67C1051.64,1972.1 1045.63,1974.59 1039.37,1974.59C1004.9,1974.59 944.882,1974.59 944.882,1974.59C944.882,1974.59 944.882,1370.26 944.882,1242.3Z" style="fill:rgb(255,103,51);"/>
                                </g>
                                <g id="H1" serif:id="H" transform="matrix(0.550273,0,0,0.432906,18004.4,2655.85)">
                                    <path d="M1440.94,1218.68L1440.94,1974.59L1464.42,1974.59C1477.55,1974.59 1488.21,1963.95 1488.23,1950.82C1488.37,1875 1488.8,1643.88 1488.8,1643.88L1500.48,1643.88C1506.74,1643.88 1511.81,1648.95 1511.81,1655.2C1511.81,1713.25 1511.81,1974.59 1511.81,1974.59L1559.06,1974.59L1559.06,1620.26C1559.06,1620.26 1558,1619.93 1556.17,1619.36C1546.63,1616.38 1539.99,1607.73 1539.59,1597.74C1539.19,1587.76 1545.12,1578.6 1554.4,1574.88C1557.32,1573.71 1559.06,1573.01 1559.06,1573.01L1559.06,1218.68L1535.39,1218.68C1529.13,1218.68 1523.14,1221.16 1518.72,1225.59C1514.3,1230.01 1511.81,1236 1511.81,1242.26C1511.81,1308.3 1511.81,1493.29 1511.81,1539.05C1511.81,1541.8 1510.72,1544.42 1508.78,1546.36C1506.85,1548.3 1504.22,1549.39 1501.48,1549.39C1495.35,1549.39 1488.78,1549.39 1488.78,1549.39L1488.19,1218.68L1440.94,1218.68Z" style="fill:rgb(255,103,51);"/>
                                </g>
                                <g id="O" transform="matrix(0.550273,0,0,0.432906,17286.7,2655.85)">
                                    <path d="M2220.47,1950.96C2220.47,1964.01 2209.9,1974.59 2196.85,1974.59L2125.98,1974.59C2112.94,1974.59 2102.36,1964.01 2102.36,1950.96C2102.36,1838.16 2102.36,1355.11 2102.36,1242.3C2102.36,1229.26 2112.94,1218.68 2125.98,1218.68L2196.85,1218.68C2209.9,1218.68 2220.47,1229.26 2220.47,1242.3L2220.47,1950.96ZM2161.42,1903.72C2164.55,1903.72 2167.55,1902.48 2169.77,1900.26C2171.98,1898.05 2173.23,1895.04 2173.23,1891.91L2173.23,1301.36C2173.23,1298.23 2171.98,1295.22 2169.77,1293.01C2167.55,1290.79 2164.55,1289.55 2161.42,1289.55L2161.42,1289.55C2158.28,1289.55 2155.28,1290.79 2153.07,1293.01C2150.85,1295.22 2149.61,1298.23 2149.61,1301.36C2149.61,1378.89 2149.61,1814.37 2149.61,1891.91C2149.61,1895.04 2150.85,1898.05 2153.07,1900.26C2155.28,1902.48 2158.28,1903.72 2161.42,1903.72L2161.42,1903.72Z" style="fill:rgb(255,103,51);"/>
                                </g>
                                <g id="R3" serif:id="R" transform="matrix(0.550273,0,0,0.432906,16973.9,2655.85)">
                                    <path d="M2550.94,1218.68C2538.03,1218.68 2527.56,1229.15 2527.56,1242.06C2527.56,1369.49 2527.56,1974.59 2527.56,1974.59L2574.8,1974.59C2574.8,1974.59 2574.8,1876.77 2574.8,1843.66C2574.8,1840.79 2575.94,1838.05 2577.97,1836.02C2579.99,1833.99 2582.74,1832.85 2585.61,1832.85C2585.61,1832.85 2585.61,1832.85 2585.61,1832.85C2589,1832.85 2592.24,1834.21 2594.62,1836.62C2597.01,1839.02 2598.33,1842.28 2598.29,1845.67C2597.93,1880.55 2596.97,1974.59 2596.97,1974.59L2644.94,1974.59L2645.67,1785.61C2645.67,1785.61 2637.22,1781.38 2627.47,1776.51C2621.97,1773.76 2618.49,1768.14 2618.49,1761.99C2618.49,1755.84 2621.97,1750.22 2627.47,1747.47C2637.22,1742.59 2645.67,1738.37 2645.67,1738.37L2645.67,1242.06C2645.67,1229.15 2635.2,1218.68 2622.29,1218.68C2601.62,1218.68 2571.61,1218.68 2550.94,1218.68ZM2598.43,1691.12L2598.43,1277.74C2598.43,1274.6 2597.18,1271.6 2594.97,1269.38C2592.75,1267.17 2589.75,1265.92 2586.62,1265.92C2586.62,1265.92 2586.61,1265.92 2586.61,1265.92C2580.09,1265.92 2574.8,1271.21 2574.8,1277.74C2574.8,1347.89 2574.8,1706.78 2574.8,1706.78L2598.43,1691.12Z" style="fill:rgb(255,103,51);"/>
                                </g>
                                <g id="s1" serif:id="s" transform="matrix(0.550273,0,0,0.432906,18432.6,3142.52)">
                                    <path d="M519.685,354.331C519.685,354.331 519.685,183.258 519.685,118.73C519.685,112.3 522.239,106.135 526.785,101.588C531.331,97.042 537.497,94.488 543.926,94.488C564.276,94.488 593.204,94.488 613.554,94.488C626.942,94.488 637.795,105.341 637.795,118.73C637.795,191.258 637.795,401.575 637.795,401.575L614.173,436.392L590.551,354.331L590.551,177.164C590.551,174.032 589.307,171.028 587.092,168.813C584.877,166.599 581.873,165.354 578.741,165.354L578.739,165.354C575.607,165.354 572.603,166.599 570.388,168.813C568.173,171.028 566.929,174.032 566.929,177.164L566.929,354.331C566.929,354.331 637.795,590.551 637.795,590.551C637.795,590.551 637.795,761.624 637.795,826.152C637.795,832.581 635.241,838.747 630.695,843.294C626.149,847.84 619.983,850.394 613.554,850.394C593.204,850.394 564.276,850.394 543.926,850.394C530.538,850.394 519.685,839.54 519.685,826.152C519.685,753.624 519.685,543.307 519.685,543.307L543.307,508.49L566.929,590.551L566.929,767.718C566.929,770.85 568.173,773.854 570.388,776.068C572.603,778.283 575.607,779.528 578.739,779.528L578.741,779.528C581.873,779.528 584.877,778.283 587.092,776.068C589.307,773.854 590.551,770.85 590.551,767.718L590.551,590.551C590.551,590.551 519.685,354.331 519.685,354.331Z" style="fill:rgb(255,103,51);"/>
                                </g>
                                <g id="T2" serif:id="T" transform="matrix(0.550273,0,0,0.432906,16871.5,2655.85)">
                                    <path d="M3188.21,1242.34C3188.22,1236.07 3185.74,1230.05 3181.3,1225.61C3176.87,1221.17 3170.86,1218.68 3164.59,1218.68C3128.44,1218.68 3059.87,1218.68 3023.7,1218.68C3017.42,1218.68 3011.4,1221.18 3006.97,1225.63C3002.54,1230.08 3000.06,1236.11 3000.08,1242.38C3000.39,1331.84 3001.46,1643.88 3001.46,1643.88L3024.98,1643.88C3031.26,1643.88 3037.29,1641.38 3041.72,1636.92C3046.15,1632.47 3048.63,1626.44 3048.6,1620.16C3048.32,1551.25 3047.5,1352.71 3047.29,1301.64C3047.28,1298.44 3048.54,1295.36 3050.8,1293.09C3053.06,1290.82 3056.14,1289.55 3059.34,1289.55C3059.34,1289.55 3059.34,1289.55 3059.34,1289.55C3065.71,1289.55 3070.87,1294.7 3070.88,1301.07C3070.97,1374.55 3071.45,1777.69 3071.57,1880.07C3071.57,1886.34 3069.09,1892.36 3064.66,1896.79C3060.23,1901.23 3054.21,1903.72 3047.94,1903.72C3039.94,1903.72 3031.02,1903.72 3023.06,1903.72C3010.32,1903.72 3000,1914.04 3000,1926.78C3000,1947.46 3000,1974.59 3000,1974.59L3188.25,1974.59C3188.25,1974.59 3188.25,1948.27 3188.25,1927.71C3188.25,1914.46 3177.51,1903.72 3164.26,1903.72C3156.98,1903.72 3148.99,1903.72 3141.73,1903.72C3135.47,1903.72 3129.46,1901.23 3125.03,1896.8C3120.6,1892.37 3118.11,1886.36 3118.11,1880.1C3118.11,1778.19 3118.11,1377.91 3118.11,1302.01C3118.11,1295.12 3123.69,1289.55 3130.57,1289.55C3130.57,1289.55 3130.57,1289.55 3130.57,1289.55C3136.74,1289.55 3141.75,1294.54 3141.78,1300.71C3141.98,1350.29 3142.81,1551.19 3143.09,1620.35C3143.14,1633.36 3153.7,1643.88 3166.71,1643.88C3177.33,1643.88 3187.52,1643.88 3187.52,1643.88C3187.52,1643.88 3188.06,1331.74 3188.21,1242.34Z" style="fill:rgb(255,103,51);"/>
                                </g>
                            </g>
                        </g>
                    </g>
                    <g transform="matrix(0.862351,0,0,0.788451,343.061,-397.447)">
                        <g id="B1" serif:id="B" transform="matrix(0.539265,0,0,0.387882,-650.446,902.923)">
                            <path d="M2359.84,1577.55C2359.84,1590.5 2355.14,1602.92 2346.77,1612.08C2338.39,1621.23 2327.04,1626.38 2315.2,1626.38C2276.29,1626.38 2220.16,1626.38 2181.26,1626.38C2156.6,1626.38 2136.61,1604.52 2136.61,1577.55C2136.61,1344.36 2136.61,345.801 2136.61,112.611C2136.61,85.642 2156.6,63.78 2181.26,63.78L2315.2,63.78C2327.04,63.78 2338.39,68.924 2346.77,78.082C2355.14,87.239 2359.84,99.66 2359.84,112.611C2359.84,251.33 2359.84,637.795 2359.84,637.795L2264.17,637.795L2359.84,682.56C2359.84,682.56 2359.84,1384.17 2359.84,1577.55ZM2270.55,820.661C2270.55,814.186 2268.2,807.977 2264.01,803.398C2259.83,798.82 2254.15,796.248 2248.23,796.248C2248.23,796.248 2248.23,796.248 2248.23,796.248C2242.31,796.248 2236.63,798.82 2232.44,803.398C2228.26,807.977 2225.91,814.186 2225.91,820.661C2225.91,926.994 2225.91,1349.14 2225.91,1455.47C2225.91,1461.95 2228.26,1468.15 2232.44,1472.73C2236.63,1477.31 2242.31,1479.88 2248.23,1479.88C2248.23,1479.88 2248.23,1479.88 2248.23,1479.88C2254.15,1479.88 2259.83,1477.31 2264.01,1472.73C2268.2,1468.15 2270.55,1461.95 2270.55,1455.47C2270.55,1349.14 2270.55,926.994 2270.55,820.661ZM2270.55,234.687C2270.55,221.203 2260.56,210.273 2248.23,210.273C2248.23,210.273 2248.23,210.273 2248.23,210.273C2235.9,210.273 2225.91,221.203 2225.91,234.687C2225.91,297.607 2225.91,464.758 2225.91,527.678C2225.91,541.161 2235.9,552.092 2248.23,552.092C2248.23,552.092 2248.23,552.092 2248.23,552.092C2260.56,552.092 2270.55,541.161 2270.55,527.678C2270.55,464.758 2270.55,297.607 2270.55,234.687Z"/>
                        </g>
                        <g id="C1" serif:id="C" transform="matrix(0.790506,0,0,0.260947,-4032.17,109.161)">
                            <path d="M6070.49,4053.74C6070.49,4053.74 6070.49,5098.99 6070.49,5386.79C6070.49,5426.87 6056.86,5459.37 6040.03,5459.37C6013.49,5459.37 5975.21,5459.37 5948.67,5459.37C5931.85,5459.37 5918.21,5426.87 5918.21,5386.79C5918.21,5040.16 5918.21,3555.87 5918.21,3209.24C5918.21,3169.16 5931.85,3136.66 5948.67,3136.66C5975.21,3136.66 6013.49,3136.66 6040.03,3136.66C6048.11,3136.66 6055.86,3144.31 6061.57,3157.92C6067.28,3171.53 6070.49,3189.99 6070.49,3209.24C6070.49,3397.64 6070.49,3887.7 6070.49,3887.7L6026.98,3935.09L6009.58,3789.92C6009.58,3789.92 6009.58,3495.29 6009.58,3390.7C6009.58,3370.66 6002.76,3354.41 5994.35,3354.41C5994.35,3354.41 5994.35,3354.41 5994.35,3354.41C5990.31,3354.41 5986.44,3358.24 5983.58,3365.04C5980.73,3371.85 5979.12,3381.08 5979.12,3390.7L5979.12,5205.33C5979.12,5214.95 5980.73,5224.18 5983.58,5230.99C5986.44,5237.79 5990.31,5241.62 5994.35,5241.62L5994.35,5241.62C5998.39,5241.62 6002.26,5237.79 6005.12,5230.99C6007.97,5224.18 6009.58,5214.95 6009.58,5205.33C6009.58,5016.28 6009.58,4152.85 6009.58,4152.85L6027.04,4006.34L6070.49,4053.74Z"/>
                        </g>
                        <g id="D" transform="matrix(1.01921,0,0,0.801825,260.997,-49.5062)">
                            <path d="M637.795,1931.6C637.795,1942.86 629.847,1952.55 618.806,1954.76C585.415,1961.44 519.685,1974.59 519.685,1974.59L519.685,1218.68C519.685,1218.68 584.819,1231.71 618.349,1238.41C629.656,1240.67 637.795,1250.6 637.795,1262.13L637.795,1931.6ZM583.632,1887.02C588.062,1882.59 590.551,1876.58 590.551,1870.31C590.551,1801.52 590.551,1391.29 590.551,1322.85C590.551,1316.65 588.089,1310.71 583.707,1306.33C576.731,1299.35 566.929,1289.55 566.929,1289.55L566.929,1903.72C566.929,1903.72 576.662,1893.99 583.632,1887.02Z"/>
                        </g>
                        <g id="E2" serif:id="E" transform="matrix(0.535731,0,0,0.387882,63.8212,902.923)">
                            <path d="M1738.73,1479.88C1751.14,1479.88 1761.2,1468.95 1761.2,1455.47C1761.2,1350.49 1761.2,942.741 1761.2,942.741L1851.08,991.572L1851.08,1577.55C1851.08,1604.52 1830.96,1626.38 1806.14,1626.38C1766.98,1626.38 1710.48,1626.38 1671.32,1626.38C1659.4,1626.38 1647.97,1621.23 1639.54,1612.08C1631.11,1602.92 1626.38,1590.5 1626.38,1577.55C1626.38,1430.4 1626.38,996.293 1626.38,913.488C1626.38,900.301 1632.61,887.892 1643.19,880.02C1643.24,879.987 1643.28,879.954 1643.33,879.92C1654.32,871.742 1660.79,858.838 1660.76,845.136C1660.73,831.434 1654.22,818.556 1643.19,810.42C1643.19,810.42 1643.19,810.419 1643.19,810.419C1632.62,802.617 1626.38,790.258 1626.38,777.119C1626.38,694.373 1626.38,259.841 1626.38,112.611C1626.38,85.642 1646.5,63.78 1671.32,63.78C1710.48,63.78 1766.98,63.78 1806.14,63.78C1830.96,63.78 1851.08,85.642 1851.08,112.611C1851.08,261.329 1851.08,698.585 1851.08,698.585L1761.2,747.416L1761.2,234.687C1761.2,221.203 1751.14,210.273 1738.73,210.273C1738.73,210.273 1738.73,210.273 1738.73,210.273C1726.32,210.273 1716.26,221.203 1716.26,234.687C1716.26,345.554 1716.26,796.248 1716.26,796.248L1761.2,796.248L1849.61,765.354L1851.08,929.247L1761.2,893.91L1716.26,893.91C1716.26,893.91 1716.26,1344.6 1716.26,1455.47C1716.26,1468.95 1726.32,1479.88 1738.73,1479.88C1738.73,1479.88 1738.73,1479.88 1738.73,1479.88Z"/>
                        </g>
                        <g id="F1" serif:id="F" transform="matrix(1.01921,0,0,0.801825,260.997,-49.5062)">
                            <path d="M826.772,1218.68C813.726,1218.68 803.15,1229.26 803.15,1242.3L803.15,1974.59C803.15,1974.59 814.961,1974.59 826.772,1974.59C833.037,1974.59 839.045,1972.1 843.475,1967.67C847.905,1963.24 850.394,1957.23 850.394,1950.96L850.394,1620.26L874.016,1620.26L921.26,1667.5L921.26,1525.77L874.016,1573.01L850.394,1573.01C850.394,1573.01 850.394,1354.99 850.394,1301.36C850.394,1294.83 855.681,1289.55 862.204,1289.55C862.204,1289.55 862.205,1289.55 862.206,1289.55C868.728,1289.55 874.016,1294.83 874.016,1301.36C874.016,1349.16 874.016,1525.77 874.016,1525.77L921.26,1478.52C921.26,1478.52 921.26,1306.35 921.26,1242.3C921.26,1229.26 910.684,1218.68 897.638,1218.68C877.053,1218.68 847.356,1218.68 826.772,1218.68Z"/>
                        </g>
                        <g id="G1" serif:id="G" transform="matrix(1.01921,0,0,0.801825,260.997,-49.5062)">
                            <path d="M944.882,1242.3C944.882,1229.26 955.458,1218.68 968.504,1218.68L1062.99,1218.68L1062.99,1502.14L1015.75,1431.28L1015.75,1301.36C1015.75,1294.83 1010.46,1289.55 1003.94,1289.55C1003.94,1289.55 1003.94,1289.55 1003.94,1289.55C1000.8,1289.55 997.8,1290.79 995.585,1293.01C993.37,1295.22 992.126,1298.23 992.126,1301.36C992.126,1376.99 992.126,1792.65 992.126,1868.29C992.126,1871.42 993.37,1874.42 995.585,1876.64C997.8,1878.85 1000.8,1880.1 1003.94,1880.1C1003.94,1880.1 1003.94,1880.1 1003.94,1880.1C1010.46,1880.1 1015.75,1874.81 1015.75,1868.29C1015.75,1844.05 1015.75,1790.57 1015.75,1785.93C1015.75,1785.72 1015.77,1785.51 1015.83,1785.3C1017.31,1779.37 1039.37,1691.12 1039.37,1691.12L1039.37,1667.5C1039.37,1654.45 1028.79,1643.88 1015.75,1643.88C1015.75,1643.88 1015.75,1643.88 1015.75,1643.88L1015.75,1502.14L1062.99,1573.01L1062.99,1950.96C1062.99,1957.23 1060.5,1963.24 1056.07,1967.67C1051.64,1972.1 1045.63,1974.59 1039.37,1974.59C1004.9,1974.59 944.882,1974.59 944.882,1974.59C944.882,1974.59 944.882,1370.26 944.882,1242.3Z"/>
                        </g>
                        <g id="H2" serif:id="H" transform="matrix(0.54259,0,0,0.387882,624.456,902.923)">
                            <path d="M1460,723.003C1460,729.478 1462.34,735.687 1466.5,740.266C1470.66,744.844 1476.31,747.416 1482.19,747.416C1482.19,747.416 1482.19,747.416 1482.19,747.416C1488.08,747.416 1493.72,744.844 1497.88,740.266C1502.04,735.687 1504.38,729.478 1504.38,723.003C1504.38,601.06 1504.38,63.78 1504.38,63.78L1548.75,63.78C1573.25,63.78 1593.12,85.642 1593.12,112.611C1593.12,361.789 1593.12,1479.88 1593.12,1479.88L1504.38,1626.38C1504.38,1626.38 1504.38,1045.51 1504.38,918.323C1504.38,911.849 1502.04,905.639 1497.88,901.06C1493.72,896.482 1488.08,893.91 1482.19,893.91C1482.19,893.91 1482.19,893.91 1482.19,893.91C1476.31,893.91 1470.66,896.482 1466.5,901.06C1462.34,905.639 1460,911.849 1460,918.323C1460,1045.51 1460,1626.38 1460,1626.38C1460,1626.38 1437.82,1626.38 1415.63,1626.38C1391.13,1626.38 1371.26,1604.52 1371.26,1577.55C1371.26,1328.37 1371.26,210.273 1371.26,210.273L1460,63.78L1460,723.003Z"/>
                        </g>
                        <g id="I1" serif:id="I" transform="matrix(0.54259,0,0,0.387882,1111.21,902.923)">
                            <path d="M740.39,63.78L740.39,1479.88L829.134,1626.38L829.134,210.273L740.39,63.78Z"/>
                        </g>
                        <g id="J" transform="matrix(1.01921,0,0,0.801825,260.997,-49.5062)">
                            <path d="M1299.21,1241.92C1299.21,1229.09 1309.62,1218.68 1322.45,1218.68C1343.18,1218.68 1373.36,1218.68 1394.08,1218.68C1406.92,1218.68 1417.32,1229.09 1417.32,1241.92C1417.32,1354.15 1417.32,1839.12 1417.32,1951.34C1417.32,1964.18 1406.92,1974.59 1394.08,1974.59C1373.36,1974.59 1343.18,1974.59 1322.45,1974.59C1309.62,1974.59 1299.21,1964.18 1299.21,1951.34C1299.21,1859.36 1299.21,1525.77 1299.21,1525.77L1346.46,1454.9L1346.46,1549.39L1346.45,1549.39C1340.98,1549.39 1335.84,1552.02 1332.64,1556.46C1329.44,1560.9 1328.57,1566.61 1330.3,1571.8C1337.23,1592.56 1346.46,1620.26 1346.46,1620.26C1346.46,1620.26 1346.46,1838.28 1346.46,1891.91C1346.46,1898.43 1351.74,1903.72 1358.27,1903.72C1358.27,1903.72 1358.27,1903.72 1358.27,1903.72C1361.4,1903.72 1364.4,1902.48 1366.62,1900.26C1368.83,1898.05 1370.08,1895.04 1370.08,1891.91C1370.08,1814.37 1370.08,1378.89 1370.08,1301.36C1370.08,1298.23 1368.83,1295.22 1366.62,1293.01C1364.4,1290.79 1361.4,1289.55 1358.27,1289.55L1358.27,1289.55C1351.74,1289.55 1346.46,1294.83 1346.46,1301.36C1346.46,1326.7 1346.46,1384.04 1346.46,1384.04L1299.21,1454.9C1299.21,1454.9 1299.21,1301.48 1299.21,1241.92Z"/>
                        </g>
                        <g id="H3" serif:id="H" transform="matrix(1.01921,0,0,0.801825,260.997,-49.5062)">
                            <path d="M1440.94,1218.68L1440.94,1974.59L1464.42,1974.59C1477.55,1974.59 1488.21,1963.95 1488.23,1950.82C1488.37,1875 1488.8,1643.88 1488.8,1643.88L1500.48,1643.88C1506.74,1643.88 1511.81,1648.95 1511.81,1655.2C1511.81,1713.25 1511.81,1974.59 1511.81,1974.59L1559.06,1974.59L1559.06,1620.26C1559.06,1620.26 1558,1619.93 1556.17,1619.36C1546.63,1616.38 1539.99,1607.73 1539.59,1597.74C1539.19,1587.76 1545.12,1578.6 1554.4,1574.88C1557.32,1573.71 1559.06,1573.01 1559.06,1573.01L1559.06,1218.68L1535.39,1218.68C1529.13,1218.68 1523.14,1221.16 1518.72,1225.59C1514.3,1230.01 1511.81,1236 1511.81,1242.26C1511.81,1308.3 1511.81,1493.29 1511.81,1539.05C1511.81,1541.8 1510.72,1544.42 1508.78,1546.36C1506.85,1548.3 1504.22,1549.39 1501.48,1549.39C1495.35,1549.39 1488.78,1549.39 1488.78,1549.39L1488.19,1218.68L1440.94,1218.68Z"/>
                        </g>
                        <g id="L" transform="matrix(0.54259,0,0,0.387882,507.139,902.923)">
                            <path d="M2519.29,63.78C2519.29,63.78 2519.29,1315.69 2519.29,1578.39C2519.29,1604.89 2538.82,1626.38 2562.9,1626.38L2742.52,1626.38L2741.15,1479.88L2741.15,991.572L2652.41,991.572L2652.41,1479.88L2652.41,1479.88C2627.9,1479.88 2608.04,1458.02 2608.04,1431.05C2608.04,1181.88 2608.04,63.78 2608.04,63.78L2519.29,63.78Z"/>
                        </g>
                        <g id="W" transform="matrix(-0.54259,0,0,-0.387882,2399.2,1558.51)">
                            <path d="M346.598,63.78C346.598,63.78 346.598,1315.95 346.598,1578.47C346.598,1591.17 351.185,1603.36 359.349,1612.35C367.514,1621.33 378.588,1626.38 390.135,1626.38L479.714,1626.38C479.714,1626.38 480.07,1624.35 480.724,1620.61C484.863,1596.98 504.052,1580.2 525.906,1581.12C547.761,1582.03 565.74,1600.36 568.238,1624.27C568.382,1625.65 568.458,1626.38 568.458,1626.38L658.038,1626.38C669.585,1626.38 680.658,1621.33 688.823,1612.35C696.988,1603.36 701.575,1591.17 701.575,1578.47C701.575,1315.95 701.575,63.78 701.575,63.78C701.575,63.78 678.828,63.78 656.367,63.78C632.323,63.78 612.831,85.23 612.831,111.692C612.831,334.534 612.831,1266.47 612.831,1448.85C612.831,1465.99 602.898,1479.88 590.645,1479.88C590.645,1479.88 590.644,1479.88 590.644,1479.88C578.391,1479.88 568.458,1465.99 568.458,1448.85C568.458,1245.58 568.458,112.611 568.458,112.611L479.714,259.104C479.714,259.104 479.714,1258.69 479.714,1448.85C479.714,1465.99 469.781,1479.88 457.528,1479.88C457.528,1479.88 457.528,1479.88 457.528,1479.88C445.275,1479.88 435.342,1465.99 435.342,1448.85C435.342,1266.47 435.342,334.534 435.342,111.692C435.342,85.23 415.85,63.78 391.805,63.78C369.344,63.78 346.598,63.78 346.598,63.78Z"/>
                        </g>
                        <g id="Ä" transform="matrix(2.63036,0,0,2.73302,-371.376,1514.83)">
                            <g id="A2" serif:id="A" transform="matrix(0.20628,0,0,0.141924,-446.522,247.371)">
                                <path d="M2777.29,210.273C2791.33,210.273 2804.79,218.075 2814.72,231.963C2824.65,245.851 2830.22,264.687 2830.22,284.327C2830.22,575.578 2830.22,1626.38 2830.22,1626.38C2830.22,1626.38 2814.02,1626.38 2795.57,1626.38C2766.45,1626.38 2742.85,1593.36 2742.85,1552.62C2742.85,1375.89 2742.85,942.741 2742.85,942.741L2698.48,942.741L2698.48,1626.38C2698.48,1626.38 2681.15,1626.38 2661.7,1626.38C2632.24,1626.38 2608.37,1592.98 2608.37,1551.77C2608.37,1307.02 2608.37,530.181 2608.37,285.103C2608.37,265.257 2614,246.224 2624.03,232.19C2634.07,218.157 2647.67,210.273 2661.86,210.273C2696.86,210.273 2742.4,210.273 2777.29,210.273ZM2742.85,387.801C2742.85,370.661 2732.92,356.767 2720.66,356.767C2720.66,356.767 2720.66,356.767 2720.66,356.767C2708.41,356.767 2698.48,370.661 2698.48,387.801C2698.48,487.975 2698.48,796.248 2698.48,796.248L2742.85,796.248C2742.85,796.248 2742.85,487.975 2742.85,387.801Z"/>
                            </g>
                            <g id="UMLAUT" transform="matrix(0.38748,0,0,0.293384,0,-329.82)">
                                <path d="M284.193,1998.21L284.193,2053.55C284.193,2053.55 283.33,2053.84 281.929,2054.31C269.131,2058.62 255.737,2050.71 250.081,2035.49C243.578,2018 236.22,1998.21 236.22,1998.21L284.193,1998.21ZM354.331,1998.21C354.331,1998.21 347.036,2017.46 340.554,2034.56C334.809,2049.72 321.522,2057.74 308.65,2053.8C308.116,2053.64 307.815,2053.55 307.815,2053.55L307.815,1998.21L354.331,1998.21Z"/>
                            </g>
                        </g>
                        <g id="Á" transform="matrix(1.97394,0,0,1.49319,-1310.33,1495.88)">
                            <g id="A3" serif:id="A" transform="matrix(0.274877,0,0,0.259767,173.393,465.452)">
                                <path d="M2777.29,210.273C2791.33,210.273 2804.79,218.075 2814.72,231.963C2824.65,245.851 2830.22,264.687 2830.22,284.327C2830.22,575.578 2830.22,1626.38 2830.22,1626.38C2830.22,1626.38 2814.02,1626.38 2795.57,1626.38C2766.45,1626.38 2742.85,1593.36 2742.85,1552.62C2742.85,1375.89 2742.85,942.741 2742.85,942.741L2698.48,942.741L2698.48,1626.38C2698.48,1626.38 2681.15,1626.38 2661.7,1626.38C2632.24,1626.38 2608.37,1592.98 2608.37,1551.77C2608.37,1307.02 2608.37,530.181 2608.37,285.103C2608.37,265.257 2614,246.224 2624.03,232.19C2634.07,218.157 2647.67,210.273 2661.86,210.273C2696.86,210.273 2742.4,210.273 2777.29,210.273ZM2742.85,387.801C2742.85,370.661 2732.92,356.767 2720.66,356.767C2720.66,356.767 2720.66,356.767 2720.66,356.767C2708.41,356.767 2698.48,370.661 2698.48,387.801C2698.48,487.975 2698.48,796.248 2698.48,796.248L2742.85,796.248C2742.85,796.248 2742.85,487.975 2742.85,387.801Z"/>
                            </g>
                            <g id="UMLAUT1" serif:id="UMLAUT" transform="matrix(0.516335,0,-0.251698,0.536987,1271.35,-590.992)">
                                <path d="M354.331,1998.21C354.331,1998.21 342.696,2028.91 335.757,2047.22C332.617,2055.51 324.046,2058.51 313.08,2055.16C310.029,2054.22 307.815,2053.55 307.815,2053.55L307.815,1998.21L354.331,1998.21Z"/>
                            </g>
                        </g>
                        <g id="À" transform="matrix(2.63036,0,0,2.73302,350.9,1514.83)">
                            <g id="A4" serif:id="A" transform="matrix(0.20628,0,0,0.141924,-446.522,247.371)">
                                <path d="M2777.29,210.273C2791.33,210.273 2804.79,218.075 2814.72,231.963C2824.65,245.851 2830.22,264.687 2830.22,284.327C2830.22,575.578 2830.22,1626.38 2830.22,1626.38C2830.22,1626.38 2814.02,1626.38 2795.57,1626.38C2766.45,1626.38 2742.85,1593.36 2742.85,1552.62C2742.85,1375.89 2742.85,942.741 2742.85,942.741L2698.48,942.741L2698.48,1626.38C2698.48,1626.38 2681.15,1626.38 2661.7,1626.38C2632.24,1626.38 2608.37,1592.98 2608.37,1551.77L2608.37,285.103C2608.37,265.257 2614,246.224 2624.03,232.19C2634.07,218.157 2647.67,210.273 2661.86,210.273C2696.86,210.273 2742.4,210.273 2777.29,210.273ZM2742.85,387.801C2742.85,370.661 2732.92,356.767 2720.66,356.767C2720.66,356.767 2720.66,356.767 2720.66,356.767C2708.41,356.767 2698.48,370.661 2698.48,387.801C2698.48,487.975 2698.48,796.248 2698.48,796.248L2742.85,796.248C2742.85,796.248 2742.85,487.975 2742.85,387.801Z"/>
                            </g>
                            <g id="UMLAUT2" serif:id="UMLAUT" transform="matrix(-0.38748,0,0.188886,0.293384,-148.606,-329.82)">
                                <path d="M354.331,1998.21C354.331,1998.21 342.696,2028.91 335.757,2047.22C332.617,2055.51 324.046,2058.51 313.08,2055.16C310.029,2054.22 307.815,2053.55 307.815,2053.55L307.815,1998.21L354.331,1998.21Z"/>
                            </g>
                        </g>
                        <g id="Ã" transform="matrix(1.97394,0,0,1.49319,-1069.58,1495.88)">
                            <g id="A5" serif:id="A" transform="matrix(0.274877,0,0,0.259767,270.968,465.452)">
                                <path d="M2777.29,210.273C2791.33,210.273 2804.79,218.075 2814.72,231.963C2824.65,245.851 2830.22,264.687 2830.22,284.327C2830.22,575.578 2830.22,1626.38 2830.22,1626.38C2830.22,1626.38 2814.02,1626.38 2795.57,1626.38C2766.45,1626.38 2742.85,1593.36 2742.85,1552.62C2742.85,1375.89 2742.85,942.741 2742.85,942.741L2698.48,942.741L2698.48,1626.38C2698.48,1626.38 2681.15,1626.38 2661.7,1626.38C2632.24,1626.38 2608.37,1592.98 2608.37,1551.77C2608.37,1307.02 2608.37,530.181 2608.37,285.103C2608.37,265.257 2614,246.224 2624.03,232.19C2634.07,218.157 2647.67,210.273 2661.86,210.273C2696.86,210.273 2742.4,210.273 2777.29,210.273ZM2742.85,387.801C2742.85,370.661 2732.92,356.767 2720.66,356.767C2720.66,356.767 2720.66,356.767 2720.66,356.767C2708.41,356.767 2698.48,370.661 2698.48,387.801C2698.48,487.975 2698.48,796.248 2698.48,796.248L2742.85,796.248C2742.85,796.248 2742.85,487.975 2742.85,387.801Z"/>
                            </g>
                            <g transform="matrix(0.644952,0,0,0.703153,-691.067,-939.637)">
                                <path d="M2603.39,2045.45C2603.39,2045.45 2610.15,2038.68 2616.44,2032.39C2622.95,2025.89 2631.88,2024.26 2639.67,2028.16C2646.46,2031.56 2654.8,2035.73 2661.59,2039.12C2669.39,2043.02 2678.31,2041.39 2684.82,2034.89C2691.11,2028.6 2697.87,2021.83 2697.87,2021.83L2697.87,2045.45C2697.87,2045.45 2691.53,2051.99 2685.53,2058.19C2679.05,2064.88 2670.03,2066.64 2662.15,2062.76C2655.16,2059.32 2646.55,2055.07 2639.6,2051.65C2631.84,2047.83 2622.98,2049.47 2616.51,2055.92C2610.18,2062.24 2603.32,2069.07 2603.32,2069.07L2603.39,2045.45Z"/>
                            </g>
                        </g>
                        <g id="Â" transform="matrix(1.97394,0,0,1.49319,-1310.33,1495.88)">
                            <g id="A6" serif:id="A" transform="matrix(0.274877,0,0,0.259767,466.118,465.452)">
                                <path d="M2777.29,210.273C2791.33,210.273 2804.79,218.075 2814.72,231.963C2824.65,245.851 2830.22,264.687 2830.22,284.327C2830.22,575.578 2830.22,1626.38 2830.22,1626.38C2830.22,1626.38 2814.02,1626.38 2795.57,1626.38C2766.45,1626.38 2742.85,1593.36 2742.85,1552.62C2742.85,1375.89 2742.85,942.741 2742.85,942.741L2698.48,942.741L2698.48,1626.38C2698.48,1626.38 2681.15,1626.38 2661.7,1626.38C2632.24,1626.38 2608.37,1592.98 2608.37,1551.77C2608.37,1307.02 2608.37,530.181 2608.37,285.103C2608.37,265.257 2614,246.224 2624.03,232.19C2634.07,218.157 2647.67,210.273 2661.86,210.273C2696.86,210.273 2742.4,210.273 2777.29,210.273ZM2742.85,387.801C2742.85,370.661 2732.92,356.767 2720.66,356.767C2720.66,356.767 2720.66,356.767 2720.66,356.767C2708.41,356.767 2698.48,370.661 2698.48,387.801C2698.48,487.975 2698.48,796.248 2698.48,796.248L2742.85,796.248C2742.85,796.248 2742.85,487.975 2742.85,387.801Z"/>
                            </g>
                            <g transform="matrix(0.516335,0,0,0.687568,-234.337,-908.126)">
                                <path d="M2745.12,2045.45L2745.12,2069.07L2804.17,2045.45L2863.23,2069.07L2863.23,2045.45L2804.9,2021.83L2745.12,2045.45Z"/>
                            </g>
                        </g>
                        <g id="Å" transform="matrix(1.01921,0,0,0.801825,-1772.83,594.479)">
                            <path d="M2501.02,2092.7C2501.02,2092.7 2483.36,2082.1 2471.69,2075.1C2465.46,2071.36 2461.65,2064.63 2461.65,2057.37C2461.65,2057.37 2461.65,2057.37 2461.65,2057.37C2461.65,2049.99 2465.58,2043.17 2471.95,2039.46C2479.83,2034.87 2490.39,2028.73 2496.73,2025.03C2500.34,2022.94 2504.43,2021.83 2508.61,2021.83C2515.58,2021.83 2526.72,2021.83 2533.76,2021.83C2538.03,2021.83 2542.21,2022.99 2545.88,2025.18C2552.04,2028.86 2562.07,2034.87 2569.62,2039.38C2575.91,2043.15 2579.76,2049.94 2579.76,2057.27L2579.76,2057.27C2579.76,2064.6 2575.92,2071.38 2569.64,2075.15C2557.98,2082.14 2540.39,2092.7 2540.39,2092.7L2556.05,2092.7C2562.34,2092.7 2568.37,2095.2 2572.82,2099.64C2577.26,2104.09 2579.76,2110.12 2579.76,2116.41L2579.76,2777.74C2579.76,2777.74 2568.38,2777.74 2556.87,2777.74C2543.82,2777.74 2533.25,2767.16 2533.25,2754.11L2533.25,2447.03L2509.63,2447.03L2509.63,2777.74L2485.55,2777.74C2479.21,2777.74 2473.13,2775.22 2468.65,2770.74C2464.17,2766.26 2461.65,2760.18 2461.65,2753.84C2461.65,2648.07 2461.65,2222.58 2461.65,2116.66C2461.65,2103.43 2472.38,2092.7 2485.62,2092.7L2501.02,2092.7ZM2533.25,2175.37C2533.25,2168.85 2527.96,2163.56 2521.44,2163.56C2521.44,2163.56 2521.44,2163.56 2521.44,2163.56C2514.91,2163.56 2509.63,2168.85 2509.63,2175.37C2509.63,2220.04 2509.63,2376.16 2509.63,2376.16L2533.25,2376.16L2533.25,2175.37ZM2540.39,2057.26C2540.39,2050.74 2535.11,2045.45 2528.58,2045.45L2514.05,2045.45C2507.53,2045.45 2502.24,2050.74 2502.24,2057.26C2502.24,2057.26 2502.24,2057.26 2502.24,2057.26C2502.24,2063.79 2507.53,2069.07 2514.05,2069.07C2518.67,2069.07 2523.96,2069.07 2528.58,2069.07C2535.11,2069.07 2540.39,2063.79 2540.39,2057.26L2540.39,2057.26Z"/>
                        </g>
                        <g id="Æ" transform="matrix(1.01921,0,0,0.801825,-1772.83,594.479)">
                            <path d="M2912.27,2021.83C2932.81,2021.83 3033.8,2021.83 3054.39,2021.83C3067.43,2021.83 3078.01,2032.41 3078.01,2045.45C3078.01,2117.39 3078.01,2328.92 3078.01,2328.92L3030.77,2352.54L3030.77,2104.51C3030.77,2097.98 3025.48,2092.7 3018.96,2092.7C3018.96,2092.7 3018.96,2092.7 3018.95,2092.7C3012.43,2092.7 3007.14,2097.98 3007.14,2104.51C3007.14,2158.14 3007.14,2376.16 3007.14,2376.16L3030.77,2376.16L3077.24,2361.22L3078.01,2440.5L3030.77,2423.41L3007.14,2423.41L3007.14,2695.06C3007.14,2701.58 3012.43,2706.87 3018.95,2706.87C3018.96,2706.87 3018.96,2706.87 3018.96,2706.87C3025.48,2706.87 3030.77,2701.58 3030.77,2695.06C3030.77,2644.28 3030.77,2447.03 3030.77,2447.03L3078.01,2470.65L3078.01,2754.11C3078.01,2767.16 3067.43,2777.74 3054.39,2777.74C3054.39,2777.74 2995.03,2777.74 2983.52,2777.74L2983.23,2777.73L2983.22,2777.73L2982.94,2777.73C2977.07,2777.59 2971.74,2775.31 2967.68,2771.64L2967.64,2771.6L2967.49,2771.46L2967.45,2771.43L2967.43,2771.41L2967.28,2771.27L2967.24,2771.23L2967.22,2771.21L2967.08,2771.07L2967.03,2771.02L2967.03,2771.02C2966.96,2770.95 2966.89,2770.89 2966.82,2770.82L2966.62,2770.62L2966.61,2770.61L2966.57,2770.56L2966.42,2770.41L2966.41,2770.4L2966.37,2770.35L2966.23,2770.2L2966.21,2770.18L2966.18,2770.15L2966.04,2770L2966.01,2769.97L2966,2769.95C2962.33,2765.9 2960.05,2760.56 2959.91,2754.7L2959.9,2754.42L2959.9,2754.41L2959.9,2754.11L2959.9,2447.03L2936.28,2447.03L2936.28,2777.74L2912.2,2777.74C2905.87,2777.74 2899.79,2775.22 2895.3,2770.74C2890.82,2766.26 2888.31,2760.18 2888.31,2753.84C2888.31,2640.64 2888.31,2159.15 2888.31,2045.8C2888.31,2032.56 2899.04,2021.83 2912.27,2021.83ZM2959.9,2104.51C2959.9,2097.98 2954.61,2092.7 2948.09,2092.7C2948.09,2092.7 2948.09,2092.7 2948.09,2092.7C2941.57,2092.7 2936.28,2097.98 2936.28,2104.51C2936.28,2158.14 2936.28,2376.16 2936.28,2376.16L2959.9,2376.16C2959.9,2376.16 2959.9,2158.14 2959.9,2104.51Z"/>
                        </g>
                        <g id="Ö" transform="matrix(2.63036,0,0,2.73302,-226.921,1514.83)">
                            <g id="O1" serif:id="O" transform="matrix(0.38748,0,0,0.293384,-668.201,-102.504)">
                                <path d="M2220.54,1943.63C2220.54,1963.33 2207.97,1979.31 2192.47,1979.31C2173.75,1979.31 2149.22,1979.31 2130.5,1979.31C2115,1979.31 2102.43,1963.33 2102.43,1943.63C2102.43,1825.52 2102.43,1448.06 2102.43,1329.95C2102.43,1310.24 2115,1294.27 2130.5,1294.27C2149.22,1294.27 2173.75,1294.27 2192.47,1294.27C2207.97,1294.27 2220.54,1310.24 2220.54,1329.95L2220.54,1943.63ZM2161.49,1908.44C2168.01,1908.44 2173.3,1901.72 2173.3,1893.43C2173.3,1815.53 2173.3,1458.04 2173.3,1380.15C2173.3,1371.86 2168.01,1365.13 2161.49,1365.13C2161.49,1365.13 2161.49,1365.13 2161.49,1365.13C2154.96,1365.13 2149.68,1371.86 2149.68,1380.15C2149.68,1458.04 2149.68,1815.53 2149.68,1893.43C2149.68,1901.72 2154.96,1908.44 2161.49,1908.44C2161.49,1908.44 2161.49,1908.44 2161.49,1908.44Z"/>
                            </g>
                            <g id="UMLAUT3" serif:id="UMLAUT" transform="matrix(0.38748,0,0,0.293384,54.9185,-329.82)">
                                <path d="M284.193,1998.21L284.193,2053.55C284.193,2053.55 283.33,2053.84 281.929,2054.31C269.131,2058.62 255.737,2050.71 250.081,2035.49C243.578,2018 236.22,1998.21 236.22,1998.21L284.193,1998.21ZM354.331,1998.21C354.331,1998.21 347.036,2017.46 340.554,2034.56C334.809,2049.72 321.522,2057.74 308.65,2053.8C308.116,2053.64 307.815,2053.55 307.815,2053.55L307.815,1998.21L354.331,1998.21Z"/>
                            </g>
                        </g>
                        <g id="Ü" transform="matrix(2.63036,0,0,2.73302,-226.921,1514.83)">
                            <g id="U" transform="matrix(0.38748,0,0,0.293384,-1079.24,-101.119)">
                                <path d="M3021.51,1289.55L3040.57,1289.55C3056.15,1289.55 3068.81,1305.56 3068.87,1325.37C3069.28,1442.3 3070.54,1809.84 3070.81,1888.72C3070.84,1897.01 3076.14,1903.72 3082.67,1903.72C3082.67,1903.72 3082.67,1903.72 3082.67,1903.72C3085.8,1903.72 3088.8,1902.14 3091.01,1899.32C3093.23,1896.5 3094.46,1892.68 3094.45,1888.7C3094.28,1809.83 3093.45,1442.83 3093.18,1325.63C3093.16,1316.07 3096.13,1306.89 3101.44,1300.12C3106.75,1293.35 3113.97,1289.55 3121.49,1289.55C3131.18,1289.55 3139.62,1289.55 3139.62,1289.55C3139.62,1289.55 3141.19,1797.88 3141.62,1938.77C3141.65,1948.26 3138.71,1957.37 3133.44,1964.09C3128.17,1970.81 3121.02,1974.59 3113.55,1974.59C3094.26,1974.59 3068.78,1974.59 3049.51,1974.59C3042.07,1974.59 3034.93,1970.83 3029.66,1964.13C3024.4,1957.44 3021.44,1948.37 3021.44,1938.9C3021.45,1798.21 3021.51,1289.55 3021.51,1289.55Z"/>
                            </g>
                            <g id="UMLAUT4" serif:id="UMLAUT" transform="matrix(0.38748,0,0,0.293384,-0.0264874,-329.82)">
                                <path d="M284.193,1998.21L284.193,2053.55C284.193,2053.55 283.33,2053.84 281.929,2054.31C269.131,2058.62 255.737,2050.71 250.081,2035.49C243.578,2018 236.22,1998.21 236.22,1998.21L284.193,1998.21ZM354.331,1998.21C354.331,1998.21 347.036,2017.46 340.554,2034.56C334.809,2049.72 321.522,2057.74 308.65,2053.8C308.116,2053.64 307.815,2053.55 307.815,2053.55L307.815,1998.21L354.331,1998.21Z"/>
                            </g>
                        </g>
                        <g id="ß" transform="matrix(1.01921,0,0,0.801825,-226.921,613.42)">
                            <path d="M519.685,2754.11L542.999,2754.11C556.215,2754.11 566.929,2743.4 566.929,2730.18L566.929,2319.58L590.551,2352.54L614.173,2376.16L590.551,2399.78L590.551,2612.38L637.795,2565.14L637.795,2352.54C637.795,2352.54 636.721,2352.32 634.777,2351.93C623.804,2349.74 615.906,2340.11 615.906,2328.92C615.906,2317.73 623.804,2308.09 634.777,2305.9C634.777,2305.9 634.777,2305.9 634.777,2305.9C636.532,2305.55 637.795,2304.01 637.795,2302.22C637.795,2277.3 637.795,2107.62 637.795,2033.14C637.795,2023.87 634.9,2014.99 629.747,2008.44C624.593,2001.89 617.604,1998.21 610.315,1998.21C591.323,1998.21 566.158,1998.21 547.165,1998.21C539.877,1998.21 532.887,2001.89 527.734,2008.44C522.58,2014.99 519.685,2023.87 519.685,2033.14C519.685,2181.78 519.685,2754.11 519.685,2754.11ZM590.551,2080.88C590.551,2074.36 585.264,2069.07 578.741,2069.07C578.74,2069.07 578.74,2069.07 578.739,2069.07C572.217,2069.07 566.929,2074.36 566.929,2080.88C566.929,2129.73 566.929,2313.42 566.929,2313.42L590.551,2281.67L590.551,2080.88Z"/>
                        </g>
                        <g id="É" transform="matrix(1.97394,0,0,1.49319,-2707.12,2139.87)">
                            <g id="UMLAUT5" serif:id="UMLAUT" transform="matrix(0.516335,0,-0.251698,0.536987,1820.21,-590.992)">
                                <path d="M354.331,1998.21C354.331,1998.21 342.696,2028.91 335.757,2047.22C332.617,2055.51 324.046,2058.51 313.08,2055.16C310.029,2054.22 307.815,2053.55 307.815,2053.55L307.815,1998.21L354.331,1998.21Z"/>
                            </g>
                            <g id="E3" serif:id="E" transform="matrix(0.271402,0,0,0.259767,997.865,465.452)">
                                <path d="M1738.73,1479.88C1751.14,1479.88 1761.2,1465.99 1761.2,1448.85C1761.2,1334.42 1761.2,942.741 1761.2,942.741L1851.08,991.572C1851.08,991.572 1851.08,1385.35 1851.08,1552.62C1851.08,1593.36 1827.17,1626.38 1797.68,1626.38C1762.06,1626.38 1715.4,1626.38 1679.78,1626.38C1665.62,1626.38 1652.03,1618.61 1642.02,1604.78C1632,1590.94 1626.38,1572.18 1626.38,1552.62C1626.38,1386.63 1626.38,992.03 1626.38,913.488C1626.38,900.301 1632.61,887.892 1643.19,880.02C1643.24,879.987 1643.28,879.954 1643.33,879.92C1654.32,871.742 1660.79,858.838 1660.76,845.136C1660.73,831.434 1654.22,818.556 1643.19,810.42C1643.19,810.42 1643.19,810.419 1643.19,810.419C1632.62,802.617 1626.38,790.258 1626.38,777.119C1626.38,702.011 1626.31,419.768 1626.27,284.052C1626.26,264.487 1631.89,245.721 1641.9,231.884C1651.92,218.047 1665.5,210.273 1679.67,210.273C1715.3,210.273 1761.95,210.273 1797.57,210.273C1827.05,210.273 1850.96,243.277 1850.97,283.999C1851.01,420.446 1851.08,698.585 1851.08,698.585L1761.2,747.416C1761.2,747.416 1761.11,479.896 1761.08,387.619C1761.07,370.577 1751.07,356.767 1738.73,356.767C1738.73,356.767 1738.73,356.767 1738.73,356.767C1732.74,356.767 1726.99,360.056 1722.75,365.911C1718.51,371.765 1716.13,379.705 1716.14,387.983C1716.17,488.347 1716.26,796.248 1716.26,796.248L1761.2,796.248L1849.61,765.354L1851.08,929.247L1761.2,893.91L1716.26,893.91C1716.26,893.91 1716.26,1327.79 1716.26,1448.85C1716.26,1465.99 1726.32,1479.88 1738.73,1479.88C1738.73,1479.88 1738.73,1479.88 1738.73,1479.88Z"/>
                            </g>
                        </g>
                        <g id="È" transform="matrix(1.97394,0,0,1.49319,-2707.12,2139.87)">
                            <g id="UMLAUT6" serif:id="UMLAUT" transform="matrix(-0.516335,0,0.251698,0.536987,1192.38,-590.992)">
                                <path d="M354.331,1998.21C354.331,1998.21 342.696,2028.91 335.757,2047.22C332.617,2055.51 324.046,2058.51 313.08,2055.16C310.029,2054.22 307.815,2053.55 307.815,2053.55L307.815,1998.21L354.331,1998.21Z"/>
                            </g>
                            <g id="E4" serif:id="E" transform="matrix(0.271402,0,0,0.259767,1071.01,465.452)">
                                <path d="M1738.73,1479.88C1751.14,1479.88 1761.2,1465.99 1761.2,1448.85C1761.2,1334.42 1761.2,942.741 1761.2,942.741L1851.08,991.572C1851.08,991.572 1851.08,1385.35 1851.08,1552.62C1851.08,1593.36 1827.17,1626.38 1797.68,1626.38C1762.06,1626.38 1715.4,1626.38 1679.78,1626.38C1665.62,1626.38 1652.03,1618.61 1642.02,1604.78C1632,1590.94 1626.38,1572.18 1626.38,1552.62C1626.38,1386.63 1626.38,992.03 1626.38,913.488C1626.38,900.301 1632.61,887.892 1643.19,880.02C1643.24,879.987 1643.28,879.954 1643.33,879.92C1654.32,871.742 1660.79,858.838 1660.76,845.136C1660.73,831.434 1654.22,818.556 1643.19,810.42C1643.19,810.42 1643.19,810.419 1643.19,810.419C1632.62,802.617 1626.38,790.258 1626.38,777.119C1626.38,702.011 1626.31,419.768 1626.27,284.052C1626.26,264.487 1631.89,245.721 1641.9,231.884C1651.92,218.047 1665.5,210.273 1679.67,210.273C1715.3,210.273 1761.95,210.273 1797.57,210.273C1827.05,210.273 1850.96,243.277 1850.97,283.999C1851.01,420.446 1851.08,698.585 1851.08,698.585L1761.2,747.416C1761.2,747.416 1761.11,479.896 1761.08,387.619C1761.07,370.577 1751.07,356.767 1738.73,356.767C1738.73,356.767 1738.73,356.767 1738.73,356.767C1732.74,356.767 1726.99,360.056 1722.75,365.911C1718.51,371.765 1716.13,379.705 1716.14,387.983C1716.17,488.347 1716.26,796.248 1716.26,796.248L1761.2,796.248L1849.61,765.354L1851.08,929.247L1761.2,893.91L1716.26,893.91C1716.26,893.91 1716.26,1327.79 1716.26,1448.85C1716.26,1465.99 1726.32,1479.88 1738.73,1479.88C1738.73,1479.88 1738.73,1479.88 1738.73,1479.88Z"/>
                            </g>
                        </g>
                        <g id="Ë" transform="matrix(1.97394,0,0,1.49319,-2707.12,2139.87)">
                            <g id="E5" serif:id="E" transform="matrix(0.271402,0,0,0.259767,1144.22,465.452)">
                                <path d="M1738.73,1479.88C1751.14,1479.88 1761.2,1465.99 1761.2,1448.85C1761.2,1334.42 1761.2,942.741 1761.2,942.741L1851.08,991.572C1851.08,991.572 1851.08,1385.35 1851.08,1552.62C1851.08,1593.36 1827.17,1626.38 1797.68,1626.38C1762.06,1626.38 1715.4,1626.38 1679.78,1626.38C1665.62,1626.38 1652.03,1618.61 1642.02,1604.78C1632,1590.94 1626.38,1572.18 1626.38,1552.62C1626.38,1386.63 1626.38,992.03 1626.38,913.488C1626.38,900.301 1632.61,887.892 1643.19,880.02C1643.24,879.987 1643.28,879.954 1643.33,879.92C1654.32,871.742 1660.79,858.838 1660.76,845.136C1660.73,831.434 1654.22,818.556 1643.19,810.42C1643.19,810.42 1643.19,810.419 1643.19,810.419C1632.62,802.617 1626.38,790.258 1626.38,777.119C1626.38,702.011 1626.31,419.768 1626.27,284.052C1626.26,264.487 1631.89,245.721 1641.9,231.884C1651.92,218.047 1665.5,210.273 1679.67,210.273C1715.3,210.273 1761.95,210.273 1797.57,210.273C1827.05,210.273 1850.96,243.277 1850.97,283.999C1851.01,420.446 1851.08,698.585 1851.08,698.585L1761.2,747.416C1761.2,747.416 1761.11,479.896 1761.08,387.619C1761.07,370.577 1751.07,356.767 1738.73,356.767C1738.73,356.767 1738.73,356.767 1738.73,356.767C1732.74,356.767 1726.99,360.056 1722.75,365.911C1718.51,371.765 1716.13,379.705 1716.14,387.983C1716.17,488.347 1716.26,796.248 1716.26,796.248L1761.2,796.248L1849.61,765.354L1851.08,929.247L1761.2,893.91L1716.26,893.91C1716.26,893.91 1716.26,1327.79 1716.26,1448.85C1716.26,1465.99 1726.32,1479.88 1738.73,1479.88C1738.73,1479.88 1738.73,1479.88 1738.73,1479.88Z"/>
                            </g>
                            <g id="UMLAUT7" serif:id="UMLAUT" transform="matrix(0.516335,0,0,0.536987,1463.55,-590.992)">
                                <path d="M284.193,1998.21L284.193,2053.55C284.193,2053.55 283.33,2053.84 281.929,2054.31C269.131,2058.62 255.737,2050.71 250.081,2035.49C243.578,2018 236.22,1998.21 236.22,1998.21L284.193,1998.21ZM354.331,1998.21C354.331,1998.21 347.036,2017.46 340.554,2034.56C334.809,2049.72 321.522,2057.74 308.65,2053.8C308.116,2053.64 307.815,2053.55 307.815,2053.55L307.815,1998.21L354.331,1998.21Z"/>
                            </g>
                        </g>
                        <g id="Ê" transform="matrix(1.97394,0,0,1.49319,-2707.12,2139.87)">
                            <g id="E6" serif:id="E" transform="matrix(0.271402,0,0,0.259767,1217.44,465.452)">
                                <path d="M1738.73,1479.88C1751.14,1479.88 1761.2,1465.99 1761.2,1448.85C1761.2,1334.42 1761.2,942.741 1761.2,942.741L1851.08,991.572C1851.08,991.572 1851.08,1385.35 1851.08,1552.62C1851.08,1593.36 1827.17,1626.38 1797.68,1626.38C1762.06,1626.38 1715.4,1626.38 1679.78,1626.38C1665.62,1626.38 1652.03,1618.61 1642.02,1604.78C1632,1590.94 1626.38,1572.18 1626.38,1552.62C1626.38,1386.63 1626.38,992.03 1626.38,913.488C1626.38,900.301 1632.61,887.892 1643.19,880.02C1643.24,879.987 1643.28,879.954 1643.33,879.92C1654.32,871.742 1660.79,858.838 1660.76,845.136C1660.73,831.434 1654.22,818.556 1643.19,810.42C1643.19,810.42 1643.19,810.419 1643.19,810.419C1632.62,802.617 1626.38,790.258 1626.38,777.119C1626.38,702.011 1626.31,419.768 1626.27,284.052C1626.26,264.487 1631.89,245.721 1641.9,231.884C1651.92,218.047 1665.5,210.273 1679.67,210.273C1715.3,210.273 1761.95,210.273 1797.57,210.273C1827.05,210.273 1850.96,243.277 1850.97,283.999C1851.01,420.446 1851.08,698.585 1851.08,698.585L1761.2,747.416C1761.2,747.416 1761.11,479.896 1761.08,387.619C1761.07,370.577 1751.07,356.767 1738.73,356.767C1738.73,356.767 1738.73,356.767 1738.73,356.767C1732.74,356.767 1726.99,360.056 1722.75,365.911C1718.51,371.765 1716.13,379.705 1716.14,387.983C1716.17,488.347 1716.26,796.248 1716.26,796.248L1761.2,796.248L1849.61,765.354L1851.08,929.247L1761.2,893.91L1716.26,893.91C1716.26,893.91 1716.26,1327.79 1716.26,1448.85C1716.26,1465.99 1726.32,1479.88 1738.73,1479.88C1738.73,1479.88 1738.73,1479.88 1738.73,1479.88Z"/>
                            </g>
                            <g transform="matrix(0.516335,0,0,0.687568,241.334,-908.126)">
                                <path d="M2745.12,2045.45L2745.12,2069.07L2804.17,2045.45L2863.23,2069.07L2863.23,2045.45L2804.9,2021.83L2745.12,2045.45Z"/>
                            </g>
                        </g>
                        <g id="Ç" transform="matrix(1.01921,0,0,0.801825,-3410.37,1238.46)">
                            <path d="M3382.91,2706.87L3359.29,2706.87C3353.03,2706.87 3347.02,2704.38 3342.59,2699.95C3338.16,2695.52 3335.67,2689.51 3335.67,2683.24C3335.68,2577.82 3335.72,2150.87 3335.74,2045.45C3335.74,2032.4 3346.31,2021.83 3359.36,2021.83C3379.94,2021.83 3409.64,2021.83 3430.23,2021.83C3436.49,2021.83 3442.5,2024.32 3446.93,2028.75C3451.36,2033.18 3453.85,2039.19 3453.85,2045.45C3453.85,2106.76 3453.85,2266.25 3453.85,2266.25L3420.1,2281.67L3406.6,2234.43L3406.6,2104.61C3406.6,2101.45 3405.35,2098.42 3403.12,2096.18C3400.88,2093.95 3397.85,2092.7 3394.69,2092.7C3394.69,2092.7 3394.69,2092.7 3394.69,2092.7C3388.22,2092.7 3382.98,2097.94 3382.98,2104.41C3382.97,2175.82 3382.92,2552.14 3382.91,2624.1C3382.91,2627.26 3384.17,2630.28 3386.4,2632.52C3388.63,2634.75 3391.66,2636 3394.82,2636C3394.82,2636 3394.82,2636 3394.82,2636C3401.29,2636 3406.54,2630.76 3406.54,2624.28C3406.55,2570.81 3406.6,2352.54 3406.6,2352.54L3420.14,2304.86L3453.85,2320.29C3453.85,2320.29 3453.8,2599.3 3453.78,2683.25C3453.78,2696.3 3443.21,2706.87 3430.16,2706.87L3406.53,2706.87L3406.53,2706.87C3406.53,2713.99 3412.31,2719.77 3419.43,2719.77L3430.34,2719.77C3443.28,2719.77 3453.78,2730.26 3453.78,2743.21L3453.78,2754.29C3453.78,2760.51 3451.31,2766.47 3446.91,2770.87C3442.52,2775.27 3436.55,2777.74 3430.34,2777.74L3358.56,2777.74C3358.56,2777.74 3358.56,2777.72 3358.56,2777.69C3358.53,2771.45 3360.98,2765.45 3365.38,2761.03C3369.78,2756.6 3375.76,2754.11 3382.01,2754.11L3423.91,2754.11C3425.57,2754.11 3427.16,2753.46 3428.33,2752.28C3429.5,2751.12 3430.16,2749.53 3430.16,2747.87C3430.16,2747.87 3430.16,2747.87 3430.16,2747.87C3430.16,2746.21 3429.5,2744.63 3428.33,2743.45C3427.16,2742.28 3425.57,2741.63 3423.91,2741.63C3419.35,2741.63 3412.84,2741.63 3406.36,2741.63C3400.14,2741.63 3394.18,2739.16 3389.78,2734.76C3385.38,2730.36 3382.91,2724.4 3382.91,2718.18L3382.91,2706.87Z"/>
                        </g>
                        <g id="_-" serif:id="!" transform="matrix(2.29975,0,0,2.50079,123.872,2275.18)">
                            <g id="I2" serif:id="I" transform="matrix(0.20628,0,0,0.141924,158.477,247.371)">
                                <path d="M740.39,63.78L740.39,1284.56L829.134,1382.22L829.134,161.442L740.39,63.78Z"/>
                            </g>
                            <g transform="matrix(0.38748,0,0,0.293384,0,-329.82)">
                                <path d="M803.15,2636L850.394,2683.25L850.394,2754.11L803.15,2706.87L803.15,2636Z"/>
                            </g>
                        </g>
                        <g id="_-1" serif:id="¡" transform="matrix(-2.29975,0,0,-2.50079,1786.8,4112.3)">
                            <g id="I3" serif:id="I" transform="matrix(0.20628,0,0,0.141924,158.477,247.371)">
                                <path d="M740.39,63.78L740.39,1284.56L829.134,1382.22L829.134,161.442L740.39,63.78Z"/>
                            </g>
                            <g transform="matrix(0.38748,0,0,0.293384,0,-329.82)">
                                <path d="M803.15,2636L850.394,2683.25L850.394,2754.11L803.15,2706.87L803.15,2636Z"/>
                            </g>
                        </g>
                        <g id="_-2" serif:id="?" transform="matrix(2.29975,0,0,2.50079,123.872,2275.18)">
                            <g id="s2" serif:id="s" transform="matrix(-0.38748,0,0,0.293384,503.419,228.701)">
                                <path d="M519.685,307.087C519.685,307.087 519.685,196.091 519.685,134.502C519.685,112.403 534.435,94.488 552.63,94.488C568.929,94.488 588.551,94.488 604.85,94.488C613.588,94.488 621.967,98.704 628.146,106.208C634.324,113.712 637.795,123.889 637.795,134.502C637.795,207.384 637.795,354.331 637.795,354.331L614.173,389.147L590.551,307.087C590.551,307.087 590.551,215.713 590.551,179.698C590.551,175.894 589.307,172.246 587.092,169.556C584.877,166.866 581.873,165.354 578.741,165.354C578.74,165.354 578.74,165.354 578.739,165.354C575.607,165.354 572.603,166.866 570.388,169.556C568.173,172.246 566.929,175.894 566.929,179.698C566.929,215.713 566.929,307.087 566.929,307.087C566.929,307.087 637.795,543.307 637.795,543.307C637.795,543.307 637.795,636.805 637.795,692.27C637.795,714.369 623.045,732.283 604.85,732.283C588.551,732.283 568.929,732.283 552.63,732.283C543.893,732.283 535.513,728.068 529.334,720.564C523.156,713.06 519.685,702.882 519.685,692.27C519.685,624.891 519.685,496.063 519.685,496.063L543.307,461.246L566.929,543.307C566.929,543.307 566.929,615.608 566.929,647.073C566.929,654.995 572.217,661.417 578.739,661.417C578.74,661.417 578.74,661.417 578.741,661.417C585.264,661.417 590.551,654.995 590.551,647.073C590.551,615.608 590.551,543.307 590.551,543.307C590.551,543.307 519.685,307.087 519.685,307.087Z"/>
                            </g>
                            <g transform="matrix(0.38748,0,0,0.440077,0,-730.362)">
                                <path d="M708.661,2683.25L732.283,2683.25C732.283,2683.25 739.246,2701.82 745.611,2718.79C748.029,2725.23 746.532,2732.23 741.577,2737.64C736.622,2743.05 728.794,2746.24 720.474,2746.24C720.473,2746.24 720.472,2746.24 720.471,2746.24C712.151,2746.24 704.323,2743.05 699.368,2737.64C694.413,2732.23 692.916,2725.23 695.334,2718.79C701.699,2701.82 708.661,2683.25 708.661,2683.25Z"/>
                            </g>
                        </g>
                        <g id="_-3" serif:id="¿" transform="matrix(-2.29975,0,0,-2.50079,1597.36,4112.3)">
                            <g id="s3" serif:id="s" transform="matrix(-0.38748,0,0,0.293384,503.419,228.701)">
                                <path d="M519.685,307.087C519.685,307.087 519.685,196.091 519.685,134.502C519.685,112.403 534.435,94.488 552.63,94.488C568.929,94.488 588.551,94.488 604.85,94.488C613.588,94.488 621.967,98.704 628.146,106.208C634.324,113.712 637.795,123.889 637.795,134.502C637.795,207.384 637.795,354.331 637.795,354.331L614.173,389.147L590.551,307.087C590.551,307.087 590.551,215.713 590.551,179.698C590.551,171.776 585.264,165.354 578.741,165.354C578.74,165.354 578.74,165.354 578.739,165.354C572.217,165.354 566.929,171.776 566.929,179.698C566.929,215.713 566.929,307.087 566.929,307.087C566.929,307.087 637.795,543.307 637.795,543.307L637.795,692.27C637.795,714.369 623.045,732.283 604.85,732.283C588.551,732.283 568.929,732.283 552.63,732.283C543.893,732.283 535.513,728.068 529.334,720.564C523.156,713.06 519.685,702.882 519.685,692.27C519.685,624.891 519.685,496.063 519.685,496.063L543.307,461.246L566.929,543.307C566.929,543.307 566.929,615.608 566.929,647.073C566.929,654.995 572.217,661.417 578.739,661.417C578.74,661.417 578.74,661.417 578.741,661.417C585.264,661.417 590.551,654.995 590.551,647.073C590.551,615.608 590.551,543.307 590.551,543.307C590.551,543.307 519.685,307.087 519.685,307.087Z"/>
                            </g>
                            <g transform="matrix(0.38748,0,0,0.440077,0,-730.362)">
                                <path d="M708.661,2683.25L732.283,2683.25C732.283,2683.25 739.246,2701.82 745.611,2718.79C748.029,2725.23 746.532,2732.23 741.577,2737.64C736.622,2743.05 728.794,2746.24 720.474,2746.24C720.473,2746.24 720.472,2746.24 720.471,2746.24C712.151,2746.24 704.323,2743.05 699.368,2737.64C694.413,2732.23 692.916,2725.23 695.334,2718.79C701.699,2701.82 708.661,2683.25 708.661,2683.25Z"/>
                            </g>
                        </g>
                        <g id=":" transform="matrix(0.891107,0,0,0.733692,-280.494,1450.37)">
                            <path d="M1611.26,2541.51L1564.02,2541.51C1564.02,2541.51 1568.91,2476.72 1571.45,2443.12C1572.29,2431.95 1580,2423.41 1589.23,2423.41C1589.6,2423.41 1589.97,2423.41 1590.33,2423.41C1596.99,2423.41 1602.56,2429.56 1603.19,2437.61C1605.63,2469.01 1611.26,2541.51 1611.26,2541.51ZM1603.83,2309.21C1602.99,2320.37 1595.27,2328.92 1586.04,2328.92C1585.67,2328.92 1585.31,2328.92 1584.94,2328.92C1578.28,2328.92 1572.72,2322.76 1572.09,2314.71C1569.65,2283.32 1564.02,2210.81 1564.02,2210.81L1611.26,2210.81C1611.26,2210.81 1606.37,2275.6 1603.83,2309.21Z"/>
                        </g>
                        <g id="_-4" serif:id="(" transform="matrix(0.891107,0,0,0.733692,-280.494,1450.37)">
                            <path d="M1666.82,1998.21C1658.35,1998.21 1650.22,2002.29 1644.24,2009.57C1638.25,2016.84 1634.88,2026.71 1634.88,2036.99C1634.88,2166.85 1634.88,2585.47 1634.88,2715.33C1634.88,2725.62 1638.25,2735.48 1644.24,2742.75C1650.22,2750.03 1658.35,2754.11 1666.82,2754.11C1685.62,2754.11 1705.75,2754.11 1705.75,2754.11L1705.75,2659.62L1704.18,2659.62C1695.71,2659.62 1687.59,2655.54 1681.6,2648.27C1675.61,2640.99 1672.24,2631.13 1672.24,2620.84L1672.24,2107.86C1672.24,2097.57 1675.61,2087.71 1681.6,2080.43C1687.59,2073.16 1695.71,2069.07 1704.18,2069.07C1705.17,2069.07 1705.75,2069.07 1705.75,2069.07L1705.75,1998.21C1705.75,1998.21 1685.62,1998.21 1666.82,1998.21Z"/>
                        </g>
                        <g id="_-5" serif:id=")" transform="matrix(-0.891107,0,0,0.733692,2780.56,1450.37)">
                            <path d="M1666.82,1998.21C1658.35,1998.21 1650.22,2002.29 1644.24,2009.57C1638.25,2016.84 1634.88,2026.71 1634.88,2036.99C1634.88,2166.85 1634.88,2585.47 1634.88,2715.33C1634.88,2725.62 1638.25,2735.48 1644.24,2742.75C1650.22,2750.03 1658.35,2754.11 1666.82,2754.11C1685.62,2754.11 1705.75,2754.11 1705.75,2754.11L1705.75,2659.62C1705.75,2659.62 1705.17,2659.62 1704.18,2659.62C1695.71,2659.62 1687.59,2655.54 1681.6,2648.27C1675.61,2640.99 1672.24,2631.13 1672.24,2620.84C1672.24,2513.77 1672.24,2214.93 1672.24,2107.86C1672.24,2097.57 1675.61,2087.71 1681.6,2080.43C1687.59,2073.16 1695.71,2069.07 1704.18,2069.07C1705.17,2069.07 1705.75,2069.07 1705.75,2069.07L1705.75,1998.21C1705.75,1998.21 1685.62,1998.21 1666.82,1998.21Z"/>
                        </g>
                        <g id="_." serif:id="." transform="matrix(0.891107,0,0,0.733692,-280.494,1450.37)">
                            <path d="M1871.1,2754.11L1823.86,2754.11C1823.86,2754.11 1827.45,2707.16 1829.57,2679.45C1830.43,2668.22 1838.19,2659.62 1847.48,2659.62C1847.54,2659.62 1847.59,2659.62 1847.65,2659.62C1856.84,2659.62 1864.53,2668.13 1865.38,2679.25C1867.49,2706.93 1871.1,2754.11 1871.1,2754.11Z"/>
                        </g>
                        <g id="_-6" serif:id="," transform="matrix(0.936756,0,0,0.771277,-329.982,1434.52)">
                            <path d="M1894.72,2659.62C1894.72,2659.62 1894.72,2629.11 1894.72,2602.76C1894.72,2581.98 1908.59,2565.14 1925.7,2565.14C1934.61,2565.14 1941.97,2565.14 1941.97,2565.14C1941.97,2565.14 1941.97,2690.14 1941.97,2716.49C1941.97,2726.47 1938.7,2736.04 1932.9,2743.1C1927.09,2750.15 1919.21,2754.11 1910.99,2754.11C1902.08,2754.11 1894.72,2754.11 1894.72,2754.11C1894.72,2754.11 1894.72,2746.04 1894.72,2739.33C1894.72,2736.99 1895.49,2734.74 1896.86,2733.08C1898.22,2731.42 1900.07,2730.49 1902,2730.49C1902,2730.49 1902,2730.49 1902,2730.49C1906.34,2730.49 1910.49,2728.4 1913.56,2724.68C1916.62,2720.95 1918.35,2715.91 1918.35,2710.64C1918.35,2703.72 1918.35,2695.81 1918.35,2688.31C1918.35,2680.7 1915.86,2673.41 1911.43,2668.03C1907,2662.65 1900.99,2659.62 1894.73,2659.62C1894.73,2659.62 1894.72,2659.62 1894.72,2659.62Z"/>
                        </g>
                        <g id="_-7" serif:id="-" transform="matrix(0.936756,0,0,0.771277,864.999,1361.65)">
                            <rect x="690" y="2352.54" width="70.866" height="47.244"/>
                        </g>
                        <g id="O2" serif:id="O" transform="matrix(1.01921,0,0,0.801825,-1836.42,594.479)">
                            <path d="M2220.47,1950.96C2220.47,1964.01 2209.9,1974.59 2196.85,1974.59L2125.98,1974.59C2112.94,1974.59 2102.36,1964.01 2102.36,1950.96C2102.36,1838.16 2102.36,1355.11 2102.36,1242.3C2102.36,1229.26 2112.94,1218.68 2125.98,1218.68L2196.85,1218.68C2209.9,1218.68 2220.47,1229.26 2220.47,1242.3L2220.47,1950.96ZM2161.42,1903.72C2164.55,1903.72 2167.55,1902.48 2169.77,1900.26C2171.98,1898.05 2173.23,1895.04 2173.23,1891.91L2173.23,1301.36C2173.23,1298.23 2171.98,1295.22 2169.77,1293.01C2167.55,1290.79 2164.55,1289.55 2161.42,1289.55L2161.42,1289.55C2158.28,1289.55 2155.28,1290.79 2153.07,1293.01C2150.85,1295.22 2149.61,1298.23 2149.61,1301.36C2149.61,1378.89 2149.61,1814.37 2149.61,1891.91C2149.61,1895.04 2150.85,1898.05 2153.07,1900.26C2155.28,1902.48 2158.28,1903.72 2161.42,1903.72L2161.42,1903.72Z"/>
                        </g>
                        <g id="Q" transform="matrix(1.01921,0,0,0.801825,-1548.25,592.097)">
                            <path d="M2221.2,1859.68C2221.2,1872.6 2210.73,1883.07 2197.81,1883.07C2197.66,1883.07 2197.58,1883.07 2197.58,1883.07C2197.58,1883.07 2206.93,1920.47 2213.86,1948.21C2215.63,1955.26 2214.04,1962.74 2209.57,1968.47C2205.09,1974.21 2198.22,1977.56 2190.95,1977.56C2181.72,1977.56 2173.96,1977.56 2173.96,1977.56L2150.33,1883.07L2127.08,1883.07C2120.72,1883.07 2114.62,1880.54 2110.12,1876.04C2105.62,1871.54 2103.09,1865.44 2103.09,1859.08C2103.09,1755.59 2103.09,1348.03 2103.09,1245.27C2103.09,1239.01 2105.58,1233 2110.01,1228.57C2114.44,1224.14 2120.45,1221.65 2126.71,1221.65C2147.3,1221.65 2176.99,1221.65 2197.58,1221.65C2203.84,1221.65 2209.85,1224.14 2214.28,1228.57C2218.71,1233 2221.2,1239.01 2221.2,1245.27C2221.2,1348.23 2221.2,1757.17 2221.2,1859.68ZM2162.14,1292.52C2159.01,1292.52 2156.01,1293.76 2153.79,1295.98C2151.58,1298.19 2150.33,1301.2 2150.33,1304.33C2150.33,1370.68 2150.33,1694.09 2150.33,1694.09L2173.96,1788.58L2173.96,1304.33C2173.96,1301.2 2172.71,1298.19 2170.5,1295.98C2168.28,1293.76 2165.28,1292.52 2162.15,1292.52L2162.14,1292.52Z"/>
                        </g>
                        <g id="R4" serif:id="R" transform="matrix(1.01921,0,0,0.801825,-1836.42,594.479)">
                            <path d="M2550.94,1218.68C2538.03,1218.68 2527.56,1229.15 2527.56,1242.06C2527.56,1369.49 2527.56,1974.59 2527.56,1974.59L2574.8,1974.59C2574.8,1974.59 2574.8,1876.77 2574.8,1843.66C2574.8,1840.79 2575.94,1838.05 2577.97,1836.02C2579.99,1833.99 2582.74,1832.85 2585.61,1832.85C2585.61,1832.85 2585.61,1832.85 2585.61,1832.85C2589,1832.85 2592.24,1834.21 2594.62,1836.62C2597.01,1839.02 2598.33,1842.28 2598.29,1845.67C2597.93,1880.55 2596.97,1974.59 2596.97,1974.59L2644.94,1974.59L2645.67,1785.61C2645.67,1785.61 2637.22,1781.38 2627.47,1776.51C2621.97,1773.76 2618.49,1768.14 2618.49,1761.99C2618.49,1755.84 2621.97,1750.22 2627.47,1747.47C2637.22,1742.59 2645.67,1738.37 2645.67,1738.37L2645.67,1242.06C2645.67,1229.15 2635.2,1218.68 2622.29,1218.68C2601.62,1218.68 2571.61,1218.68 2550.94,1218.68ZM2598.43,1691.12L2598.43,1277.74C2598.43,1274.6 2597.18,1271.6 2594.97,1269.38C2592.75,1267.17 2589.75,1265.92 2586.62,1265.92C2586.62,1265.92 2586.61,1265.92 2586.61,1265.92C2580.09,1265.92 2574.8,1271.21 2574.8,1277.74C2574.8,1347.89 2574.8,1706.78 2574.8,1706.78L2598.43,1691.12Z"/>
                        </g>
                        <g id="s4" serif:id="s" transform="matrix(1.01921,0,0,0.801825,353.746,1495.88)">
                            <path d="M519.685,354.331C519.685,354.331 519.685,183.258 519.685,118.73C519.685,112.3 522.239,106.135 526.785,101.588C531.331,97.042 537.497,94.488 543.926,94.488C564.276,94.488 593.204,94.488 613.554,94.488C626.942,94.488 637.795,105.341 637.795,118.73C637.795,191.258 637.795,401.575 637.795,401.575L614.173,436.392L590.551,354.331L590.551,177.164C590.551,174.032 589.307,171.028 587.092,168.813C584.877,166.599 581.873,165.354 578.741,165.354L578.739,165.354C575.607,165.354 572.603,166.599 570.388,168.813C568.173,171.028 566.929,174.032 566.929,177.164L566.929,354.331C566.929,354.331 637.795,590.551 637.795,590.551C637.795,590.551 637.795,761.624 637.795,826.152C637.795,832.581 635.241,838.747 630.695,843.294C626.149,847.84 619.983,850.394 613.554,850.394C593.204,850.394 564.276,850.394 543.926,850.394C530.538,850.394 519.685,839.54 519.685,826.152C519.685,753.624 519.685,543.307 519.685,543.307L543.307,508.49L566.929,590.551L566.929,767.718C566.929,770.85 568.173,773.854 570.388,776.068C572.603,778.283 575.607,779.528 578.739,779.528L578.741,779.528C581.873,779.528 584.877,778.283 587.092,776.068C589.307,773.854 590.551,770.85 590.551,767.718L590.551,590.551C590.551,590.551 519.685,354.331 519.685,354.331Z"/>
                        </g>
                        <g id="T3" serif:id="T" transform="matrix(1.01921,0,0,0.801825,-2030.51,594.479)">
                            <path d="M3188.21,1242.34C3188.22,1236.07 3185.74,1230.05 3181.3,1225.61C3176.87,1221.17 3170.86,1218.68 3164.59,1218.68C3128.44,1218.68 3059.87,1218.68 3023.7,1218.68C3017.42,1218.68 3011.4,1221.18 3006.97,1225.63C3002.54,1230.08 3000.06,1236.11 3000.08,1242.38C3000.39,1331.84 3001.46,1643.88 3001.46,1643.88L3024.98,1643.88C3031.26,1643.88 3037.29,1641.38 3041.72,1636.92C3046.15,1632.47 3048.63,1626.44 3048.6,1620.16C3048.32,1551.25 3047.5,1352.71 3047.29,1301.64C3047.28,1298.44 3048.54,1295.36 3050.8,1293.09C3053.06,1290.82 3056.14,1289.55 3059.34,1289.55C3059.34,1289.55 3059.34,1289.55 3059.34,1289.55C3065.71,1289.55 3070.87,1294.7 3070.88,1301.07C3070.97,1374.55 3071.45,1777.69 3071.57,1880.07C3071.57,1886.34 3069.09,1892.36 3064.66,1896.79C3060.23,1901.23 3054.21,1903.72 3047.94,1903.72C3039.94,1903.72 3031.02,1903.72 3023.06,1903.72C3010.32,1903.72 3000,1914.04 3000,1926.78C3000,1947.46 3000,1974.59 3000,1974.59L3188.25,1974.59C3188.25,1974.59 3188.25,1948.27 3188.25,1927.71C3188.25,1914.46 3177.51,1903.72 3164.26,1903.72C3156.98,1903.72 3148.99,1903.72 3141.73,1903.72C3135.47,1903.72 3129.46,1901.23 3125.03,1896.8C3120.6,1892.37 3118.11,1886.36 3118.11,1880.1C3118.11,1778.19 3118.11,1377.91 3118.11,1302.01C3118.11,1295.12 3123.69,1289.55 3130.57,1289.55C3130.57,1289.55 3130.57,1289.55 3130.57,1289.55C3136.74,1289.55 3141.75,1294.54 3141.78,1300.71C3141.98,1350.29 3142.81,1551.19 3143.09,1620.35C3143.14,1633.36 3153.7,1643.88 3166.71,1643.88C3177.33,1643.88 3187.52,1643.88 3187.52,1643.88C3187.52,1643.88 3188.06,1331.74 3188.21,1242.34Z"/>
                        </g>
                        <g id="U1" serif:id="U" transform="matrix(1.01921,0,0,0.801825,-1836.42,594.479)">
                            <path d="M3023.62,1218.68L3047.05,1218.68C3060.2,1218.68 3070.87,1229.35 3070.87,1242.5L3070.87,1891.59C3070.87,1898.29 3076.3,1903.72 3083,1903.72L3083,1903.72C3089.35,1903.72 3094.49,1898.58 3094.5,1892.23C3094.58,1813.45 3095.07,1352.91 3095.19,1242.48C3095.2,1229.33 3105.87,1218.68 3119.01,1218.68C3130.46,1218.68 3141.73,1218.68 3141.73,1218.68C3141.73,1218.68 3141.73,1823.01 3141.73,1950.96C3141.73,1957.23 3139.24,1963.24 3134.81,1967.67C3130.38,1972.1 3124.38,1974.59 3118.11,1974.59C3097.01,1974.59 3066.25,1974.59 3045.13,1974.59C3038.85,1974.59 3032.83,1972.09 3028.4,1967.64C3023.97,1963.2 3021.49,1957.17 3021.51,1950.9C3021.88,1822.79 3023.62,1218.68 3023.62,1218.68Z"/>
                        </g>
                        <g id="V" transform="matrix(1.01921,0,0,0.801825,-1836.42,594.479)">
                            <path d="M3165.35,1218.68L3189.03,1218.68C3202.05,1218.68 3212.6,1229.23 3212.6,1242.25L3212.6,1821.42C3212.6,1827.73 3217.72,1832.85 3224.04,1832.85L3224.04,1832.85C3227.27,1832.85 3230.36,1831.57 3232.64,1829.28C3234.92,1827 3236.2,1823.9 3236.19,1820.67C3236.01,1745.48 3235.06,1344.34 3234.82,1242.3C3234.81,1236.04 3237.28,1230.04 3241.7,1225.6C3246.12,1221.17 3252.13,1218.68 3258.39,1218.68C3270.5,1218.68 3282.74,1218.68 3282.74,1218.68C3282.74,1218.68 3283.38,1822.96 3283.46,1896.43C3283.46,1901.18 3282.06,1905.83 3279.41,1909.78C3272.23,1920.53 3256.8,1943.61 3243.96,1962.81C3239.45,1969.56 3231.84,1973.57 3223.72,1973.46C3215.61,1973.35 3208.1,1969.15 3203.77,1962.29C3191.63,1943.05 3177.15,1920.11 3170.49,1909.56C3168.09,1905.74 3166.81,1901.33 3166.8,1896.82C3166.64,1825.1 3165.35,1218.68 3165.35,1218.68Z"/>
                        </g>
                        <g id="W1" serif:id="W" transform="matrix(0.54259,0,0,0.387882,1346.89,1546.91)">
                            <path d="M346.598,63.78L346.598,1578.47C346.598,1591.17 351.185,1603.36 359.349,1612.35C367.514,1621.33 378.588,1626.38 390.135,1626.38L479.714,1626.38C479.714,1626.38 480.07,1624.35 480.724,1620.61C484.863,1596.98 504.052,1580.2 525.906,1581.12C547.761,1582.03 565.74,1600.36 568.238,1624.27C568.382,1625.65 568.458,1626.38 568.458,1626.38L658.038,1626.38C669.585,1626.38 680.658,1621.33 688.823,1612.35C696.988,1603.36 701.575,1591.17 701.575,1578.47L701.575,63.78C701.575,63.78 678.828,63.78 656.367,63.78C632.323,63.78 612.831,85.23 612.831,111.692C612.831,334.534 612.831,1266.47 612.831,1448.85C612.831,1465.99 602.898,1479.88 590.645,1479.88C590.645,1479.88 590.644,1479.88 590.644,1479.88C578.391,1479.88 568.458,1465.99 568.458,1448.85C568.458,1245.58 568.458,112.611 568.458,112.611L479.714,259.104C479.714,259.104 479.714,1258.69 479.714,1448.85C479.714,1465.99 469.781,1479.88 457.528,1479.88C457.528,1479.88 457.528,1479.88 457.528,1479.88C445.275,1479.88 435.342,1465.99 435.342,1448.85C435.342,1266.47 435.342,334.534 435.342,111.692C435.342,85.23 415.85,63.78 391.805,63.78C369.344,63.78 346.598,63.78 346.598,63.78Z"/>
                        </g>
                        <g id="X" transform="matrix(0.54259,0,0,0.387882,1006.11,1546.91)">
                            <path d="M1461.33,723.96C1461.35,736.923 1470.91,747.416 1482.69,747.416C1482.69,747.416 1482.69,747.416 1482.69,747.416C1488.8,747.416 1494.66,744.742 1498.97,739.982C1503.29,735.223 1505.71,728.769 1505.69,722.046C1505.45,598.277 1504.38,63.78 1504.38,63.78L1548.75,63.78C1560.52,63.78 1571.8,68.924 1580.12,78.082C1588.45,87.239 1593.12,99.66 1593.12,112.611C1593.12,276.433 1593.12,796.248 1593.12,796.248C1593.12,796.248 1591.36,796.635 1588.15,797.341C1567.47,801.893 1552.59,821.873 1552.59,845.079C1552.59,868.285 1567.47,888.265 1588.15,892.816C1591.36,893.522 1593.12,893.91 1593.12,893.91L1593.12,1626.38L1504.38,1626.38C1504.38,1626.38 1505.45,1091.88 1505.69,968.112C1505.71,961.388 1503.29,954.935 1498.97,950.175C1494.66,945.416 1488.8,942.741 1482.69,942.741C1482.69,942.741 1482.69,942.741 1482.69,942.741C1470.91,942.741 1461.35,953.235 1461.33,966.197C1461.09,1086.26 1460,1626.38 1460,1626.38C1460,1626.38 1437.82,1626.38 1415.63,1626.38C1403.86,1626.38 1392.58,1621.23 1384.26,1612.08C1375.93,1602.92 1371.26,1590.5 1371.26,1577.55C1371.26,1413.72 1371.26,893.91 1371.26,893.91C1371.26,893.91 1372.72,893.667 1375.44,893.214C1397.07,889.616 1413.07,869.155 1413.07,845.079C1413.07,821.002 1397.07,800.542 1375.44,796.943C1372.72,796.491 1371.26,796.248 1371.26,796.248L1372.63,63.78L1460,63.78C1460,63.78 1461.09,603.901 1461.33,723.96Z"/>
                        </g>
                        <g id="Y" transform="matrix(1.01921,0,0,0.801825,-1836.42,594.479)">
                            <path d="M3661.42,1218.68C3661.42,1218.68 3661.42,1735.64 3661.42,1855.5C3661.42,1862.02 3664.01,1868.28 3668.62,1872.89C3673.24,1877.51 3679.49,1880.1 3686.02,1880.1C3693.78,1880.1 3702.31,1880.1 3709.9,1880.1C3715.84,1880.1 3721.53,1882.46 3725.73,1886.65C3729.93,1890.85 3732.28,1896.54 3732.28,1902.48C3732.28,1903.27 3732.28,1903.72 3732.28,1903.72L3661.42,1903.72C3661.42,1903.72 3661.14,1930.48 3660.93,1951.11C3660.87,1957.32 3663.29,1963.29 3667.65,1967.7C3672.01,1972.11 3677.96,1974.59 3684.16,1974.59C3704.97,1974.59 3735.19,1974.59 3756.01,1974.59C3762.25,1974.59 3768.23,1972.11 3772.64,1967.7C3777.05,1963.29 3779.53,1957.31 3779.53,1951.07C3779.53,1823.34 3779.53,1218.68 3779.53,1218.68L3732.28,1218.68C3732.28,1218.68 3732.28,1714.15 3732.28,1797.42C3732.28,1800.55 3731.04,1803.56 3728.82,1805.77C3726.61,1807.99 3723.61,1809.23 3720.47,1809.23C3720.47,1809.23 3720.47,1809.23 3720.47,1809.23C3717.34,1809.23 3714.34,1807.99 3712.12,1805.77C3709.91,1803.56 3708.66,1800.55 3708.66,1797.42C3708.66,1725 3708.66,1340.81 3708.66,1241.91C3708.66,1235.75 3706.21,1229.84 3701.86,1225.49C3697.5,1221.13 3691.59,1218.68 3685.43,1218.68C3673.49,1218.68 3661.42,1218.68 3661.42,1218.68Z"/>
                        </g>
                        <g id="P" transform="matrix(1.01921,0,0,0.801825,-895.973,-295.736)">
                            <path d="M1440.94,2919.47C1440.94,2932.51 1430.37,2943.09 1417.32,2943.09C1396.71,2943.09 1370.08,2943.09 1370.08,2943.09L1370.08,3084.82C1370.08,3084.82 1358.27,3084.82 1346.46,3084.82C1333.41,3084.82 1322.84,3074.25 1322.84,3061.2L1322.84,2328.92L1417.32,2328.92C1430.37,2328.92 1440.94,2339.49 1440.94,2352.54C1440.94,2450.19 1440.94,2821.82 1440.94,2919.47ZM1381.89,2872.22C1385.02,2872.22 1388.03,2870.98 1390.24,2868.76C1392.46,2866.55 1393.7,2863.55 1393.7,2860.41C1393.7,2794.94 1393.7,2477.07 1393.7,2411.59C1393.7,2408.46 1392.46,2405.46 1390.24,2403.24C1388.03,2401.03 1385.02,2399.78 1381.89,2399.78C1381.89,2399.78 1381.89,2399.78 1381.89,2399.78C1378.76,2399.78 1375.75,2401.03 1373.54,2403.24C1371.32,2405.46 1370.08,2408.46 1370.08,2411.59C1370.08,2477.07 1370.08,2794.94 1370.08,2860.41C1370.08,2863.55 1371.32,2866.55 1373.54,2868.76C1375.75,2870.98 1378.76,2872.22 1381.89,2872.22C1381.89,2872.22 1381.89,2872.22 1381.89,2872.22Z"/>
                        </g>
                        <g id="Z" transform="matrix(1.0177,0,0,0.800632,1944.39,1496)">
                            <path d="M153.542,165.354C150.41,165.354 147.406,166.599 145.191,168.813C142.977,171.028 141.732,174.032 141.732,177.164L141.732,354.331L128.234,418.448L94.488,403.021C94.488,403.021 94.488,181.699 94.488,117.688C94.488,111.535 96.932,105.634 101.283,101.283C105.634,96.932 111.535,94.488 117.688,94.488C138.427,94.488 168.659,94.488 189.398,94.488C195.551,94.488 201.452,96.932 205.803,101.283C210.154,105.634 212.598,111.535 212.598,117.688C212.598,181.812 212.598,356.741 212.598,356.741L185.602,449.301L212.598,449.301C212.598,449.301 212.598,495.581 212.598,495.581L172.103,495.581L141.732,590.551L141.732,767.718C141.732,770.85 142.977,773.854 145.191,776.068C147.406,778.283 150.41,779.528 153.542,779.528L153.544,779.528C156.677,779.528 159.68,778.283 161.895,776.068C164.11,773.854 165.354,770.85 165.354,767.718L165.354,590.551L178.853,526.434L212.598,541.861C212.598,541.861 212.598,763.182 212.598,827.194C212.598,833.347 210.154,839.248 205.803,843.599C201.452,847.949 195.551,850.394 189.398,850.394C168.659,850.394 138.427,850.394 117.688,850.394C111.535,850.394 105.634,847.949 101.283,843.599C96.932,839.248 94.488,833.347 94.488,827.194L94.488,588.141L121.485,495.581L94.488,495.581C94.488,495.581 94.488,449.301 94.488,449.301L134.983,449.301L165.354,354.331L165.354,177.164C165.354,174.032 164.11,171.028 161.895,168.813C159.68,166.599 156.677,165.354 153.544,165.354L153.542,165.354Z"/>
                        </g>
                        <g id="A7" serif:id="A" transform="matrix(0.54259,0,0,0.387882,-1057.23,902.923)">
                            <path d="M2785.67,63.78C2797.49,63.78 2808.82,68.945 2817.18,78.14C2825.53,87.335 2830.22,99.806 2830.22,112.81C2830.22,377.747 2830.22,1626.38 2830.22,1626.38C2830.22,1626.38 2808.84,1626.38 2787.22,1626.38C2762.72,1626.38 2742.85,1604.52 2742.85,1577.55C2742.85,1421.14 2742.85,942.741 2742.85,942.741L2698.48,942.741L2698.48,1626.38L2653.25,1626.38C2641.35,1626.38 2629.93,1621.17 2621.51,1611.91C2613.09,1602.65 2608.37,1590.08 2608.37,1576.98C2608.37,1342.99 2608.37,347.64 2608.37,113.324C2608.37,85.961 2628.52,63.78 2653.39,63.78C2691.96,63.78 2747.23,63.78 2785.67,63.78ZM2742.85,234.687C2742.85,221.203 2732.92,210.273 2720.66,210.273C2720.66,210.273 2720.66,210.273 2720.66,210.273C2708.41,210.273 2698.48,221.203 2698.48,234.687C2698.48,345.554 2698.48,796.248 2698.48,796.248L2742.85,796.248C2742.85,796.248 2742.85,345.554 2742.85,234.687Z"/>
                        </g>
                        <g id="N" transform="matrix(0.800632,0,0,0.800632,-702.677,1496.9)">
                            <path d="M1086.61,850.394C1086.61,850.394 1086.61,282.082 1086.61,131.003C1086.61,121.319 1090.46,112.031 1097.31,105.183C1104.16,98.335 1113.44,94.488 1123.13,94.488C1129.36,94.488 1133.86,94.488 1133.86,94.488L1157.48,283.465L1181.1,496.063L1181.1,94.488L1228.35,94.488C1228.35,94.488 1228.35,662.8 1228.35,813.879C1228.35,823.563 1224.5,832.851 1217.65,839.699C1210.8,846.547 1201.52,850.394 1191.83,850.394C1185.61,850.394 1181.1,850.394 1181.1,850.394L1157.48,661.417L1133.86,448.819L1133.86,850.394L1086.61,850.394Z"/>
                        </g>
                    </g>
                </g>
            </g>
        </g>
        <g id="Layer-2" serif:id="Layer 2">
        </g>
        <g id="Layer-21" serif:id="Layer 2">
        </g>
        <g id="Layer-22" serif:id="Layer 2">
        </g>
        <g id="Layer-23" serif:id="Layer 2">
        </g>
        <g id="Layer-24" serif:id="Layer 2">
        </g>
    </g>
</svg>
